<svg version="1.1" xmlns="http://www.w3.org/2000/svg" x="0px" y="0px"  viewBox="654.5 200.5 630 390" :class="kb_config" id="keyboard">
	<!-- <style type="text/css">
    rect{fill:url(#svgGradient)}
  </style> -->
	<defs>
    <linearGradient id="svgGradient">
      <stop offset="5%" stop-color="#ff8a00" />
      <stop offset="130%" stop-color="#e26565" />
    </linearGradient>
  </defs>
<g id="keyboard">
	<g>
		<g>
			<path fill="none" stroke="#7D7D7D" stroke-width="0.6" stroke-miterlimit="10" d="M1175.622,487.085H757.519
				c-4.09,0-7.271-3.182-7.271-7.271V314.39c0-4.09,3.181-7.271,7.271-7.271h418.104c4.09,0,7.272,3.181,7.272,7.271v165.424
				C1183.349,483.903,1179.713,487.085,1175.622,487.085z"/>
			<g>
				<path fill="none" stroke="#7D7D7D" stroke-width="0.6" stroke-miterlimit="10" d="M777.969,365.744h-21.357
					c-0.911,0-1.818-0.909-1.818-1.817v-21.36c0-0.909,0.907-1.817,1.818-1.817h21.357c0.91,0,1.818,0.908,1.818,1.817v20.906
					C779.787,364.835,778.878,365.744,777.969,365.744z"/>
				<path fill="none" stroke="#7D7D7D" stroke-width="0.6" stroke-miterlimit="10" d="M807.51,365.744h-21.36
					c-0.908,0-1.818-0.909-1.818-1.817v-21.36c0-0.909,0.91-1.817,1.818-1.817h21.36c0.908,0,1.817,0.908,1.817,1.817v20.906
					C809.782,364.835,808.872,365.744,807.51,365.744z"/>
				<path fill="none" stroke="#7D7D7D" stroke-width="0.6" stroke-miterlimit="10" d="M837.504,365.744h-21.36
					c-0.907,0-1.816-0.909-1.816-1.817v-21.36c0-0.909,0.909-1.817,1.816-1.817h21.36c0.909,0,1.817,0.908,1.817,1.817v20.906
					C839.321,364.835,838.413,365.744,837.504,365.744z"/>
				<path fill="none" stroke="#7D7D7D" stroke-width="0.6" stroke-miterlimit="10" d="M867.044,365.744h-21.36
					c-0.908,0-1.817-0.909-1.817-1.817v-21.36c0-0.909,0.908-1.817,1.817-1.817h21.36c0.908,0,1.817,0.908,1.817,1.817v20.906
					C868.862,364.835,867.952,365.744,867.044,365.744z"/>
				<path fill="none" stroke="#7D7D7D" stroke-width="0.6" stroke-miterlimit="10" d="M896.584,365.744h-21.359
					c-0.908,0-1.817-0.909-1.817-1.817v-21.36c0-0.909,0.909-1.817,1.817-1.817h21.359c0.909,0,1.818,0.908,1.818,1.817v20.906
					C898.856,364.835,897.946,365.744,896.584,365.744z"/>
				<path fill="none" stroke="#7D7D7D" stroke-width="0.6" stroke-miterlimit="10" d="M926.577,365.744h-21.358
					c-0.908,0-1.817-0.909-1.817-1.817v-21.36c0-0.909,0.909-1.817,1.817-1.817h21.358c0.91,0,1.819,0.908,1.819,1.817v20.906
					C928.396,364.835,927.487,365.744,926.577,365.744z"/>
				<path fill="none" stroke="#7D7D7D" stroke-width="0.6" stroke-miterlimit="10" d="M956.118,365.744H934.76
					c-0.91,0-1.819-0.909-1.819-1.817v-21.36c0-0.909,0.909-1.817,1.819-1.817h21.358c0.909,0,1.817,0.908,1.817,1.817v20.906
					C957.936,364.835,957.027,365.744,956.118,365.744z"/>
				<path fill="none" stroke="#7D7D7D" stroke-width="0.6" stroke-miterlimit="10" d="M985.658,365.744H964.3
					c-0.909,0-1.818-0.909-1.818-1.817v-21.36c0-0.909,0.909-1.817,1.818-1.817h21.358c0.908,0,1.818,0.908,1.818,1.817v20.906
					C987.93,364.835,987.021,365.744,985.658,365.744z"/>
				<path fill="none" stroke="#7D7D7D" stroke-width="0.6" stroke-miterlimit="10" d="M1015.652,365.744h-21.813
					c-0.908,0-1.817-0.909-1.817-1.817v-21.36c0-0.909,0.909-1.817,1.817-1.817h21.358c0.91,0,1.818,0.908,1.818,1.817v20.906
					C1017.471,364.835,1016.561,365.744,1015.652,365.744z"/>
				<path fill="none" stroke="#7D7D7D" stroke-width="0.6" stroke-miterlimit="10" d="M1045.193,365.744h-21.359
					c-0.91,0-1.818-0.909-1.818-1.817v-21.36c0-0.909,0.908-1.817,1.818-1.817h21.359c0.908,0,1.816,0.908,1.816,1.817v20.906
					C1047.01,364.835,1046.102,365.744,1045.193,365.744z"/>
				<path fill="none" stroke="#7D7D7D" stroke-width="0.6" stroke-miterlimit="10" d="M1074.733,365.744h-21.36
					c-0.908,0-1.817-0.909-1.817-1.817v-21.36c0-0.909,0.909-1.817,1.817-1.817h21.36c0.907,0,1.817,0.908,1.817,1.817v20.906
					C1077.005,364.835,1076.097,365.744,1074.733,365.744z"/>
				<path fill="none" stroke="#7D7D7D" stroke-width="0.6" stroke-miterlimit="10" d="M1104.272,365.744h-21.359
					c-0.909,0-1.817-0.909-1.817-1.817v-21.36c0-0.909,0.908-1.817,1.817-1.817h21.359c0.909,0,1.819,0.908,1.819,1.817v20.906
					C1106.545,364.835,1105.637,365.744,1104.272,365.744z"/>
				<path fill="none" stroke="#7D7D7D" stroke-width="0.6" stroke-miterlimit="10" d="M1134.268,365.744h-21.36
					c-0.908,0-1.817-0.909-1.817-1.817v-21.36c0-0.909,0.909-1.817,1.817-1.817h21.36c0.908,0,1.818,0.908,1.818,1.817v20.906
					C1136.086,364.835,1135.176,365.744,1134.268,365.744z"/>
			</g>
			<path fill="none" stroke="#7D7D7D" stroke-width="0.6" stroke-miterlimit="10" d="M1176.529,365.744h-34.536
				c-0.909,0-1.82-0.909-1.82-1.817v-21.36c0-0.909,0.911-1.817,1.82-1.817h34.536c0.912,0,1.82,0.908,1.82,1.817v20.906
				C1178.804,364.835,1177.896,365.744,1176.529,365.744z"/>
			<g>
				<path id="ESC" fill="none" stroke="#7D7D7D" stroke-width="0.6" stroke-miterlimit="10" d="M790.694,336.657h-34.083
					c-0.911,0-1.818-0.907-1.818-1.816v-20.905c0-0.909,0.907-1.818,1.818-1.818h34.537c0.908,0,1.818,0.909,1.818,1.818v20.905
					C792.967,335.75,792.057,336.657,790.694,336.657z"/>
				<g>
					<path fill="none" stroke="#7D7D7D" stroke-width="0.6" stroke-miterlimit="10" d="M820.234,336.657h-21.36
						c-0.908,0-1.817-0.907-1.817-1.816v-20.905c0-0.909,0.909-1.818,1.817-1.818h21.36c0.909,0,1.816,0.909,1.816,1.818v20.905
						C822.507,335.75,821.598,336.657,820.234,336.657z"/>
					<path fill="none" stroke="#7D7D7D" stroke-width="0.6" stroke-miterlimit="10" d="M850.229,336.657h-21.36
						c-0.909,0-1.818-0.907-1.818-1.816v-20.905c0-0.909,0.909-1.818,1.818-1.818h21.36c0.909,0,1.816,0.909,1.816,1.818v20.905
						C852.046,335.75,851.139,336.657,850.229,336.657z"/>
					<path fill="none" stroke="#7D7D7D" stroke-width="0.6" stroke-miterlimit="10" d="M879.77,336.657h-21.361
						c-0.908,0-1.817-0.907-1.817-1.816v-20.905c0-0.909,0.909-1.818,1.817-1.818h21.361c0.907,0,1.817,0.909,1.817,1.818v20.905
						C882.041,335.75,881.132,336.657,879.77,336.657z"/>
					<path fill="none" stroke="#7D7D7D" stroke-width="0.6" stroke-miterlimit="10" d="M909.309,336.657h-21.36
						c-0.908,0-1.816-0.907-1.816-1.816v-20.905c0-0.909,0.908-1.818,1.816-1.818h21.36c0.909,0,1.818,0.909,1.818,1.818v20.905
						C911.582,335.75,910.672,336.657,909.309,336.657z"/>
					<path fill="none" stroke="#7D7D7D" stroke-width="0.6" stroke-miterlimit="10" d="M939.303,336.657h-21.359
						c-0.91,0-1.817-0.907-1.817-1.816v-20.905c0-0.909,0.907-1.818,1.817-1.818h21.359c0.91,0,1.817,0.909,1.817,1.818v20.905
						C941.12,335.75,940.213,336.657,939.303,336.657z"/>
					<path fill="none" stroke="#7D7D7D" stroke-width="0.6" stroke-miterlimit="10" d="M968.843,336.657h-21.358
						c-0.909,0-1.82-0.907-1.82-1.816v-20.905c0-0.909,0.911-1.818,1.82-1.818h21.358c0.909,0,1.818,0.909,1.818,1.818v20.905
						C970.661,335.75,969.752,336.657,968.843,336.657z"/>
					<path fill="none" stroke="#7D7D7D" stroke-width="0.6" stroke-miterlimit="10" d="M998.383,336.657h-21.359
						c-0.908,0-1.817-0.907-1.817-1.816v-20.905c0-0.909,0.909-1.818,1.817-1.818h21.359c0.909,0,1.818,0.909,1.818,1.818v20.905
						C1000.655,335.75,999.746,336.657,998.383,336.657z"/>
					<path fill="none" stroke="#7D7D7D" stroke-width="0.6" stroke-miterlimit="10" d="M1028.378,336.657h-21.36
						c-0.909,0-1.817-0.907-1.817-1.816v-20.905c0-0.909,0.908-1.818,1.817-1.818h21.36c0.908,0,1.816,0.909,1.816,1.818v20.905
						C1030.194,335.75,1029.286,336.657,1028.378,336.657z"/>
					<path fill="none" stroke="#7D7D7D" stroke-width="0.6" stroke-miterlimit="10" d="M1057.917,336.657h-21.358
						c-0.91,0-1.819-0.907-1.819-1.816v-20.905c0-0.909,0.909-1.818,1.819-1.818h21.358c0.908,0,1.818,0.909,1.818,1.818v20.905
						C1059.735,335.75,1058.825,336.657,1057.917,336.657z"/>
					<path fill="none" stroke="#7D7D7D" stroke-width="0.6" stroke-miterlimit="10" d="M1087.458,336.657h-21.361
						c-0.907,0-1.816-0.907-1.816-1.816v-20.905c0-0.909,0.909-1.818,1.816-1.818h21.361c0.909,0,1.817,0.909,1.817,1.818v20.905
						C1089.729,335.75,1088.821,336.657,1087.458,336.657z"/>
					<path fill="none" stroke="#7D7D7D" stroke-width="0.6" stroke-miterlimit="10" d="M1117.452,336.657h-21.36
						c-0.908,0-1.817-0.907-1.817-1.816v-20.905c0-0.909,0.908-1.818,1.817-1.818h21.36c0.908,0,1.817,0.909,1.817,1.818v20.905
						C1119.27,335.75,1118.36,336.657,1117.452,336.657z"/>
					<path fill="none" stroke="#7D7D7D" stroke-width="0.6" stroke-miterlimit="10" d="M1146.992,336.657h-21.36
						c-0.909,0-1.817-0.907-1.817-1.816v-20.905c0-0.909,0.908-1.818,1.817-1.818h21.36c0.908,0,1.818,0.909,1.818,1.818v20.905
						C1148.811,335.75,1147.9,336.657,1146.992,336.657z"/>
					<path fill="none" stroke="#7D7D7D" stroke-width="0.6" stroke-miterlimit="10" d="M1176.529,336.657h-21.357
						c-0.909,0-1.816-0.907-1.816-1.816v-20.905c0-0.909,0.907-1.818,1.816-1.818h21.357c0.912,0,1.82,0.909,1.82,1.818v20.905
						C1178.804,335.75,1177.896,336.657,1176.529,336.657z"/>
				</g>
			</g>
			<path fill="none" stroke="#7D7D7D" stroke-width="0.6" stroke-miterlimit="10" d="M790.694,394.83h-34.083
				c-0.911,0-1.818-0.909-1.818-1.817v-20.906c0-0.908,0.907-1.817,1.818-1.817h34.537c0.908,0,1.818,0.909,1.818,1.817v20.906
				C792.967,393.921,792.057,394.83,790.694,394.83z"/>
			<path fill="none" stroke="#7D7D7D" stroke-width="0.6" stroke-miterlimit="10" d="M800.692,424.37h-44.081
				c-0.911,0-1.818-0.911-1.818-1.818v-20.905c0-0.908,0.907-1.817,1.818-1.817h44.081c0.908,0,1.817,0.909,1.817,1.817v20.905
				C802.51,423.459,801.601,424.37,800.692,424.37z"/>
			<g>
				<path id="_x3C_Path_x3E_" fill="none" stroke="#7D7D7D" stroke-width="0.6" stroke-miterlimit="10" d="M820.234,394.83h-21.36
					c-0.908,0-1.817-0.909-1.817-1.817v-20.906c0-0.908,0.909-1.817,1.817-1.817h21.36c0.909,0,1.816,0.909,1.816,1.817v20.906
					C822.507,393.921,821.598,394.83,820.234,394.83z"/>
				<path fill="none" stroke="#7D7D7D" stroke-width="0.6" stroke-miterlimit="10" d="M850.229,394.83h-21.36
					c-0.909,0-1.818-0.909-1.818-1.817v-20.906c0-0.908,0.909-1.817,1.818-1.817h21.36c0.909,0,1.816,0.909,1.816,1.817v20.906
					C852.046,393.921,851.139,394.83,850.229,394.83z"/>
				<path id="e" fill="none" stroke="#7D7D7D" stroke-width="0.6" stroke-miterlimit="10" d="M879.77,394.83h-21.361
					c-0.908,0-1.817-0.909-1.817-1.817v-20.906c0-0.908,0.909-1.817,1.817-1.817h21.361c0.907,0,1.817,0.909,1.817,1.817v20.906
					C882.041,393.921,881.132,394.83,879.77,394.83z"/>
				<path fill="none" stroke="#7D7D7D" stroke-width="0.6" stroke-miterlimit="10" d="M909.309,394.83h-21.36
					c-0.908,0-1.816-0.909-1.816-1.817v-20.906c0-0.908,0.908-1.817,1.816-1.817h21.36c0.909,0,1.818,0.909,1.818,1.817v20.906
					C911.582,393.921,910.672,394.83,909.309,394.83z"/>
				<path fill="none" stroke="#7D7D7D" stroke-width="0.6" stroke-miterlimit="10" d="M939.303,394.83h-21.359
					c-0.91,0-1.817-0.909-1.817-1.817v-20.906c0-0.908,0.907-1.817,1.817-1.817h21.359c0.91,0,1.817,0.909,1.817,1.817v20.906
					C941.12,393.921,940.213,394.83,939.303,394.83z"/>
				<path fill="none" stroke="#7D7D7D" stroke-width="0.6" stroke-miterlimit="10" d="M968.843,394.83h-21.358
					c-0.909,0-1.82-0.909-1.82-1.817v-20.906c0-0.908,0.911-1.817,1.82-1.817h21.358c0.909,0,1.818,0.909,1.818,1.817v20.906
					C970.661,393.921,969.752,394.83,968.843,394.83z"/>
				<path fill="none" stroke="#7D7D7D" stroke-width="0.6" stroke-miterlimit="10" d="M998.383,394.83h-21.359
					c-0.908,0-1.817-0.909-1.817-1.817v-20.906c0-0.908,0.909-1.817,1.817-1.817h21.359c0.909,0,1.818,0.909,1.818,1.817v20.906
					C1000.655,393.921,999.746,394.83,998.383,394.83z"/>
				<path fill="none" stroke="#7D7D7D" stroke-width="0.6" stroke-miterlimit="10" d="M1028.378,394.83h-21.36
					c-0.909,0-1.817-0.909-1.817-1.817v-20.906c0-0.908,0.908-1.817,1.817-1.817h21.36c0.908,0,1.816,0.909,1.816,1.817v20.906
					C1030.194,393.921,1029.286,394.83,1028.378,394.83z"/>
				<path fill="none" stroke="#7D7D7D" stroke-width="0.6" stroke-miterlimit="10" d="M1057.917,394.83h-21.358
					c-0.91,0-1.819-0.909-1.819-1.817v-20.906c0-0.908,0.909-1.817,1.819-1.817h21.358c0.908,0,1.818,0.909,1.818,1.817v20.906
					C1059.735,393.921,1058.825,394.83,1057.917,394.83z"/>
				<path fill="none" stroke="#7D7D7D" stroke-width="0.6" stroke-miterlimit="10" d="M1087.458,394.83h-21.361
					c-0.907,0-1.816-0.909-1.816-1.817v-20.906c0-0.908,0.909-1.817,1.816-1.817h21.361c0.909,0,1.817,0.909,1.817,1.817v20.906
					C1089.729,393.921,1088.821,394.83,1087.458,394.83z"/>
				<path fill="none" stroke="#7D7D7D" stroke-width="0.6" stroke-miterlimit="10" d="M1117.452,394.83h-21.36
					c-0.908,0-1.817-0.909-1.817-1.817v-20.906c0-0.908,0.908-1.817,1.817-1.817h21.36c0.908,0,1.817,0.909,1.817,1.817v20.906
					C1119.27,393.921,1118.36,394.83,1117.452,394.83z"/>
				<path fill="none" stroke="#7D7D7D" stroke-width="0.6" stroke-miterlimit="10" d="M1146.992,394.83h-21.36
					c-0.909,0-1.817-0.909-1.817-1.817v-20.906c0-0.908,0.908-1.817,1.817-1.817h21.36c0.908,0,1.818,0.909,1.818,1.817v20.906
					C1148.811,393.921,1147.9,394.83,1146.992,394.83z"/>
			</g>
			<path id="a" fill="none" stroke="#7D7D7D" stroke-width="0.6" stroke-miterlimit="10" d="M830.231,424.37h-21.359
				c-0.908,0-1.816-0.911-1.816-1.818v-20.905c0-0.908,0.908-1.817,1.816-1.817h21.359c0.909,0,1.818,0.909,1.818,1.817v20.905
				C832.505,423.459,831.596,424.37,830.231,424.37z"/>
			<path fill="none" stroke="#7D7D7D" stroke-width="0.6" stroke-miterlimit="10" d="M785.695,453.455h-29.084
				c-0.911,0-1.818-0.909-1.818-1.818v-20.904c0-0.909,0.907-1.817,1.818-1.817h29.084c0.909,0,1.818,0.908,1.818,1.817v20.904
				C787.514,452.546,786.604,453.455,785.695,453.455z"/>
			<path fill="none" stroke="#7D7D7D" stroke-width="0.6" stroke-miterlimit="10" d="M859.772,424.37h-21.359
				c-0.909,0-1.818-0.911-1.818-1.818v-20.905c0-0.908,0.91-1.817,1.818-1.817h21.359c0.909,0,1.816,0.909,1.816,1.817v20.905
				C862.045,423.459,861.136,424.37,859.772,424.37z"/>
			<path id="d" fill="none" stroke="#7D7D7D" stroke-width="0.6" stroke-miterlimit="10" d="M889.767,424.37h-21.359
				c-0.908,0-1.818-0.911-1.818-1.818v-20.905c0-0.908,0.91-1.817,1.818-1.817h21.359c0.908,0,1.817,0.909,1.817,1.817v20.905
				C891.584,423.459,890.675,424.37,889.767,424.37z"/>
			<path fill="none" stroke="#7D7D7D" stroke-width="0.6" stroke-miterlimit="10" d="M919.306,424.37h-21.359
				c-0.908,0-1.816-0.911-1.816-1.818v-20.905c0-0.908,0.908-1.817,1.816-1.817h21.359c0.909,0,1.819,0.909,1.819,1.817v20.905
				C921.125,423.459,920.215,424.37,919.306,424.37z"/>
			<path fill="none" stroke="#7D7D7D" stroke-width="0.6" stroke-miterlimit="10" d="M948.847,424.37h-21.359
				c-0.91,0-1.818-0.911-1.818-1.818v-20.905c0-0.908,0.908-1.817,1.818-1.817h21.359c0.909,0,1.816,0.909,1.816,1.817v20.905
				C951.12,423.459,950.209,424.37,948.847,424.37z"/>
			<path id="h" fill="none" stroke="#7D7D7D" stroke-width="0.6" stroke-miterlimit="10" d="M978.841,424.37h-21.359
				c-0.909,0-1.818-0.911-1.818-1.818v-20.905c0-0.908,0.909-1.817,1.818-1.817h21.359c0.91,0,1.818,0.909,1.818,1.817v20.905
				C980.659,423.459,979.751,424.37,978.841,424.37z"/>
			<path fill="none" stroke="#7D7D7D" stroke-width="0.6" stroke-miterlimit="10" d="M1008.381,424.37h-21.36
				c-0.908,0-1.817-0.911-1.817-1.818v-20.905c0-0.908,0.909-1.817,1.817-1.817h21.36c0.91,0,1.818,0.909,1.818,1.817v20.905
				C1010.199,423.459,1009.291,424.37,1008.381,424.37z"/>
			<path fill="none" stroke="#7D7D7D" stroke-width="0.6" stroke-miterlimit="10" d="M1037.922,424.37h-21.361
				c-0.908,0-1.817-0.911-1.817-1.818v-20.905c0-0.908,0.909-1.817,1.817-1.817h21.361c0.908,0,1.817,0.909,1.817,1.817v20.905
				C1040.193,423.459,1039.284,424.37,1037.922,424.37z"/>
			<path id="l" fill="none" stroke="#7D7D7D" stroke-width="0.6" stroke-miterlimit="10" d="M1067.916,424.37h-21.361
				c-0.907,0-1.815-0.911-1.815-1.818v-20.905c0-0.908,0.908-1.817,1.815-1.817h21.361c0.908,0,1.818,0.909,1.818,1.817v20.905
				C1069.734,423.459,1068.824,424.37,1067.916,424.37z"/>
			<path fill="none" stroke="#7D7D7D" stroke-width="0.6" stroke-miterlimit="10" d="M1097.455,424.37h-21.358
				c-0.911,0-1.817-0.911-1.817-1.818v-20.905c0-0.908,0.906-1.817,1.817-1.817h21.358c0.91,0,1.818,0.909,1.818,1.817v20.905
				C1099.273,423.459,1098.365,424.37,1097.455,424.37z"/>
			<path fill="none" stroke="#7D7D7D" stroke-width="0.6" stroke-miterlimit="10" d="M1126.996,424.37h-21.359
				c-0.909,0-1.818-0.911-1.818-1.818v-20.905c0-0.908,0.908-1.817,1.818-1.817h21.359c0.908,0,1.818,0.909,1.818,1.817v20.905
				C1129.268,423.459,1128.358,424.37,1126.996,424.37z"/>
			<path fill="none" stroke="#7D7D7D" stroke-width="0.6" stroke-miterlimit="10" d="M1176.529,369.834h-21.357
				c-1.362,0-2.271,0.91-2.271,2.272v20.906c0,1.362,0.909,2.271,2.271,2.271h7.727v27.268c0,1.364,0.908,2.272,2.273,2.272h11.359
				c1.365,0,2.273-0.908,2.273-2.272v-27.268v-22.724C1178.804,370.744,1177.896,369.834,1176.529,369.834z"/>
			<path fill="none" stroke="#7D7D7D" stroke-width="0.6" stroke-miterlimit="10" d="M1156.989,424.37h-21.359
				c-0.907,0-1.817-0.911-1.817-1.818v-20.905c0-0.908,0.91-1.817,1.817-1.817h21.359c0.91,0,1.819,0.909,1.819,1.817v20.905
				C1158.809,423.459,1157.899,424.37,1156.989,424.37z"/>
			<path fill="none" stroke="#7D7D7D" stroke-width="0.6" stroke-miterlimit="10" d="M815.235,453.455h-21.36
				c-0.908,0-1.818-0.909-1.818-1.818v-20.904c0-0.909,0.91-1.817,1.818-1.817h21.36c0.907,0,1.818,0.908,1.818,1.817v20.904
				C817.508,452.546,816.6,453.455,815.235,453.455z"/>
			<path fill="none" stroke="#7D7D7D" stroke-width="0.6" stroke-miterlimit="10" d="M845.23,453.455h-21.36
				c-0.909,0-1.818-0.909-1.818-1.818v-20.904c0-0.909,0.909-1.817,1.818-1.817h21.36c0.907,0,1.816,0.908,1.816,1.817v20.904
				C847.048,452.546,846.138,453.455,845.23,453.455z"/>
			<path fill="none" stroke="#7D7D7D" stroke-width="0.6" stroke-miterlimit="10" d="M874.77,453.455H853.41
				c-0.909,0-1.818-0.909-1.818-1.818v-20.904c0-0.909,0.909-1.817,1.818-1.817h21.359c0.909,0,1.818,0.908,1.818,1.817v20.904
				C877.042,452.546,876.133,453.455,874.77,453.455z"/>
			<path fill="none" stroke="#7D7D7D" stroke-width="0.6" stroke-miterlimit="10" d="M904.31,453.455h-21.36
				c-0.908,0-1.817-0.909-1.817-1.818v-20.904c0-0.909,0.909-1.817,1.817-1.817h21.36c0.908,0,1.817,0.908,1.817,1.817v20.904
				C906.582,452.546,905.673,453.455,904.31,453.455z"/>
			<path fill="none" stroke="#7D7D7D" stroke-width="0.6" stroke-miterlimit="10" d="M777.969,482.54h-21.357
				c-0.911,0-1.818-0.909-1.818-1.817v-20.904c0-0.91,0.907-1.818,1.818-1.818h21.357c0.91,0,1.818,0.908,1.818,1.818v20.904
				C779.787,481.631,778.878,482.54,777.969,482.54z"/>
			<path fill="none" stroke="#7D7D7D" stroke-width="0.6" stroke-miterlimit="10" d="M807.51,482.54h-21.36
				c-0.908,0-1.818-0.909-1.818-1.817v-20.904c0-0.91,0.91-1.818,1.818-1.818h21.36c0.908,0,1.817,0.908,1.817,1.818v20.904
				C809.782,481.631,808.872,482.54,807.51,482.54z"/>
			<path fill="none" stroke="#7D7D7D" stroke-width="0.6" stroke-miterlimit="10" d="M837.504,482.54h-21.36
				c-0.907,0-1.816-0.909-1.816-1.817v-20.904c0-0.91,0.909-1.818,1.816-1.818h21.36c0.909,0,1.817,0.908,1.817,1.818v20.904
				C839.321,481.631,838.413,482.54,837.504,482.54z"/>
			<path fill="none" stroke="#7D7D7D" stroke-width="0.6" stroke-miterlimit="10" d="M874.77,482.54h-29.086
				c-0.908,0-1.817-0.909-1.817-1.817v-20.904c0-0.91,0.908-1.818,1.817-1.818h29.086c0.909,0,1.818,0.908,1.818,1.818v20.904
				C877.042,481.631,876.133,482.54,874.77,482.54z"/>
			<path id="Space" fill="none" stroke="#7D7D7D" stroke-width="0.6" stroke-miterlimit="10" d="M1022.468,482.54H882.949
				c-0.908,0-1.817-0.909-1.817-1.817v-20.904c0-0.91,0.909-1.818,1.817-1.818h139.519c0.911,0,1.82,0.908,1.82,1.818v20.904
				C1024.288,481.631,1023.379,482.54,1022.468,482.54z"/>
			<path fill="none" stroke="#7D7D7D" stroke-width="0.6" stroke-miterlimit="10" d="M934.305,453.455h-21.36
				c-0.909,0-1.817-0.909-1.817-1.818v-20.904c0-0.909,0.908-1.817,1.817-1.817h21.36c0.908,0,1.817,0.908,1.817,1.817v20.904
				C936.122,452.546,935.213,453.455,934.305,453.455z"/>
			<path fill="none" stroke="#7D7D7D" stroke-width="0.6" stroke-miterlimit="10" d="M963.845,453.455h-21.36
				c-0.908,0-1.818-0.909-1.818-1.818v-20.904c0-0.909,0.91-1.817,1.818-1.817h21.36c0.908,0,1.817,0.908,1.817,1.817v20.904
				C965.662,452.546,964.753,453.455,963.845,453.455z"/>
			<path fill="none" stroke="#7D7D7D" stroke-width="0.6" stroke-miterlimit="10" d="M993.384,453.455h-21.358
				c-0.91,0-1.818-0.909-1.818-1.818v-20.904c0-0.909,0.908-1.817,1.818-1.817h21.358c0.909,0,1.818,0.908,1.818,1.817v20.904
				C995.656,452.546,994.748,453.455,993.384,453.455z"/>
			<path fill="none" stroke="#7D7D7D" stroke-width="0.6" stroke-miterlimit="10" d="M1023.379,453.455h-21.359
				c-0.91,0-1.818-0.909-1.818-1.818v-20.904c0-0.909,0.908-1.817,1.818-1.817h21.359c0.909,0,1.816,0.908,1.816,1.817v20.904
				C1025.195,452.546,1024.288,453.455,1023.379,453.455z"/>
			<path fill="none" stroke="#7D7D7D" stroke-width="0.6" stroke-miterlimit="10" d="M1052.919,453.455h-21.36
				c-0.908,0-1.818-0.909-1.818-1.818v-20.904c0-0.909,0.91-1.817,1.818-1.817h21.36c0.908,0,1.817,0.908,1.817,1.817v20.904
				C1054.736,452.546,1053.827,453.455,1052.919,453.455z"/>
			<path fill="none" stroke="#7D7D7D" stroke-width="0.6" stroke-miterlimit="10" d="M1057.917,482.54h-27.267
				c-0.91,0-1.818-0.909-1.818-1.817v-20.904c0-0.91,0.908-1.818,1.818-1.818h27.267c0.908,0,1.818,0.908,1.818,1.818v20.904
				C1060.19,481.631,1059.281,482.54,1057.917,482.54z"/>
			<path fill="none" stroke="#7D7D7D" stroke-width="0.6" stroke-miterlimit="10" d="M1082.458,453.455h-21.359
				c-0.907,0-1.817-0.909-1.817-1.818v-20.904c0-0.909,0.91-1.817,1.817-1.817h21.359c0.909,0,1.818,0.908,1.818,1.817v20.904
				C1084.729,452.546,1083.822,453.455,1082.458,453.455z"/>
			<path fill="none" stroke="#7D7D7D" stroke-width="0.6" stroke-miterlimit="10" d="M1087.458,482.54h-21.361
				c-0.907,0-1.816-0.909-1.816-1.817v-20.904c0-0.91,0.909-1.818,1.816-1.818h21.361c0.909,0,1.817,0.908,1.817,1.818v20.904
				C1089.729,481.631,1088.821,482.54,1087.458,482.54z"/>
			<path fill="none" stroke="#7D7D7D" stroke-width="0.6" stroke-miterlimit="10" d="M1112.453,453.455h-21.359
				c-0.91,0-1.818-0.909-1.818-1.818v-20.904c0-0.909,0.908-1.817,1.818-1.817h21.359c0.909,0,1.817,0.908,1.817,1.817v20.904
				C1114.271,452.546,1113.362,453.455,1112.453,453.455z"/>
			<path id="leftArrow" fill="none" stroke="#7D7D7D" stroke-width="0.6" stroke-miterlimit="10" d="M1117.452,482.54h-21.36
				c-0.908,0-1.817-0.909-1.817-1.817v-20.904c0-0.91,0.908-1.818,1.817-1.818h21.36c0.908,0,1.817,0.908,1.817,1.818v20.904
				C1119.27,481.631,1118.36,482.54,1117.452,482.54z"/>
			<path fill="none" stroke="#7D7D7D" stroke-width="0.6" stroke-miterlimit="10" d="M1146.992,482.54h-21.36
				c-0.909,0-1.817-0.909-1.817-1.817v-20.904c0-0.91,0.908-1.818,1.817-1.818h21.36c0.908,0,1.818,0.908,1.818,1.818v20.904
				C1148.811,481.631,1147.9,482.54,1146.992,482.54z"/>
			<path id="rightArrow" fill="none" stroke="#7D7D7D" stroke-width="0.6" stroke-miterlimit="10" d="M1176.529,482.54h-21.357
				c-0.909,0-1.816-0.909-1.816-1.817v-20.904c0-0.91,0.907-1.818,1.816-1.818h21.357c0.912,0,1.82,0.908,1.82,1.818v20.904
				C1178.804,481.631,1177.896,482.54,1176.529,482.54z"/>
			<path fill="none" stroke="#7D7D7D" stroke-width="0.6" stroke-miterlimit="10" d="M1176.529,453.455h-55.896
				c-0.908,0-1.817-0.909-1.817-1.818v-20.904c0-0.909,0.909-1.817,1.817-1.817h56.354c0.909,0,1.817,0.908,1.817,1.817v20.904
				C1178.804,452.546,1177.896,453.455,1176.529,453.455z"/>

				<line fill="none" stroke="#7D7D7D" stroke-width="0.6" stroke-miterlimit="10" x1="1123.359" y1="470.27" x2="1148.811" y2="470.27"/>
		</g>
	</g>
	<g>
		<polyline fill="none" stroke="#CCC" stroke-miterlimit="10" points="711.25,536.5 697.5,536.5 697.5,265.5 711.25,265.5 		"/>
		<line fill="none" stroke="#CCC" stroke-width="3" stroke-miterlimit="10" x1="723.5" y1="265.5" x2="756.166" y2="265.5"/>
		<line fill="none" stroke="#CCC" stroke-width="3" stroke-miterlimit="10" x1="723.5" y1="536.5" x2="756.166" y2="536.5"/>
	</g>
	<g>
		<polyline fill="none" stroke="#CCC" stroke-miterlimit="10" points="1229.416,536.5 1243.166,536.5 1243.166,265.5
			1229.416,265.5 		"/>
		<line fill="none" stroke="#CCC" stroke-width="3" stroke-miterlimit="10" x1="1217.166" y1="265.5" x2="1184.5" y2="265.5"/>
		<line fill="none" stroke="#CCC" stroke-width="3" stroke-miterlimit="10" x1="1217.166" y1="536.5" x2="1184.5" y2="536.5"/>
	</g>
</g>
</svg>
