<?xml version="1.0" encoding="utf-8"?>
<!-- Generator: Adobe Illustrator 16.0.0, SVG Export Plug-In . SVG Version: 6.00 Build 0)  -->
<!DOCTYPE svg PUBLIC "-//W3C//DTD SVG 1.1//EN" "http://www.w3.org/Graphics/SVG/1.1/DTD/svg11.dtd">
<svg version="1.1" :class="kb_config" id="keyboard" xmlns="http://www.w3.org/2000/svg" xmlns:xlink="http://www.w3.org/1999/xlink" x="0px" y="0px"
	 width="685px" height="290px" viewBox="0 0 685 290" enable-background="new 0 0 685 290" xml:space="preserve">
<g>
	<path fill="none" stroke="#000000" stroke-width="0.25" stroke-miterlimit="10" d="M669.106,284.776H16.868
		c-6.381,0-11.343-4.963-11.343-11.344V15.372c0-6.381,4.962-11.343,11.343-11.343h652.239c6.381,0,11.345,4.962,11.345,11.343
		v258.06C681.159,279.813,675.487,284.776,669.106,284.776z"/>
	<g>
		<path fill="none" stroke="#000000" stroke-width="0.25" stroke-miterlimit="10" d="M48.771,95.483H15.451
			c-1.419,0-2.836-1.417-2.836-2.834V59.328c0-1.419,1.417-2.836,2.836-2.836h33.321c1.417,0,2.834,1.417,2.834,2.836V91.94
			C51.606,94.066,50.188,95.483,48.771,95.483z"/>
		<path fill="none" stroke="#000000" stroke-width="0.25" stroke-miterlimit="10" d="M94.853,95.483H61.532
			c-1.417,0-2.836-1.417-2.836-2.834V59.328c0-1.419,1.418-2.836,2.836-2.836h33.321c1.417,0,2.836,1.417,2.836,2.836V91.94
			C98.398,94.066,96.979,95.483,94.853,95.483z"/>
		<path fill="none" stroke="#000000" stroke-width="0.25" stroke-miterlimit="10" d="M141.644,95.483h-33.321
			c-1.417,0-2.834-1.417-2.834-2.834V59.328c0-1.419,1.417-2.836,2.834-2.836h33.321c1.419,0,2.836,1.417,2.836,2.836V91.94
			C144.48,94.066,143.062,95.483,141.644,95.483z"/>
		<path fill="none" stroke="#000000" stroke-width="0.25" stroke-miterlimit="10" d="M187.727,95.483h-33.322
			c-1.418,0-2.836-1.417-2.836-2.834V59.328c0-1.419,1.417-2.836,2.836-2.836h33.322c1.417,0,2.834,1.417,2.834,2.836V91.94
			C190.562,94.066,189.144,95.483,187.727,95.483z"/>
		<path fill="none" stroke="#000000" stroke-width="0.25" stroke-miterlimit="10" d="M233.809,95.483h-33.321
			c-1.417,0-2.836-1.417-2.836-2.834V59.328c0-1.419,1.419-2.836,2.836-2.836h33.321c1.418,0,2.836,1.417,2.836,2.836V91.94
			C237.354,94.066,235.935,95.483,233.809,95.483z"/>
		<path fill="none" stroke="#000000" stroke-width="0.25" stroke-miterlimit="10" d="M280.599,95.483h-33.321
			c-1.417,0-2.835-1.417-2.835-2.834V59.328c0-1.419,1.418-2.836,2.835-2.836h33.321c1.419,0,2.837,1.417,2.837,2.836V91.94
			C283.436,94.066,282.018,95.483,280.599,95.483z"/>
		<path fill="none" stroke="#000000" stroke-width="0.25" stroke-miterlimit="10" d="M326.682,95.483h-33.32
			c-1.42,0-2.837-1.417-2.837-2.834V59.328c0-1.419,1.417-2.836,2.837-2.836h33.32c1.418,0,2.835,1.417,2.835,2.836V91.94
			C329.517,94.066,328.1,95.483,326.682,95.483z"/>
		<path fill="none" stroke="#000000" stroke-width="0.25" stroke-miterlimit="10" d="M372.764,95.483h-33.32
			c-1.418,0-2.837-1.417-2.837-2.834V59.328c0-1.419,1.419-2.836,2.837-2.836h33.32c1.417,0,2.836,1.417,2.836,2.836V91.94
			C376.309,94.066,374.89,95.483,372.764,95.483z"/>
		<path fill="none" stroke="#000000" stroke-width="0.25" stroke-miterlimit="10" d="M419.554,95.483h-34.029
			c-1.417,0-2.835-1.417-2.835-2.834V59.328c0-1.419,1.418-2.836,2.835-2.836h33.32c1.419,0,2.837,1.417,2.837,2.836V91.94
			C422.391,94.066,420.973,95.483,419.554,95.483z"/>
		<path fill="none" stroke="#000000" stroke-width="0.25" stroke-miterlimit="10" d="M465.638,95.483h-33.321
			c-1.419,0-2.836-1.417-2.836-2.834V59.328c0-1.419,1.417-2.836,2.836-2.836h33.321c1.417,0,2.834,1.417,2.834,2.836V91.94
			C468.472,94.066,467.055,95.483,465.638,95.483z"/>
		<path fill="none" stroke="#000000" stroke-width="0.25" stroke-miterlimit="10" d="M511.72,95.483h-33.321
			c-1.418,0-2.837-1.417-2.837-2.834V59.328c0-1.419,1.419-2.836,2.837-2.836h33.321c1.416,0,2.836,1.417,2.836,2.836V91.94
			C515.265,94.066,513.847,95.483,511.72,95.483z"/>
		<path fill="none" stroke="#000000" stroke-width="0.25" stroke-miterlimit="10" d="M557.801,95.483h-33.321
			c-1.417,0-2.835-1.417-2.835-2.834V59.328c0-1.419,1.418-2.836,2.835-2.836h33.321c1.419,0,2.837,1.417,2.837,2.836V91.94
			C561.347,94.066,559.929,95.483,557.801,95.483z"/>
		<path fill="none" stroke="#000000" stroke-width="0.25" stroke-miterlimit="10" d="M604.593,95.483h-33.321
			c-1.418,0-2.837-1.417-2.837-2.834V59.328c0-1.419,1.418-2.836,2.837-2.836h33.321c1.418,0,2.836,1.417,2.836,2.836V91.94
			C607.429,94.066,606.011,95.483,604.593,95.483z"/>
	</g>
	<path fill="none" stroke="#000000" stroke-width="0.25" stroke-miterlimit="10" d="M670.522,95.483h-53.878
		c-1.417,0-2.837-1.417-2.837-2.834V59.328c0-1.419,1.42-2.836,2.837-2.836h53.878c1.421,0,2.838,1.417,2.838,2.836V91.94
		C674.069,94.066,672.652,95.483,670.522,95.483z"/>
	<g>
		<path id="ESC" fill="none" stroke="#000000" stroke-width="0.25" stroke-miterlimit="10" d="M68.622,50.11H15.451
			c-1.419,0-2.836-1.417-2.836-2.834V14.663c0-1.417,1.417-2.836,2.836-2.836h53.88c1.417,0,2.836,1.419,2.836,2.836v32.613
			C72.167,48.693,70.748,50.11,68.622,50.11z"/>
		<g>
			<path fill="none" stroke="#000000" stroke-width="0.25" stroke-miterlimit="10" d="M114.703,50.11h-33.32
				c-1.418,0-2.835-1.417-2.835-2.834V14.663c0-1.417,1.417-2.836,2.835-2.836h33.32c1.419,0,2.836,1.419,2.836,2.836v32.613
				C118.249,48.693,116.832,50.11,114.703,50.11z"/>
			<path fill="none" stroke="#000000" stroke-width="0.25" stroke-miterlimit="10" d="M161.496,50.11h-33.322
				c-1.418,0-2.836-1.417-2.836-2.834V14.663c0-1.417,1.417-2.836,2.836-2.836h33.322c1.417,0,2.834,1.419,2.834,2.836v32.613
				C164.33,48.693,162.913,50.11,161.496,50.11z"/>
			<path fill="none" stroke="#000000" stroke-width="0.25" stroke-miterlimit="10" d="M207.577,50.11h-33.321
				c-1.417,0-2.836-1.417-2.836-2.834V14.663c0-1.417,1.419-2.836,2.836-2.836h33.321c1.417,0,2.836,1.419,2.836,2.836v32.613
				C211.122,48.693,209.703,50.11,207.577,50.11z"/>
			<path fill="none" stroke="#000000" stroke-width="0.25" stroke-miterlimit="10" d="M253.659,50.11h-33.322
				c-1.417,0-2.834-1.417-2.834-2.834V14.663c0-1.417,1.417-2.836,2.834-2.836h33.322c1.418,0,2.836,1.419,2.836,2.836v32.613
				C257.204,48.693,255.786,50.11,253.659,50.11z"/>
			<path fill="none" stroke="#000000" stroke-width="0.25" stroke-miterlimit="10" d="M300.45,50.11h-33.32
				c-1.42,0-2.836-1.417-2.836-2.834V14.663c0-1.417,1.416-2.836,2.836-2.836h33.32c1.418,0,2.835,1.419,2.835,2.836v32.613
				C303.285,48.693,301.868,50.11,300.45,50.11z"/>
			<path fill="none" stroke="#000000" stroke-width="0.25" stroke-miterlimit="10" d="M346.532,50.11h-33.32
				c-1.418,0-2.838-1.417-2.838-2.834V14.663c0-1.417,1.42-2.836,2.838-2.836h33.32c1.418,0,2.836,1.419,2.836,2.836v32.613
				C349.368,48.693,347.95,50.11,346.532,50.11z"/>
			<path fill="none" stroke="#000000" stroke-width="0.25" stroke-miterlimit="10" d="M392.614,50.11h-33.32
				c-1.418,0-2.836-1.417-2.836-2.834V14.663c0-1.417,1.418-2.836,2.836-2.836h33.32c1.419,0,2.836,1.419,2.836,2.836v32.613
				C396.159,48.693,394.741,50.11,392.614,50.11z"/>
			<path fill="none" stroke="#000000" stroke-width="0.25" stroke-miterlimit="10" d="M439.406,50.11h-33.321
				c-1.419,0-2.836-1.417-2.836-2.834V14.663c0-1.417,1.417-2.836,2.836-2.836h33.321c1.417,0,2.834,1.419,2.834,2.836v32.613
				C442.24,48.693,440.823,50.11,439.406,50.11z"/>
			<path fill="none" stroke="#000000" stroke-width="0.25" stroke-miterlimit="10" d="M485.488,50.11h-33.321
				c-1.418,0-2.837-1.417-2.837-2.834V14.663c0-1.417,1.419-2.836,2.837-2.836h33.321c1.416,0,2.836,1.419,2.836,2.836v32.613
				C488.324,48.693,486.904,50.11,485.488,50.11z"/>
			<path fill="none" stroke="#000000" stroke-width="0.25" stroke-miterlimit="10" d="M531.569,50.11h-33.321
				c-1.417,0-2.834-1.417-2.834-2.834V14.663c0-1.417,1.417-2.836,2.834-2.836h33.321c1.419,0,2.837,1.419,2.837,2.836v32.613
				C535.114,48.693,533.697,50.11,531.569,50.11z"/>
			<path fill="none" stroke="#000000" stroke-width="0.25" stroke-miterlimit="10" d="M578.361,50.11H545.04
				c-1.417,0-2.836-1.417-2.836-2.834V14.663c0-1.417,1.417-2.836,2.836-2.836h33.321c1.417,0,2.836,1.419,2.836,2.836v32.613
				C581.197,48.693,579.778,50.11,578.361,50.11z"/>
			<path fill="none" stroke="#000000" stroke-width="0.25" stroke-miterlimit="10" d="M624.443,50.11h-33.321
				c-1.418,0-2.837-1.417-2.837-2.834V14.663c0-1.417,1.419-2.836,2.837-2.836h33.321c1.417,0,2.836,1.419,2.836,2.836v32.613
				C627.279,48.693,625.86,50.11,624.443,50.11z"/>
			<path fill="none" stroke="#000000" stroke-width="0.25" stroke-miterlimit="10" d="M670.522,50.11h-33.319
				c-1.417,0-2.834-1.417-2.834-2.834V14.663c0-1.417,1.417-2.836,2.834-2.836h33.319c1.421,0,2.838,1.419,2.838,2.836v32.613
				C674.069,48.693,672.652,50.11,670.522,50.11z"/>
		</g>
	</g>
	<path fill="none" stroke="#000000" stroke-width="0.25" stroke-miterlimit="10" d="M68.622,140.859H15.451
		c-1.419,0-2.836-1.42-2.836-2.837V105.41c0-1.417,1.417-2.836,2.836-2.836h53.88c1.417,0,2.836,1.419,2.836,2.836v32.612
		C72.167,139.439,70.748,140.859,68.622,140.859z"/>
	<path fill="none" stroke="#000000" stroke-width="0.25" stroke-miterlimit="10" d="M84.219,186.94H15.451
		c-1.419,0-2.836-1.42-2.836-2.836v-32.612c0-1.418,1.417-2.836,2.836-2.836h68.768c1.417,0,2.836,1.418,2.836,2.836v32.612
		C87.055,185.52,85.636,186.94,84.219,186.94z"/>
	<g>
		<path id="_x3C_Path_x3E_" fill="none" stroke="#000000" stroke-width="0.25" stroke-miterlimit="10" d="M114.703,140.859h-33.32
			c-1.418,0-2.835-1.42-2.835-2.837V105.41c0-1.417,1.417-2.836,2.835-2.836h33.32c1.419,0,2.836,1.419,2.836,2.836v32.612
			C118.249,139.439,116.832,140.859,114.703,140.859z"/>
		<path fill="none" stroke="#000000" stroke-width="0.25" stroke-miterlimit="10" d="M161.496,140.859h-33.322
			c-1.418,0-2.836-1.42-2.836-2.837V105.41c0-1.417,1.417-2.836,2.836-2.836h33.322c1.417,0,2.834,1.419,2.834,2.836v32.612
			C164.33,139.439,162.913,140.859,161.496,140.859z"/>
		<path id="e" fill="none" stroke="#000000" stroke-width="0.25" stroke-miterlimit="10" d="M207.577,140.859
			h-33.321c-1.417,0-2.836-1.42-2.836-2.837V105.41c0-1.417,1.419-2.836,2.836-2.836h33.321c1.417,0,2.836,1.419,2.836,2.836v32.612
			C211.122,139.439,209.703,140.859,207.577,140.859z"/>
		<path fill="none" stroke="#000000" stroke-width="0.25" stroke-miterlimit="10" d="M253.659,140.859h-33.322
			c-1.417,0-2.834-1.42-2.834-2.837V105.41c0-1.417,1.417-2.836,2.834-2.836h33.322c1.418,0,2.836,1.419,2.836,2.836v32.612
			C257.204,139.439,255.786,140.859,253.659,140.859z"/>
		<path fill="none" stroke="#000000" stroke-width="0.25" stroke-miterlimit="10" d="M300.45,140.859h-33.32
			c-1.42,0-2.836-1.42-2.836-2.837V105.41c0-1.417,1.416-2.836,2.836-2.836h33.32c1.418,0,2.835,1.419,2.835,2.836v32.612
			C303.285,139.439,301.868,140.859,300.45,140.859z"/>
		<path fill="none" stroke="#000000" stroke-width="0.25" stroke-miterlimit="10" d="M346.532,140.859h-33.32
			c-1.418,0-2.838-1.42-2.838-2.837V105.41c0-1.417,1.42-2.836,2.838-2.836h33.32c1.418,0,2.836,1.419,2.836,2.836v32.612
			C349.368,139.439,347.95,140.859,346.532,140.859z"/>
		<path fill="none" stroke="#000000" stroke-width="0.25" stroke-miterlimit="10" d="M392.614,140.859h-33.32
			c-1.418,0-2.836-1.42-2.836-2.837V105.41c0-1.417,1.418-2.836,2.836-2.836h33.32c1.419,0,2.836,1.419,2.836,2.836v32.612
			C396.159,139.439,394.741,140.859,392.614,140.859z"/>
		<path fill="none" stroke="#000000" stroke-width="0.25" stroke-miterlimit="10" d="M439.406,140.859h-33.321
			c-1.419,0-2.836-1.42-2.836-2.837V105.41c0-1.417,1.417-2.836,2.836-2.836h33.321c1.417,0,2.834,1.419,2.834,2.836v32.612
			C442.24,139.439,440.823,140.859,439.406,140.859z"/>
		<path fill="none" stroke="#000000" stroke-width="0.25" stroke-miterlimit="10" d="M485.488,140.859h-33.321
			c-1.418,0-2.837-1.42-2.837-2.837V105.41c0-1.417,1.419-2.836,2.837-2.836h33.321c1.416,0,2.836,1.419,2.836,2.836v32.612
			C488.324,139.439,486.904,140.859,485.488,140.859z"/>
		<path fill="none" stroke="#000000" stroke-width="0.25" stroke-miterlimit="10" d="M531.569,140.859h-33.321
			c-1.417,0-2.834-1.42-2.834-2.837V105.41c0-1.417,1.417-2.836,2.834-2.836h33.321c1.419,0,2.837,1.419,2.837,2.836v32.612
			C535.114,139.439,533.697,140.859,531.569,140.859z"/>
		<path fill="none" stroke="#000000" stroke-width="0.25" stroke-miterlimit="10" d="M578.361,140.859H545.04
			c-1.417,0-2.836-1.42-2.836-2.837V105.41c0-1.417,1.417-2.836,2.836-2.836h33.321c1.417,0,2.836,1.419,2.836,2.836v32.612
			C581.197,139.439,579.778,140.859,578.361,140.859z"/>
		<path fill="none" stroke="#000000" stroke-width="0.25" stroke-miterlimit="10" d="M624.443,140.859h-33.321
			c-1.418,0-2.837-1.42-2.837-2.837V105.41c0-1.417,1.419-2.836,2.837-2.836h33.321c1.417,0,2.836,1.419,2.836,2.836v32.612
			C627.279,139.439,625.86,140.859,624.443,140.859z"/>
	</g>
	<path id="a" fill="none" stroke="#000000" stroke-width="0.25" stroke-miterlimit="10" d="M130.3,186.94H96.979
		c-1.417,0-2.834-1.42-2.834-2.836v-32.612c0-1.418,1.417-2.836,2.834-2.836H130.3c1.418,0,2.836,1.418,2.836,2.836v32.612
		C133.846,185.52,132.428,186.94,130.3,186.94z"/>
	<path fill="none" stroke="#000000" stroke-width="0.25" stroke-miterlimit="10" d="M60.824,232.313H15.451
		c-1.419,0-2.836-1.418-2.836-2.836v-32.612c0-1.418,1.417-2.835,2.836-2.835h45.373c1.417,0,2.836,1.417,2.836,2.835v32.612
		C63.66,230.895,62.241,232.313,60.824,232.313z"/>
	<path fill="none" stroke="#000000" stroke-width="0.25" stroke-miterlimit="10" d="M176.384,186.94h-33.321
		c-1.419,0-2.836-1.42-2.836-2.836v-32.612c0-1.418,1.417-2.836,2.836-2.836h33.321c1.417,0,2.834,1.418,2.834,2.836v32.612
		C179.928,185.52,178.51,186.94,176.384,186.94z"/>
	<path id="d" fill="none" stroke="#000000" stroke-width="0.25" stroke-miterlimit="10" d="M223.174,186.94h-33.321
		c-1.417,0-2.836-1.42-2.836-2.836v-32.612c0-1.418,1.419-2.836,2.836-2.836h33.321c1.417,0,2.836,1.418,2.836,2.836v32.612
		C226.01,185.52,224.591,186.94,223.174,186.94z"/>
	<path fill="none" stroke="#000000" stroke-width="0.25" stroke-miterlimit="10" d="M269.255,186.94h-33.32
		c-1.417,0-2.835-1.42-2.835-2.836v-32.612c0-1.418,1.418-2.836,2.835-2.836h33.32c1.419,0,2.837,1.418,2.837,2.836v32.612
		C272.092,185.52,270.674,186.94,269.255,186.94z"/>
	<path fill="none" stroke="#000000" stroke-width="0.25" stroke-miterlimit="10" d="M315.339,186.94h-33.321
		c-1.419,0-2.836-1.42-2.836-2.836v-32.612c0-1.418,1.417-2.836,2.836-2.836h33.321c1.417,0,2.834,1.418,2.834,2.836v32.612
		C318.884,185.52,317.465,186.94,315.339,186.94z"/>
	<path id="h" fill="none" stroke="#000000" stroke-width="0.25" stroke-miterlimit="10" d="M362.13,186.94h-33.321
		c-1.418,0-2.837-1.42-2.837-2.836v-32.612c0-1.418,1.419-2.836,2.837-2.836h33.321c1.418,0,2.836,1.418,2.836,2.836v32.612
		C364.966,185.52,363.548,186.94,362.13,186.94z"/>
	<path fill="none" stroke="#000000" stroke-width="0.25" stroke-miterlimit="10" d="M408.21,186.94h-33.32
		c-1.417,0-2.835-1.42-2.835-2.836v-32.612c0-1.418,1.418-2.836,2.835-2.836h33.32c1.42,0,2.838,1.418,2.838,2.836v32.612
		C411.048,185.52,409.63,186.94,408.21,186.94z"/>
	<path fill="none" stroke="#000000" stroke-width="0.25" stroke-miterlimit="10" d="M454.294,186.94h-33.321
		c-1.419,0-2.836-1.42-2.836-2.836v-32.612c0-1.418,1.417-2.836,2.836-2.836h33.321c1.418,0,2.835,1.418,2.835,2.836v32.612
		C457.839,185.52,456.421,186.94,454.294,186.94z"/>
	<path id="l" fill="none" stroke="#000000" stroke-width="0.25" stroke-miterlimit="10" d="M501.085,186.94h-33.322
		c-1.417,0-2.834-1.42-2.834-2.836v-32.612c0-1.418,1.417-2.836,2.834-2.836h33.322c1.418,0,2.836,1.418,2.836,2.836v32.612
		C503.921,185.52,502.503,186.94,501.085,186.94z"/>
	<path fill="none" stroke="#000000" stroke-width="0.25" stroke-miterlimit="10" d="M547.166,186.94h-33.319
		c-1.42,0-2.836-1.42-2.836-2.836v-32.612c0-1.418,1.416-2.836,2.836-2.836h33.319c1.419,0,2.837,1.418,2.837,2.836v32.612
		C550.003,185.52,548.585,186.94,547.166,186.94z"/>
	<path fill="none" stroke="#000000" stroke-width="0.25" stroke-miterlimit="10" d="M593.25,186.94h-33.321
		c-1.418,0-2.836-1.42-2.836-2.836v-32.612c0-1.418,1.416-2.836,2.836-2.836h33.321c1.417,0,2.835,1.418,2.835,2.836v32.612
		C596.794,185.52,595.375,186.94,593.25,186.94z"/>
	<path fill="none" stroke="#000000" stroke-width="0.25" stroke-miterlimit="10" d="M670.522,101.865h-33.319
		c-2.125,0-3.543,1.418-3.543,3.545v32.612c0,2.126,1.418,3.545,3.543,3.545h12.054v42.537c0,2.127,1.418,3.545,3.547,3.545h17.719
		c2.13,0,3.547-1.418,3.547-3.545v-42.537v-35.449C674.069,103.283,672.652,101.865,670.522,101.865z"/>
	<path fill="none" stroke="#000000" stroke-width="0.25" stroke-miterlimit="10" d="M640.039,186.94h-33.32
		c-1.417,0-2.835-1.42-2.835-2.836v-32.612c0-1.418,1.418-2.836,2.835-2.836h33.32c1.42,0,2.837,1.418,2.837,2.836v32.612
		C642.876,185.52,641.459,186.94,640.039,186.94z"/>
	<path fill="none" stroke="#000000" stroke-width="0.25" stroke-miterlimit="10" d="M106.905,232.313H73.584
		c-1.417,0-2.836-1.418-2.836-2.836v-32.612c0-1.418,1.419-2.835,2.836-2.835h33.321c1.417,0,2.836,1.417,2.836,2.835v32.612
		C110.45,230.895,109.033,232.313,106.905,232.313z"/>
	<path fill="none" stroke="#000000" stroke-width="0.25" stroke-miterlimit="10" d="M153.697,232.313h-33.321
		c-1.419,0-2.836-1.418-2.836-2.836v-32.612c0-1.418,1.417-2.835,2.836-2.835h33.321c1.417,0,2.834,1.417,2.834,2.835v32.612
		C156.532,230.895,155.114,232.313,153.697,232.313z"/>
	<path fill="none" stroke="#000000" stroke-width="0.25" stroke-miterlimit="10" d="M199.778,232.313h-33.321
		c-1.417,0-2.836-1.418-2.836-2.836v-32.612c0-1.418,1.419-2.835,2.836-2.835h33.321c1.417,0,2.837,1.417,2.837,2.835v32.612
		C203.323,230.895,201.905,232.313,199.778,232.313z"/>
	<path fill="none" stroke="#000000" stroke-width="0.25" stroke-miterlimit="10" d="M245.86,232.313h-33.321
		c-1.417,0-2.836-1.418-2.836-2.836v-32.612c0-1.418,1.419-2.835,2.836-2.835h33.321c1.417,0,2.836,1.417,2.836,2.835v32.612
		C249.405,230.895,247.987,232.313,245.86,232.313z"/>
	<path fill="none" stroke="#000000" stroke-width="0.25" stroke-miterlimit="10" d="M48.771,277.686H15.451
		c-1.419,0-2.836-1.418-2.836-2.836v-32.611c0-1.419,1.417-2.836,2.836-2.836h33.321c1.417,0,2.834,1.417,2.834,2.836v32.611
		C51.606,276.268,50.188,277.686,48.771,277.686z"/>
	<path fill="none" stroke="#000000" stroke-width="0.25" stroke-miterlimit="10" d="M94.853,277.686H61.532
		c-1.417,0-2.836-1.418-2.836-2.836v-32.611c0-1.419,1.418-2.836,2.836-2.836h33.321c1.417,0,2.836,1.417,2.836,2.836v32.611
		C98.398,276.268,96.979,277.686,94.853,277.686z"/>
	<path fill="none" stroke="#000000" stroke-width="0.25" stroke-miterlimit="10" d="M141.644,277.686h-33.321
		c-1.417,0-2.834-1.418-2.834-2.836v-32.611c0-1.419,1.417-2.836,2.834-2.836h33.321c1.419,0,2.836,1.417,2.836,2.836v32.611
		C144.48,276.268,143.062,277.686,141.644,277.686z"/>
	<path fill="none" stroke="#000000" stroke-width="0.25" stroke-miterlimit="10" d="M199.778,277.686h-45.373
		c-1.418,0-2.836-1.418-2.836-2.836v-32.611c0-1.419,1.417-2.836,2.836-2.836h45.373c1.417,0,2.837,1.417,2.837,2.836v32.611
		C203.323,276.268,201.905,277.686,199.778,277.686z"/>
	<path id="Space" fill="none" stroke="#000000" stroke-width="0.25" stroke-miterlimit="10" d="M430.188,277.686H212.539
		c-1.417,0-2.836-1.418-2.836-2.836v-32.611c0-1.419,1.419-2.836,2.836-2.836h217.649c1.419,0,2.837,1.417,2.837,2.836v32.611
		C433.025,276.268,431.607,277.686,430.188,277.686z"/>
	<path fill="none" stroke="#000000" stroke-width="0.25" stroke-miterlimit="10" d="M292.652,232.313h-33.321
		c-1.418,0-2.836-1.418-2.836-2.836v-32.612c0-1.418,1.418-2.835,2.836-2.835h33.321c1.417,0,2.835,1.417,2.835,2.835v32.612
		C295.487,230.895,294.069,232.313,292.652,232.313z"/>
	<path fill="none" stroke="#000000" stroke-width="0.25" stroke-miterlimit="10" d="M338.734,232.313h-33.321
		c-1.418,0-2.836-1.418-2.836-2.836v-32.612c0-1.418,1.418-2.835,2.836-2.835h33.321c1.417,0,2.836,1.417,2.836,2.835v32.612
		C341.57,230.895,340.151,232.313,338.734,232.313z"/>
	<path fill="none" stroke="#000000" stroke-width="0.25" stroke-miterlimit="10" d="M384.816,232.313h-33.321
		c-1.418,0-2.836-1.418-2.836-2.836v-32.612c0-1.418,1.418-2.835,2.836-2.835h33.321c1.418,0,2.836,1.417,2.836,2.835v32.612
		C388.36,230.895,386.943,232.313,384.816,232.313z"/>
	<path fill="none" stroke="#000000" stroke-width="0.25" stroke-miterlimit="10" d="M431.607,232.313h-33.321
		c-1.419,0-2.836-1.418-2.836-2.836v-32.612c0-1.418,1.417-2.835,2.836-2.835h33.321c1.418,0,2.834,1.417,2.834,2.835v32.612
		C434.441,230.895,433.025,232.313,431.607,232.313z"/>
	<path fill="none" stroke="#000000" stroke-width="0.25" stroke-miterlimit="10" d="M477.689,232.313h-33.321
		c-1.417,0-2.837-1.418-2.837-2.836v-32.612c0-1.418,1.42-2.835,2.837-2.835h33.321c1.417,0,2.836,1.417,2.836,2.835v32.612
		C480.525,230.895,479.106,232.313,477.689,232.313z"/>
	<path fill="none" stroke="#000000" stroke-width="0.25" stroke-miterlimit="10" d="M485.488,277.686h-42.537
		c-1.42,0-2.837-1.418-2.837-2.836v-32.611c0-1.419,1.417-2.836,2.837-2.836h42.537c1.416,0,2.836,1.417,2.836,2.836v32.611
		C489.033,276.268,487.615,277.686,485.488,277.686z"/>
	<path fill="none" stroke="#000000" stroke-width="0.25" stroke-miterlimit="10" d="M523.771,232.313h-33.321
		c-1.416,0-2.834-1.418-2.834-2.836v-32.612c0-1.418,1.418-2.835,2.834-2.835h33.321c1.419,0,2.837,1.417,2.837,2.835v32.612
		C527.315,230.895,525.898,232.313,523.771,232.313z"/>
	<path fill="none" stroke="#000000" stroke-width="0.25" stroke-miterlimit="10" d="M531.569,277.686h-33.321
		c-1.417,0-2.834-1.418-2.834-2.836v-32.611c0-1.419,1.417-2.836,2.834-2.836h33.321c1.419,0,2.837,1.417,2.837,2.836v32.611
		C535.114,276.268,533.697,277.686,531.569,277.686z"/>
	<path fill="none" stroke="#000000" stroke-width="0.25" stroke-miterlimit="10" d="M570.562,232.313h-33.32
		c-1.42,0-2.836-1.418-2.836-2.836v-32.612c0-1.418,1.416-2.835,2.836-2.835h33.32c1.418,0,2.835,1.417,2.835,2.835v32.612
		C573.397,230.895,571.98,232.313,570.562,232.313z"/>
	<path id="leftArrow" fill="none" stroke="#000000" stroke-width="0.25" stroke-miterlimit="10" d="M578.361,277.686H545.04
		c-1.417,0-2.836-1.418-2.836-2.836v-32.611c0-1.419,1.417-2.836,2.836-2.836h33.321c1.417,0,2.836,1.417,2.836,2.836v32.611
		C581.197,276.268,579.778,277.686,578.361,277.686z"/>
	<path fill="none" stroke="#000000" stroke-width="0.25" stroke-miterlimit="10" d="M624.443,277.686h-33.321
		c-1.418,0-2.837-1.418-2.837-2.836v-32.611c0-1.419,1.419-2.836,2.837-2.836h33.321c1.417,0,2.836,1.417,2.836,2.836v32.611
		C627.279,276.268,625.86,277.686,624.443,277.686z"/>
	<path id="rightArrow" fill="none" stroke="#000000" stroke-width="0.25" stroke-miterlimit="10" d="M670.522,277.686h-33.319
		c-1.417,0-2.834-1.418-2.834-2.836v-32.611c0-1.419,1.417-2.836,2.834-2.836h33.319c1.421,0,2.838,1.417,2.838,2.836v32.611
		C674.069,276.268,672.652,277.686,670.522,277.686z"/>
	<path fill="none" stroke="#000000" stroke-width="0.25" stroke-miterlimit="10" d="M670.522,232.313h-87.198
		c-1.418,0-2.837-1.418-2.837-2.836v-32.612c0-1.418,1.419-2.835,2.837-2.835h87.91c1.418,0,2.835,1.417,2.835,2.835v32.612
		C674.069,230.895,672.652,232.313,670.522,232.313z"/>

		<line fill="none" stroke="#000000" stroke-width="0.25" stroke-miterlimit="10" x1="587.576" y1="258.544" x2="627.279" y2="258.544"/>
	<path d="M21.122,157.164L21.122,157.164c-1.418,0-2.126-0.709-2.126-2.127l0,0c0-1.418,0.708-2.127,2.126-2.127l0,0
		c1.418,0,2.127,0.709,2.127,2.127l0,0C22.54,156.455,21.83,157.164,21.122,157.164z"/>
</g>
</svg>
