<svg version="1.1" xmlns="http://www.w3.org/2000/svg" x="0px" y="0px"
	 viewBox="0.5 200.5 630 390" preserveAspectRatio="xMinYMin meet" class="keyboard">
<g id="mice02">
	<g>
		<path fill="#BBB" d="M313.902,341.805c-1.535-0.657-6.767-2.446-7.688-2.446c-0.578,0-1.327,0.34-6.681,3.034
			c-2.164,1.09-4.687,2.359-7.206,3.576c-3.598,1.732-8.934,4.039-13.224,5.892c-3.33,1.438-6.206,2.681-7.419,3.288
			c-3.41,1.705-4.95,4.43-6.868,12.145c-2.032,8.189-2.824,14.498-2.824,22.498c0,7.759,1.024,14.557,1.997,18.388
			c0.138,7.022,1.199,18.502,3.217,27.281c0.025,0.104,0.062,0.204,0.112,0.296c0.13,0.234,0.233,0.428,0.315,0.582
			c-0.197,0.266-0.273,0.604-0.201,0.934c0.009,0.041,0.889,4.08,1.842,7.436l-0.541,1.307c-1.82,4.342-4.861,11.604-5.428,17.572
			c-0.635,6.71-0.575,11.12-0.287,15.68c0.323,5.11,2.406,16.203,6.826,25.819c4.832,10.507,9.351,15.334,14.652,19.351
			c7.98,6.048,16.389,9.458,25.7,10.427c0.04,0.003,0.077,0.005,0.118,0.005c0.188,0,0.369-0.046,0.535-0.132
			c0.378-0.047,1.492-0.002,2.398,0.039c1.939,0.087,4.499,0.09,6.627-0.026c1.074-0.057,2.398-0.127,2.833-0.051
			c0.18,0.111,0.388,0.17,0.601,0.17c5.236,0,19.695-4.073,27.515-11.543c6.067-5.795,20.182-22.331,20.182-50.628
			c0-7.231-1.213-13.989-3.938-21.915c-1.822-5.226-2.836-7.715-3.134-8.417c-0.026-1.344-0.101-8.924,1.464-16.442l0.061-0.291
			c1.734-8.336,4.637-22.286,4.637-38.176c0-15.988-1.577-19.217-2.544-20.737c-0.365-3.251-1.183-9.517-5.598-11.216
			c-3.811-1.465-19.25-8.322-26.782-12.201c-3.024-1.55-4.792-2.479-5.842-3.029c-1.641-0.861-1.739-0.913-2.157-0.913
			c-1.553,0.058-4.787,1.126-7.138,2.075c-0.115,0.047-0.202,0.107-0.311,0.158 M364.903,451.531
			c1.476,4.291,2.478,8.222,3.088,12.075c0.014,0.379,0.025,0.76,0.025,1.15c0,3.971-2.379,12.174-6.678,16.62
			c-4.002,4.139-6.697,6.056-9.58,6.792c0.418-3.731,0.872-7.537,1.369-11.334c2.076-15.89,5.889-32.456,9.305-47.186
			c-0.968,6.872-0.792,12.709-0.782,13.001c0.005,0.145,0.038,0.288,0.097,0.422C361.757,443.096,362.787,445.461,364.903,451.531z
			 M310.168,417.6c0.465-0.949,1.516-3.081,1.749-3.465c0.19-0.309,0.676-0.638,1.478-0.638h7.179c0.376,0,1.069,0.223,1.367,0.699
			c0.364,0.583,1.494,2.437,1.821,2.975c-0.101,1.323-0.197,2.585-0.288,3.76c-0.217,2.788-0.41,5.28-0.573,8.006h-11.869
			C310.799,426.005,310.493,422.051,310.168,417.6z M323.907,415.211c-0.393-0.643-0.803-1.312-0.995-1.621
			c-0.569-0.908-1.71-1.238-2.339-1.238h-7.179c-1.084,0-2.002,0.443-2.453,1.186c-0.152,0.248-0.547,1.023-0.937,1.803
			c-0.794-11.131-1.622-24.57-1.622-32.557c0-11.887,0.385-18.236,1.127-18.861c0.607-0.303,3.347-1.154,4.973-1.645
			c-0.012,0.398-0.106,0.571-0.545,0.791c-0.232,0.115-0.563,0.238-0.938,0.377c-1.472,0.555-3.305,1.243-3.478,2.627
			c-0.158,1.266-0.803,7.65-0.803,13.52c0,5.047,0.611,14.916,1.057,15.631c0.371,0.598,2.448,3.574,6.725,3.574
			c3.496,0,5.848-1.098,7.188-3.357c0.04-0.066,0.064-0.14,0.076-0.217c0.394-2.959,1.312-10.451,1.312-16.086
			c0-5.714-0.746-12.575-1.199-13.477c-0.335-0.67-1.557-1.365-3.119-2.203l-0.587-0.318c-0.421-0.237-0.678-0.592-0.832-0.955
			c1.401,0.422,3.981,1.203,4.604,1.424c0.51,0.182,0.846,0.301,1.017,3.676c0.047,0.91,0.117,2.051,0.202,3.348
			c0.227,3.521,0.539,8.344,0.539,12.722C325.701,388.147,325.113,398.576,323.907,415.211z M318.007,346.379v14.979
			c0,0.866,0.42,2.112,1.602,2.778l0.608,0.33c0.667,0.357,2.438,1.309,2.635,1.703c0.271,0.602,1.08,6.676,1.08,12.967
			c0,5.492-0.888,12.801-1.289,15.816c-1.127,1.816-3.14,2.698-6.143,2.698c-3.672,0-5.436-2.528-5.721-2.97
			c-0.256-0.758-0.915-9.441-0.915-15.09c0-5.81,0.638-12.124,0.795-13.377c0.087-0.697,1.75-1.322,2.743-1.695
			c0.42-0.157,0.788-0.299,1.046-0.427c1.22-0.608,1.197-1.48,1.177-2.249l-0.005-0.334v-15.131H318.007z M317.433,344.087h-1.239
			 M266.594,414.516c1.533,4.793,3.547,11.337,5.76,20.384c-1.002,0.189-1.878,0.469-2.517,0.71
			c-0.114-0.225-0.251-0.485-0.433-0.816C267.977,428.512,267.047,420.867,266.594,414.516z M269.811,437.407l0.012-0.009
			c0.189-0.184,0.277-0.424,0.312-0.676c0.605-0.233,1.484-0.521,2.486-0.707c0.297,1.232,0.594,2.475,0.897,3.799l0.385,1.672
			c2.635,11.492,4.53,19.779,6.143,30.701c-2.125-0.174-2.282-1.116-2.38-1.795c-0.115-0.805-0.322-1.745-1.479-6.959l-0.058-0.264
			c-0.823-3.714-2.58-9.789-3.862-14.227c-0.372-1.287-0.689-2.385-0.928-3.23l0.209-0.504c0.099-0.238,0.111-0.504,0.041-0.752
			C270.838,441.869,270.107,438.722,269.811,437.407z M270.633,447.413c0.163,0.569,0.338,1.175,0.533,1.85
			c1.277,4.421,3.031,10.478,3.846,14.155l0.058,0.264c1.121,5.059,1.354,6.112,1.468,6.906c0.111,0.788,0.404,2.56,3.676,2.747
			c0.606,4.238,1.176,8.879,1.729,14.272c0.015,0.141,0.028,0.275,0.042,0.415c-1.08-0.111-3.713-0.792-7.428-4.453
			c-3.361-3.312-8.573-9.956-8.984-19.56c0.006-0.072,0.01-0.136,0.018-0.207C266.102,458.393,268.852,451.674,270.633,447.413z
			 M271.928,504.126c-4.288-9.331-6.309-20.065-6.62-25.006c-0.191-3.02-0.273-5.99-0.116-9.628
			c1.691,7.083,5.744,12.12,8.561,14.895c4.17,4.107,7.14,4.729,8.35,4.79c1.588,15.533,2.801,28.228,3.254,33.015
			C280.559,518.459,276.396,513.845,271.928,504.126z M310.133,532.551c-8.489-0.936-16.199-4.039-23.538-9.434
			c-0.36-3.825-1.711-18.058-3.511-35.626c-2.064-20.096-4.322-29.944-8.063-46.261l-0.384-1.672
			c-0.341-1.49-0.678-2.901-1.012-4.275c0-0.002,0.001-0.002,0.001-0.002c0-0.001-0.001-0.002-0.001-0.002
			c-2.652-10.927-5.027-18.295-6.66-23.348c-0.227-0.705-0.43-1.334-0.621-1.936c-0.026-0.685-0.054-1.375-0.064-1.993
			c-0.003-0.089-0.014-0.178-0.036-0.265c-0.946-3.67-1.958-10.312-1.958-17.947c0-7.799,0.771-13.951,2.757-21.945
			c1.157-4.656,2.144-7.109,3.154-8.551c-2.31,10.084-2.56,20.465-1.833,30.688c0.797,11.226,3.074,22.277,5.909,33.118
			c2.775,10.858,5.454,21.74,7.825,32.693c2.331,10.955,4.508,21.968,5.656,33.121c-1.053-11.163-3.138-22.201-5.375-33.182
			c-2.281-10.977-4.867-21.889-7.551-32.771c-2.74-10.855-4.911-21.876-5.607-33.039c-0.682-10.773-0.241-21.769,2.512-32.162
			c0.314-0.213,0.639-0.395,0.979-0.563c1.154-0.579,4.004-1.81,7.305-3.234c4.305-1.862,9.668-4.179,13.307-5.933
			c2.535-1.221,5.068-2.496,7.241-3.591c2.458-1.237,4.993-2.513,5.712-2.771c1.041,0.215,5.733,1.755,6.91,2.318
			c0.717,0.343,0.717,0.626,0.717,1.245c0,0.42,0.235,0.771,0.572,0.971v14.88c-1.248,0.374-4.672,1.413-5.479,1.813
			c-0.962,0.483-1.76,2.312-1.76,19.887c0,12.859,2.136,39.753,2.839,48.59l0.203,2.584c0.352,4.641,0.644,87.782,0.68,98.483
			C310.636,532.457,310.352,532.486,310.133,532.551z M319.754,532.461c-2.059,0.111-4.531,0.108-6.403,0.024
			c-0.478-0.021-0.879-0.037-1.247-0.048c-0.038-10.992-0.323-93.82-0.684-98.568l-0.203-2.587c-0.029-0.356-0.062-0.787-0.096-1.2
			h11.714c-0.312,5.666-0.498,12.595-0.498,25.235v77.067C321.704,532.367,320.887,532.4,319.754,532.461z M323.482,532.543v-77.226
			c0-19.71,0.452-25.513,1.135-34.299c0.128-1.632,0.262-3.368,0.402-5.317c1.229-16.904,1.826-27.486,1.826-32.349
			c0-4.414-0.311-9.259-0.539-12.796c-0.085-1.289-0.157-2.426-0.202-3.331c-0.17-3.366-0.502-4.245-1.776-4.698
			c-0.743-0.262-4.011-1.246-5.176-1.596v-14.729c0.336-0.199,0.572-0.551,0.572-0.971c0-0.834,0.168-1.272,1.167-1.672
			c3.938-1.593,5.561-1.867,6.133-1.905c0.195,0.092,0.547,0.28,1.24,0.645c1.055,0.554,2.826,1.485,5.858,3.039
			c7.587,3.907,23.16,10.823,27.008,12.304c0.167,0.064,0.306,0.175,0.459,0.261c1.261,5,1.873,10.239,2.233,15.433
			c0.348,5.562,0.368,11.147-0.017,16.709c-0.776,11.135-2.896,22.143-5.259,33.066c-2.372,10.929-5.078,21.789-7.5,32.714
			c-2.416,10.917-4.698,21.917-5.479,33.091c0.877-11.166,3.251-22.135,5.758-33.027c2.515-10.9,5.312-21.734,7.779-32.654
			c2.458-10.913,4.679-21.927,5.558-33.127c0.435-5.599,0.463-11.225,0.16-16.832c-0.292-4.711-0.778-9.4-1.775-14.053
			c1.367,1.907,1.921,5.018,2.256,8.018c0.021,0.178,0.08,0.35,0.179,0.5c0.187,0.285,0.44,0.685,0.712,1.412
			c0.6,3.611,1.441,9.02,1.441,19.024c0,5.378,0,13.503-3.938,30.87c-0.68,3.006-1.404,6.125-2.147,9.33
			c-3.482,15.001-7.428,32.004-9.561,48.311c-2.1,16.04-3.467,32.305-4.283,42.021c-0.148,1.763-0.277,3.305-0.391,4.602
			c-7.618,5.973-19.458,9.12-23.721,9.261C323.563,532.558,323.517,532.556,323.482,532.543z M349.24,521.668
			c-0.217,0.208-0.455,0.402-0.684,0.604c0.089-1.038,0.186-2.189,0.293-3.468c0.602-7.157,1.503-17.871,2.774-29.425
			c3.272-0.714,6.185-2.705,10.539-7.207c3.305-3.417,5.475-8.76,6.431-13.077c0.072,1.192,0.122,2.39,0.122,3.601
			C368.716,500.108,355.098,516.075,349.24,521.668z"/>
	</g>
</g>
<g>
	<polyline fill="none" stroke="#CCC" stroke-miterlimit="10" points="57.25,536.5 43.5,536.5 43.5,265.5 57.25,265.5 	"/>
	<line fill="none" stroke="#CCC" stroke-width="3" stroke-miterlimit="10" x1="69.5" y1="265.5" x2="102.166" y2="265.5"/>
	<line fill="none" stroke="#CCC" stroke-width="3" stroke-miterlimit="10" x1="69.5" y1="536.5" x2="102.166" y2="536.5"/>
</g>
<g>
	<polyline fill="none" stroke="#CCC" stroke-miterlimit="10" points="575.416,536.5 589.166,536.5 589.166,265.5 575.416,265.5
		"/>
	<line fill="none" stroke="#CCC" stroke-width="3" stroke-miterlimit="10" x1="563.166" y1="265.5" x2="530.5" y2="265.5"/>
	<line fill="none" stroke="#CCC" stroke-width="3" stroke-miterlimit="10" x1="563.166" y1="536.5" x2="530.5" y2="536.5"/>
</g>
<g>
	<circle fill="#ff8a00" cx="344" cy="385" r="5.133"/>
	<polyline fill="none" stroke="#ff8a00" stroke-miterlimit="10" points="344,385 388.5,337.5 454.833,337.5 	"/>
</g>
<rect x="464.5" y="332.858" fill="none" width="100.5" height="17"/>
<text transform="matrix(1 0 0 1 464.5 341.5859)" font-family="'Inter-SemiBold'" font-size="12">Pan</text>
<g>
	<circle fill="#ff8a00" cx="316.646" cy="374.589" r="5.133"/>
	<polyline fill="none" stroke="#ff8a00" stroke-miterlimit="10" points="387.479,283.354 361.146,283.354 316.646,329.854
		316.646,374.589 	"/>
</g>
<rect x="398" y="277" fill="none" width="100.5" height="17"/>
<text transform="matrix(1 0 0 1 398 285.7275)" font-family="'Inter-SemiBold'" font-size="12">Zoom in/out</text>
<g>
	<circle fill="#ff8a00" cx="292.666" cy="374" r="5.133"/>
	<polyline fill="none" stroke="#ff8a00" stroke-miterlimit="10" points="292.666,374 248.166,327.5 181.833,327.5 	"/>
</g>
<rect x="100.167" y="322.667" fill="none" width="72.5" height="31.001"/>
<text transform="matrix(1 0 0 1 126.1621 331.3945)"><tspan x="0" y="0" font-family="'Inter-SemiBold'" font-size="12">Select a </tspan><tspan x="5.225" y="14.4" font-family="'Inter-SemiBold'" font-size="12">project</tspan></text>
</svg>
