<svg version="1.1" xmlns="http://www.w3.org/2000/svg" x="0px" y="0px" viewBox="0 0 200 200" role="img" preserveAspectRatio="xMinYMin meet">
<path fill="#9999FF" d="M164.584,195H35.417C15.833,195,0,179.166,0,159.584V35.417C0,15.833,15.833,0,35.417,0h129.167
	C184.166,0,200,15.833,200,35.417v124.167C200,179.166,184.166,195,164.584,195z"/>
<path fill="#1E013F" d="M161.416,186.666H38.583c-16.667,0-30.25-13.582-30.25-30.332V38.667c0-16.75,13.583-30.333,30.25-30.333
	h122.75c16.75,0,30.25,13.583,30.25,30.25v117.75C191.666,173.084,178.084,186.666,161.416,186.666z"/>
<path fill="#9999FF" d="M84.26,115.24H55.23L49.3,133.657c-0.155,0.702-0.78,1.171-1.482,1.092H33.146
	c-0.857,0-1.092-0.468-0.857-1.404l25.127-72.025c0.233-0.781,0.468-1.483,0.779-2.419c0.312-1.639,0.469-3.355,0.469-5.072
	c-0.078-0.391,0.234-0.781,0.624-0.859c0.078,0,0.156,0,0.234,0h19.977c0.546,0,0.937,0.234,1.015,0.625l28.482,79.985
	c0.234,0.857,0,1.249-0.781,1.249H91.906c-0.546,0.077-1.092-0.312-1.248-0.859L84.26,115.24z M59.756,99.713h19.822
	c-0.469-1.639-1.094-3.59-1.796-5.619c-0.702-2.107-1.404-4.371-2.106-6.711c-0.78-2.419-1.482-4.76-2.264-7.179
	c-0.78-2.419-1.482-4.682-2.106-6.945c-0.624-2.185-1.171-4.214-1.717-6.086h-0.156c-0.702,3.355-1.561,6.71-2.653,10.066
	c-1.17,3.746-2.341,7.647-3.589,11.549C62.176,92.767,60.927,96.435,59.756,99.713z M155.27,108.062h-24.735
	c0.312,2.42,1.092,4.838,2.419,6.944c1.405,2.107,3.354,3.746,5.695,4.683c3.122,1.327,6.555,2.029,9.99,1.951
	c2.73-0.079,5.461-0.312,8.114-0.857c2.42-0.313,4.761-0.937,6.944-1.797c0.392-0.311,0.626-0.155,0.626,0.626v11.939
	c0,0.311-0.079,0.623-0.157,0.937c-0.155,0.233-0.311,0.39-0.545,0.545c-2.498,1.094-5.073,1.873-7.805,2.341
	c-3.667,0.702-7.335,1.015-11.081,0.937c-5.93,0-10.924-0.937-14.982-2.73c-3.822-1.639-7.179-4.214-9.832-7.413
	c-2.497-3.043-4.291-6.478-5.385-10.224c-1.092-3.667-1.639-7.491-1.639-11.393c0-4.214,0.625-8.349,1.951-12.407
	c1.249-3.901,3.199-7.491,5.853-10.69c2.575-3.122,5.774-5.619,9.443-7.414c3.667-1.795,8.036-2.419,13.03-2.419
	c4.136-0.078,8.272,0.703,12.095,2.419c3.201,1.404,6.011,3.511,8.194,6.243c2.03,2.653,3.669,5.618,4.682,8.896
	c1.016,3.121,1.483,6.321,1.483,9.52c0,1.873-0.079,3.512-0.155,4.995c-0.157,1.481-0.234,2.575-0.312,3.277
	c-0.079,0.545-0.547,1.014-1.093,1.014c-0.468,0-1.327,0.078-2.574,0.157c-1.25,0.155-2.732,0.233-4.527,0.233
	C159.173,108.374,157.3,108.062,155.27,108.062z M130.534,96.669H147c2.027,0,3.511,0,4.447-0.079
	c0.624-0.078,1.248-0.234,1.795-0.624v-0.78c0-1.015-0.156-1.951-0.469-2.888c-1.404-4.37-5.54-7.335-10.145-7.179
	c-4.291-0.234-8.35,2.029-10.378,5.931C131.314,92.845,130.768,94.718,130.534,96.669z"/>
</svg>
