<svg version="1.1" xmlns="http://www.w3.org/2000/svg" x="0px" y="0px" viewBox="0 0 200 200" preserveAspectRatio="xMinYMin meet" role="img">
<path fill="#757575" d="M103.863,166.413l2.902,7.617h-5.623L103.863,166.413z M102.773,163.874l-6.348,16.686h2.357l1.633-4.534
	h7.072l1.633,4.534h2.357l-6.348-16.686H102.773z"/>
<path fill="#757575" d="M137.054,180.56h2.177v-16.686h-2.177V180.56z"/>
<path fill="#757575" d="M114.745,170.766c0.726-1.088,2.177-1.995,3.628-1.995c2.901,0,4.353,1.995,4.353,4.897v7.072h-2.177v-6.71
	c0-2.358-1.27-3.265-2.902-3.265c-1.812,0-3.082,1.814-3.082,3.446v6.348h-2.177v-11.607h2.177L114.745,170.766z"/>
<path fill="#757575" d="M124.539,177.113c0-2.539,2.357-3.99,5.078-3.99c1.633,0,2.721,0.363,3.084,0.727v-0.363
	c0-1.813-1.451-2.721-2.902-2.721c-1.27,0-2.357,0.545-2.721,1.633l-1.995-0.907c0.362-1.089,1.813-2.721,4.716-2.721
	c2.721,0,5.078,1.632,5.078,4.897v6.892h-1.995v-1.632h-0.181c-0.545,0.906-1.814,1.994-3.809,1.994
	C126.532,180.922,124.539,179.471,124.539,177.113 M132.701,175.662c0,0-0.907-0.725-2.721-0.725c-2.177,0-3.084,1.27-3.084,2.176
	c0,1.27,1.27,1.814,2.358,1.814C130.885,178.928,132.701,177.477,132.701,175.662"/>
<path fill="#757575" d="M142.312,185.638l2.539-5.985l-4.533-10.52h2.176l3.446,7.98l3.446-7.98h2.176l-7.073,16.505H142.312z"/>
<path fill="#757575" d="M174.234,172.942c-0.545-1.451-1.814-2.358-3.084-2.358c-1.813,0-3.445,1.633-3.445,3.99
	s1.632,3.99,3.445,3.99c1.27,0,2.539-0.906,3.084-2.176l1.812,1.088c-0.906,1.994-2.72,3.265-4.896,3.265
	c-3.083,0-5.622-2.721-5.622-6.167c0-3.627,2.539-6.166,5.622-6.166c2.177,0,3.99,1.27,4.896,3.265L174.234,172.942z"/>
<path fill="#757575" d="M182.033,180.922c2.901,0,4.352-1.632,4.352-3.627c0-4.353-6.348-2.721-6.348-5.26
	c0-0.906,0.727-1.451,1.996-1.451s2.539,0.545,3.082,1.451l1.27-1.27c-0.725-0.906-2.72-2.176-4.533-2.176
	c-2.721,0-4.172,1.632-4.172,3.627c0,4.172,6.529,2.721,6.529,4.896c0,1.088-0.726,1.814-2.176,1.814
	c-1.451,0-2.177-0.907-2.902-1.814l-1.633,1.27C178.586,179.471,180.219,180.922,182.033,180.922z"/>
<path fill="#757575" d="M161.357,180.56h2.176v-11.607h-2.176V180.56z"/>
<path fill="#757575" d="M162.264,163.33c0.906,0,1.451,0.725,1.451,1.451c0,0.906-0.726,1.45-1.451,1.45s-1.451-0.726-1.451-1.45
	C160.812,164.055,161.536,163.33,162.264,163.33z"/>
<path fill="#757575" d="M159.18,178.746l0.363,1.633c-0.726,0-1.451,0-2.176,0c-1.996,0-2.902-1.451-2.902-3.628v-5.622h-2.177
	v-2.177h2.177v-3.446h2.176v3.446h2.539v2.177h-2.539v5.984C156.641,178.746,157.91,178.746,159.18,178.746L159.18,178.746z"/>
<path fill="#757575" d="M25.513,170.584v2.721h6.348c-0.181,1.451-0.726,2.539-1.451,3.265c-0.907,0.907-2.358,1.995-4.897,1.995
	c-3.809,0-6.892-3.083-6.892-7.073c0-3.809,3.083-7.073,6.892-7.073c2.176,0,3.627,0.906,4.715,1.813l1.814-1.813
	c-1.632-1.451-3.627-2.721-6.529-2.721c-5.26,0-9.794,4.354-9.794,9.613c0,5.259,4.534,9.611,9.794,9.611
	c2.902,0,5.078-0.906,6.71-2.721c1.813-1.812,2.358-4.171,2.358-6.166c0-0.544,0-1.27-0.182-1.632h-8.887V170.584z"/>
<path fill="#757575" d="M41.654,168.408c-3.446,0-6.167,2.539-6.167,6.166s2.721,6.166,6.167,6.166s6.167-2.72,6.167-6.166
	C47.821,170.947,45.1,168.408,41.654,168.408L41.654,168.408z M41.654,178.383c-1.813,0-3.446-1.632-3.446-3.809
	c0-2.176,1.632-3.809,3.446-3.809s3.446,1.451,3.446,3.809S43.468,178.383,41.654,178.383L41.654,178.383z"/>
<path fill="#757575" d="M71.398,169.678c-0.726-0.726-1.813-1.451-3.446-1.451c-3.083,0-5.804,2.721-5.804,6.166
	c0,3.446,2.72,6.167,5.804,6.167c1.451,0,2.72-0.726,3.265-1.451h0.181v0.907c0,2.357-1.27,3.627-3.265,3.627
	c-1.632,0-2.72-1.27-3.083-2.176l-2.358,0.906c0.726,1.633,2.539,3.627,5.441,3.627c3.265,0,5.985-1.812,5.985-6.529v-11.244H71.58
	v1.451H71.398L71.398,169.678z M68.315,178.383c-1.814,0-3.265-1.632-3.265-3.809c0-2.176,1.451-3.809,3.265-3.809
	c1.813,0,3.265,1.633,3.265,3.809C71.578,176.751,70.129,178.383,68.315,178.383z"/>
<path fill="#757575" d="M55.075,168.408c-3.446,0-6.166,2.539-6.166,6.166s2.72,6.166,6.166,6.166c3.446,0,6.167-2.72,6.167-6.166
	C61.423,170.947,58.521,168.408,55.075,168.408z M55.075,178.383c-1.813,0-3.446-1.632-3.446-3.809c0-2.176,1.632-3.809,3.446-3.809
	c1.814,0,3.446,1.451,3.446,3.809S56.889,178.383,55.075,178.383z"/>
<path fill="#757575" d="M76.114,161.879h2.72v18.861h-2.72V161.879z"/>
<path fill="#757575" d="M86.271,178.383c-1.45,0-2.357-0.725-3.083-1.813l8.343-3.446l-0.362-0.725
	c-0.545-1.451-2.177-3.99-5.26-3.99c-3.266,0-5.805,2.539-5.805,6.166c0,3.446,2.721,6.167,6.167,6.167
	c2.901,0,4.534-1.813,5.26-2.721l-2.177-1.451C88.629,177.658,87.722,178.383,86.271,178.383L86.271,178.383z M86.09,170.766
	c1.088,0,1.994,0.545,2.357,1.451l-5.623,2.357C82.822,171.854,84.637,170.766,86.09,170.766L86.09,170.766z"/>
<path fill="#FFC517" d="M94.697,145.556h-7.613H44.623c-6.15,0-11.128-4.978-11.128-11.128v-24.014
	c0-6.148,4.978-11.127,11.128-11.127h31.626v-35.14c0-6.151,4.979-11.127,11.129-11.127h35.14v92.244h-27.82V145.556L94.697,145.556
	z"/>
<path fill="#F57E02" d="M157.66,145.556h-35.139V21.393c0-6.149,4.978-11.129,11.126-11.129h24.013
	c6.15,0,11.129,4.979,11.129,11.129v113.035C168.496,140.578,163.517,145.556,157.66,145.556L157.66,145.556z"/>
<linearGradient id="SVGID_1_" gradientUnits="userSpaceOnUse" x1="152.3457" y1="246.3691" x2="177.7916" y2="246.3691" gradientTransform="matrix(4.9341 0 0 4.9341 -629.2991 -1116.3218)">
	<stop  offset="0" style="stop-color:#E96F0B"/>
	<stop  offset="1" style="stop-color:#F37901"/>
</linearGradient>
<path fill="url(#SVGID_1_)" d="M168.493,99.287v35.141c0,6.15-4.979,11.128-11.129,11.128h-35.14V53.02L168.493,99.287z"/>
</svg>
