<?xml version="1.0" encoding="utf-8"?>
<!-- Generator: Adobe Illustrator 16.0.0, SVG Export Plug-In . SVG Version: 6.00 Build 0)  -->
<!DOCTYPE svg PUBLIC "-//W3C//DTD SVG 1.1//EN" "http://www.w3.org/Graphics/SVG/1.1/DTD/svg11.dtd">
<svg version="1.1" id="Layer_1" xmlns="http://www.w3.org/2000/svg" xmlns:xlink="http://www.w3.org/1999/xlink" x="0px" y="0px" width="2000px" height="2000px" viewBox="0 0 2000 2000" enable-background="new 0 0 2000 2000" xml:space="preserve" preserveAspectRatio="xMidYMid meet">
<g>
	<path fill="#7CB342" d="M1000,40.412c-474.219,0-859.375,385.156-859.375,859.375H1000h859.375
		C1860.156,424.787,1475,40.412,1000,40.412z"/>
	<path fill="#8BC34A" d="M1000,899.786H140.625c0,474.219,385.156,859.375,859.375,859.375s859.375-385.156,859.375-859.375H1000z"
		/>

		<linearGradient id="SVGID_1_" gradientUnits="userSpaceOnUse" x1="-429.8945" y1="1736.9355" x2="48.4824" y2="2215.3127" gradientTransform="matrix(1.9992 0 0 1.9992 1413.3256 -2722.7632)">
		<stop  offset="0.33" style="stop-color:#263238;stop-opacity:0.16"/>
		<stop  offset="1" style="stop-color:#263238;stop-opacity:0"/>
	</linearGradient>
	<path fill="url(#SVGID_1_)" d="M1619.531,901.349c0-0.781,0-1.562,0-1.562h-39.844L1100,420.099l0,0l0,0h-100h-99.219v0.781
		v160.156H850c-49.219,0-89.844,40.625-89.844,89.844v203.906h0.781c-0.781,7.031,3.906,15.625,13.281,25.781
		C775,901.349,775,901.349,775,902.13l31.25,31.25l-360.156,624.219c41.406,35.156,85.938,65.625,132.812,92.188
		c125,70.312,267.969,110.938,421.875,110.938c153.125,0,296.875-40.625,421.875-110.938
		c46.875-26.562,91.406-57.812,132.812-92.188c126.562-107.031,221.094-249.219,269.531-412.5
		c3.125-10.156,5.469-20.312,8.594-29.688L1619.531,901.349z"/>
	<path fill="#646464" d="M1689.062,1799.786c-0.781-7.812-3.125-14.844-7.031-21.875l0,0l-250-433.594
		c115.625-112.5,188.281-270.312,188.281-444.531h-160.156c0,114.062-42.188,218.75-111.719,300L1193.75,932.599l31.25-31.25
		c10.156-10.156,14.062-19.531,14.062-26.562h0.781V670.88c0-49.219-40.625-89.844-89.844-89.844h-50V420.88v-0.781h-100h-99.219
		v0.781v160.156H850c-49.219,0-89.844,40.625-89.844,89.844v203.906h0.781c-0.781,7.812,3.906,16.406,14.062,26.562l31.25,31.25
		L317.969,1777.13c-3.906,7.031-6.25,14.062-7.031,21.875L300,1944.317c-0.781,5.469,2.344,10.156,7.031,13.281l0,0l0,0
		c4.688,3.125,10.156,2.344,14.844-0.781l120.312-81.25c6.25-4.688,11.719-10.156,15.625-16.406l0,0l241.406-417.969
		c89.062,50,192.188,78.906,301.562,78.906s212.5-28.906,301.562-78.906l241.406,417.188c3.906,7.031,9.375,12.5,15.625,16.406
		l120.312,82.031c4.688,3.125,10.156,3.125,14.844,0.782l0,0l0,0c4.688-3.125,7.031-7.812,7.031-13.281L1689.062,1799.786z
		 M1000,659.942v-1.562l0.781,1.562c65.625,0.781,119.531,53.906,119.531,120.312s-53.906,119.531-119.531,120.312H1000l0,0
		c-65.625,0-119.531-53.906-119.531-120.312C880.469,713.067,933.594,659.942,1000,659.942z M1000,1359.161
		c-80.469,0-156.25-21.094-221.094-57.031l145.312-251.562l30.469,30.469c12.5,12.5,28.906,18.75,44.531,18.75v-0.781l0.781,0.781
		c16.406,0,32.812-6.25,44.531-18.75l30.469-30.469l145.312,252.344C1156.25,1338.849,1080.469,1359.161,1000,1359.161z"/>
	<g>
		<path fill="#E1E1E1" d="M1689.062,1799.786c-0.781-7.812-3.125-14.844-7.031-21.875l0,0l-250-433.594l-82.812-144.531
			l-154.688-267.188l-117.969,117.969l145.312,252.344l79.688,138.281l241.406,417.188c3.906,7.031,9.375,12.5,15.625,16.406
			l120.312,82.031c4.688,3.125,10.156,3.125,14.844,0.781l0,0l0,0c4.688-3.125,7.031-7.812,7.031-13.281L1689.062,1799.786z"/>
		<path fill="#F1F1F1" d="M1460.156,899.786c0,114.062-42.188,218.75-111.719,300c-35.938,41.406-78.125,76.562-126.562,103.125
			c-65.625,36.719-141.406,57.031-221.875,57.031s-156.25-21.094-221.094-57.031l145.312-252.344L806.25,932.599l-488.281,845.312
			c-3.906,7.031-6.25,14.062-7.031,21.875L300,1945.099c-0.781,5.469,2.344,10.156,7.031,13.281l0,0l0,0
			c4.688,3.125,10.156,2.344,14.844-0.781l120.312-81.25c6.249-4.688,11.719-10.156,15.625-16.406l0,0l241.405-417.969
			c89.062,50,192.188,78.906,301.563,78.906s212.5-28.906,301.562-78.906c47.656-26.562,91.406-59.375,129.688-96.875
			c115.625-112.5,188.281-270.312,188.281-444.531L1460.156,899.786L1460.156,899.786z"/>
		<path fill="#262626" fill-opacity="0.2" d="M1432.031,1333.38c-39.062,37.5-82.031,70.312-129.688,96.875
			c-89.062,50-192.188,78.906-301.562,78.906s-212.501-28.906-301.563-78.906l-241.405,417.969l0,0
			c-3.906,7.031-9.376,12.5-15.625,16.406l-120.312,81.25c-4.688,3.125-10.156,3.125-14.844,0.781l0,0l0,0
			c-3.906-2.344-5.469-6.25-6.25-10.156l-0.781,7.031c-0.781,5.469,2.344,10.156,7.031,13.281l0,0l0,0
			c4.688,2.344,10.156,2.344,14.844-0.781l120.312-81.25c6.249-4.688,11.719-10.156,15.625-16.406l0,0l241.405-417.969
			c89.062,50,192.188,78.906,301.563,78.906s212.5-28.906,301.562-78.906c47.656-26.562,91.406-59.375,129.688-96.875
			c115.625-112.5,188.281-270.312,188.281-444.531h-0.781C1617.188,1069.317,1545.312,1223.224,1432.031,1333.38z"/>
		<path fill="#646464" d="M1150,580.255h-50V420.099v-0.781h-100h-99.219v0.781v160.156H850c-49.219,0-89.844,40.625-89.844,89.844
			v203.906h0.781c-0.781,7.812,3.906,16.406,14.062,26.562l180.469,180.469c12.5,12.5,28.906,18.75,44.531,18.75v-0.781l0.781,0.781
			c16.406,0,32.812-6.25,44.531-18.75l180.469-180.469c10.156-10.156,14.062-19.531,14.062-26.562h0.781V670.88
			C1239.844,620.88,1200,580.255,1150,580.255z M1000.781,899.786h-0.782l0,0c-65.624,0-119.53-53.906-119.53-120.312
			s53.906-120.312,119.53-120.312v-1.562l0.782,1.562c65.624,0.781,119.53,53.906,119.53,120.312S1066.406,899.005,1000.781,899.786
			z"/>
		<path fill="none" d="M1000,899.786L1000,899.786h0.781c65.625-0.781,119.531-53.906,119.531-120.312
			s-53.906-119.531-119.531-120.312l-0.781-1.562v1.562c-65.625,0-119.531,53.906-119.531,120.312S933.594,899.786,1000,899.786z"/>
	</g>
</g>
</svg>
