<svg version="1.1" xmlns="http://www.w3.org/2000/svg" x="0px" y="0px" viewBox="0 0 2000 2000" preserveAspectRatio="xMinYMin meet" role="img">
<g>
	<path fill="#7CB342" d="M1900.5,1140.912c-474.219,0-859.375,385.156-859.375,859.375H1900.5h859.375
		C2760.656,1525.287,2375.5,1140.912,1900.5,1140.912z"/>
	<path fill="#8BC34A" d="M1900.5,2000.286h-859.375c0,474.219,385.156,859.375,859.375,859.375s859.375-385.156,859.375-859.375
		H1900.5z"/>

		<linearGradient id="SVGID_1_" gradientUnits="userSpaceOnUse" x1="569.3848" y1="-897.0503" x2="1047.7615" y2="-1375.4274" gradientTransform="matrix(1.9992 0 0 -1.9992 316.0457 56.856)">
		<stop  offset="0.33" style="stop-color:#263238;stop-opacity:0.16"/>
		<stop  offset="1" style="stop-color:#263238;stop-opacity:0"/>
	</linearGradient>
	<path fill="url(#SVGID_1_)" d="M2520.031,2001.849c0-0.78,0-1.562,0-1.562h-39.844L2000.5,1520.6l0,0l0,0h-100h-99.219v0.78
		v160.156H1750.5c-49.219,0-89.844,40.625-89.844,89.844v203.906h0.781c-0.781,7.031,3.905,15.625,13.28,25.781
		c0.782,0.781,0.782,0.781,0.782,1.562l31.25,31.25l-360.156,624.219c41.406,35.156,85.938,65.625,132.812,92.188
		c125,70.312,267.969,110.938,421.875,110.938c153.125,0,296.875-40.625,421.875-110.938
		c46.875-26.562,91.406-57.812,132.812-92.188c126.562-107.03,221.095-249.219,269.531-412.5
		c3.125-10.155,5.469-20.312,8.594-29.688L2520.031,2001.849z"/>
	<path fill="#646464" d="M2589.562,2900.286c-0.781-7.812-3.125-14.844-7.031-21.875l0,0l-250-433.594
		c115.625-112.5,188.281-270.312,188.281-444.531h-160.156c0,114.062-42.188,218.75-111.719,300l-154.688-267.188l31.25-31.25
		c10.156-10.155,14.062-19.53,14.062-26.562h0.78V1771.38c0-49.219-40.625-89.844-89.844-89.844h-50V1521.38v-0.78h-100h-99.219
		v0.78v160.156h-50.78c-49.219,0-89.844,40.625-89.844,89.844v203.906h0.781c-0.781,7.812,3.905,16.406,14.062,26.562l31.25,31.25
		l-488.28,844.532c-3.906,7.031-6.25,14.062-7.031,21.875l-10.938,145.312c-0.781,5.469,2.344,10.155,7.031,13.28l0,0l0,0
		c4.688,3.125,10.156,2.345,14.844-0.78l120.312-81.25c6.25-4.688,11.719-10.156,15.625-16.406l0,0l241.405-417.969
		c89.062,50,192.188,78.905,301.562,78.905s212.5-28.905,301.562-78.905l241.406,417.188c3.906,7.031,9.375,12.5,15.625,16.406
		l120.312,82.031c4.688,3.125,10.155,3.125,14.844,0.781l0,0l0,0c4.688-3.125,7.031-7.812,7.031-13.28L2589.562,2900.286z
		 M1900.5,1760.442v-1.562l0.781,1.562c65.625,0.78,119.531,53.905,119.531,120.312s-53.906,119.531-119.531,120.312h-0.781l0,0
		c-65.625,0-119.531-53.906-119.531-120.312C1780.969,1813.567,1834.094,1760.442,1900.5,1760.442z M1900.5,2459.661
		c-80.469,0-156.25-21.094-221.094-57.031l145.312-251.562l30.47,30.469c12.5,12.5,28.905,18.75,44.53,18.75v-0.781l0.781,0.781
		c16.406,0,32.812-6.25,44.531-18.75l30.469-30.469l145.312,252.344C2056.75,2439.349,1980.969,2459.661,1900.5,2459.661z"/>
	<g>
		<path fill="#E1E1E1" d="M2589.562,2900.286c-0.781-7.812-3.125-14.844-7.031-21.875l0,0l-250-433.594l-82.812-144.531
			l-154.688-267.188l-117.969,117.97l145.312,252.344l79.688,138.281l241.405,417.188c3.906,7.031,9.375,12.5,15.625,16.406
			l120.312,82.031c4.688,3.125,10.155,3.125,14.844,0.78l0,0l0,0c4.688-3.125,7.031-7.812,7.031-13.28L2589.562,2900.286z"/>
		<path fill="#F1F1F1" d="M2360.656,2000.286c0,114.062-42.188,218.75-111.719,300c-35.938,41.406-78.125,76.562-126.562,103.125
			c-65.625,36.719-141.406,57.031-221.875,57.031s-156.25-21.095-221.094-57.031l145.312-252.344l-117.968-117.969l-488.281,845.312
			c-3.906,7.031-6.25,14.062-7.031,21.875l-10.938,145.312c-0.781,5.47,2.344,10.156,7.031,13.281l0,0l0,0
			c4.688,3.125,10.156,2.344,14.844-0.781l120.312-81.25c6.248-4.688,11.719-10.155,15.625-16.405l0,0l241.404-417.97
			c89.062,50,192.188,78.906,301.563,78.906s212.5-28.906,301.562-78.906c47.656-26.562,91.406-59.375,129.688-96.875
			c115.625-112.5,188.28-270.312,188.28-444.53L2360.656,2000.286L2360.656,2000.286z"/>
		<path fill="#262626" fill-opacity="0.2" d="M2332.531,2433.88c-39.062,37.5-82.031,70.312-129.688,96.875
			c-89.062,50-192.188,78.906-301.562,78.906s-212.501-28.906-301.563-78.906l-241.404,417.969l0,0
			c-3.906,7.031-9.376,12.5-15.625,16.406l-120.312,81.25c-4.688,3.125-10.156,3.125-14.844,0.781l0,0l0,0
			c-3.906-2.344-5.469-6.25-6.25-10.156l-0.781,7.031c-0.781,5.469,2.344,10.156,7.031,13.281l0,0l0,0
			c4.688,2.344,10.156,2.344,14.844-0.781l120.312-81.25c6.249-4.688,11.719-10.156,15.625-16.406l0,0l241.404-417.969
			c89.062,50,192.188,78.906,301.563,78.906s212.5-28.906,301.562-78.906c47.656-26.562,91.406-59.375,129.688-96.875
			c115.625-112.5,188.281-270.312,188.281-444.531h-0.781C2517.688,2169.817,2445.812,2323.724,2332.531,2433.88z"/>
		<path fill="#646464" d="M2050.5,1680.755h-50V1520.6v-0.781h-100h-99.219v0.781v160.155H1750.5
			c-49.219,0-89.844,40.625-89.844,89.844v203.906h0.781c-0.781,7.812,3.905,16.406,14.062,26.562l180.469,180.469
			c12.5,12.5,28.906,18.75,44.531,18.75v-0.781l0.781,0.781c16.405,0,32.812-6.25,44.53-18.75l180.47-180.469
			c10.155-10.156,14.062-19.531,14.062-26.562h0.781V1771.38C2140.344,1721.38,2100.5,1680.755,2050.5,1680.755z M1901.281,2000.286
			h-0.782l0,0c-65.624,0-119.53-53.906-119.53-120.312c0-66.405,53.906-120.312,119.53-120.312v-1.562l0.782,1.562
			c65.624,0.781,119.529,53.906,119.529,120.312C2020.811,1946.38,1966.906,1999.505,1901.281,2000.286z"/>
		<path fill="none" d="M1900.5,2000.286L1900.5,2000.286h0.781c65.625-0.781,119.531-53.906,119.531-120.312
			c0-66.405-53.906-119.53-119.531-120.312l-0.781-1.562v1.562c-65.625,0-119.531,53.906-119.531,120.312
			C1780.969,1946.38,1834.094,2000.286,1900.5,2000.286z"/>
	</g>
</g>
</svg>
