<svg version="1.1" xmlns="http://www.w3.org/2000/svg" x="0px" y="0px" viewBox="0 0 200 200" preserveAspectRatio="xMinYMin meet" role="img">
<path id="path4163" fill="#005385" d="M101.821,110.96c0.318-5.729,3.129-10.783,7.36-14.368l0,0
	c4.16-3.519,9.754-5.665,15.854-5.668l0,0c6.102,0.003,11.695,2.149,15.854,5.668l0,0c4.233,3.585,7.043,8.639,7.365,14.368
	c0.322,5.892-2.042,11.372-6.201,15.428l0,0c-4.233,4.127-10.268,6.72-17.014,6.72l0,0c-6.75,0-12.787-2.593-17.026-6.72l0,0
	C103.859,122.33,101.495,116.852,101.821,110.96L101.821,110.96z"/>
<path id="path4167" fill="#FF7021" d="M64.843,122.562c0.038,2.235,0.76,6.596,1.83,10.009l0,0
	c2.255,7.206,6.083,13.879,11.414,19.76l0,0c5.467,6.037,12.192,10.894,19.967,14.334l0,0c8.175,3.623,17.033,5.471,26.218,5.452
	l0,0c9.188-0.017,18.042-1.894,26.217-5.539l0,0c7.77-3.479,14.495-8.347,19.959-14.399l0,0c5.321-5.902,9.143-12.587,11.401-19.796
	l0,0c1.144-3.646,1.852-7.34,2.144-11.049l0,0c0.286-3.652,0.165-7.317-0.353-10.974l0,0c-1.013-7.126-3.481-13.817-7.273-19.915
	c-3.482-5.6-7.954-10.505-13.279-14.636l0,0l0.008-0.007l0,0l-53.716-41.25l0,0c-0.043-0.039-0.09-0.077-0.135-0.115l0,0
	c-3.535-2.699-9.458-2.691-13.331,0.02l0,0c-3.927,2.746-4.367,7.274-0.885,10.142l0,0l-0.011,0.007l0,0l22.406,18.225L49.124,62.9
	l0,0c-0.031,0-0.061,0-0.095,0l0,0c-5.643,0.003-11.064,3.714-12.142,8.392l0,0c-1.098,4.77,2.737,8.723,8.604,8.744l0,0
	l-0.007,0.023l0,0l34.615-0.067l-61.775,47.411l0,0c-0.076,0.061-0.159,0.119-0.235,0.179l0,0c-5.82,4.463-7.708,11.886-4.04,16.582
	l0,0c3.729,4.775,11.645,4.783,17.534,0.02l0,0l33.714-27.585C65.295,116.598,64.805,120.321,64.843,122.562L64.843,122.562z
	 M151.469,135.028c-6.943,7.084-16.664,11.094-27.192,11.111l0,0c-10.532,0.021-20.257-3.96-27.206-11.025l0,0
	c-3.395-3.447-5.889-7.399-7.431-11.626l0,0c-1.504-4.145-2.093-8.543-1.704-12.98l0,0c0.376-4.345,1.656-8.483,3.725-12.23l0,0
	c2.031-3.683,4.822-7.009,8.266-9.827l0,0c6.75-5.506,15.344-8.483,24.343-8.495l0,0c8.999-0.011,17.588,2.944,24.342,8.426l0,0
	c3.439,2.804,6.231,6.118,8.259,9.793l0,0c2.07,3.745,3.354,7.875,3.732,12.218l0,0c0.383,4.438-0.199,8.836-1.708,12.985l0,0
	C157.354,127.609,154.864,131.569,151.469,135.028L151.469,135.028z"/>
</svg>
