<svg version="1.1" xmlns="http://www.w3.org/2000/svg" x="0px" y="0px"
	 viewBox="0 0 200 200" preserveAspectRatio="xMinYMin meet" role="img">
<path fill="#EC1B24" d="M30.727,113.499c0-2.3-1.698-3.893-5.261-3.893h-7.14v7.847h7.315
	C28.623,117.453,30.727,116.39,30.727,113.499L30.727,113.499z M29.441,97.928c0-2.243-1.523-3.776-3.802-3.776h-7.315v7.434h7.14
	C28.035,101.585,29.441,99.698,29.441,97.928z M41.373,114.619c0,6.728-6.197,11.149-12.459,11.149H8.5V85.833h18.715
	c7.198,0,12.401,3.596,12.401,10.973c0,6.312-5.494,8.199-5.494,8.199C34.123,105.063,41.373,106.717,41.373,114.619"/>
<path fill="#EC1B24" d="M71.927,105.772c0-6.252-2.866-11.326-8.535-11.326c-5.674,0-8.482,5.074-8.482,11.326
	c0,6.312,2.808,11.385,8.482,11.385C69.062,117.157,71.927,112.085,71.927,105.772z M81.752,105.772
	c0,11.738-6.727,20.94-18.36,20.94c-11.582,0-18.367-9.202-18.367-20.94c0-11.68,6.785-20.939,18.36-20.939
	C75.026,84.833,81.752,94.094,81.752,105.772"/>
<path fill="#EC1B24" d="M116.053,113.677c0,8.789-7.953,13.037-15.436,13.037c-8.658,0-13.105-3.304-16.611-7.492l6.372-6.253
	c2.692,3.421,6.203,5.134,10.121,5.134c3.217,0,5.379-1.593,5.379-3.953c0-2.535-1.91-3.326-7.142-4.424l-1.399-0.295
	c-6.294-1.322-11.465-4.896-11.465-12.033c0-7.845,6.377-12.563,14.803-12.563c7.133,0,11.754,3.065,14.564,6.25l-6.205,6.138
	c-1.932-2.064-4.854-3.717-8.186-3.717c-2.281,0-4.856,1.062-4.856,3.717c0,2.418,2.679,3.295,6.083,4.012l1.406,0.295
	C109.178,102.722,116.053,104.476,116.053,113.677"/>
<path fill="#EC1B24" d="M154.039,118.041c-4.096,5.899-7.896,8.673-15.793,8.673c-11.227,0-18.482-9.32-18.482-21.177
	c0-11.267,6.553-20.646,18.602-20.646c6.609,0,11.348,2.596,15.383,8.67l-8.068,5.369c-1.641-2.832-3.746-4.484-7.256-4.484
	c-4.443,0-8.717,3.975-8.717,11.091c0,7.976,4.623,11.62,9.014,11.62c3.795,0,5.551-1.889,7.191-4.602L154.039,118.041"/>
<path fill="#EC1B24" d="M191.5,125.769h-10.529v-15.748h-12.111v15.748h-10.463V85.833h10.463v14.688h12.111V85.833H191.5V125.769"
	/>
</svg>
