<svg version="1.1" id="Layer_1" xmlns="http://www.w3.org/2000/svg" x="0px" y="0px" viewBox="0 0 250 180">
  <path
     d="m 38.62223,102.36371 c 0,-2.868929 -2.117081,-4.853995 -6.560538,-4.853995 h -8.903013 v 9.782845 h 9.120356 c 3.71898,0 6.343195,-1.32418 6.343195,-4.92885 z M 37.020332,82.947734 c 0,-2.795675 -1.899739,-4.708293 -4.741297,-4.708293 h -9.120356 v 9.267666 h 8.903013 c 3.203797,0 4.95864,-2.352939 4.95864,-4.559373 z m 14.875921,20.812606 c 0,8.38622 -7.727751,13.90271 -15.536,13.90271 H 10.906974 v -49.7957 h 23.336198 c 8.97546,0 15.463551,4.483705 15.463551,13.681339 0,7.871036 -6.850329,10.223976 -6.850329,10.223976 0,0.07406 9.039859,2.133986 9.039859,11.987675"
     style="fill:#ec1b24;fill-rule:evenodd;stroke:none;stroke-width:0.804974"
     id="path3190" />
  <path
     d="m 89.995675,92.729779 c 0,-7.796979 -3.574085,-14.122465 -10.641757,-14.122465 -7.075722,0 -10.577359,6.325486 -10.577359,14.122465 0,7.869431 3.501637,14.194111 10.577359,14.194111 7.067672,0 10.641757,-6.32468 10.641757,-14.194111 z m 12.251705,0 c 0,14.636041 -8.38783,26.110141 -22.893462,26.110141 -14.441235,0 -22.901512,-11.4741 -22.901512,-26.110141 0,-14.563591 8.460277,-26.110139 22.893462,-26.110139 14.513682,0 22.901512,11.546548 22.901512,26.110139"
     style="fill:#ec1b24;fill-rule:evenodd;stroke:none;stroke-width:0.804974"
     id="path3194" />
  <path
     d="m 145.01565,102.58427 c 0,10.95972 -9.91728,16.25565 -19.24693,16.25565 -10.7947,0 -16.34097,-4.11905 -20.71198,-9.34092 l 7.94509,-7.79779 c 3.35675,4.26717 7.7358,6.40035 12.622,6.40035 4.00877,0 6.70543,-1.98587 6.70543,-4.92885 0,-3.16194 -2.38272,-4.147229 -8.90301,-5.51649 l -1.7468,-0.367068 c -7.84849,-1.648587 -14.29634,-6.104118 -14.29634,-15.003912 0,-9.78124 7.95315,-15.6656 18.45806,-15.6656 8.89496,0 14.65858,3.823627 18.16021,7.792149 l -7.7358,7.652888 c -2.40687,-2.575112 -6.0534,-4.634235 -10.20707,-4.634235 -2.84156,0 -6.0534,1.324182 -6.0534,4.634235 0,3.015433 3.34064,4.109393 7.58285,5.001304 l 1.75485,0.368678 c 7.09987,1.490007 15.67284,3.677122 15.67284,15.149611"
     style="fill:#ec1b24;fill-rule:evenodd;stroke:none;stroke-width:0.804974"
     id="path3198" />
  <path
     d="m 192.38033,108.02751 c -5.10354,7.35504 -9.84484,10.81241 -19.68967,10.81241 -13.9985,0 -23.04641,-11.62141 -23.04641,-26.404762 0,-14.048407 8.17049,-25.74307 23.19131,-25.74307 8.24293,0 14.15144,3.235996 19.18253,10.812411 l -10.06218,6.69336 c -2.04463,-3.531422 -4.66885,-5.590545 -9.04791,-5.590545 -5.53822,0 -10.86715,4.954615 -10.86715,13.827844 0,9.943042 5.76362,14.488732 11.23744,14.488732 4.73325,0 6.92278,-2.35375 8.96741,-5.73705 l 10.13463,6.84067"
     style="fill:#ec1b24;fill-rule:evenodd;stroke:none;stroke-width:0.804974"
     id="path3202" />
  <path
     d="M 239.09297,117.66305 H 225.96384 V 98.024898 H 210.86253 V 117.66305 H 197.8139 v -49.7957 h 13.04863 v 18.315575 h 15.10131 V 67.86735 h 13.12913 v 49.7957"
     style="fill:#ec1b24;fill-rule:evenodd;stroke:none;stroke-width:0.804974"
     id="path3206" />
</svg>
