<?xml version="1.0" encoding="utf-8"?>
<!-- Generator: Adobe Illustrator 16.0.0, SVG Export Plug-In . SVG Version: 6.00 Build 0)  -->
<!DOCTYPE svg PUBLIC "-//W3C//DTD SVG 1.1//EN" "http://www.w3.org/Graphics/SVG/1.1/DTD/svg11.dtd">
<svg version="1.1" id="Layer_1" xmlns="http://www.w3.org/2000/svg" xmlns:xlink="http://www.w3.org/1999/xlink" x="0px" y="0px" width="200px" height="200px" viewBox="0 1800 200 200" enable-background="new 0 1800 200 200" xml:space="preserve" preserveAspectRatio="xMinYMin meet">
<title>all</title>
<path fill="##11517F" d="M120.758,1851.507c6.511,0,11.789,5.278,11.789,11.789v27.705l17.684-10.159l35.466-20.395v79.105l-35.485-20.415
	l-17.684-10.159v27.705c0,6.512-5.278,11.789-11.789,11.789h-96.16c-6.511,0-11.79-5.277-11.79-11.789v-73.388
	c0-6.511,5.278-11.789,11.79-11.789H120.758 M120.758,1839.718h-96.18c-13.022,0-23.579,10.556-23.579,23.578v73.407
	c0,13.022,10.556,23.579,23.579,23.579h96.18c13.022,0,23.579-10.557,23.579-23.579v-7.328l39.514,22.713
	c1.817,1.123,3.896,1.753,6.032,1.828c4.48,0,7.584-3.576,7.584-9.727v-88.419c0-6.149-3.104-9.726-7.584-9.726
	c-2.135,0.074-4.214,0.703-6.032,1.827l-39.514,22.753v-7.329C144.337,1850.273,133.78,1839.718,120.758,1839.718L120.758,1839.718z
	"/>
</svg>
