<?xml version="1.0" encoding="utf-8"?>
<!-- Generator: Adobe Illustrator 16.0.0, SVG Export Plug-In . SVG Version: 6.00 Build 0)  -->
<!DOCTYPE svg PUBLIC "-//W3C//DTD SVG 1.1//EN" "http://www.w3.org/Graphics/SVG/1.1/DTD/svg11.dtd">
<svg version="1.1" id="Layer_1" xmlns="http://www.w3.org/2000/svg" xmlns:xlink="http://www.w3.org/1999/xlink" x="0px" y="0px" width="64px" height="64px" viewBox="0 0 64 64" enable-background="new 0 0 64 64" xml:space="preserve" preserveAspectRatio="xMinYMin meet">
	<circle fill="#397DB2" cx="32.077" cy="32.122" r="11.741"/>
	<path fill="#E33434" d="M60.712,17.803C52.828,1.943,33.58-4.524,17.718,3.359C12.772,5.817,8.545,9.511,5.447,14.083l12.886,22.336
		c-2.375-7.542,1.818-15.581,9.361-17.955c1.327-0.417,2.708-0.638,4.096-0.658"/>
	<path fill="#4CB749" d="M5.447,14.081c-9.863,14.713-5.932,34.628,8.782,44.499c4.552,3.052,9.81,4.885,15.271,5.327l13.465-22.914
		c-5.032,6.1-14.056,6.972-20.155,1.932c-2.072-1.709-3.621-3.965-4.47-6.514"/>
	<path fill="#FCD209" d="M29.5,63.907c17.662,1.335,33.062-11.9,34.398-29.562c0.431-5.699-0.668-11.409-3.186-16.541H31.797
		c7.908,0.037,14.281,6.475,14.252,14.383c-0.016,3.2-1.101,6.301-3.084,8.811"/>
</svg>
