<?xml version="1.0" encoding="utf-8"?>
<svg version="1.1" xmlns="http://www.w3.org/2000/svg" x="0px" y="0px"
	 width="200px" height="200px" viewBox="-67.5 132.5 200 200" preserveAspectRatio="xMinYMin meet">
<path d="M-3.34,296.27c-6.98-5.5-14.43-10.75-19.51-18.16c-10.71-13.07-18.95-28.2-24.58-44.1c-3.41-10.34-4.58-21.43-8.97-31.37
	c-4.59-7.21,0.79-15.11,8.7-17.4c3.52-0.67,9.71-4,2.23-1.62c-6.7,4.91-7.35-4.47-0.48-5.06c4.69-0.63,6.41-4.46,4.81-7.91
	c-5.04-3.28,12.21-6.88,3.53-11.79c-9.03-9.73,12.64-11.61,7.29-0.54c-1.27,8.51,15.15-1.57,11.34,8.27
	c3.88,4.72,14.51,1.08,14.24,7.7c5.64,0.39,7.58,5.13,12.88,5.49c5.5,2.48,15.44,4.43,17.31,10.62c-5.44,4.31-18.05-8.9-18.66,3.04
	c1.65,17.63,1.22,35.79,7.67,52.58c3.05,10.16,10.45,18.17,17.12,26.08c6.4,7.75,15.06,13.21,23.87,17.8
	c7.74,3.65,16.09,6.07,24.52,7.59c3.42-2.62,9.46-12.34,14.79-8.24c0.26,4.62-10.59,9.64-0.52,9.13c5.93-1.79,10.03,4.58,14.9-1.17
	c4.5,5.32,18.66-3.4,15.48,7.48c-4.32,2.79-10.62,1.11-14.96,4.94c-7.14-3.57-12.82,3.19-20.72,2.34c-8.78,1.57-17.7,2.2-26.6,2.21
	c-14.6-1.15-29.5-1.64-43.38-6.72c-7.83-2.28-15.46-6.73-22.33-11.19L-3.34,296.27z M8.99,301.6c7.64,3.3,15.11,6.78,23.47,7.83
	c13.28,1.84,26.99,4.7,40.32,2.1c-6.04-2.73-12.27,1.06-18.28-1.95c-7.21,1.54-14.89-0.4-22.33-1.36
	c-8.33-3.71-17.32-6.26-25.12-11.08c-9.75-3.56,5.04,4.57,7.67,5.22c6.09,3.46-6.7-1.72-8.51-3.21c-5.11-2.86-5.75-2.27-0.5,0.64
	l3.21,1.79H8.99z M-5.55,291.33c7.4,2.75-0.03-5.21-3.42-4.75c-1.5-2.61-5.74-4.25-2.75-5.65c-5.38,1.86-5.63-7.1-8.16-5.82
	c-5.69-1.79-2.22-8.16-8.99-12.08c-0.62-4.12-6.73-7.69-8.68-13.9c-0.86-3.18-6.91-12.31-3.19-3.81
	c3.16,8.19,8.72,15.19,13.36,22.18c3.6,6.66,7.84,13.62,14.39,17.79c2.21,2.12,4.34,5.37,7.45,6.03L-5.55,291.33z M3.31,294.62
	C4.95,293.88,0.96,293.69,3.31,294.62z M7.32,296.08C6.9,294.06,5.49,297.22,7.32,296.08z M20.98,302.99
	C22.44,300.84,16.33,302.19,20.98,302.99z M27.07,305.11c3.03,1.91,17.7,4.19,8.52,0.78C34.04,306.22,18.55,301.51,27.07,305.11z
	 M-2.86,281.8C-3.15,280.53-7.57,280.39-2.86,281.8z M5.91,286.92C8.2,285.31,1.17,285.69,5.91,286.92z M13.36,291.5
	C16.64,290.26,8.04,290.25,13.36,291.5z M-6.45,277.9c3.55,2.73,14.35,0.34,5.44-1.63c-4.05-2.16-13.17-3.63-6.95,1.3L-6.45,277.9
	L-6.45,277.9z M18.29,293C19.77,290.48,12.07,291.55,18.29,293z M10.77,287.02c8.7,2.46-7.31-5.5-2.15-0.91l1.15,0.51l1,0.39V287.02
	z M25.84,295.73C34.08,295.81,18.39,294.58,25.84,295.73z M-9.62,273.13C-9.94,271.6-11.65,273.26-9.62,273.13z M4.45,281.73
	C3.95,280.27,1.87,281.67,4.45,281.73z M-8.83,272.17C-4.11,271.88-15.3,270.08-8.83,272.17z M-24.56,262.01
	C-25.15,259.75-29.7,257.93-24.56,262.01z M14.45,285.87C14.91,283.92,10.42,285.28,14.45,285.87z M-4.69,273.73
	C-1.17,273.36-10.33,271.36-4.69,273.73z M27.69,293.86C33.17,291.68,22.35,292.8,27.69,293.86z M10.85,282.42
	c6.31,0.81-7.52-4.29-1.39-0.46L10.85,282.42z M32.8,295.92c5.9-3.52,3.95,8.26,10.01,1c5.97-4.36-5.15,5.39,2.2,0.78
	c5.33-3.56,13.19,1.69,18.15,3.39c3.57-0.17,7.04,3.09,10.71,1.11c7.04-1.9-13.79-2.82-8.32-6.18c-6.45,1.88-11.21-2.23-14.38-6.37
	c-7.24-1.67-15.6-5.37-19.21-11.77c-1.47-2.4,2.12,0.34-1.27-3.59c-4.35-3.88-6.53-8.28-9.46-13c-3.49-1.86-3.91-7.35-4.26-0.18
	c0.03-4.52-4.22-7.57-5.27-6.31c-0.02-4.35,4.55-2.17,1.35-5.39c-0.69-4.52-2.95-9.22-3.63-14.32c-1.06-2.46-0.15-7.73-3.61-2.16
	c-1.26,5.88-0.42-7.23,1.55-2.91c2.58-4.41-0.93-3.89-1.06-3.28c1.68-3.72,1.06-9-0.44-6.99c0.89-3.95,1.41-14.51-1.33-12.64
	c1.66-4.12,3.16-18.87-4.08-13.25c-2.93,0.04-8,1.06-10.4,2.25c7.52,4.15-0.76,1.5-3.82,0.84c-0.4,3.84-3.44,2.18-7.21,2.22
	c6.06,0.74-2.95,6.18-6.41,4.08c-4.51,2.15,3.89,7.53,0.09,9.2c0.47,2.5-6.91-0.9-6.33,4.89c-4.38-1.84-0.6,6.87,1.59,3.92
	c7.44,2.02,5.24,6.61,5.43,10.97c-1.21,2.54-5.99-5.98-1.06-5.58c-3.89-6.32-4.29-2.29-7.53,0.65c-0.74,0.21,8.24,4.18,2.6,6.12
	c4.96,0.77,5.11,5.11,6.11,7.86c2.98,3.11,2.36-3.44,5.94,0.3c-2.26-3.32-11.97-9.37-4.15-7.44c-0.04-3.34-1.41-6.05,0.99-5.98
	c2.38-4.29-2.48,10.59,2.86,5.13c1.48-0.65,1.85-4.29,4.5,0.34c3.86,3.8,1.4,6.55-4.05,3.07c0.97,3.31,7.29,4.49,6.1,9.66
	c1.26,4.55,3.02,2.87,4.55,2.61c1.14,4.42,1.89,1.17,1.95-0.93c5.51,1.18,4.21,4.43,5.94,6.71c3.8,1.72-5.44-11.61,1.09-4.01
	c6.85,6.18,2.58,8.78-3.58,7.79c3.89-0.32,5.15,5.27,10.02,5.06c4.44,2.12,7.44,10.23-0.21,6.85c-2.65-2.39-12.06-5.35-4.37-0.8
	c7.09,3.29,12.72,5.24,19.56,9.37c4.89,3.44,7,7.49,8.86,8.28c-4.11,1.97-12.39-1.56-6.3-2.65c-3.84-0.7-8.15-2.63-4.48,2.14
	c3.13,2.61,11.07,2.34,12.49,2.63c-1.2,2.66-3.28,2.86,0.05,3.08c-3.71,1.98,1.19,2.29,1.53,3.42L32.8,295.92z M25.21,274.49
	c-2.26-2.36-2.85-6.79-0.4-2.94C26.07,272.05,28.82,278.78,25.21,274.49z M19.2,265.32C16.35,259.82,22.78,266.87,19.2,265.32z
	 M10.74,250.52c-2.69-6.03,1.91-3.29,0.6,0.98L10.74,250.52z M-14.03,234c-1.15-1.98-3.19-7.79-2.55-9.56
	c0.57,2.88,6.14,12.42,2.73,4c-3.77-7.1,4.5,2.3,5.36,4.08c0.4,1.76-2.32-0.48-0.48,3.65c-3.37-4.71-1.99,2.6-5.05-2.12L-14.03,234z
	 M-21.69,228.72C-21.37,224.11-19.94,231.87-21.69,228.72z M-18.24,229.91C-16.6,226.44-15.46,234.74-18.24,229.91z M-26.6,223.61
	c-2.85-2.83-4.91-5.44,0.14-1.75c1.95,0.07-4.32-5.94,0.47-1.91C-20.95,220.86-23.51,228.2-26.6,223.61L-26.6,223.61z M-22.25,223.5
	C-20.59,221.85-21.37,225.11-22.25,223.5z M-19.57,224.35C-22.09,219.65-16.52,226.33-19.57,224.35z M-24.89,219.27
	c-8.29-7.38,10.42,3.85,1.35,1.38L-24.89,219.27z M-1.15,233.07c-3.59-2.15-0.96-15.14,0.27-6.25c3.49-1.13-0.19,4.59,2.41,4.53
	C1.13,234.95-0.05,236.25-1.15,233.07L-1.15,233.07z M-23.21,216.84c-5.32-7.35,15.47,7.43,3.41,1.86
	C-21.06,218.37-22.57,218.26-23.21,216.84z M-22.39,214.04c3.17-0.67,13.17,5.55,3.98,1.78C-19.43,214.69-21.6,215.2-22.39,214.04z
	 M4.78,227.58c0.34-6.33,1.89-3.78,0.01,0.92L4.78,227.58z M-20.04,211.84c1.29-1.89-3.42-8.55,0.68-2.39
	c1.72,1.41,5.14,2.36,2.18,2.96C-12.52,216.53-18.33,213.52-20.04,211.84L-20.04,211.84z M3.43,225.62
	C4.32,218.4,4.22,229.83,3.43,225.62z M-16.6,208.83C-15.03,205.52-13.7,212.52-16.6,208.83z M0.59,208.46
	c-1.65-2.9,2.08-12.77,2.5-6.64c-1.73,4.77-0.5,7.44,0.7,1.03C6.02,197.81,3.31,212.79,0.59,208.46L0.59,208.46z M-1.07,274.78
	C-2.04,273.92-0.94,275.32-1.07,274.78z M7.41,279.06c4.71,1.21,4.69-0.73,0.43-1.32c-2.29-2.13-9.51-4.39-3.05-0.26
	C5.21,278.63,6.57,278.54,7.41,279.06L7.41,279.06z M-9.31,267.95c2.59,1.95,9.77,5.48,3.7,0.75c2.05-2.38-3.92-3.65-1.95-5.24
	c-5.04-3.09-3.98-2.86-0.45-2.71c-6.06-2.71,0.88-2.5,0.55-3.89c-2.34-0.46-11.6-4.12-6.15,0.29c-5.54-2.82-1.32,1.05-2.99,0.65
	c-5.73-1.55,5.04,4.32-0.9,2.86c3.25,2.57,8.75,6.6,1.37,2.72c-0.97,1.4,5.28,3.52,6.87,4.58L-9.31,267.95z M-0.45,273.05
	C10.31,276.52-5.74,268.81-0.45,273.05z M44.89,300.52C45.02,298.38,43.42,302.35,44.89,300.52z M49.55,302.48
	c2.49-2.4,0.11,3.84,4.12-0.59c0.04-3.17-0.12-5.04-4.62-1.19C47.81,301.39,47.27,304.31,49.55,302.48L49.55,302.48z M-24.44,256
	C-25.2,253-29.78,253.01-24.44,256z M-19.45,259.26C-21.3,256.2-26.05,256.49-19.45,259.26z M8.86,276.34
	c2.77,2.46,12.7,1.8,3.35,0.3C10.84,274.6,3.44,275.1,8.86,276.34z M47.78,300.39C52.04,296.81,43.66,301.98,47.78,300.39z
	 M56.63,306.47C56.66,305.32,54.8,306.97,56.63,306.47z M56.65,304.86C61.36,299.88,52.08,305.15,56.65,304.86z M-36.68,245.75
	c-4.01-5.73-2.5-8.3-6.37-12.98c-0.73-3.58-6.64-11.7-3.06-3.09c3.29,5.04,4.26,12.82,9.42,16.08V245.75z M55.15,303.26
	C63.83,297.67,51.6,300.83,55.15,303.26z M61.77,305.86C66.12,302.14,59.02,305.08,61.77,305.86z M-25.91,249.67
	C-24.67,247.83-29.12,249.43-25.91,249.67z M60.39,304.09c4.2-2.71-0.98-2.29-0.76,0.25L60.39,304.09z M3.36,268.14
	C3.22,266.3,1.14,268.29,3.36,268.14z M6.88,270.16C5.76,267.9,5.16,270.52,6.88,270.16z M67.14,305.92
	c5.38-3.89-3.27-0.75-1.13,0.74L67.14,305.92z M65.07,304.92C69.47,301.25,60.44,306.55,65.07,304.92z M75.61,311.94
	C78.55,309.97,72.03,311.3,75.61,311.94z M-23.2,248.33c3.95,0.88,15.77,9.72,8.8,0.61c-3.57-1.06-1.43-9.79-5.08-8.24
	c2.44,4.09,2,5.83-3.12,3.25c-6.45-3.15-3.62,1.55-2.37,2.86C-26.69,247.21-22.7,248.3-23.2,248.33L-23.2,248.33z M-41.18,234.13
	c0.7-2.92-6.51-16.09-3.41-6.59C-43.47,229.52-43.59,233.29-41.18,234.13z M-8.17,254.49C-10.21,252.79-8.27,254.25-8.17,254.49z
	 M-3.17,255.65C-3.17,252.56-8.7,254.39-3.17,255.65z M40.21,282.99C39.38,280.88,36.95,282.95,40.21,282.99z M42.3,284.52
	C41.99,283.33,41.15,284.75,42.3,284.52z M59.49,295.35C61.15,294.13,57.42,295.19,59.49,295.35z M-32.21,236.43
	C-27.48,234.6-37.28,235.13-32.21,236.43z M36.38,279.64C36.32,276.58,33.36,280.41,36.38,279.64z M-34.08,232.07
	C-31.05,231.04-36.89,231.4-34.08,232.07z M-25.27,236.34C-25.32,235.33-26.2,236.72-25.27,236.34z M82.3,302.29
	c3.91-0.79,12.81,1.99,14.25-1.03c-4.75-0.12-16.41-3.35-16.96,0.77l1.03,0.17l1.68,0.1V302.29z M-22.46,237.05
	C-22.39,233.95-24.88,236.94-22.46,237.05z M-45.65,220.96C-46.7,215.06-49.65,220.07-45.65,220.96z M-40.12,222.35
	C-40.05,220.45-45.18,220.65-40.12,222.35z M-17.08,236.65C-16.14,235.79-19.29,236.02-17.08,236.65z M-39.06,220.39
	C-39.6,215.93-45.48,219.72-39.06,220.39z M-50.4,213.04C-50.56,210.97-51.5,213.81-50.4,213.04z M-48.71,211.77
	C-48.98,209.32-50.16,212.07-48.71,211.77z M-39.4,217.32c3.94-1.55-7.17-3.21-0.8-0.28L-39.4,217.32z M85.28,294.36
	C87.8,292.04,82.08,293.64,85.28,294.36z M100.34,302.16C101.35,299.18,97.79,302.56,100.34,302.16z M-38.45,212.47
	C-38.03,209.57-41.58,213.04-38.45,212.47z M-51.71,203.59c-0.7-4.09-0.6-11.25,6.21-8.83c-9.08,1.81,6.3,11.3,4.35,3.8
	c3.82,0.19,7.48-2.26,5.47,1.45c7.54-0.82,12.75-7.36,20.03-6.43c5.72-0.76,11.86-1.32,17.98-3.61c5.02-0.36,9.85-5.77,7.1-8.97
	c-6.85-0.58-14.02,0.27-21.58,1.78c-8.39,1.74-16,5.06-24.46,6.47c-8.24,1.11,1.66,3.05-0.7,3.49c-4.29,1.49,5.14,2.5-0.55,4.08
	c-3.52-0.67-7.17-1.88-5.67-5.58c-7.9,1.03-14.85,4.3-8.6,12.34l0.46,0.01L-51.71,203.59z M-32.66,193.94
	c1.85-6.82,9.92,5.61,3.03,0.92C-30.44,194.24-31.8,193.74-32.66,193.94z M-32.3,190.63C-29.62,188.65-30.88,191.75-32.3,190.63z
	 M-28.9,190.69c0.25-3.14,7.78,1.72,1.24,1.13L-28.9,190.69z M-24.26,188.83C-22.56,186.84-23.77,190.58-24.26,188.83z
	 M-23.07,188.02c2.83-3.39,15.99-2.18,6.3-0.33C-19.35,185.74-21.34,188.84-23.07,188.02z M-5.9,185.37
	C-6.32,176.1,2.64,188.67-5.9,185.37z M-1.02,185.34c1.77-4.67,6.93-1.88,0.83-0.94C-0.06,184.9-0.37,186.82-1.02,185.34z
	 M-40.37,210.12C-35.04,206.85-46.02,207.29-40.37,210.12z M-36.43,211.26C-34.56,209.27-40.44,210.46-36.43,211.26z M109.24,301.31
	C109.32,298.6,106.91,302.53,109.24,301.31z M93.26,290.41C93.72,287.29,91.2,290.68,93.26,290.41z M113.65,302.37
	c4.25,0.02,12.89-1.32,3.63-1.32C115.83,301.29,108.81,301.23,113.65,302.37z M-32.95,209.25c3.45-0.23,5.38-3.8-0.67-3.6
	c-9.39-0.97,8.28,3.22-1.14,2.02c-1.27,0.84,1.8,1.81,1.87,1.57L-32.95,209.25z M-29.92,210.78
	C-30.28,208.57-30.99,211.95-29.92,210.78z M-37.76,182.04c6.15-2.09,14.55-4.44,17.46,1.03c-2.96-3.55-1.19-7.05,1.6-1.85
	c3.95,5.25,5.92-2.39,3.36-4.16c2.92,3.63,6.24,5.35,1.96,0.23c4.67-5.61-9.33,0.73-12.51,0.67c-1.53,0.69-15.8,3.64-11.85,4.08
	H-37.76z M-34.16,175.14c3.5-2.64,12.13,1.58,6.6-2.63C-28.1,172.03-39.67,175.7-34.16,175.14z M-21.38,175.67
	c4.1,0.1-1.78-5.51,3.11-2.97c-0.8-2.62-5.69-3.11-8.08-4.16C-27.7,170.93-23.6,175.7-21.38,175.67L-21.38,175.67z M-31.91,164.07
	C-30.49,162.15-34.4,165.04-31.91,164.07z M-26.71,165.32c6.61-0.88-1.68-2.85-1.33-0.07L-26.71,165.32z M-36.47,157.7
	c-4.65-6.08,8.76,1.02,4.03-5.34C-36.43,149.2-40.25,155.94-36.47,157.7z M23.27,189.88c2.14-3.78-8.82-5.1-1.43-1.34
	C22.51,188.77,22.36,190.14,23.27,189.88z"/>
</svg>
