<?xml version="1.0" encoding="utf-8"?>
<!-- Generator: Adobe Illustrator 16.0.0, SVG Export Plug-In . SVG Version: 6.00 Build 0)  -->
<!DOCTYPE svg PUBLIC "-//W3C//DTD SVG 1.1//EN" "http://www.w3.org/Graphics/SVG/1.1/DTD/svg11.dtd">
<svg version="1.1" id="Layer_1" xmlns="http://www.w3.org/2000/svg" xmlns:xlink="http://www.w3.org/1999/xlink" x="0px" y="0px" width="2000px" height="2000px" viewBox="0 0 2000 2000" style="enable-background:new 0 0 2000 2000;" xml:space="preserve" preserveAspectRatio="xMinYMin meet">
<path id="path2" style="fill:#1EA361;" d="M354.06,1575.63V576.61
	c0-58.06,47.12-105.22,105.21-105.22h998.99L354.06,1575.63z"/>
<path id="path4" style="fill:#FEDB43;" d="M354.06,1596.61v-20.98l1104.2-1104.21h20.98
	c58.08,0,105.22,47.13,105.22,105.18v21L480.24,1701.81h-20.97C401.18,1701.81,354.06,1654.66,354.06,1596.61"/>
<polygon id="polygon6" style="fill:#5384C4;" points="480.24,1701.81 969.26,1212.81 1458.26,1701.81 "/>
<path id="path8"  style="fill:#FFFFFF;" d="M1458.26,1701.81
	l-489-489l126.18-126.21l489.02,489.02v20.98c0,58.05-47.15,105.19-105.22,105.19H1458.26L1458.26,1701.81z"/>
<polygon id="polygon10" style="fill:#C2C2C1;" points="1584.46,1575.63 1095.44,1086.61 1584.46,597.6 "/>
<path id="path12" style="fill:#EFEFEF;" d="M573.53,607.43c62.58-28.66,140.91-16.97,191.75,29.93
	c-15.9,16.21-32.25,32.05-48.57,47.82c-50.85-50.47-146.4-26.52-170.23,40.23C515.32,791.1,567.1,877.46,640.4,878.4
	c47.96,5.59,95.8-26.53,105.91-74.3c-33.5,0.06-66.95-0.27-100.37,0.25c-0.96-20.6-1.08-41.29-0.63-61.98
	c55.94,1.45,113.26-3.2,168.38,2.27c4.21,40.91,1.31,84.35-20.69,120.25c-34.5,64.21-115.97,92.27-184.93,76.04
	c-85.21-17.66-149.02-105.1-137.39-191.72C476.66,688.13,517.95,632.76,573.53,607.43"/>
<path id="path14" style="fill:#DC4B3E;" d="M1369.54,298.19h39.99
	c99.7,5.72,197.18,54.41,257.59,134.53c39.54,50.6,61.65,113.42,66.61,177.23v23.66c-2.31,123.67-81.45,225.19-149.98,321.39
	c-76.95,108.69-148.01,227.15-167.72,361.13c-5.27,22.67,1.07,54.44-26.05,64.7c-6.39-4.96-13.83-9.07-18.28-16
	c-8.06-74.92-26.76-148.88-58.72-217.26c-36.22-79.71-86.75-151.72-138.01-222.19c-31.23-42.26-60.67-86-85.03-132.63
	c-38.25-69.86-52.5-152.43-36.87-230.82c12.84-61.91,45.23-119.26,90.07-163.6C1203.56,339.23,1285.27,303.49,1369.54,298.19
	 M1361.77,516.03c-47.29,10.55-86.97,52.37-90.97,101.32c-4.96,45.57,21.71,91.84,62.55,111.95c44.3,23.43,102.44,16.25,139.47-17.6
	c34.5-30.54,47.09-83.3,29.04-126C1480.51,532.28,1417.17,501.85,1361.77,516.03"/>
<path id="path16" style="fill:#802C27;" d="M1361.77,516.03c55.4-14.18,118.74,16.25,140.09,69.68
	c18.05,42.7,5.46,95.45-29.04,126c-37.04,33.85-95.17,41.04-139.47,17.6c-40.84-20.11-67.51-66.38-62.55-111.95
	C1274.79,568.4,1314.48,526.58,1361.77,516.03"/>
</svg>
