<svg version="1.1" xmlns="http://www.w3.org/2000/svg" x="0px" y="0px" viewBox="0 0 250 180" preserveAspectRatio="xMinYMin meet" role="img">
  <g
     transform="matrix(0.83665959,0,0,0.83665959,-54.545185,-170.14494)"
     id="g118">
    <path
       d="m 285.8567,338.19325 c -2.05905,-0.27135 -4.90022,-0.63048 -6.74379,-0.87789 1.89145,-4.09416 3.03271,-6.45648 3.03271,-6.45648 0.11173,-0.78212 2.23463,-4.46926 3.08858,-7.51793 0.77414,-2.48204 1.21308,-7.05505 1.21308,-7.81323 0,-7.89303 -2.76136,-15.04384 -7.39024,-20.23137 -4.63685,-5.17955 -11.09334,-8.38784 -18.45963,-8.38784 -1.5004,0 -3.2881,0.0798 -7.39024,0.87789 -4.19791,1.0375 -6.19312,1.6201 -9.9042,2.60174 -6.27292,1.93934 -8.83476,2.92896 -17.81319,7.24659 -0.90183,0.43096 -1.26895,1.22904 -1.45251,1.8276 -0.17557,0.61453 -0.14365,1.07742 -0.14365,1.07742 l -0.36712,33.38376 h -5.60253 v -36.46436 c 0,0 -0.0319,-1.04549 0.36711,-2.28252 0.39106,-1.23702 1.31684,-2.42616 2.86512,-3.45569 1.21308,-0.7901 2.44213,-1.50039 3.65521,-2.17078 -1.34077,-0.90184 -2.25059,-2.41819 -2.25059,-4.16599 0,-2.78531 2.25059,-5.01994 5.01196,-5.01994 2.76934,0 5.02791,2.23463 5.02791,5.01994 0,0.25539 -0.0638,0.51077 -0.0798,0.7502 0.0958,-0.0399 0.19952,-0.0798 0.31125,-0.11174 1.10933,-0.38307 2.3304,-0.75817 3.52752,-1.11731 -1.53232,-0.85395 -2.56982,-2.48203 -2.56982,-4.34157 0,-2.7853 2.25857,-5.01993 5.01195,-5.01993 2.76934,0 5.01994,2.23463 5.01994,5.01993 0,0.84597 -0.25539,1.64405 -0.61453,2.34637 2.43415,-0.67039 4.15003,-1.1253 4.15003,-1.1253 0.23144,-0.0559 0.46289,-0.10375 0.72625,-0.15962 -1.35674,-0.90981 -2.24261,-2.42617 -2.24261,-4.16598 0,-2.76935 2.24261,-5.01196 4.996,-5.01196 2.79328,0 5.01195,2.24261 5.01195,5.01196 0,0.97366 -0.27135,1.86751 -0.74222,2.63367 0.024,-0.016 0.0718,-0.016 0.0958,-0.0319 1.73982,-0.29529 3.7031,-0.35115 5.47485,-0.35115 -0.59857,-0.83001 -0.9577,-1.82761 -0.9577,-2.913 0,-2.79329 2.25857,-5.01994 5.00397,-5.01994 2.77733,0 4.99599,2.22665 4.99599,5.01994 0,1.52433 -0.69433,2.88107 -1.7877,3.80685 1.87549,0.46289 3.68714,1.07741 5.41898,1.89145 -0.15164,-0.47885 -0.24741,-0.94971 -0.24741,-1.45251 0,-2.77732 2.25059,-5.01993 5.01994,-5.01993 2.75338,0 5.00397,2.24261 5.00397,5.01993 0,2.44213 -1.73982,4.44532 -4.04628,4.90023 1.53232,1.15722 2.96089,2.44213 4.26176,3.83877 v -0.15962 c 0,-2.76934 2.25857,-5.01195 5.00398,-5.01195 2.76934,0 5.00397,2.24261 5.00397,5.01195 0,2.76137 -2.23463,5.00398 -5.00397,5.00398 -0.5028,0 -0.93376,-0.0878 -1.38069,-0.22346 0.93376,1.44452 1.78771,2.96088 2.51396,4.5331 0.9178,-1.31683 2.41021,-2.17876 4.15003,-2.17876 2.75338,0 5.00397,2.22665 5.00397,5.01195 0,2.76136 -2.25059,5.00397 -5.00397,5.00397 -0.57462,0 -1.08539,-0.11971 -1.59617,-0.2873 0.29529,1.38068 0.53472,2.77732 0.69434,4.21387 0.59058,-0.23943 1.23702,-0.38308 1.91539,-0.38308 2.77733,0 5.00398,2.22665 5.00398,5.01195 0,2.76137 -2.22665,5.00398 -5.00398,5.00398 -0.77414,0 -1.50039,-0.19154 -2.14684,-0.51078 -0.0798,0.53472 -0.1676,1.10136 -0.23144,1.66001 -0.15962,0.57462 -0.28731,1.09338 -0.42299,1.57223 2.46608,0.31923 4.35753,2.38626 4.35753,4.96407 0,2.75338 -2.23463,4.99599 -5.00397,4.99599 -1.04549,0 -1.99521,-0.30327 -2.80127,-0.86193 -0.67837,1.60414 -1.56424,3.67118 -2.5379,6.04148"
       fill="#7f7f7f"
       style="fill-opacity:1;stroke-width:7.98082"
       id="path2" />
    <path
       d="m 211.7149,334.28266 c -2.66559,0 -4.79647,-2.14684 -4.79647,-4.79647 0,-2.6656 2.13088,-4.81244 4.79647,-4.81244 h 0.008 0.0399 c 2.67358,0 4.79648,2.14684 4.79648,4.81244 0,2.64963 -2.1229,4.79647 -4.79648,4.79647 z"
       fill="#7f7f7f"
       id="path76"
       style="fill-opacity:1;stroke-width:7.98082" />
    <path
       d="m 211.76276,322.63066 c 2.54588,0 4.58099,-2.05107 4.58099,-4.58897 0,-2.52194 -2.03511,-4.58099 -4.58099,-4.58099 h -0.0319 -0.016 c -2.54589,0 -4.581,2.05905 -4.581,4.58099 0,2.5379 2.03511,4.58897 4.581,4.58897 z"
       fill="#7f7f7f"
       id="path80"
       style="fill-opacity:1;stroke-width:7.98082" />
    <path
       d="m 211.73084,311.37769 c -2.44213,-0.016 -4.36551,-1.96328 -4.36551,-4.37349 0,-2.42617 1.92338,-4.37349 4.36551,-4.38147 h 0.0319 c 2.42617,0.008 4.35753,1.9553 4.35753,4.38147 0,2.41021 -1.93136,4.35753 -4.35753,4.37349 z"
       fill="#7f7f7f"
       id="path84"
       style="fill-opacity:1;stroke-width:7.98082" />
    <path
       d="m 211.75479,290.86701 c 2.27453,-0.008 4.1181,-1.84357 4.1181,-4.1181 0,-2.28252 -1.84357,-4.11811 -4.1181,-4.12609 h -0.0319 c -2.27454,0.008 -4.11013,1.84357 -4.11013,4.12609 0,2.27453 1.83559,4.11012 4.11013,4.1181 z"
       fill="#7f7f7f"
       id="path88"
       style="fill-opacity:1;stroke-width:7.98082" />
    <path
       d="m 211.73084,300.84302 c -2.29848,-0.008 -4.15003,-1.87549 -4.15003,-4.16599 0,-2.29049 1.85155,-4.16599 4.15003,-4.17397 h 0.0319 c 2.2905,0.008 4.15003,1.88348 4.15003,4.17397 0,2.2905 -1.85953,4.15801 -4.15003,4.16599 z"
       fill="#7f7f7f"
       id="path92"
       style="fill-opacity:1;stroke-width:7.98082" />
    <path
       d="m 226.232,234.68201 c -0.0798,-0.31923 -0.415,-0.68635 -0.92578,-0.68635 -0.59856,0 -0.88587,0.415 -0.98164,0.69433 -0.94173,3.67916 -2.83319,7.14283 -10.04785,7.75736 0.31924,-3.15243 1.14924,-5.53071 2.56983,-7.22264 1.34876,-1.46049 3.21627,-2.43415 5.93773,-3.01675 0.11173,-0.008 0.415,-0.0718 0.59856,-0.26337 0.10375,-0.12769 0.23144,-0.35116 0.2075,-0.67039 0,-0.34318 -0.15962,-0.5427 -0.27933,-0.66241 -0.21548,-0.17558 -0.47087,-0.21548 -0.59856,-0.2075 h -10.98161 -1.10135 -9.85631 c -0.1277,-0.008 -0.38308,0.0319 -0.59856,0.2075 -0.11972,0.11971 -0.27933,0.31923 -0.27933,0.66241 -0.0239,0.31923 0.10375,0.5427 0.2075,0.67039 0.18356,0.19154 0.49481,0.25539 0.59856,0.26337 2.72146,0.5826 4.59695,1.55626 5.93773,3.01675 1.42058,1.69193 2.25059,4.07021 2.56982,7.22264 -7.21466,-0.61453 -9.10611,-4.0782 -10.04785,-7.75736 -0.0958,-0.27933 -0.38308,-0.69433 -0.98164,-0.69433 -0.51077,0 -0.84597,0.36712 -0.92577,0.68635 l -0.0239,0.0639 v 20.07974 c 0,0.36712 0.31125,0.87789 1.02953,0.85395 0.72625,0 0.90183,-0.40703 0.98962,-0.59059 l 0.0239,-0.0958 c 1.7079,-4.18194 5.31523,-6.88744 9.97603,-7.58177 -0.27933,3.29607 -1.13328,5.76215 -2.63367,7.50995 -1.35674,1.46847 -3.14445,2.40222 -5.91379,2.9928 l -0.0798,0.016 c -0.1676,0.0399 -0.36712,0.11173 -0.51875,0.26336 -0.10375,0.11972 -0.23145,0.34318 -0.2075,0.70232 0,0.31125 0.15961,0.51875 0.27933,0.63048 0.21548,0.1676 0.44692,0.19952 0.65442,0.22346 h 9.80045 1.10135 10.92574 c 0.2075,-0.0239 0.43895,-0.0559 0.65443,-0.22346 0.11971,-0.11173 0.27933,-0.31923 0.27933,-0.63048 0.0239,-0.35914 -0.10375,-0.5826 -0.2075,-0.70232 -0.15164,-0.15163 -0.35116,-0.22346 -0.51876,-0.26336 l -0.0798,-0.016 c -2.76935,-0.59058 -4.56503,-1.52433 -5.91379,-2.9928 -1.50039,-1.7478 -2.35434,-4.21388 -2.63367,-7.50995 4.6608,0.69433 8.26813,3.39983 9.97602,7.58177 l 0.0239,0.0958 c 0.0878,0.18356 0.26336,0.59059 0.98164,0.59059 0.72625,0.0239 1.0375,-0.48683 1.0375,-0.85395 v -20.07974 z"
       fill="#7f7f7f"
       id="path96"
       style="fill-opacity:1;stroke-width:7.98082" />
    <path
       d="m 211.76276,281.92847 c 5.85792,0 10.62247,-4.75657 10.62247,-10.62247 0,-5.8659 -4.76455,-10.62247 -10.62247,-10.62247 h -0.0319 c -5.85792,0 -10.63045,4.75657 -10.63045,10.62247 0,5.8659 4.77253,10.62247 10.63045,10.62247 z"
       fill="#7f7f7f"
       id="path100"
       style="fill-opacity:1;stroke-width:7.98082" />
    <path
       d="m 135.09903,332.12782 c -0.80606,0.55068 -1.75578,0.86193 -2.80127,0.86193 -2.77732,0 -5.00397,-2.24261 -5.00397,-4.99599 0,-2.57781 1.88347,-4.65282 4.35753,-4.96407 -0.13568,-0.47885 -0.26337,-1.00559 -0.42299,-1.57223 -0.0638,-0.56663 -0.15163,-1.12529 -0.23144,-1.66001 -0.64645,0.31126 -1.3727,0.51078 -2.14684,0.51078 -2.77733,0 -5.00398,-2.24261 -5.00398,-5.01196 0,-2.77732 2.22665,-5.00397 5.00398,-5.00397 0.67039,0 1.32481,0.13567 1.9154,0.38308 0.15961,-1.43655 0.39904,-2.84117 0.69433,-4.21387 -0.51078,0.16759 -1.02155,0.2873 -1.60415,0.2873 -2.7454,0 -4.99599,-2.25059 -4.99599,-5.00397 0,-2.7853 2.25059,-5.01195 4.99599,-5.01195 1.7478,0 3.24021,0.86193 4.15801,2.17876 0.72625,-1.57222 1.5802,-3.08858 2.51396,-4.5331 -0.44693,0.12769 -0.87789,0.21548 -1.38069,0.21548 -2.76934,0 -5.00397,-2.23463 -5.00397,-4.996 0,-2.77732 2.23463,-5.01993 5.00397,-5.01993 2.74541,0 5.00398,2.24261 5.00398,5.01993 v 0.15164 c 1.30087,-1.39664 2.72944,-2.68156 4.26176,-3.83877 -2.30646,-0.45491 -4.05426,-2.45012 -4.05426,-4.89225 0,-2.77732 2.25857,-5.01993 5.01195,-5.01993 2.76935,0 5.02792,2.24261 5.02792,5.01993 0,0.5028 -0.10375,0.97366 -0.25539,1.44453 1.73184,-0.80606 3.54349,-1.42058 5.411,-1.89145 -1.08539,-0.9178 -1.7877,-2.28252 -1.7877,-3.80685 0,-2.78531 2.22664,-5.01994 5.01195,-5.01994 2.73742,0 4.99599,2.23463 4.99599,5.01994 0,1.09337 -0.35913,2.08299 -0.95769,2.913 1.77174,0 3.73502,0.0559 5.47484,0.35913 0.0239,0.016 0.0718,0.016 0.0958,0.0319 -0.47087,-0.76616 -0.74222,-1.66001 -0.74222,-2.63367 0,-2.76935 2.21867,-5.01196 5.00397,-5.01196 2.76137,0 5.00398,2.24261 5.00398,5.01196 0,1.73981 -0.88587,3.24819 -2.24261,4.16598 0.26336,0.0479 0.49481,0.10375 0.72625,0.15962 0,0 1.71588,0.45491 4.15003,1.1253 -0.35914,-0.70232 -0.61452,-1.5004 -0.61452,-2.34637 0,-2.7853 2.25857,-5.01993 5.01993,-5.01993 2.75338,0 5.00397,2.23463 5.00397,5.01993 0,1.85954 -1.02952,3.48762 -2.55386,4.33359 1.18914,0.36712 2.40223,0.74222 3.51954,1.1253 0.11173,0.0239 0.21549,0.0718 0.31126,0.11173 -0.016,-0.23943 -0.0798,-0.49481 -0.0798,-0.7502 0,-2.78531 2.25857,-5.01994 5.02791,-5.01994 2.75339,0 5.01196,2.23463 5.01196,5.01994 0,1.73982 -0.90982,3.26415 -2.25857,4.16599 1.21308,0.67039 2.44213,1.38068 3.66319,2.17078 1.54828,1.02953 2.48204,2.21867 2.86512,3.44771 0.39904,1.24501 0.36711,2.2905 0.36711,2.2905 v 36.46436 h -5.59455 l -0.3751,-33.39175 c 0,0 0.0319,-0.4549 -0.14365,-1.06943 -0.18356,-0.59856 -0.55068,-1.40462 -1.45251,-1.8276 -8.97842,-4.31763 -11.54027,-5.30725 -17.81319,-7.25457 -3.71108,-0.97366 -5.70629,-1.55626 -9.91218,-2.59376 -4.09416,-0.79809 -5.88186,-0.87789 -7.38226,-0.87789 -7.36629,0 -13.82278,3.20829 -18.46761,8.38784 -4.61292,5.18753 -7.38226,12.33036 -7.38226,20.23137 0,0.7502 0.43894,5.33119 1.21308,7.81323 0.85395,3.04867 2.97685,6.73581 3.08858,7.50995 0,0 1.14126,2.3703 3.03271,6.46446 -1.84357,0.24741 -4.69272,0.59856 -6.74379,0.87789 -0.98164,-2.3703 -1.85953,-4.43734 -2.5379,-6.04148"
       fill="#7f7f7f"
       id="path104"
       style="fill-opacity:1;stroke-width:7.98082" />
    <path
       d="m 290.32597,342.18366 c -0.49481,-0.70231 -1.29289,-1.1652 -2.29848,-1.32482 -0.34317,-0.0638 -9.86429,-1.31683 -10.9816,-1.46847 -0.3352,-0.0239 -0.74222,0.2075 -0.85395,0.7901 -0.12769,0.64645 0.28731,1.01357 0.56664,1.09338 l -0.0718,-0.0319 c 5.0758,2.35434 8.06861,7.15082 8.14044,12.88105 -7.87707,-1.62809 -9.84834,-5.66639 -10.34315,-11.24498 0,-0.23942 -0.22346,-0.67039 -0.87789,-0.72625 -0.57462,-0.0479 -0.87789,0.23942 -0.98962,0.49481 l -0.016,0.0479 -3.00877,24.12602 v 0.0319 c 0,0.3352 0.23145,0.7502 0.7502,0.86991 0.51875,0.11971 0.9577,-0.18356 1.08539,-0.53471 2.38627,-5.10773 7.12687,-8.14842 12.76133,-8.29207 -1.50837,5.6584 -5.73821,10.05583 -11.23699,11.54026 l 0.0239,0.016 c -4.11012,-0.43096 -8.23621,-0.83 -12.41816,-1.18914 -3.99041,-1.19712 -6.91937,-3.33598 -7.9888,-8.30803 0.0559,-0.63049 0.18356,-1.28492 0.42299,-1.93136 1.01356,-2.72944 2.98482,-4.53311 5.18753,-3.73502 2.29848,0.86192 2.5379,3.45569 1.53232,6.18513 -0.42299,1.14126 -1.06943,2.06703 -1.79569,2.75338 2.38627,-0.0479 4.51715,-0.89385 6.2011,-3.27213 2.79329,-3.97445 2.46607,-10.10372 -1.89944,-12.62566 -2.84117,-1.66001 -6.79965,0.27135 -9.80044,4.01435 0.90981,-5.89782 4.4932,-11.10132 4.90022,-15.65038 0.56664,-6.4086 -1.89943,-13.53547 -5.41897,-15.49875 -3.65522,1.34077 -6.9912,7.95687 -7.31043,14.34951 -0.20751,4.55705 2.88107,10.5666 3.04069,16.57616 -2.46608,-4.2857 -6.23302,-6.83956 -9.31362,-5.55465 -4.66878,1.90742 -5.84196,7.92495 -3.60733,12.24258 1.38068,2.58578 3.34396,3.71108 5.70629,4.08618 -0.64645,-0.77414 -1.14126,-1.80367 -1.39665,-2.97685 -0.61452,-2.84915 -0.0559,-5.37109 2.35435,-5.89783 2.28251,-0.49481 3.99839,1.52434 4.62089,4.37349 0.19952,0.9178 0.23144,1.79569 0.10375,2.61771 v -0.008 c -1.81165,4.2857 -5.08378,5.77811 -9.16198,6.7837 -4.14205,-0.18356 -8.32399,-0.32722 -12.52191,-0.42299 l -0.44692,-0.0878 c -5.90581,-0.94972 -8.91458,-4.72465 -9.51314,-11.80364 5.19552,0.78212 9.23381,3.82282 11.12526,8.47563 0.0878,0.27933 0.39904,0.7103 1.09338,0.7103 0.80606,0 1.09337,-0.52674 1.09337,-0.88587 v -22.25053 -0.0638 c -0.11173,-0.35914 -0.44693,-0.71828 -1.01357,-0.71828 -0.60654,0 -0.90981,0.415 -1.01356,0.67039 v 0.016 l -0.0239,0.0319 c -1.03751,4.11012 -3.16839,7.9888 -11.2769,8.6512 0.66241,-7.88505 4.26974,-10.31121 9.5291,-11.45247 0.14365,0 0.39904,-0.0639 0.60654,-0.28731 0.10375,-0.11173 0.25539,-0.31923 0.25539,-0.64645 v -0.0638 c -0.0319,-0.34318 -0.19952,-0.56664 -0.3352,-0.68635 -0.2075,-0.18356 -0.46289,-0.23943 -0.59058,-0.23145 h -11.53228 -1.32482 -11.46844 c -0.11971,-0.008 -0.38307,0.0479 -0.59058,0.23145 -0.13567,0.11971 -0.31125,0.34317 -0.34317,0.68635 v 0.0638 c 0,0.32722 0.15962,0.53472 0.26337,0.64645 0.2075,0.22346 0.46288,0.28731 0.60654,0.28731 5.25936,1.14126 8.86669,3.56742 9.53708,11.45247 -8.1165,-0.6624 -10.24737,-4.54108 -11.2769,-8.6512 l -0.0319,-0.0319 v -0.016 c -0.10375,-0.25539 -0.40703,-0.67039 -1.01357,-0.67039 -0.56664,0 -0.90183,0.35914 -1.00558,0.71828 v 0.0638 22.25053 c 0,0.35913 0.28731,0.88587 1.07741,0.88587 0.70231,0 1.01356,-0.43097 1.10135,-0.7103 1.89146,-4.65281 5.93773,-7.69351 11.11728,-8.47563 -0.59058,7.07899 -3.59935,10.85392 -9.50515,11.80364 l -0.44693,0.0878 c -4.18993,0.0958 -8.37986,0.23943 -12.5219,0.42299 -4.0782,-1.00559 -7.35034,-2.498 -9.154,-6.7837 v 0.008 c -0.13568,-0.82202 -0.10375,-1.69991 0.10375,-2.61771 0.6225,-2.84915 2.3304,-4.8683 4.61291,-4.37349 2.41819,0.52674 2.96887,3.04868 2.36232,5.89783 -0.26336,1.17318 -0.75817,2.20271 -1.40462,2.97685 2.36232,-0.3751 4.3256,-1.5004 5.71427,-4.08618 2.22665,-4.31763 1.05346,-10.33516 -3.60733,-12.24258 -3.08858,-1.28491 -6.84755,1.26895 -9.3216,5.55465 0.1676,-6.00956 3.25617,-12.01911 3.04069,-16.57616 -0.31125,-6.39264 -3.65521,-13.00874 -7.31043,-14.34951 -3.51954,1.96328 -5.98561,9.09015 -5.41898,15.49875 0.40703,4.54906 3.99041,9.75256 4.89225,15.65038 -2.99281,-3.743 -6.9513,-5.67436 -9.79247,-4.01435 -4.36551,2.52194 -4.69272,8.65121 -1.89145,12.62566 1.68395,2.37828 3.80685,3.22425 6.19311,3.27213 -0.71827,-0.68635 -1.36472,-1.61212 -1.7877,-2.75338 -1.01356,-2.72944 -0.77414,-5.32321 1.52434,-6.18513 2.21068,-0.79809 4.17396,1.00558 5.17955,3.73502 0.2474,0.64644 0.3751,1.30087 0.43096,1.93136 -1.06943,4.97205 -3.99839,7.11091 -7.9888,8.30803 -4.18195,0.35914 -8.30005,0.75818 -12.41815,1.18914 l 0.0239,-0.016 c -5.49878,-1.48443 -9.72862,-5.88186 -11.22901,-11.54026 5.62647,0.14365 10.36708,3.18434 12.76133,8.29207 0.12769,0.35115 0.55865,0.65442 1.07741,0.53471 0.52673,-0.11971 0.75818,-0.53471 0.75818,-0.86991 v -0.0319 l -3.00877,-24.12602 -0.0239,-0.0479 c -0.10375,-0.25539 -0.415,-0.5427 -0.98962,-0.49481 -0.65442,0.0559 -0.87789,0.48683 -0.87789,0.72625 -0.49481,5.57859 -2.46607,9.61689 -10.34314,11.24498 0.0798,-5.73023 3.06464,-10.52671 8.14044,-12.88105 l -0.0718,0.0319 c 0.27933,-0.0798 0.69433,-0.44693 0.56664,-1.09338 -0.11173,-0.5826 -0.51077,-0.81404 -0.85395,-0.7901 -1.11731,0.15164 -10.63843,1.40463 -10.97363,1.46847 -1.01356,0.15962 -1.81164,0.62251 -2.30645,1.32482 -0.5427,0.7502 -0.7103,1.72386 -0.51078,2.90502 0.27933,1.6201 3.59137,24.90015 3.91061,27.03901 0.0239,0.18356 0.27932,2.36233 0.36711,3.00877 0.0958,0.67837 0.9577,1.35674 0.9577,1.35674 0,0 4.8683,3.2881 5.73023,3.95051 0.82202,0.63048 0.35116,1.73184 0.35116,1.73184 l -4.31763,6.31282 c -0.34317,0.42299 -0.52673,0.84597 -0.52673,0.84597 -0.0958,0.25539 -0.14366,0.53471 -0.14366,0.81404 0,0.76616 0.35116,1.43655 0.93376,1.86752 l 71.14102,0.0239 h 1.7478 l 70.78987,-0.0239 c 0.57462,-0.43097 0.93375,-1.10136 0.93375,-1.86752 0,-0.27933 -0.0479,-0.55865 -0.15163,-0.81404 0,0 -0.17558,-0.42298 -0.52674,-0.84597 l -4.31762,-6.31282 c 0,0 -0.47087,-1.10136 0.35914,-1.73184 0.85395,-0.66241 5.72225,-3.95051 5.72225,-3.95051 0,0 0.86192,-0.67837 0.96567,-1.35674 0.0798,-0.64644 0.34318,-2.82521 0.36712,-3.00877 0.31125,-2.13886 3.62329,-25.41891 3.90262,-27.03901 0.19952,-1.18116 0.0319,-2.15482 -0.51077,-2.90502 m -107.1824,39.99189 -15.86587,0.83798 c -1.60415,0.0878 -3.00877,-1.14924 -3.0806,-2.76136 l -0.13567,-2.25857 c -0.0798,-1.61213 1.1652,-2.97685 2.79329,-3.05666 l 15.8499,-0.86193 c 1.62809,-0.0798 3.00877,1.15722 3.08858,2.78531 l 0.12769,2.23463 c 0.0718,1.63607 -1.1652,3.00079 -2.77732,3.0806 m 34.99589,-4.00638 -5.65042,5.65042 c -0.19952,0.20751 -0.46289,0.31126 -0.73424,0.32722 h -0.0239 c -0.27135,-0.016 -0.53471,-0.11971 -0.74221,-0.32722 l -5.65042,-5.65042 c -0.47087,-0.46288 -0.47087,-1.17318 0,-1.62808 l 5.65042,-5.65042 c 0.2075,-0.2075 0.47086,-0.30327 0.74221,-0.31924 h 0.0239 c 0.27135,0.016 0.53472,0.11174 0.73424,0.31924 l 5.65042,5.65042 c 0.47087,0.4549 0.47087,1.1652 0,1.62808 m 41.1491,2.083 c -0.0718,1.61212 -1.47645,2.84915 -3.08857,2.76136 l -15.86587,-0.83798 c -1.60415,-0.0798 -2.84915,-1.44453 -2.77733,-3.0806 l 0.1277,-2.23463 c 0.0798,-1.62809 1.46049,-2.86511 3.09655,-2.78531 l 15.84193,0.86193 c 1.63607,0.0798 2.8731,1.44453 2.79329,3.05666 z"
       fill="#7f7f7f"
       id="path108"
       style="fill-opacity:1;stroke-width:7.98082" />
  </g>
</svg>
