<svg version="1.1" xmlns="http://www.w3.org/2000/svg" x="0px" y="0px"
	 width="200px" height="200px" viewBox="500.5 320.5 200 200" preserveAspectRatio="xMinYMin meet">
<path d="M542.31,409.46c-5.24,2.46-19.11,13.56-21.78,16.85c-2.77,3.29-3.6-1.85-0.72-10.38c2.26-6.88,8.01-16.23,17.67-24.25
	c5.65-4.62,18.08-11.3,25.69-15.21c1.54-0.82,21.47-9.25,39.25-13.46c1.54-0.41-1.85,2.57-2.36,4.21
	c-2.67,7.81-55.99,41.3-55.99,41.3L542.31,409.46z"/>
<path d="M617.41,503.68c0.92,5.55,0.1,5.96-5.65,6.68c-5.75,0.72-9.97-1.44-11.51-2.88c-1.54-1.44-1.85-4.62-0.31-7.5
	c0.93-1.85,1.85-2.47,2.36-4.73c0.51-2.16,0.92-2.67,1.33-3.49c0.41-0.72,0.51-1.44,0.62-6.47s0-14.49,0.51-18.49
	c0.51-4.11,18.29,1.85,18.29,1.85s-4.21,10.48-5.34,13.05s-1.03,7.5-1.03,8.53s-0.41,3.08-0.72,3.18c-0.31,0.1,1.03,2.77,0.41,4.32
	C615.97,499.16,617.31,502.86,617.41,503.68z"/>
<path d="M624.19,346.59c-0.62-3.9,0-11.61,0.82-12.84c2.57-3.49,16.13-3.9,19.01,0.21c1.23,1.85,1.13,6.16,0.92,8.94
	c-0.21,2.77-0.92,8.73-1.03,10.69c-0.1,1.44-15,3.7-18.29-0.21C624.71,352.34,624.19,346.59,624.19,346.59z"/>
<path d="M654.4,493.71c6.27,4.52,11.1,5.34,14.28,6.99s2.36,4.83-2.98,5.75c-4.32,0.82-11.1-0.82-15.62-0.82
	c-4.52,0-14.59,0.51-17.26-1.34c-3.08-2.16-1.75-6.16-1.75-6.16c0.82-2.26,2.88-7.29,2.26-11.4s-1.44-6.37-2.98-10.17
	c-1.54-3.8-2.67-13.15-1.23-13.67s1.03,0,2.88,0.41c1.85,0.41,3.9,1.03,7.91,1.03s8.42-0.62,9.97-0.92
	c1.54-0.31,2.77-0.62,2.26,2.57c-0.51,3.18-2.05,9.14-2.16,13.77c-0.1,4.62-0.1,9.97,0.21,10.89
	C650.49,491.55,652.75,492.58,654.4,493.71z"/>
<path style="fill:#88CE02;" d="M632.41,356.86c-11.3,9.76-33.19,12.43-65.65,24.97c-8.32,3.18-30.51,12.74-35.86,22.71
	c17.98-10.38,24.66,3.9,26.1,18.6c1.33,13.77,8.22,20.96,25.89,20.55c18.19-0.41,23.73,10.17,28.77,22.6
	c9.76-47.57,25.38-56.82,35.45-64.93C668.47,383.98,642.17,353.37,632.41,356.86z"/>
<path style="fill:#88CE02;" d="M632.41,356.86c-27.12,9.45-53.94,11.82-85.48,31.23c-7.5,4.62-23.32,15.1-26.4,35.14
	c11.51-12.74,38.12-28.77,70.69-38.94c16.44-5.14,28.46-8.53,43.05-14.18C633.23,363.54,633.23,360.97,632.41,356.86z"/>
<path d="M667.04,413.16c0,0-1.95,6.68-5.86,8.84c0,0-2.88,1.03-8.63-2.16c-1.64-0.92-2.88-4.11-2.77-5.14
	c0.1-2.47,0.48-3.49,0.48-3.49s2.75-3.06,4.7-2.96c1.06,0.06,3.63,0.6,4.58-0.33c1.08,0,1.28,0.42,1.75,0
	C662.21,406.9,667.24,409.77,667.04,413.16z"/>
<path d="M625.12,348.54c0,0-0.41,5.24-1.13,8.53c-0.1,0.62-3.18,0.92-5.45,1.85c4.32,12.33,30.31,12.23,33.7,6.17
	c-1.64-1.13-4.93-2.88-6.47-3.49c-1.54-0.62-1.44-0.51-1.54-3.39c-0.1-2.88-0.31-8.22-0.51-9.66
	C643.51,347.1,627.58,347.1,625.12,348.54z"/>
<path style="fill:#EFEFEF;" d="M626.15,348.54c0,0,0,2.98-0.31,5.86c-0.1,1.33-0.21,2.16-0.41,3.18c-0.1,0.62,3.49,3.08,4.52,8.53
	c4.93,10.99,16.34,5.55,21.06,0.31c-1.64-1.13-4.32-2.67-7.4-3.9c-1.54-0.62-0.82-1.95-0.92-4.83c-0.1-2.88-0.51-7.09-0.72-8.63
	C641.76,347.51,628.61,347.1,626.15,348.54z"/>
<path d="M625.12,348.54c0,0-0.1,1.85-0.41,4.01c1.33,1.33,3.08,3.18,4.42,4.32c0.92,0.82,3.18,0.72,5.24,0.72
	c1.85,0,3.49,0.2,4.21-0.21c1.64-0.82,4.01-2.88,5.34-4.42c-0.1-1.85-0.21-3.6-0.31-4.42C643.51,347.1,627.58,347.1,625.12,348.54z"
	/>
<path d="M634.47,356.35c-1.23,0-2.67-0.1-3.8-0.31c-0.51-0.1-1.03-0.41-1.44-0.62c-0.72-0.51-1.44-1.13-2.26-1.75
	c-1.64-1.23-1.75-1.95-1.75-2.26c0.72-6.47-0.21-11.92-0.21-11.92s-0.72-2.77,3.19-3.49c3.9-0.72,6.27-0.82,6.27-0.82
	s2.47,0,6.27,0.82c3.9,0.72,3.19,3.49,3.19,3.49s-0.92,5.44-0.21,11.92c0,0.31-0.1,1.03-1.75,2.26c-1.44,1.03-2.57,2.16-3.7,2.36
	C637.14,356.25,635.7,356.35,634.47,356.35z"/>
<path d="M634.47,332.51c-6.78,0-8.12,1.85-10.07,3.9c-0.41,0.51-0.1,3.6,0.62,10.17h0.92c0,0-0.62-1.85-0.51-4.01
	c0.1-2.16,0.51-2.05,0.21-2.57c-0.41-0.62-1.23-1.64,0.62-2.67s4.73,0.82,8.22,0.92c3.49-0.1,6.47-1.95,8.32-0.92
	c1.85,1.03,1.03,2.05,0.62,2.67c-0.41,0.62,0.1,0.41,0.21,2.57c0.1,2.16-0.51,4.01-0.51,4.01h0.92c0.62-6.58,1.03-9.45,0.72-9.97
	C642.99,334.36,641.25,332.61,634.47,332.51z"/>
<path d="M653.68,368.06c0,0,6.47-1.54,10.89,2.67c4.42,4.32,4.11,9.66,2.77,12.95c1.13,1.34,3.18,5.03,1.64,9.45
	c6.78,5.75,3.8,14.59-2.26,20.45c0,0-1.44-5.34-7.19-5.65c0.21-2.05-5.34-3.7-2.77-9.04c-3.9-0.92-3.8-3.6-4.42-6.88
	C651.83,388.71,653.68,368.06,653.68,368.06z"/>
<path style="fill:#EFEFEF;" d="M651.32,370.94c0,0,7.5-3.8,11.92,0.51c4.42,4.31,3.18,9.04,1.85,12.33c1.13,1.34,3.8,5.14,2.16,9.66
	c-0.31,1.03-2.57,1.03-4.21,3.7c4.11-2.36,6.68-1.75,7.6,1.23c1.44,4.62-1.75,10.17-4.52,13.25c0-0.1-0.1-0.21-0.1-0.31
	c-0.41,1.54-0.92,4.52-4.01,7.81c-1.54,1.64-2.77,1.44-4.52,1.03c-2.05-0.51-2.77-1.44-5.65-2.98c-1.64-0.92-0.72-2.05-0.72-2.98
	c0-0.21,0.21-0.51,0.51-0.92c0.2-0.51,0.82-1.33,1.75-2.26c0,0,1.33-1.85,3.29-1.75c1.95,0.1,4.01-0.31,4.52-0.82l0,0
	c0-3.6-4.11-3.7-2.67-9.86c0.1-0.31,0.62-0.82,2.26-1.03c-2.47-0.51-3.6-0.62-5.34-2.26c-1.23-1.13-2.16-2.57-2.47-4.42
	C652.34,387.68,651.32,370.94,651.32,370.94z"/>
<path d="M629.64,364.46c-0.62-0.82-3.8-4.93-9.86-6.58c-1.75-0.51-2.88,0.92-4.62,1.95c-0.51-0.31-2.77-1.34-4.01-0.62
	s-2.05,1.44-3.29,1.95c-0.62-0.31-2.26-0.31-3.6,0.21c-1.33,0.41-3.39,1.33-5.34,4.01c-1.23,4.42,21.78,1.13,21.78,1.13
	L629.64,364.46z"/>
<path style="fill:#88CE02;" d="M629.84,364.46c-3.29-1.13-2.77-4.93-10.07-5.55c-1.44-0.1-2.36,1.03-3.39,1.75
	c0.51,0.51,1.03,1.34,1.34,2.16c-0.92-1.03-2.57-2.36-4.21-2.67c-1.54-0.31-2.57,0.82-4.21,1.64c0.31,0.31,0.62,0.82,1.03,1.44
	c-1.44-0.92-2.47-1.23-4.42-0.51c-1.34,0.41-3.9,1.54-5.86,4.31c-1.23,4.42,20.75-0.51,20.75-0.51L629.84,364.46z"/>
<path style="fill:#88CE02;" d="M648.75,365.59c0,0,0.62-0.51,0.41-0.62c1.13-0.62,2.67-1.34,3.39,0.62c2.36-0.82,2.67,0.31,3.8,1.54
	c2.88-1.34,3.08,0.31,3.29,1.03c-0.92,0-2.26,0.1-4.11,0.31C652.04,368.98,648.64,365.49,648.75,365.59z"/>
<path d="M613.82,363.03c0,0,5.86,2.05,10.79,1.75c4.93-0.41,13.36-0.82,17.88,1.85c0,0,4.62-1.64,8.94-0.51s12.23,8.53,9.86,16.34
	c-0.21,0.51-1.54,1.34-3.08,1.85c0,0,0.82,3.49-0.62,6.37c-1.44,2.77-4.62,8.12-4.73,15.51l0,0c-0.1,1.23-0.31,3.8-0.51,5.03
	c-8.01-0.31-20.34-3.29-32.47-3.08c0.1-1.33,0.21-2.16,0.31-3.49h0.31c-0.62-3.39-0.82-5.14-1.44-7.71
	c-3.9-2.46-8.01-5.34-11.51-10.79C604.16,380.7,613.82,363.03,613.82,363.03z"/>
<path d="M653.47,418.51c0,0,6.37,22.81-1.13,32.36c0,0,1.13,4.42-1.44,9.14c-0.41,2.05-0.92,3.9-1.23,5.96
	c-1.34,8.53-3.6,12.12-4.21,25.79l-6.17-0.1c0,0-0.72-9.86-2.88-15.1c-1.23-2.98-6.06-6.99-5.86-10.99
	c0.21-3.08,0.82-5.65,6.06-9.76c0.41-5.96-5.55-11.61-4.62-33.8L653.47,418.51z"/>
<path style="fill:#EFEFEF;" d="M651.62,417.58c1.64,10.48,5.45,25.99-1.44,33.6c0.31,1.44,0.51,3.49,0.1,5.86
	c-0.21,1.23-0.62,2.57-1.13,4.01c-1.03,2.47-1.44,6.06-1.75,8.22c-1.34,8.53-8.84,12.64-10.99,7.4c-1.23-2.98-3.8-5.55-4.01-9.55
	c-0.21-3.08,1.95-9.25,7.09-9.04c-0.31-12.43-6.06-9.97-7.6-35.86L651.62,417.58z"/>
<path style="fill:#EFEFEF;" d="M613.82,363.03c0,0,2.26,0.72,4.72,0.92c2.47,0.21,5.14,0,7.5-0.1c4.93-0.41,11.92-0.92,16.54,1.75
	c0,0,2.57-0.82,5.34-0.62c1.23,0.1,2.47,1.13,3.9,1.54c4.52,1.13,8.84,8.63,6.88,15.41c-0.21,0.51-1.64,0-3.29,0.51
	c0.31,1.44,0.51,4.73-1.13,8.22c-1.75,3.49-4.01,8.01-3.6,16.64c-10.79-0.51-15.62-1.23-26.3-1.75c-0.92-3.8-1.54-7.6-1.64-9.55
	c1.44-0.72,2.26-1.33,3.39-2.57c-3.08,0.51-4.32,0.31-6.17-0.72s-5.14-4.32-6.78-6.47c-0.21-0.21-1.34,3.18-3.9,3.29
	c-0.93-1.33,2.98-5.14,2.26-6.58C608.99,377.72,613.82,363.03,613.82,363.03z"/>
<path d="M640.32,422.62c0,0-5.44-12.12-21.78-8.53c-3.9,10.99-9.14,23.63-5.75,37.3c-3.39,4.62-7.29,7.19-7.29,15.72
	c0,8.53,0.41,9.97,0.41,9.97l12.02,0.62c0,0,3.9-5.03,5.45-10.48c0.41-1.54,0.82-4.32,0.51-7.5c0.41-0.62,2.16-2.05,2.36-4.83
	c0,0,5.86-3.08,9.25-10.58C638.68,437.51,637.86,431.66,640.32,422.62z"/>
<path style="fill:#EFEFEF;" d="M652.24,422.31c0-1.95-0.82-3.9-1.34-6.88c-0.31-1.64-0.72-3.49-0.72-6.06
	c0.21-0.41,0.41-2.36,0.21-3.49c-5.14-0.51-13.97-1.23-26.51-1.23c-0.1,0.72-0.31,2.26-0.41,3.49c-0.67,1.64-1.07,3.5-1.48,5.3
	c-0.42,0.07-0.85,0.15-1.3,0.25c-8.94,23.84-5.65,33.7-4.32,38.01c-6.06,7.71-8.84,9.35-7.6,24.97h8.01
	c3.7-5.86,4.52-8.01,4.73-15.72c0-0.31-1.13,0.62-1.95,1.64c0.62-3.19,2.36-3.8,3.7-5.75c0.62-0.82,1.13-2.05,1.13-3.7
	c7.19-4.83,9.86-10.89,11.4-17.16c0.7-2.43,1.46-5.75,2.32-8.53C644.64,427.27,652.24,428.19,652.24,422.31z"/>
<path d="M614.95,406.07c0,0,2.77,0.1,5.24,0.92c2.36,0.82,2.36,1.33,3.29,2.36c0.92,1.03,3.18,2.57,2.77,4.11
	c-0.21,0.82-0.72,1.03-1.44,1.75c-0.31,0.31-2.57,2.77-3.08,3.08c-0.31,0.21-0.72,0.51-1.03,0.72c-0.31,0.21-1.23,0.82-1.54,1.03
	c-1.03,0.51-1.75,0.82-2.88,0.72c0,0-2.57-0.1-4.21-1.85c0,0-0.21-0.82,0.21-1.23c0,0-2.16-1.85-2.78-3.08
	c-0.62-1.23-0.62-2.98-0.21-3.9C609.5,409.77,613.51,407.2,614.95,406.07z"/>
<path d="M606.42,461.14c0.92,0.62,7.19,4.32,17.36,3.8c-0.21,1.95-0.1,5.75-4.62,12.43c-2.26,3.29-4.21,9.04-4.62,16.34
	c0.1,1.64,1.03,3.08-0.21,5.24c0.41,1.33,2.05,4.01,2.88,5.65c0.82,1.64,1.23,3.49-4.21,3.6c-5.55,0.1-14.49-0.51-13.25-4.83
	c0.62-2.26,2.36-4.62,2.57-5.55c0.21-0.92,0.21-3.7,1.95-5.55c1.54-5.14,1.03-10.07,0.72-14.69
	C604.47,472.75,604.36,465.05,606.42,461.14z"/>
<path d="M615.97,377.41c7.3-9.76,1.13-17.57-10.58-15.21c-4.73,0.92-9.45,4.21-9.76,10.17c-1.54,0.21-5.03,0.41-6.78,6.78
	c-1.34,4.93-2.05,5.86-4.42,8.32c-1.54,1.75,0.1,5.34,1.23,7.91c3.8,8.84,15.51,9.66,23.43,16.34c2.67-0.72,5.45-3.7,6.27-5.65
	c-6.68-7.91-5.24-10.99-7.91-15.1C610.32,389.94,616.9,385.94,615.97,377.41z"/>
<path style="fill:#EFEFEF;" d="M614.54,376.79c0.41-0.62,1.13-1.95,1.44-2.47c0.1-0.1,1.23,1.85,1.34,1.75
	c2.77-4.52,3.49-11.1,0.31-11.71c-0.72-0.1-2.05-0.41-3.18-0.82c-2.05-0.72-3.9-0.72-7.19-0.1c-4.52,0.82-9.04,4.11-9.04,8.84
	c0,0.31,3.18,1.23,4.11,5.04c-1.54-2.16-4.21-4.52-7.4-2.47c-3.39,2.16-1.64,7.09-6.16,12.23c-1.54,1.75-1.34,3.8,0.31,7.91
	c2.67,6.47,15.31,9.97,22.19,16.13c1.64-0.72,2.77-2.36,3.6-3.6c-4.62-4.83-6.47-9.35-7.81-12.64c-1.64-3.8-3.49-5.96-7.09-8.84
	c1.85,0.72,3.29,1.44,4.11,2.06c0.92,0.62,2.26,0.72,3.49,0.31C611.97,386.86,614.33,380.7,614.54,376.79z"/>
<path d="M659.23,378.44c-0.31,3.9-3.18,1.95-4.73,1.23c-3.08-1.33-6.16-2.26-9.76-2.26c-3.6,0-8.22,0.31-12.22,1.34
	c-5.55,1.54-7.19,1.44-9.66,0.21c-2.47-1.34-6.78-4.62-6.78-4.62s-0.1,1.03,0.93,2.36c1.33,1.64,4.31,3.7,8.32,5.03
	c1.95,0.62,3.49,0.21,5.24-0.21c9.14-2.26,18.8-2.67,26.92,2.26c0.41,0.21,1.85-0.41,2.47-1.34
	C660.77,381.11,659.23,378.44,659.23,378.44z"/>
<path style="fill:#EFEFEF;" d="M642.17,336.11c-0.31-0.92-2.57-2.57-7.81-2.57c-5.65,0-7.29,1.75-7.4,2.67
	c0,0.31-0.41,3.6-0.51,4.93c0,0,0,1.64,0.1,4.11c0.1,1.64,0.51,2.57,0.72,4.73c0.21,2.26,0.82,3.7,1.95,5.55
	c0.51,0.31,0.92,0.62,1.44,0.72c2.05,0.41,5.65,0.51,7.6,0c1.13-0.31,2.57-2.26,2.88-4.01c0.41-2.16,0.82-3.7,0.92-5.03
	c0.21-1.33,0.31-4.32,0.41-5.14C642.79,339.81,642.27,336.31,642.17,336.11z"/>
<path d="M631.38,463.1c0,0,5.45,2.36,18.91,0.31c0,0-3.8,19.11-2.05,28.66c0,0,1.75,2.47,14.69,7.19c0,0,5.75,1.44,5.55,4.32
	c0,0,0.21,0.62-6.78,0.41c-6.99-0.21-13.56-1.44-18.19-1.44s-9.56,0.21-10.38-1.13c-0.92-1.23,0.21-4.42,1.54-6.27
	c1.44-1.95,1.03-3.39,0.92-6.88C635.29,479.12,628.3,469.67,631.38,463.1z"/>
<path style="fill:#88CE02;" d="M630.25,464.84c-0.72,1.03,0.1,4.93,1.13,8.73c1.03,3.8,3.29,6.06,3.8,12.33
	c0.51,6.16,0.62,6.99-1.13,10.58c-1.75,3.6-2.26,6.88,3.8,6.99s9.35-0.1,15.51,0.82c6.16,0.92,8.32,1.23,11.71,0.72
	c3.39-0.51,4.11-1.64,2.67-2.67s-7.4-2.16-9.97-4.21c-2.47-1.85-9.45-4.93-9.55-5.75c-0.31-2.77-0.41-12.84,0.1-16.13
	s1.23-8.01,1.44-9.25c0.21-1.23,1.23-2.47-0.51-2.06c-1.75,0.41-8.32,1.34-13.25,1.03C631.08,465.66,630.56,464.53,630.25,464.84z"
	/>
<path d="M623.37,401.96c0,0.72,8.01,4.73,12.43,5.55c4.42,0.82,13.67,0,15.1-0.31l-0.21,1.44c0,0-10.99,1.64-19.42-0.62
	c-8.43-2.26-7.5-2.77-7.5-2.77L623.37,401.96z"/>
<path style="fill:#EFEFEF;" d="M606.21,489.6c1.23,0.62,5.65,1.75,8.53,1.13c0.41-0.1,0-7.09,1.13-10.27
	c1.64-4.42,4.31-8.01,5.55-15.82c-4.32-0.41-9.25-1.54-11.81-2.36C606.32,472.34,607.45,480.97,606.21,489.6z"/>
<path style="fill:#EFEFEF;" d="M613.1,496.08c0.72,0.21,1.23,1.03,1.44,0.51c0.41-0.92-0.72-2.67-0.82-3.9c0-0.1,0,0,0-0.1
	c-0.92-0.82-7.19-0.92-6.78-0.51c-0.72,1.33-1.85,1.13-2.26,3.8c-0.21,1.33,1.44,0.21,2.98,0.1c-2.77,1.85-5.96,4.21-6.47,6.27
	c-0.62,2.88,0.41,3.7,3.49,5.24c2.67,0.62,5.86,0.72,8.32,0.62c2.77-0.51,3.29-1.85,2.47-3.7
	C614.23,501.62,613.4,498.03,613.1,496.08z"/>
<path d="M614.23,362.61c3.39,1.95,8.12,1.44,9.86,1.34c0.41,0,4.52-0.72,4.73-0.62c0.41,0.1,0.41,0.41,0.41,0.41
	s-1.54,0.82-5.03,1.03c-3.29,0.21-7.19,0-9.35-1.03C612.28,362.61,614.23,362.61,614.23,362.61z"/>
<path style="fill:#EFEFEF;" d="M613.71,407.2c2.98-0.21,6.06,0.51,8.01,2.57c1.03,1.03,2.67,2.16,2.47,3.18
	c0,0.31-0.62,1.13-1.13,1.75c-0.31,0.41-1.23,1.33-1.54,1.64c-0.41,0.31-1.85,1.44-2.16,1.64s-0.72,0.72-1.03,0.82
	c-1.03,0.51-2.16,0.1-3.19-0.41c-1.03-0.51,0.21-0.62-0.92-1.44c-2.77-1.95-4.32-3.29-3.18-7.09
	C611.14,409.16,612.28,408.33,613.71,407.2z"/>
<path style="opacity:0.4;enable-background:new    ;" d="M587.51,383.68c-9.25,3.7-32.77,15.41-39.45,19.01l0,0
	c5.55,3.49,8.12,11.92,8.94,20.45c0.1,0.82,0.21,1.54,0.31,2.36c0.1,0.72,0.21,1.23,0.31,1.54c0,0.1,0,0.31,0.1,0.41
	c6.06-16.54,27.74-34.01,28.56-35.34c0.41-0.62-0.51-3.29,0.92-5.86C589.06,382.96,592.65,381.52,587.51,383.68z"/>
<path style="opacity:0.4;enable-background:new    ;" d="M609.5,461.25c4.73-9.45,4.83-18.49,4.73-29.08
	c0-4.42,3.18-10.69,1.54-8.94c-6.17,6.88-21.68,19.83-32.88,20.55C598.61,443.27,604.77,451.18,609.5,461.25z"/>
<path d="M539.02,411.42c5.86-4.21,36.17-20.34,43.46-22.6c7.29-2.36,5.03-5.14,5.03-5.14s-29.59,12.74-47.26,23.73"/>
<path style="opacity:0.4;enable-background:new    ;" d="M625.32,381.72c-2.36-0.92-4.21,1.85-3.6,4.52
	c0.62,2.67,6.17,5.65,5.86,15.41c-0.21,8.01-1.95,11.3-1.95,11.3l-3.9-4.93c0,0-0.62-11.1-1.95-12.74
	c-1.34-1.64-5.55-4.62-7.19-6.17s1.85-3.6,1.64-6.47c-0.21-2.77,1.75-8.32,1.75-8.32L625.32,381.72z"/>
<path style="opacity:0.4;enable-background:new    ;" d="M639.6,425.49c-0.21,7.71,1.54,19.11,2.26,24.56
	c0.72,5.45,1.64,5.86,0,8.32c-1.64,2.36-3.8,6.27-3.8,6.27l-7.09-0.62c0,0,5.65-7.19,5.96-8.53c0.31-1.33-2.88-11.51-2.88-11.51
	L639.6,425.49z"/>
<path style="opacity:0.4;enable-background:new    ;" d="M625.94,353.57c1.44,3.18,3.18,4.62,5.96,5.55
	c1.64,0.62,8.12,1.44,10.69-1.44c1.13-1.33,0.41-4.93,0.41-4.93l-5.86,4.73l-7.91-1.44l-0.92-2.36L625.94,353.57z"/>
<path style="fill:#88CE02;stroke:#000000;stroke-width:0.4;stroke-miterlimit:10;" d="M625.63,360.97
	c3.39,1.44,9.97,2.98,11.82,3.39c1.85,0.41,4.83-1.44,6.27-2.36c2.57-1.64,5.86-0.31,7.4,1.44c1.03,1.13,1.44,1.85,1.44,2.16
	c0,0.41-1.23,0-1.23,0c-0.72-0.31-1.54-0.41-2.16-0.82c-0.82-0.41-1.65-1.03-2.88-0.92c-5.14,0.62-6.17,2.36-10.58,1.34
	c-4.42-1.03-5.55-1.95-10.27-1.65"/>
<path d="M609.71,456.93c-0.21-0.21,0.21-0.41,0-0.41c-1.33,0-3.18-1.03-4.21-2.47c-4.42-6.37-10.89-10.58-22.6-10.27
	c-17.57,0.41-24.56-6.78-25.89-20.55c-0.72-7.5-2.77-14.79-6.99-18.9l-2.47,1.54c4.73,4.11,6.27,10.79,7.29,19.93
	c1.64,13.77,12.74,20.14,25.69,20.34c13.46,0.21,18.29,2.98,23.32,9.76c1.64,2.16,3.49,2.88,4.93,3.18L609.71,456.93z"/>
<path style="opacity:0.4;enable-background:new    ;" d="M657.38,390.87c0.31,1.54,1.13,4.52,2.77,5.96
	c0.72,0.72,0.82,0.92,0.21,0.92s-5.14-0.21-5.14-0.21l-1.23-2.16L657.38,390.87z"/>
</svg>
