<svg xmlns:cc="http://creativecommons.org/ns#" xmlns="http://www.w3.org/2000/svg" preserveAspectRatio="xMinYMin meet" viewBox="0 0 387 387" y="0px" x="0px" version="1.1">
  <path
     style="fill:#da4648"
     d="m 192.61766,304.739 c -20.313,0 -43.226,-1.704 -62.246,-9.693 11.229,19.185 11.983,29.981 13.627,52.411 2.521,34.407 10.971,38.543 49.439,38.543 38.736,0 47.047,-4.172 49.036,-38.831 1.273,-22.186 1.643,-33.154 12.517,-52.179 -19.025,8.058 -42.038,9.749 -62.373,9.749 z m 8.947,-188.906 c -30.314,-1.508 -76.667,-0.5 -94.087,-11.406 l 10.265,94.473 c 4.249,-14.444 22.892,-53.307 44.167,-40.857 3.253,1.903 10.943,9.313 6.702,14.434 -4.246,5.132 -7.967,-6.287 -10.59,-7.64 -17.124,-8.837 -35.711,40.334 -32.862,50.47 4.002,14.233 23.321,-9.211 25.739,-14.26 0.253,-0.368 7.125,-23.106 11.115,-13.264 2.902,7.138 -5.157,20.585 -7.27,27.674 -4.306,14.4 -7.846,22.043 -10.992,21.275 -1.583,-0.387 -0.764,-7.396 3.576,-20.804 -5.514,6.155 -17.523,18.772 -26.813,12.037 1.783,18.691 3.565,37.382 5.348,56.073 1.876,19.67 66.071,17.057 78.708,16.381 20.406,-1.091 52.949,0.373 55.723,-23.696 2.307,-20.026 4.614,-40.052 6.922,-60.077 -15.006,13.666 -38.748,16.514 -20.338,-5.299 17.223,-20.377 -8.142,-3.647 -13.826,8.512 -4.424,9.521 -7.21,19.905 -11.825,29.267 -2.425,4.88 -10.028,5.387 -8.343,-1.593 2.34,-9.711 8.219,-18.746 12.152,-27.834 -3.749,3.666 -20.39,16.549 -22.136,4.129 -8.275,6.437 -17.966,7.277 -15.02,-6.059 -11.78,20.952 -27.648,10.241 -19.877,-10.455 5.711,-15.165 18.271,-21.265 8.889,-2.636 -8.48,16.779 -1.681,17.724 5.505,10.571 4.701,-4.678 8.957,-14.43 11.325,-19.881 3.892,-8.949 7.821,0.037 5.231,6.098 -1.299,3.029 -11.083,23.529 -0.652,18.689 11.492,-5.319 18.356,-37.944 23.014,-49.686 1.025,-2.587 10.057,-15.023 10.057,-4.966 0,10.026 -9.953,24.646 -13.678,33.796 -9.209,22.688 -5.518,25.707 11.622,8.312 1.313,-1.355 17.317,-23.274 10.296,-6.619 4.257,-4.643 13.404,-13.856 18.785,-4.492 4.403,7.672 -13.415,23.584 -8.999,24.667 4.418,1.084 18.787,-12.817 19.133,-16.02 1.179,-10.916 2.357,-21.832 3.536,-32.748 2.447,-22.661 4.894,-45.321 7.341,-67.982 -10.51,10.416 -44.343,13.083 -77.843,11.416 z m -8.193,-29.843 c -25.663,0 -54.035,-0.43 -78.914,6.941 -19.799996,5.866 6.141,11.804 13.253,12.932 14.659,2.324 152.661,12.568 152.661,-7.873 10e-4,-6.628 -38.953,-12 -87,-12 z m 34.738,15.507 c 0,4.156 -20.679,4.156 -20.679,0 0,-4.158 20.679,-4.158 20.679,0 z"
     id="Cup" />
  <path
     style="fill:#da4648"
     d="m 209.52466,100.252 c -0.051,0.082 -0.078,0.165 -0.078,0.25 0,1.007 3.727,1.822 8.323,1.822 4.596,0 8.323,-0.815 8.323,-1.822 l 10.871,-44.078 43.231,-45.645 c 0.015,-0.014 0.027,-0.028 0.041,-0.043 0.915,-1.035 -0.94,-4.238 -4.022,-6.985 -3.08,-2.747 -6.407,-3.677 -7.441,-2.631 -0.008,0.008 -0.016,0.016 -0.021,0.023 l -46.129,48.539 z"
     id="Straw" />
</svg>
