<svg version="1.1" xmlns="http://www.w3.org/2000/svg" x="0px" y="0px" viewBox="0 0 200 200" role="img" preserveAspectRatio="xMinYMin meet">
<path fill="#FF9A00" d="M164.584,195H35.417C15.833,195,0,179.166,0,159.584V35.417C0,15.833,15.833,0,35.417,0h129.167
	C184.166,0,200,15.833,200,35.417v124.167C200,179.166,184.166,195,164.584,195z"/>
<path fill="#330000" d="M161.416,186.666H38.583c-16.667,0-30.25-13.582-30.25-30.332V38.667c0-16.75,13.583-30.333,30.25-30.333
	h122.75c16.75,0,30.25,13.583,30.25,30.25v117.75C191.666,173.084,178.084,186.666,161.416,186.666z"/>
<g id="Outlined_Mnemonics_Logos_1_">
	<g id="Ai">
		<path fill="#FF9A00" d="M100.211,113.369h-31l-6.334,19.584c-0.166,0.75-0.833,1.25-1.583,1.166H45.627
			c-0.916,0-1.166-0.5-0.916-1.5l26.833-77.25c0.25-0.833,0.5-1.75,0.833-2.75c0.334-1.75,0.5-3.583,0.5-5.417
			c-0.083-0.417,0.25-0.833,0.667-0.917c0.083,0,0.167,0,0.25,0h21.333c0.667,0,1,0.25,1.084,0.667l30.417,85.833
			c0.25,0.918,0,1.334-0.834,1.334h-17.416c-0.584,0.084-1.167-0.334-1.334-0.916L100.211,113.369z M74.044,96.453h21.167
			c-0.5-1.75-1.167-3.833-1.917-6c-0.75-2.25-1.5-4.667-2.25-7.167c-0.833-2.583-1.583-5.083-2.417-7.667
			c-0.833-2.583-1.583-5-2.25-7.417c-0.666-2.333-1.25-4.5-1.833-6.5h-0.167c-0.75,3.583-1.666,7.167-2.833,10.75
			c-1.25,4-2.5,8.167-3.833,12.333C76.544,89.036,75.294,92.953,74.044,96.453L74.044,96.453z"/>
		<path fill="#FF9A00" d="M144.794,60.536c-2.75,0.083-5.416-1-7.416-2.917c-1.918-2.083-2.918-4.833-2.834-7.667
			c-0.084-2.833,1-5.5,3-7.417c2-1.917,4.666-2.917,7.416-2.917c3.25,0,5.75,1,7.584,2.917c1.834,2,2.834,4.667,2.75,7.417
			c0.084,2.833-0.916,5.583-2.916,7.667C150.46,59.619,147.628,60.703,144.794,60.536z M135.46,132.869V68.703
			c0-0.833,0.334-1.167,1.084-1.167h16.5c0.75,0,1.084,0.417,1.084,1.167v64.167c0,0.916-0.334,1.334-1.084,1.334H136.71
			C135.878,134.203,135.46,133.703,135.46,132.869z"/>
	</g>
</g>
</svg>
