<svg version="1.1" xmlns="http://www.w3.org/2000/svg" x="0px" y="0px" viewBox="0 0 200 200" role="img" preserveAspectRatio="xMinYMin meet">
<path fill="#FF3366" d="M164.584,195H35.417C15.833,195,0,179.166,0,159.584V35.417C0,15.833,15.833,0,35.417,0h129.167
	C184.166,0,200,15.833,200,35.417v124.167C200,179.166,184.166,195,164.584,195z"/>
<path fill="#49021F" d="M161.416,186.666H38.583c-16.667,0-30.25-13.582-30.25-30.332V38.667c0-16.75,13.583-30.333,30.25-30.333
	h122.75c16.75,0,30.25,13.583,30.25,30.25v117.75C191.666,173.084,178.084,186.666,161.416,186.666z"/>
<g id="Outlined_Mnemonics_Logos">
	<g id="Id">
		<path fill="#FF3366" d="M72.583,51v85.5c0,0.916-0.416,1.334-1.166,1.334H55.083c-0.75,0-1.083-0.418-1.083-1.334V51
			c0-0.75,0.417-1.083,1.167-1.083h16.25c0.5-0.083,1,0.25,1.083,0.833C72.583,50.833,72.583,50.917,72.583,51z"/>
		<path fill="#FF3366" d="M120.583,139.166c-6.166,0.084-12.332-1.166-17.916-3.75C97.417,133,93.083,129,90.083,124.084
			C87,119,85.5,112.666,85.5,105.084c-0.083-6.167,1.5-12.25,4.583-17.584c3.167-5.417,7.75-9.917,13.25-12.917
			c5.834-3.25,12.834-4.833,21.084-4.833c0.416,0,1,0,1.75,0.083c0.75,0.083,1.584,0.083,2.584,0.167V43.667
			c0-0.583,0.25-0.917,0.832-0.917h16.918c0.416-0.083,0.75,0.25,0.832,0.583c0,0.083,0,0.167,0,0.167v79.334
			c0,1.5,0.084,3.166,0.168,5c0.166,1.75,0.25,3.416,0.332,4.832c0,0.584-0.25,1.084-0.832,1.334c-4.334,1.834-8.918,3.166-13.584,4
			C129.251,138.75,124.917,139.166,120.583,139.166z M128.751,122.5V85.833c-0.75-0.167-1.5-0.333-2.25-0.417
			c-0.918-0.083-1.834-0.167-2.75-0.167c-3.25,0-6.5,0.667-9.418,2.167c-2.832,1.417-5.25,3.5-7.082,6.167
			c-1.834,2.667-2.751,6.25-2.751,10.583c-0.083,2.918,0.417,5.834,1.417,8.584c0.834,2.25,2.084,4.25,3.75,5.916
			c1.584,1.5,3.5,2.668,5.666,3.334c2.25,0.75,4.584,1.084,6.918,1.084c1.25,0,2.416-0.084,3.5-0.168
			C126.833,123,127.833,122.834,128.751,122.5z"/>
	</g>
</g>
</svg>
