<?xml version="1.0" encoding="utf-8"?>
<!-- Generator: Adobe Illustrator 16.0.0, SVG Export Plug-In . SVG Version: 6.00 Build 0)  -->
<!DOCTYPE svg PUBLIC "-//W3C//DTD SVG 1.1//EN" "http://www.w3.org/Graphics/SVG/1.1/DTD/svg11.dtd">
<svg version="1.1" id="Layer_1" xmlns="http://www.w3.org/2000/svg" xmlns:xlink="http://www.w3.org/1999/xlink" x="0px" y="0px" width="134.667px" height="134.667px" viewBox="32.5 32.5 134.667 134.667" enable-background="new 32.5 32.5 134.667 134.667" xml:space="preserve" preserveAspectRatio="xMinYMin meet">
<path opacity="0.4" fill="#FFFFFF" d="M99.998,86.748c1.848,0,3.643-0.742,4.956-2.044c1.302-1.302,2.044-3.108,2.044-4.956
	c0-1.834-0.742-3.64-2.044-4.941c-1.313-1.305-3.122-2.059-4.956-2.059s-3.641,0.754-4.939,2.059C93.74,76.106,93,77.914,93,79.748
	c0,1.848,0.74,3.652,2.059,4.956C96.357,86.006,98.162,86.748,99.998,86.748z"/>
<path opacity="0.4" fill="#FFFFFF" d="M99.998,89.962c-3.023,0-5.479,2.45-5.479,5.477v32.663c0,3.026,2.455,5.477,5.479,5.477
	s5.477-2.452,5.477-5.477V95.44C105.475,92.412,103.021,89.962,99.998,89.962z"/>
<circle opacity="0.4" fill="none" stroke="#FFFFFF" stroke-width="7" stroke-miterlimit="10" cx="100" cy="102" r="53.814"/>
</svg>
