<?xml version="1.0" encoding="utf-8"?>
<!-- Generator: Adobe Illustrator 16.0.0, SVG Export Plug-In . SVG Version: 6.00 Build 0)  -->
<!DOCTYPE svg PUBLIC "-//W3C//DTD SVG 1.1//EN" "http://www.w3.org/Graphics/SVG/1.1/DTD/svg11.dtd">
<svg version="1.1" id="Layer_1" xmlns="http://www.w3.org/2000/svg" xmlns:xlink="http://www.w3.org/1999/xlink" x="0px" y="0px" width="200px" height="200px" viewBox="0 1800 200 200" style="enable-background:new 0 1800 200 200;" xml:space="preserve" preserveAspectRatio="xMinYMin meet">
<rect x="14.48" y="1814.48" style="fill:#F7DF1E;" width="169.09" height="169.09"/>
<path d="M128.06,1946.58c3.41,5.56,7.84,9.65,15.67,9.65c6.58,0,10.79-3.29,10.79-7.84c0-5.45-4.32-7.38-11.57-10.55l-3.97-1.71
	c-11.47-4.88-19.08-11-19.08-23.94c0-11.92,9.08-20.99,23.27-20.99c10.1,0,17.36,3.52,22.6,12.72l-12.37,7.95
	c-2.72-4.88-5.66-6.81-10.23-6.81c-4.65,0-7.6,2.95-7.6,6.81c0,4.77,2.95,6.7,9.77,9.65l3.97,1.7c13.5,5.79,21.12,11.69,21.12,24.96
	c0,14.3-11.24,22.14-26.33,22.14c-14.76,0-24.29-7.03-28.95-16.25L128.06,1946.58z M71.93,1947.96c2.5,4.43,4.77,8.17,10.23,8.17
	c5.22,0,8.51-2.04,8.51-9.98v-54.03h15.89v54.24c0,16.45-9.65,23.94-23.73,23.94c-12.72,0-20.09-6.58-23.84-14.51L71.93,1947.96z"/>
</svg>
