<svg
   xmlns:cc="http://creativecommons.org/ns#"
   xmlns:svg="http://www.w3.org/2000/svg"
   xmlns="http://www.w3.org/2000/svg"
   version="1.1"
   x="0px"
   y="0px"
   viewBox="0 0 200 200"
   role="img"
   preserveAspectRatio="xMinYMin meet">
   <title id="mailgunTitle">Mailgun, a Email Service Provider</title>
   <desc id="catDesc">The Mailgun logo</desc>
  <path
     d="m 99.927317,64.346825 c -19.596263,0 -35.531041,15.914274 -35.531041,35.443165 0,19.52889 15.943566,35.44317 35.531041,35.44317 19.587473,0 35.531043,-15.91428 35.531043,-35.44317 0,-19.528891 -15.94357,-35.443165 -35.531043,-35.443165 z M 44.609616,99.78999 c 0,-30.48698 24.780924,-55.221037 55.317701,-55.221037 30.536773,0 55.314773,24.763349 55.314773,55.2474 0,2.109017 -0.19333,4.027627 -0.3808,5.946247 -0.38079,5.3692 3.45644,9.39391 8.83443,9.39391 9.02776,0 9.95924,-11.69625 9.95924,-15.530554 0,-40.841657 -33.04123,-73.815518 -73.950261,-73.815518 -40.909029,0 -73.920969,32.973861 -73.920969,73.815518 0,40.841654 33.038303,73.815514 73.95026,73.815514 21.67599,0 41.10528,-9.3939 54.74651,-24.15993 l 15.17319,12.65409 c -17.09474,19.17446 -42.06313,31.25442 -69.9197,31.25442 C 47.872731,193.19591 6,151.20308 6,99.625956 6,47.855501 48.063128,6.056 99.73399,6.056 c 51.86126,0 93.73399,41.992828 93.73399,93.569956 0,20.709354 -9.95924,37.581474 -29.77226,37.581474 -8.83443,0 -14.02202,-4.02763 -17.09473,-8.43606 -9.79521,15.72388 -27.08327,26.07562 -47.060326,26.07562 C 69.384682,155.03739 44.606687,130.3004 44.606687,99.819282 Z M 99.927317,83.491993 c 9.027753,0 16.327293,7.284888 16.327293,16.104671 0,9.013106 -7.29954,16.297996 -16.327293,16.297996 -9.027755,0 -16.32729,-7.2556 -16.32729,-16.268704 0.193327,-8.816854 7.299535,-16.104671 16.32729,-16.104671 z"
     style="fill:#c02126;stroke-width:1" />
</svg>
