<svg version="1.1" xmlns="http://www.w3.org/2000/svg" x="0px" y="0px" viewBox="0 0 200 200" preserveAspectRatio="xMinYMin meet" role="img">
<path fill="#C02126" d="M100.166,69.672c-16.848,0-30.547,13.683-30.547,30.472s13.707,30.472,30.547,30.472
	c16.84,0,30.547-13.683,30.547-30.472S117.006,69.672,100.166,69.672z M52.607,100.144c0-26.211,21.305-47.476,47.559-47.476
	c26.254,0,47.557,21.291,47.557,47.498c0,1.813-0.167,3.463-0.328,5.113c-0.327,4.615,2.972,8.075,7.596,8.075
	c7.761,0,8.562-10.056,8.562-13.352c0-35.113-28.405-63.463-63.576-63.463c-35.172,0-63.554,28.35-63.554,63.463
	c0,35.112,28.405,63.462,63.578,63.462c18.636,0,35.34-8.076,47.067-20.771l13.046,10.879
	c-14.697,16.484-36.164,26.871-60.113,26.871c-44.587,0.005-80.587-36.099-80.587-80.44c0-44.509,36.163-80.446,80.587-80.446
	c44.588,0,80.587,36.103,80.587,80.446c0,17.804-8.562,32.31-25.597,32.31c-7.596,0-12.056-3.462-14.697-7.252
	c-8.42,13.518-23.284,22.418-40.459,22.418c-25.926,0.163-47.228-21.104-47.228-47.31L52.607,100.144z M100.166,86.132
	c7.762,0,14.037,6.263,14.037,13.846c0,7.749-6.275,14.013-14.037,14.013s-14.037-6.238-14.037-13.987
	c0.166-7.58,6.275-13.846,14.037-13.846V86.132z"/>
</svg>
