<svg
   xmlns:cc="http://creativecommons.org/ns#"
   xmlns="http://www.w3.org/2000/svg"
   id="svg946"
   role="img"
   preserveAspectRatio="xMinYMin meet"
   viewBox="0 0 18 18"
   y="0px"
   x="0px"
   version="1.1">
  <title id="parcelTitle">Node Package Manager</title>
  <desc id="catDesc">NPM logo</desc>
  <path
     style="fill:#cb3837;stroke-width:1"
     id="path938"
     d="M 1.3205624,6.275321 H 16.679438 v 5.119625 H 9 v 0.853271 H 5.5869166 V 11.394946 H 1.3205624 Z m 0.8532708,4.266354 H 3.8803749 V 7.9818627 H 4.7336458 V 10.541675 H 5.5869166 V 7.1285918 H 2.1738332 Z M 6.4401874,7.1285918 V 11.394946 H 8.1467291 V 10.541675 H 9.8532708 V 7.1285918 Z M 8.1467291,7.9818627 H 9 V 9.6884043 H 8.1467291 Z M 10.706542,7.1285918 v 3.4130832 h 1.706541 V 7.9818627 h 0.853271 v 2.5598123 h 0.853271 V 7.9818627 h 0.853271 v 2.5598123 h 0.853271 V 7.1285918 Z" />
  <polygon
     transform="matrix(0.85327084,0,0,0.85327084,1.3205624,6.275321)"
     style="fill:#ffffff;stroke-width:1.17196083"
     id="polygon940"
     points="5,5 5,1 1,1 1,5 3,5 3,2 4,2 4,5 " />
  <path
     style="fill:#ffffff;stroke-width:1"
     id="path942"
     d="M 6.4401874,7.1285918 V 11.394946 H 8.1467291 V 10.541675 H 9.8532708 V 7.1285918 Z M 9,9.6884043 H 8.1467291 V 7.9818627 H 9 Z" />
  <polygon
     transform="matrix(0.85327084,0,0,0.85327084,1.3205624,6.275321)"
     style="fill:#ffffff;stroke-width:1.17196083"
     id="polygon944"
     points="14,5 15,5 15,2 16,2 16,5 17,5 17,1 11,1 11,5 13,5 13,2 14,2 " />
</svg>
