<svg version="1.1" viewBox="0 0 64 64" xmlns="http://www.w3.org/2000/svg" xmlns:cc="http://creativecommons.org/ns#" preserveAspectRatio="xMinYMin meet" role="img">
  <title id="nuxtTitle">Nuxt, the vue framework</title>
  <desc id="catDesc">The Nuxt logo</desc>
 <defs>
  <style>.cls-1{fill:#2c4a5d;}.cls-2{fill:#00c391;}.cls-3{fill:#00c492;}.cls-4{fill:#008776;}.cls-5{fill:#2d4a5d;}</style>
 </defs>
 <title>NuxtJS</title>
 <g transform="matrix(2.5377 0 0 2.5377 -12.871 -44.132)" stroke-width=".49989">
  <path class="cls-3" d="m12.738 38.729a0.93695 0.93695 0 0 1-0.04999-0.10248 1.3138 1.3138 0 0 1-0.08933-0.74099h-5.9621l8.8604-15.592 2.9088 5.1134 0.84347-1.4925-2.5357-4.467a1.5497 1.5497 0 0 0-1.2376-0.81717 1.3778 1.3778 0 0 0-1.2008 0.82772l-8.976 15.782a1.5874 1.5874 0 0 0-0.078833 1.4897 1.3813 1.3813 0 0 0 1.3138 0.63346h7.5177a1.3777 1.3777 0 0 1-1.3138-0.63326z" fill="#00c492"/>
  <path class="cls-4" d="m30.023 37.239-7.3758-12.994a1.5536 1.5536 0 0 0-1.2429-0.82767 1.3738 1.3738 0 0 0-1.2008 0.82507l-0.95384 1.6712 0.84872 1.4925 1.3136-2.3254 7.2972 12.804h-2.7748a1.2426 1.2426 0 0 1-0.05779 0.63062 0.79953 0.79953 0 0 1-0.05784 0.12877l-0.02364 0.04729a1.5884 1.5884 0 0 1-1.3375 0.66986h4.3409a1.5856 1.5856 0 0 0 1.3375-0.66986 1.378 1.378 0 0 0-0.11298-1.4531z" fill="#008776"/>
  <path class="cls-5" d="m25.795 38.692 0.02364-0.04729a0.79953 0.79953 0 0 0 0.05784-0.12877 1.2426 1.2426 0 0 0 0.05779-0.63062 1.9201 1.9201 0 0 0-0.24175-0.64641l-5.5888-9.8326-0.85397-1.4925-0.84872 1.4925-5.5864 9.8329a1.9908 1.9908 0 0 0-0.21545 0.64641 1.3139 1.3139 0 0 0 0.08148 0.74099 0.9276 0.9276 0 0 0 0.04999 0.10248 1.3814 1.3814 0 0 0 1.3139 0.63326h10.405a1.5921 1.5921 0 0 0 1.3453-0.67031zm-6.5454-9.7932 5.1082 8.9866h-10.214z" fill="#2d4a5d"/>
 </g>
</svg>
