<svg version="1.1" xmlns="http://www.w3.org/2000/svg" x="0px" y="0px" viewBox="0 0 200 200" preserveAspectRatio="xMinYMin meet" role="img">
	<title id="parcelTitle">Parcel, the module bundle</title>
  <desc id="catDesc">The parcel logo</desc>
<linearGradient id="SVGID_1_" gradientUnits="userSpaceOnUse" x1="72.5117" y1="108.9375" x2="46.3649" y2="37.0996">
	<stop  offset="0.1639" style="stop-color:#945B1E"/>
	<stop  offset="0.2178" style="stop-color:#986023"/>
	<stop  offset="0.2845" style="stop-color:#A36D33"/>
	<stop  offset="0.358" style="stop-color:#B6824C"/>
	<stop  offset="0.4358" style="stop-color:#D0A06F"/>
	<stop  offset="0.4446" style="stop-color:#D3A473"/>
</linearGradient>
<path style="fill:url(#SVGID_1_);" d="M13.15,49.19c0,0,59.33-15.94,59.83-15.94s20.13,30,20.71,30.82c0.58,0.82,0.74,1.89,0.74,3.7
	s0,33.2,0,33.2L41.91,87.73l-7.73-6.25L13.15,49.19z"/>
<linearGradient id="SVGID_2_" gradientUnits="userSpaceOnUse" x1="126.2051" y1="118.1191" x2="142.7337" y2="40.3578">
	<stop  offset="0.1639" style="stop-color:#945B1E"/>
	<stop  offset="0.257" style="stop-color:#975E21"/>
	<stop  offset="0.3381" style="stop-color:#9E672C"/>
	<stop  offset="0.4147" style="stop-color:#AC763E"/>
	<stop  offset="0.488" style="stop-color:#BE8C57"/>
	<stop  offset="0.5512" style="stop-color:#D3A473"/>
</linearGradient>
<path style="fill:url(#SVGID_2_);" d="M113.9,37.03l69.62,12L163.7,79.6l-9.18,44.54l-60.1-14.96c0,0,0-36.16,0-39.36
	s0.25-5.42,1.73-7.31C97.63,60.61,113.9,37.03,113.9,37.03z"/>
<linearGradient id="SVGID_3_" gradientUnits="userSpaceOnUse" x1="152.1387" y1="172.7871" x2="152.1387" y2="54.9971">
	<stop  offset="0.3678" style="stop-color:#C99867"/>
	<stop  offset="0.7951" style="stop-color:#CF9F6E"/>
	<stop  offset="1" style="stop-color:#D3A473"/>
</linearGradient>
<path style="fill:url(#SVGID_3_);" d="M110.39,172.79l51.72-33.09c0,0,2.63-53.8,2.63-56.32s0.88-3.62,2.19-4.82
	C168.25,77.35,193.89,55,193.89,55L141.4,77.35c0,0-26.41,23.56-27.83,24.98c-1.42,1.42-3.18,3.07-3.18,6.68
	S110.39,172.79,110.39,172.79z"/>
<path style="fill:#B88B60;" d="M39.5,146.6l70.89,26.19c0,0,0-60.71,0-62.89s0-4.38-1.32-5.48c-1.31-1.1-24.76-16.44-24.76-16.44
	L7.57,68.69c0,0,24.25,14.03,26.12,15.01c1.86,0.99,2.74,1.42,2.74,4.82C36.43,91.92,39.5,146.6,39.5,146.6z"/>
<path style="fill:#8E643A;" d="M65.36,109.13l12.05,3.62c0,0,0-12.82,0-13.92s0.11-2.19-2.3-3.62
	c-2.41-1.42-26.29-16.15-26.29-16.15l-12.5-3.14c0,0,24.87,14.8,26.08,15.57c1.21,0.77,2.63,0.77,2.63,4.27
	C65.03,99.26,65.36,109.13,65.36,109.13z"/>
<path style="fill:#AE7F53;" d="M135.1,109.92l8.79-4.27c0,0,0.33-12.33,0.41-13.56s0.41-2.3,1.64-3.37s27.99-25.23,27.99-25.23
	l-8.37,3.56c0,0-27.18,24.87-28.08,25.69c-0.9,0.82-2.38,1.73-2.38,3.53C135.1,98.09,135.1,109.92,135.1,109.92z"/>
<polygon points="101.96,162.66 101.93,151.97 103.13,152.46 100.78,146.57 98.51,150.57 99.71,151.06 99.74,161.75 95.99,160.22
	95.95,149.53 97.16,150.02 94.81,144.14 92.53,148.13 93.73,148.62 93.76,159.31 92.4,158.75 92.4,160.91 103.34,165.38
	103.34,163.22 "/>
<path d="M82.02,149.61l0.02,5.4c-1.78-0.48-3.15,0.27-3.15,0.27l7.48,3.05c0,0-1.37-1.86-3.16-2.84l-0.02-5.4
	c1.92,0.42,3.39-1.26,3.38-4.03l-0.02-4.92l-5.37-2.19l0.54,2.41l-0.63,0.76l0.56,4.15l-1.7-4.81l0.4-0.97l-0.53-2.1l-1.23-0.5
	l0.02,4.9C78.61,145.55,80.09,148.44,82.02,149.61z"/>
</svg>
