<svg version="1.1" xmlns="http://www.w3.org/2000/svg" x="0px" y="0px" viewBox="0 0 200 200" preserveAspectRatio="xMinYMin meet" role="img">
<path id="path2" fill="#FFFFFF" d="M160.101,160.106c-33.186,33.196-87.011,33.189-120.197,0
	c-33.203-33.198-33.203-87.018,0-120.214c33.195-33.191,87.014-33.191,120.193,0.005c33.2,33.189,33.2,87.011,0.004,120.206"/>
<path id="path4" fill="#EB1933" d="M147.308,36.882c-13.19-9.896-29.562-15.758-47.308-15.758
	c-43.562,0-78.873,35.317-78.873,78.881c0,17.529,5.725,33.721,15.398,46.814c53.041-15.441,94.93-57.056,110.781-109.941"/>
<path id="path6" fill="#2151A1" d="M166.173,57.107c1.59,5.162,2.473,10.633,2.473,16.308c0,18.312-9.021,34.422-22.697,44.508
	c-23.823,17.539-58.53,17.562-106.451,32.662c14.466,17.289,36.197,28.296,60.505,28.296c43.565,0,78.89-35.314,78.89-78.874
	c0-15.813-4.686-30.536-12.718-42.895L166.173,57.107L166.173,57.107z"/>
</svg>
