<svg version="1.1" xmlns="http://www.w3.org/2000/svg" x="0px" y="0px" viewBox="0 0 250 180" preserveAspectRatio="xMinYMin meet" role="img">
   <g
     transform="matrix(0.5,0,0,0.5,0.64477,1.3552)"
     id="g8"><circle
       style="fill:#ffffff;stroke-width:26.1924;fill-opacity:1"
       id="path857"
       cx="255.97771"
       cy="180.13548"
       r="148.21344" /><path
       d="M 344.74312,61.655088 C 320.0003,43.094556 289.29753,32.100725 256.01026,32.100725 c -81.70796,0 -147.93999,66.244481 -147.93999,147.952445 0,32.88123 10.7385,63.24894 28.88178,87.81115 99.48816,-28.96523 178.05733,-107.0175 207.78858,-206.212962"
       fill="#ed1a34"
       id="path4"
       style="fill:#eb1933;stroke-width:0.622774" /><path
       style="fill:#2151a1;stroke-width:0.622774"
       d="m 380.12914,99.593246 c 2.9809,9.682274 4.63555,19.941854 4.63555,30.586304 0,34.34786 -16.91766,64.563 -42.57221,83.48286 -44.68404,32.89493 -109.78261,32.93853 -199.6676,61.2623 27.13427,32.42785 67.89483,53.07281 113.48812,53.07281 81.71419,0 147.97112,-66.23826 147.97112,-147.93999 0,-29.66273 -8.78921,-57.27716 -23.85536,-80.456184 z"
       id="path6" />
     </g>
   </svg>
