<?xml version="1.0" encoding="utf-8"?>
<!-- Generator: Adobe Illustrator 16.0.0, SVG Export Plug-In . SVG Version: 6.00 Build 0)  -->
<!DOCTYPE svg PUBLIC "-//W3C//DTD SVG 1.1//EN" "http://www.w3.org/Graphics/SVG/1.1/DTD/svg11.dtd">
<svg version="1.1"
	 id="svg3430" inkscape:version="0.91 r13725" sodipodi:docname="php-ar21.svg" xmlns:cc="http://creativecommons.org/ns#" xmlns:svg="http://www.w3.org/2000/svg" xmlns:sodipodi="http://sodipodi.sourceforge.net/DTD/sodipodi-0.dtd" xmlns:rdf="http://www.w3.org/1999/02/22-rdf-syntax-ns#" xmlns:dc="http://purl.org/dc/elements/1.1/" xmlns:inkscape="http://www.inkscape.org/namespaces/inkscape"
	 xmlns="http://www.w3.org/2000/svg" xmlns:xlink="http://www.w3.org/1999/xlink" x="0px" y="0px" width="120px" height="113px"
	 viewBox="0 -24.5 120 113" enable-background="new 0 -24.5 120 113" xml:space="preserve" preserveAspectRatio="xMinYMin meet">
<g id="g3438" transform="matrix(0.16488308,0,0,-0.16263208,11.737077,58.329876)">
	<path id="path3474" inkscape:connector-curvature="0" fill="#777BB3" d="M288.001-22.495c193.822,0,350.953,82.607,350.953,184.495
		c0,101.889-157.131,184.49-350.953,184.49C94.173,346.49-62.958,263.889-62.958,162C-62.958,60.112,94.173-22.495,288.001-22.495"
		/>
	<path id="path3486" inkscape:connector-curvature="0" d="M127.826,140.828c15.305,0,26.732,2.822,33.961,8.382
		c7.151,5.506,12.091,15.048,14.679,28.357c2.417,12.439,1.496,21.128-2.73,25.812c-4.324,4.786-13.667,7.218-27.775,7.218h-24.458
		l-13.557-69.769H127.826z M47.828,54.882c-1.134,0-2.212,0.51-2.932,1.381c-0.726,0.877-1.019,2.03-0.8,3.146l35.931,184.892
		c0.349,1.786,1.916,3.08,3.737,3.08h77.452c24.34,0,42.458-6.611,53.844-19.644c11.452-13.108,14.985-31.429,10.507-54.448
		c-1.821-9.374-4.955-18.092-9.314-25.893c-4.359-7.806-10.127-15.036-17.137-21.479c-8.393-7.842-17.893-13.541-28.207-16.897
		c-10.152-3.303-23.191-4.978-38.75-4.978h-31.361l-8.955-46.086c-0.35-1.783-1.913-3.074-3.74-3.074H47.828z"/>
	<path id="path3494" inkscape:connector-curvature="0" d="M317.912,104.042c-1.131,0-2.209,0.499-2.932,1.375
		c-0.716,0.877-1.019,2.036-0.799,3.146l15.896,81.812c1.51,7.776,1.131,13.364-1.042,15.724c-1.344,1.441-5.366,3.861-17.265,3.861
		h-28.802l-19.983-102.843c-0.347-1.789-1.916-3.074-3.737-3.074h-39.961c-1.134,0-2.209,0.499-2.935,1.375
		c-0.726,0.877-1.016,2.036-0.8,3.146l35.937,184.895c0.346,1.786,1.913,3.077,3.734,3.077h39.964c1.131,0,2.209-0.504,2.938-1.381
		c0.723-0.88,1.007-2.03,0.793-3.149l-8.668-44.625h30.979c23.596,0,39.6-4.161,48.922-12.718
		c9.506-8.734,12.467-22.698,8.813-41.508l-16.72-86.039c-0.349-1.789-1.913-3.074-3.731-3.074H317.912L317.912,104.042z"/>
	<path id="path3502" inkscape:connector-curvature="0" d="M442.188,140.828c15.305,0,26.735,2.822,33.961,8.382
		c7.155,5.5,12.088,15.048,14.688,28.357c2.411,12.439,1.486,21.128-2.736,25.812c-4.324,4.786-13.676,7.218-27.778,7.218h-24.455
		l-13.557-69.769H442.188z M362.196,54.882c-1.137,0-2.215,0.51-2.938,1.381c-0.723,0.877-1.013,2.03-0.806,3.146l35.945,184.892
		c0.344,1.786,1.907,3.08,3.731,3.08h77.452c24.343,0,42.455-6.611,53.844-19.644c11.449-13.105,14.985-31.426,10.501-54.448
		c-1.812-9.374-4.946-18.092-9.305-25.893c-4.365-7.806-10.128-15.036-17.141-21.479c-8.398-7.842-17.893-13.541-28.204-16.897
		c-10.158-3.303-23.193-4.978-38.753-4.978h-31.361l-8.955-46.086c-0.344-1.783-1.913-3.074-3.743-3.074H362.196z"/>
	<path id="path3490" inkscape:connector-curvature="0" fill="#FFFFFF" d="M124.64,206.79h21.322c17.028,0,22.939-3.735,24.95-5.963
		c3.337-3.696,3.962-11.493,1.821-22.536c-2.408-12.37-6.871-21.143-13.267-26.061c-6.548-5.044-17.194-7.602-31.637-7.602h-15.266
		L124.64,206.79z M161.216,251.188H83.764c-3.643,0-6.776-2.582-7.472-6.161L40.356,60.136c-0.429-2.228,0.154-4.54,1.602-6.293
		c1.442-1.753,3.598-2.774,5.87-2.774h40.275c3.646,0,6.778,2.594,7.475,6.167l8.357,42.994h28.225
		c15.962,0,29.395,1.741,39.932,5.176c10.835,3.519,20.8,9.481,29.625,17.738c7.294,6.713,13.305,14.243,17.863,22.397
		c4.552,8.148,7.824,17.246,9.726,27.024c4.711,24.232,0.882,43.64-11.378,57.676C205.785,244.142,186.705,251.188,161.216,251.188
		 M103.324,137.026h24.502c16.24,0,28.337,3.051,36.283,9.169c7.948,6.125,13.308,16.333,16.095,30.642
		c2.666,13.745,1.451,23.439-3.642,29.087c-5.097,5.65-15.299,8.476-30.6,8.476h-27.594L103.324,137.026 M161.216,243.578
		c23.297,0,40.295-6.113,50.98-18.345c10.682-12.231,13.9-29.3,9.636-51.22c-1.753-9.028-4.721-17.272-8.899-24.754
		c-4.182-7.488-9.646-14.328-16.392-20.536c-8.043-7.524-16.98-12.893-26.806-16.081c-9.835-3.207-22.355-4.798-37.577-4.798H97.662
		l-9.559-49.155H47.828l35.937,184.889H161.216"/>
	<path id="path3498" inkscape:connector-curvature="0" fill="#FFFFFF" d="M295.18,300.346h-39.958c-3.646,0-6.779-2.585-7.472-6.164
		l-35.937-184.886c-0.432-2.24,0.154-4.54,1.599-6.293c1.448-1.76,3.598-2.774,5.873-2.774h39.961c3.643,0,6.775,2.588,7.468,6.161
		l19.392,99.763h25.663c11.875,0,14.363-2.534,14.469-2.645c0.717-0.774,1.665-4.365,0.101-12.409l-15.896-81.802
		c-0.433-2.24,0.154-4.54,1.599-6.293c1.445-1.76,3.601-2.774,5.87-2.774h40.6c3.637,0,6.782,2.588,7.469,6.161l16.72,86.039
		c3.921,20.197,0.562,35.347-9.974,45.033c-10.057,9.235-26.901,13.727-51.499,13.727H294.86l7.794,40.094
		c0.427,2.231-0.154,4.54-1.605,6.29C299.61,299.329,297.454,300.346,295.18,300.346 M295.18,292.732l-9.553-49.158h35.602
		c22.394,0,37.841-3.909,46.346-11.715c8.505-7.815,11.052-20.476,7.658-37.98l-16.72-86.036h-40.6l15.896,81.809
		c1.812,9.302,1.143,15.654-1.996,19.035s-9.826,5.08-20.042,5.08h-31.941l-20.582-105.924h-39.961l35.937,184.892h39.958"/>
	<path id="path3506" inkscape:connector-curvature="0" fill="#FFFFFF" d="M439.014,206.79h21.31c17.028,0,22.939-3.735,24.953-5.963
		c3.334-3.696,3.968-11.493,1.818-22.536c-2.405-12.37-6.865-21.143-13.267-26.061c-6.545-5.044-17.188-7.602-31.633-7.602h-15.263
		L439.014,206.79z M475.581,251.188h-77.452c-3.643,0-6.776-2.582-7.475-6.161L354.728,60.136c-0.438-2.228,0.148-4.54,1.593-6.293
		c1.445-1.753,3.607-2.774,5.875-2.774h40.269c3.654,0,6.781,2.594,7.48,6.167l8.351,42.994h28.228
		c15.956,0,29.395,1.741,39.926,5.176c10.844,3.519,20.812,9.487,29.631,17.738c7.297,6.713,13.309,14.243,17.863,22.397
		c4.56,8.148,7.824,17.246,9.725,27.024c4.714,24.235,0.888,43.64-11.372,57.676C520.144,244.142,501.073,251.188,475.581,251.188
		 M417.686,137.026h24.509c16.228,0,28.328,3.051,36.277,9.169c7.948,6.125,13.314,16.333,16.092,30.642
		c2.677,13.745,1.457,23.439-3.636,29.087c-5.1,5.65-15.299,8.476-30.603,8.476H432.73L417.686,137.026 M475.581,243.578
		c23.294,0,40.292-6.113,50.972-18.345c10.685-12.231,13.9-29.3,9.642-51.22c-1.753-9.028-4.714-17.272-8.896-24.754
		c-4.182-7.488-9.636-14.328-16.394-20.536c-8.043-7.524-16.975-12.893-26.807-16.081c-9.832-3.207-22.353-4.798-37.574-4.798h-34.5
		l-9.559-49.155h-40.269l35.934,184.889H475.581"/>
</g>
</svg>
