<?xml version="1.0" encoding="utf-8"?>
<!-- Generator: Adobe Illustrator 16.0.0, SVG Export Plug-In . SVG Version: 6.00 Build 0)  -->
<!DOCTYPE svg PUBLIC "-//W3C//DTD SVG 1.1//EN" "http://www.w3.org/Graphics/SVG/1.1/DTD/svg11.dtd">
<svg version="1.1" id="Layer_1" xmlns="http://www.w3.org/2000/svg" xmlns:xlink="http://www.w3.org/1999/xlink" x="0px" y="0px" width="2000px" height="2000px" viewBox="0.5 0.5 2000 2000" enable-background="new 0.5 0.5 2000 2000" xml:space="preserve" preserveAspectRatio="xMinYMin meet">
<path id="path8615" fill="#366D9C" d="M988.188,23.5c-488.405,0-457.918,211.812-457.918,211.812l0.548,219.436h466.091v65.877
	H345.694c0,0-312.551-35.439-312.551,457.381c0,492.809,272.795,475.32,272.795,475.32h162.818V1224.65
	c0,0-8.779-272.785,268.44-272.785c277.181,0,462.254,0,462.254,0s259.721,4.197,259.721-251.01c0-255.209,0-421.98,0-421.98
	S1498.613,23.5,988.188,23.5z M731.208,171.061c46.371,0,83.836,37.475,83.836,83.846s-37.484,83.836-83.836,83.836
	c-46.391,0-83.875-37.465-83.875-83.836C647.333,208.545,684.836,171.061,731.208,171.061z"/>
<path id="path8620" fill="#FFDE4F" d="M1002.065,1937.443c488.425,0,457.929-211.812,457.929-211.812l-0.539-219.426H993.375
	v-65.887h651.213c0,0,312.531,35.41,312.531-457.391c0-492.799-272.767-475.338-272.767-475.338h-162.837v228.684
	c0,0,8.808,272.797-268.411,272.797c-277.22,0-462.303,0-462.303,0s-259.72-4.199-259.72,251c0,255.207,0,421.988,0,421.988
	S491.639,1937.443,1002.065,1937.443z M1259.074,1789.855c-46.381,0-83.855-37.467-83.855-83.838s37.475-83.855,83.855-83.855
	c46.371,0,83.856,37.484,83.856,83.855S1305.445,1789.855,1259.074,1789.855z"/>
</svg>
