<svg version="1.1" xmlns="http://www.w3.org/2000/svg" x="0px" y="0px" viewBox="0 0 250 180" preserveAspectRatio="xMinYMin meet" role="img">
  <path
     fill="#1ed760"
     d="m 240.25982,92.521407 a 3.8248592,3.8248592 0 0 1 -3.83612,-3.839858 c 0,-2.107422 1.69869,-3.862359 3.85861,-3.862359 a 3.8248592,3.8248592 0 0 1 3.8361,3.83986 3.8623579,3.8623579 0 0 1 -3.85859,3.862357 m 0.0224,-7.319731 a 3.4311237,3.4311237 0 0 0 -3.45737,3.479873 c 0,1.912429 1.47745,3.453621 3.43488,3.453621 a 3.4348736,3.4348736 0 0 0 3.45736,-3.47612 3.4048748,3.4048748 0 0 0 -3.43487,-3.457374 m 0.84747,3.851108 1.08747,1.522445 h -0.91498 l -0.97495,-1.394949 h -0.84372 v 1.394949 h -0.76497 v -4.031102 h 1.79993 c 0.93372,0 1.54869,0.479983 1.54869,1.286203 0,0.659976 -0.38249,1.064961 -0.93747,1.222454 m -0.64497,-1.818682 h -1.00121 v 1.274953 h 1.00121 c 0.49873,0 0.79497,-0.243742 0.79497,-0.637477 0,-0.412483 -0.29998,-0.637476 -0.79497,-0.637476 M 192.47157,74.034587 a 3.9111071,3.9111071 0 1 0 -0.004,7.822213 3.9129813,3.9129813 0 0 0 0,-7.825962 m 2.6999,10.8371 h -5.4523 a 0.40123524,0.40123524 0 0 0 -0.39749,0.401237 V 109.0658 c 0,0.22499 0.17625,0.40123 0.39749,0.40123 h 5.45605 a 0.40123524,0.40123524 0 0 0 0.40123,-0.40123 V 85.269175 a 0.40123524,0.40123524 0 0 0 -0.40123,-0.401237 m 12.12331,0.0225 v -0.749974 c 0,-2.219918 0.85122,-3.209881 2.7599,-3.209881 1.1362,0 2.04742,0.224992 3.07488,0.569979 a 0.39748538,0.39748538 0 0 0 0.52498,-0.382487 v -4.59358 a 0.40123524,0.40123524 0 0 0 -0.28499,-0.382486 14.973199,14.973199 0 0 0 -4.53734,-0.652476 c -5.03606,0 -7.69845,2.838646 -7.69845,8.204698 v 1.154958 h -2.62117 a 0.40123524,0.40123524 0 0 0 -0.40123,0.397485 v 4.713577 c 0,0.221242 0.18,0.401235 0.40123,0.401235 h 2.62117 V 109.0733 c 0,0.21749 0.17623,0.39748 0.39748,0.39748 h 5.45605 a 0.40123524,0.40123524 0 0 0 0.39749,-0.40123 V 90.357737 h 5.09231 l 7.80345,18.711813 c -0.88495,1.96118 -1.75492,2.35491 -2.94364,2.35491 -0.96372,0 -1.97616,-0.28874 -3.01114,-0.85497 a 0.40873496,0.40873496 0 0 0 -0.31498,-0.03 0.39748538,0.39748538 0 0 0 -0.23625,0.2175 l -1.84868,4.0536 a 0.39748538,0.39748538 0 0 0 0.16875,0.51748 c 1.93118,1.04621 3.67486,1.49244 5.82729,1.49244 4.02734,0 6.25477,-1.87493 8.21594,-6.92599 l 9.46466,-24.456604 A 0.39748538,0.39748538 0 0 0 235.231,84.890437 h -5.67729 a 0.40123524,0.40123524 0 0 0 -0.375,0.26999 l -5.81978,16.615643 -6.37476,-16.626893 a 0.39748538,0.39748538 0 0 0 -0.37123,-0.25874 h -9.31841 m -20.91298,-0.0225 h -5.99978 v -6.138523 a 0.39748538,0.39748538 0 0 0 -0.40125,-0.397484 h -5.45604 a 0.40123524,0.40123524 0 0 0 -0.39748,0.397484 v 6.138523 h -2.62491 a 0.39748538,0.39748538 0 0 0 -0.39747,0.401237 v 4.687327 c 0,0.221242 0.17998,0.401235 0.39747,0.401235 h 2.62491 v 12.127054 c 0,4.90482 2.4374,7.38723 7.25222,7.38723 1.95743,0 3.57738,-0.40124 5.10732,-1.26745 a 0.39748538,0.39748538 0 0 0 0.20248,-0.34874 v -4.46234 a 0.39748538,0.39748538 0 0 0 -0.57746,-0.35998 c -1.04997,0.52873 -2.06619,0.77247 -3.20239,0.77247 -1.75118,0 -2.53115,-0.79122 -2.53115,-2.57241 V 90.357737 h 5.99977 a 0.39748538,0.39748538 0 0 0 0.40124,-0.401235 v -4.687327 a 0.39748538,0.39748538 0 0 0 -0.39748,-0.401237 M 157.6165,84.369207 c -7.34973,0 -13.11328,5.662291 -13.11328,12.888275 0,7.150988 5.72229,12.749528 13.02328,12.749528 7.37598,0 13.15451,-5.63979 13.15451,-12.839525 0,-7.177235 -5.73729,-12.798278 -13.06451,-12.798278 m 0,20.106763 c -3.91111,0 -6.86225,-3.14239 -6.86225,-7.312235 0,-4.181095 2.84988,-7.214733 6.77225,-7.214733 3.93736,0 6.89974,3.142384 6.89974,7.312231 0,4.181097 -2.86114,7.214737 -6.80974,7.214737 M 131.31507,84.369207 c -3.07489,0 -5.59479,1.211205 -7.67222,3.689865 v -2.789897 a 0.40123524,0.40123524 0 0 0 -0.39748,-0.401237 h -5.45605 a 0.40123524,0.40123524 0 0 0 -0.39749,0.401237 v 31.011355 c 0,0.21749 0.18,0.39749 0.39749,0.39749 h 5.45605 a 0.40123524,0.40123524 0 0 0 0.39748,-0.39749 v -9.78714 c 2.08118,2.32867 4.60109,3.46863 7.67222,3.46863 5.70729,0 11.48584,-4.39484 11.48584,-12.794535 0,-8.399689 -5.7748,-12.798278 -11.48584,-12.798278 m 5.14482,12.798278 c 0,4.274845 -2.63617,7.263485 -6.40851,7.263485 -3.73113,0 -6.54352,-3.12364 -6.54352,-7.263485 0,-4.139846 2.81239,-7.263482 6.54352,-7.263482 3.71236,0 6.41225,3.052388 6.41225,7.263482 m -31.63758,-6.78725 c -6.08978,-1.454946 -7.173489,-2.474908 -7.173489,-4.616079 0,-2.024925 1.90493,-3.386126 4.739829,-3.386126 2.7449,0 5.47105,1.031213 8.32469,3.161133 a 0.40123524,0.40123524 0 0 0 0.56248,-0.08625 l 2.97739,-4.196094 a 0.40123524,0.40123524 0 0 0 -0.075,-0.539981 c -3.39738,-2.729899 -7.22599,-4.053601 -11.69957,-4.053601 -6.581009,0 -11.174589,3.944855 -11.174589,9.595897 0,6.056027 3.963603,8.200948 10.814599,9.854636 5.82729,1.342452 6.8135,2.467411 6.8135,4.48109 0,2.22741 -1.98743,3.61111 -5.19356,3.61111 -3.55487,0 -6.453509,-1.19995 -9.700891,-4.00485 a 0.41248481,0.41248481 0 0 0 -0.292489,-0.0975 0.3937355,0.3937355 0 0 0 -0.273739,0.1425 l -3.337377,3.96735 a 0.3937355,0.3937355 0 0 0 0.04126,0.55498 19.885518,19.885518 0 0 0 13.428256,5.14856 c 7.08724,0 11.66957,-3.87361 11.66957,-9.86589 0,-5.066063 -3.02614,-7.86721 -10.45087,-9.674644 M 44.010784,58.018927 a 35.286203,35.286203 0 1 0 0,70.572403 35.286203,35.286203 0 0 0 0,-70.572403 m 16.184405,50.893133 a 2.1974191,2.1974191 0 0 1 -3.026138,0.73122 c -8.287196,-5.06232 -18.711812,-6.20602 -30.99636,-3.40113 a 2.1982081,2.1982081 0 1 1 -0.978713,-4.28609 c 13.439505,-3.074888 24.97033,-1.75119 34.269987,3.93361 1.034963,0.63372 1.3612,1.98742 0.731224,3.02239 m 4.312342,-9.607153 a 2.7523986,2.7523986 0 0 1 -3.779862,0.907463 C 51.244268,94.381339 36.784801,92.693901 25.565213,96.098775 a 2.7561486,2.7561486 0 0 1 -1.597442,-5.264806 c 12.81703,-3.888607 28.746443,-2.002427 39.636043,4.687327 a 2.7523986,2.7523986 0 0 1 0.907466,3.787362 M 64.886267,89.300276 C 53.509185,82.546775 34.744875,81.924296 23.889025,85.224175 a 3.2998786,3.2998786 0 1 1 -1.91618,-6.314767 c 12.460792,-3.787361 33.18253,-3.052388 46.273297,4.717327 a 3.3004111,3.3004111 0 0 1 -3.367375,5.677291"
     id="path2"
     style="fill-rule:evenodd;stroke-width:3.74986" />
</svg>
