<svg version="1.1" xmlns="http://www.w3.org/2000/svg" x="0px" y="0px" viewBox="0 0 200 200" preserveAspectRatio="xMinYMin meet" role="img">
<path fill="#1DB954" d="M100.5,16.469c-44.113,0-79.873,35.76-79.873,79.873c0,44.112,35.76,79.873,79.873,79.873
	c44.111,0,79.874-35.761,79.874-79.873C180.373,52.229,144.611,16.469,100.5,16.469 M137.133,131.668
	c-1.427,2.348-4.486,3.093-6.834,1.666c-0.006-0.004-0.01-0.007-0.015-0.011c-18.759-11.459-42.356-14.048-70.163-7.698
	c-2.68,0.611-5.347-1.064-5.959-3.743c-0.611-2.679,1.065-5.347,3.744-5.958l0,0c30.42-6.961,56.521-3.965,77.573,8.903
	C137.82,126.262,138.561,129.326,137.133,131.668 M146.895,109.922c-1.797,2.928-5.625,3.846-8.556,2.055
	c-21.467-13.199-54.196-17.02-79.593-9.311c-3.353,0.795-6.714-1.279-7.509-4.631c-0.728-3.064,0.942-6.189,3.895-7.288
	c29.012-8.802,65.069-4.532,89.718,10.61c2.936,1.797,3.855,5.633,2.059,8.567c0,0.001-0.001,0.002-0.004,0.005 M147.752,87.275
	c-25.753-15.287-68.227-16.695-92.8-9.228c-3.93,1.254-8.132-0.916-9.385-4.846c-1.255-3.931,0.915-8.134,4.845-9.388
	c0.068-0.021,0.136-0.041,0.204-0.062c28.206-8.571,75.11-6.909,104.743,10.679c3.55,2.105,4.719,6.688,2.613,10.236
	c-2.104,3.548-6.688,4.719-10.236,2.615"/>
</svg>
