<svg version="1.1" xmlns="http://www.w3.org/2000/svg" x="0px" y="0px" viewBox="0 0 250 180" preserveAspectRatio="xMinYMin meet" role="img">
  <g
   id="g10"
   transform="matrix(1.3333333,0,0,-1.3333333,0,257.33333)"><path
     d="m 175.72783,112.40151 v -1.90248 c 0,-0.49288 -0.27471,-0.69383 -0.69635,-0.87345 -2.20375,-0.97358 -5.1914,-2.15918 -8.78986,-2.15918 -9.86962,0 -10.16546,8.56839 -10.21477,14.98454 -0.0382,6.25746 1.04452,15.95953 8.90962,15.95953 3.06513,0 3.89229,-1.24276 4.80499,-1.24276 0.69032,0 0.961,0.78088 1.27294,0.76578 0.30591,-0.009 2.94339,-0.002 2.94339,-0.002 0.10666,0 0.15094,-0.0292 0.15094,-0.1127 v -9.24794 c 0,-0.0696 -0.0654,-0.12306 -0.13686,-0.12306 h -3.90739 c -0.0795,0 -0.15295,0.0534 -0.15295,0.12306 0,0 0,1.16749 0.0141,1.18158 -0.14792,2.49658 -1.29508,5.13204 -3.37003,5.13204 -3.52299,0 -3.75243,-3.90337 -3.79469,-11.15484 -0.0372,-7.40633 -0.0372,-12.77344 3.48073,-12.77344 1.98639,0 2.61633,1.11084 2.69381,1.17766 v 4.96811 c 0,0.42062 -0.31094,0.6572 -0.57761,0.82193 -0.23949,0.13685 -0.47698,0.20045 -0.71647,0.28065 -0.84426,0.31487 -0.86036,1.62545 -0.86036,1.85146 l 0.003,2.99761 c 0,0.0751 0.0664,0.13404 0.13686,0.13404 h 7.62358 c 0.0855,0 0.1439,-0.059 0.1439,-0.13404 v -8.61709 c 0.0262,-0.033 0.90666,-1.53579 0.90666,-1.53579 0.0795,-0.0625 0.13283,-0.29594 0.13283,-0.49921 z m -33.08755,12.42446 h -2.43419 v 9.04013 h 2.8206 c 2.18968,0 3.14866,-2.23696 3.14866,-4.95896 0,-2.46841 -1.58086,-4.08117 -3.53507,-4.08117 z m 12.58658,-12.89772 c 0,0.0763 -0.0694,0.12619 -0.15095,0.15769 -0.99924,0.40251 -1.60401,0.9622 -1.92401,1.88597 -1.6503,4.6619 -2.38992,7.13635 -5.88272,7.961 -0.17509,0.044 -0.17509,0.23033 0,0.29594 2.56501,0.82948 5.53857,2.8833 5.53857,7.7369 0,4.77179 -4.19921,7.79466 -9.12295,7.79466 l -12.11966,0.006 c -0.0835,0 -0.15295,-0.0463 -0.15295,-0.12579 v -2.93029 c 0,-0.0775 0.0694,-0.13484 0.15597,-0.13484 0,0 2.43219,-0.44176 2.43219,-1.87571 v -18.72787 c 0,-1.38645 -2.43219,-1.83807 -2.43219,-1.83807 -0.0865,0 -0.15597,-0.0755 -0.15597,-0.14893 v -2.93905 c 0,-0.0802 0.0694,-0.14118 0.15295,-0.14118 h 11.05602 c 0.0845,0 0.14793,0.061 0.14793,0.14118 v 2.93905 c 0,0.0735 -0.0634,0.14893 -0.14692,0.14893 0,0 -2.41608,0.45162 -2.41608,1.83807 v 6.43235 h 2.21583 c 1.61408,0 2.52477,-2.16632 4.5494,-8.92803 0.23748,-0.78812 0.8483,-2.5629 3.32375,-2.5629 l 4.79594,0.0142 c 0.0815,0 0.13685,0.0656 0.13685,0.14149 l -0.001,2.87384 z m -61.26404,0.72604 h -1.474504 c -0.478789,0 -0.878082,0.36437 -0.878082,0.81881 v 7.70037 h 2.27631 c 2.660306,0 4.014863,-2.07425 4.174861,-4.22005 0.201257,-2.53261 -1.3137,-4.29913 -4.098585,-4.29913 z m -2.352586,21.20376 h 2.352586 c 1.838376,0 3.327773,-1.2166 3.327773,-3.9406 0,-2.50504 -1.437473,-3.98578 -3.327773,-4.16812 l -2.352586,-0.0146 z m 7.327238,-10.53245 c -0.22983,0.0436 -0.18616,0.11441 -0.0413,0.13595 3.075198,1.11908 4.490028,3.77557 4.490028,6.86948 0,4.17004 -3.740348,7.42938 -9.03902,7.42938 -1.467762,0 -11.31443,0.009 -11.31443,0.009 -0.08443,0 -0.157986,-0.11069 -0.157986,-0.18516 l -0.0058,-2.99167 c 0,-0.0815 0.05857,-0.10767 0.159495,-0.13987 0.761051,-0.24554 2.418296,-0.55145 2.418296,-1.7449 0,-0.43572 -0.03301,-18.15584 -0.03301,-18.73596 0,-1.29639 -1.647081,-1.49765 -2.413163,-1.73543 -0.103346,-0.0393 -0.161105,-0.0641 -0.161105,-0.14823 l 0.007,-2.99449 c 0,-0.0767 0.08101,-0.18043 0.164325,-0.18043 h 12.745564 c 5.677644,0 9.086924,3.00868 9.086924,7.57106 0,4.12344 -2.82161,6.31442 -5.905868,6.84121 z m -17.827184,14.29192 v -2.97759 c 0,-0.0815 -0.05031,-0.12578 -0.141885,-0.14188 -1.060117,-0.24554 -2.435906,-0.78188 -2.435906,-1.79018 v -17.13889 c 0,-5.11473 -5.696963,-7.20317 -9.97517,-7.20317 -4.095062,0 -9.452405,2.08844 -9.452405,7.20317 v 17.13889 c 0,1.32829 -2.422523,1.79018 -2.422523,1.79018 -0.08684,0 -0.14893,0.0604 -0.14893,0.14188 v 2.97759 c 0,0.0805 0.06209,0.14189 0.14581,0.14189 l 11.1815,0.007 c 0.08885,0 0.146616,-0.0684 0.146616,-0.14893 v -2.97759 c 0,-0.0815 -0.05776,-0.14188 -0.146616,-0.14188 -1.032244,-0.24252 -2.421415,-0.77987 -2.421415,-1.79018 v -17.48401 c 0,-2.06911 1.976841,-3.1403 3.79167,-3.1403 2.144688,0 3.805455,1.08175 3.805455,3.1403 v 17.48405 c 0,1.27999 -2.311329,1.762 -2.428862,1.79018 -0.119144,0.0272 -0.157987,0.0604 -0.157987,0.14188 v 2.98061 c 0,0.0825 0.06913,0.14591 0.148528,0.14591 l 10.370235,-0.007 c 0.07819,0 0.141885,-0.0614 0.141885,-0.14189 z m -26.217159,1.22264 -0.0071,-10.63651 c 0,-0.0722 -0.05967,-0.1289 -0.13796,-0.1289 h -3.72596 c -0.07467,0 -0.13957,0.0567 -0.13957,0.1289 0,0 0.0051,1.18852 0.0051,1.19959 -0.101031,3.89733 -1.260167,5.35342 -2.00864,5.35342 h -1.287738 c 0,0 0,-20.98842 0,-22.06233 0,-0.7059 0.739013,-1.30222 2.294422,-1.6674 0.114817,-0.0279 0.124176,-0.0841 0.127798,-0.13324 0,0 0,-0.49257 0,-0.49881 v -2.34594 c 0,-0.0691 -0.05192,-0.13052 -0.127798,-0.13052 h -10.75581 c -0.07507,0 -0.133634,0.0614 -0.133634,0.13052 v 2.34594 c 0,0.006 0,0.49881 0,0.49881 0.0047,0.0491 0.0091,0.10536 0.133634,0.13324 1.555812,0.36518 2.286976,0.9615 2.286976,1.6674 v 22.06233 h -1.28965 c -0.751994,0 -1.928136,-1.4732 -2.011054,-5.45505 v -1.09796 c 0,-0.0722 -0.06128,-0.1289 -0.139571,-0.1289 H 34.25303 c -0.08493,0 -0.15527,0.0567 -0.15527,0.1289 v 10.63651 c 0,0.0835 0.07034,0.1449 0.15527,0.1449 0,0 1.202406,-0.46188 2.314749,-0.46188 0.283068,0 15.591529,0 15.874496,0 1.104193,0 2.309718,0.46188 2.309718,0.46188 0.07869,0 0.141181,-0.0614 0.141181,-0.1449 z m 63.589351,-26.68197 c -3.96173,0 -3.96173,3.51685 -3.96173,11.39181 0,7.86782 0.0483,10.88465 4.01808,10.88465 3.94161,0 3.89331,-3.01683 3.89331,-10.88465 0,-7.87496 0,-11.39181 -3.94966,-11.39181 z m 0,26.0943 c -11.50583,0 -11.50583,-7.89328 -11.50583,-14.70249 0,-6.8077 0,-15.17946 11.50583,-15.17946 11.48671,0 11.48671,8.37176 11.48671,15.17946 0,6.80921 0,14.70249 -11.48671,14.70249"
     style="fill:#33b540;fill-opacity:1;fill-rule:nonzero;stroke:none;stroke-width:0.100628"
     id="path16" /><path
     d="m 50.202549,157.27623 c -0.283873,0.14088 -0.650964,0.28478 -1.105803,0.43975 0,0 -5.683882,1.7942 -10.997552,0.83622 -4.343514,-0.78389 -7.517628,-2.35067 -9.174471,-5.05053 -1.428819,-2.32753 -0.21776,-3.84298 -0.21776,-5.19543 0,-1.30716 -0.872244,-1.91797 -2.526672,-3.39922 -1.65644,-1.48024 -11.525446,-8.45176 -11.699634,-22.56687 -0.139874,-11.24087 5.91583,-21.19129 11.5019,-24.834328 6.010922,-3.922586 10.309255,-4.577374 14.747963,-4.793624 5.403632,-0.259017 11.623258,1.623032 14.204269,3.574312 1.04281,0.786913 0.696951,1.567989 -0.522762,0.95788 -0.532324,-0.265659 -1.257551,-0.737403 -2.323103,-1.193349 -2.307806,-0.988974 -6.651722,-2.117921 -12.404836,-1.332921 -6.940526,0.946508 -15.160237,5.40162 -18.992761,15.50891 -4.196095,11.06125 -2.440636,19.69243 3.048731,27.01313 5.490072,7.31869 9.492457,6.80951 8.626853,10.12118 -0.572272,2.18968 -1.275462,4.39645 1.039287,6.53077 1.2654,1.16829 3.169485,2.2098 6.916275,2.90615 3.428401,0.63898 7.423239,0.0262 9.250747,-0.56956 1.423687,-0.4639 1.399335,0.66516 0.629329,1.04753"
     style="fill:#33b540;fill-opacity:1;fill-rule:nonzero;stroke:none;stroke-width:0.100628"
     id="path68" />
   </g>
 </svg>
