<?xml version="1.0" encoding="utf-8"?>
<!-- Generator: Adobe Illustrator 16.0.0, SVG Export Plug-In . SVG Version: 6.00 Build 0)  -->
<!DOCTYPE svg PUBLIC "-//W3C//DTD SVG 1.1//EN" "http://www.w3.org/Graphics/SVG/1.1/DTD/svg11.dtd">
<svg version="1.1"
	 id="svg2" xmlns:rdf="http://www.w3.org/1999/02/22-rdf-syntax-ns#" xmlns:svg="http://www.w3.org/2000/svg" xmlns:cc="http://creativecommons.org/ns#" xmlns:dc="http://purl.org/dc/elements/1.1/"
	 xmlns="http://www.w3.org/2000/svg" xmlns:xlink="http://www.w3.org/1999/xlink" x="0px" y="0px" width="1442.973px" height="602.986px" viewBox="0 0 1442.973 602.986" enable-background="new 0 0 1442.973 602.986" xml:space="preserve" preserveAspectRatio="xMinYMin meet">
<g id="g10" transform="matrix(1.3333333,0,0,-1.3333333,0,602.98667)">
	<path id="path18" fill="#961A1F" d="M797.808,134.275c-85.173-35.92-140.565,68.721-110.544,138.234
		c30.429,70.46,154.099,73.096,162.602-13.25c-13.985,0-36.551-5.983-41.783,7.406c-14.103,36.085-65.323,28.739-80.695-2.079
		c-13.444-26.953-12.175-72.254,13.42-92.047c29.48-22.799,71.253-5.312,74.674,31.05c-13.6,0-27.2,0-40.8,0
		c-1.856,0-0.809,30.945-0.385,30.945c13.864,0,27.728,0,41.591,0c5.601,0,32.796,3.939,36.883,0c3.217-3.1,0-26.663,0-30.992
		c0-17.624,0-35.247,0-52.87c0-11.835,4.23-17.84-8.308-17.84c-20.832,0-18.161,1.076-22.152,21.335
		C814.936,144.682,806.765,138.049,797.808,134.275"/>
	<path id="path20" fill="#961A1F" d="M919.836,321.016V167.883h91.674v-34.911H878.578v188.044H919.836"/>
	<path id="path22" fill="#961A1F" d="M724.714,109.597c-63.128-38.395-157.676-60.248-263.169-60.248
		c-190.061,0-344.137,79.143-344.137,176.772c0,97.628,154.076,176.772,344.137,176.772c105.879,0,200.813-22.26,263.942-60.895
		c-68.908,64.733-192.456,110.22-333.716,110.241C175.421,452.275,0.019,351.064,0,226.182C-0.018,101.304,175.352,0.032,391.702,0
		C532.402-0.022,655.629,45.317,724.714,109.597"/>
	<path id="path24" fill="#961A1F" d="M377.998,335.647l-36.28-156.993L297.91,335.647h-33.266l-43.71-156.995l-36.388,156.995
		H150.27l53.832-204.63h32.159l45.286,160.724l44.739-160.724h32.252l55.724,204.63H377.998"/>
	<path id="path26" fill="#961A1F" d="M504.91,249.518c-18.917,26.623-60.871,28.744-85.66,9.084
		c-25.23-20.01-30.471-60.982-20.907-90.063c18.518-56.266,113.464-55.316,119.711,8.175c-8.525,0-17.05,0-25.575,0
		c-0.804,0-7.545-14.909-10.121-17.246c-26.762-24.277-59.188,0.15-59.945,30.617c32.39,0,64.779,0,97.169,0
		C519.819,210.363,516.961,232.563,504.91,249.518L504.91,249.518z M456.909,247.323c21.527,0,33.036-11.587,35.132-35.405h-69.6
		C423.461,231.313,438.83,247.323,456.909,247.323"/>
	<path id="path28" fill="#961A1F" d="M654.078,229.841c-11.924,38.099-62.73,58.319-91.427,24.317c0,13.853,0,27.706,0,41.558
		c0,6.515,0,13.029,0,19.544c0,3.692-10.343,1.676-13.307,1.676c-12.433,0-13.307,2.611-13.307-8.894c0-13.562,0-27.125,0-40.687
		c0-35.915,0-71.831,0-107.746c0-9.232,0-18.465,0-27.697c0-2.239,7.628-0.927,9.349-0.927c5.273,0,15.987-3.012,15.987,3.281
		c0,3.125,0,6.25,0,9.374c17.834-23.324,55.488-20.542,75.182-1.106C658.108,163.806,662.838,201.884,654.078,229.841
		C651.49,238.109,656.646,221.643,654.078,229.841z M630.164,199.647c0-22.337-8.707-50.648-36.015-49.048
		c-22.365,1.31-32.52,22.268-32.52,42.464c0,21.402,4.132,52.089,30.962,54.063C621.688,249.268,630.164,224.328,630.164,199.647"/>
</g>
</svg>
