<?xml version="1.0" encoding="utf-8"?>
<svg version="1.1" xmlns="http://www.w3.org/2000/svg" x="0px" y="0px"
	 width="200px" height="200px" viewBox="0.5 400.5 200 200" preserveAspectRatio="xMinYMin meet" ><path id="path6-0" style="fill:#8ED6FB;" d="M161.71,540.17l-58.63,33.17v-25.83l36.54-20.1L161.71,540.17z M165.73,536.53v-69.35
	l-21.45,12.4v44.58L165.73,536.53z M39.29,540.17l58.63,33.17v-25.83l-36.55-20.1L39.29,540.17z M35.27,536.53v-69.35l21.45,12.4
	v44.58L35.27,536.53z M37.79,462.68l60.13-34.01v24.96l-38.53,21.2L59.08,475L37.79,462.68z M163.21,462.68l-60.13-34.01v24.96
	l38.53,21.18l0.31,0.18L163.21,462.68z"/>
<path id="path8-8" style="fill:#1C78C0;" d="M97.93,542.76l-36.06-19.83v-39.27l36.06,20.82V542.76z M103.07,542.76l36.05-19.82
	v-39.28l-36.05,20.82V542.76z M64.31,479.13l36.19-19.89l36.19,19.89l-36.19,20.89L64.31,479.13z"/>
</svg>
