<?xml version="1.0" encoding="utf-8"?>
<!-- Generator: Adobe Illustrator 16.0.0, SVG Export Plug-In . SVG Version: 6.00 Build 0)  -->
<!DOCTYPE svg PUBLIC "-//W3C//DTD SVG 1.1//EN" "http://www.w3.org/Graphics/SVG/1.1/DTD/svg11.dtd">
<svg version="1.1" id="Layer_1" xmlns="http://www.w3.org/2000/svg" xmlns:xlink="http://www.w3.org/1999/xlink" x="0px" y="0px"
	 width="16px" height="16px" viewBox="18.75 0 16 16" enable-background="new 18.75 0 16 16" xml:space="preserve">
<path fill="#FFFFFF" d="M28.332,8.333l4.377-4.377c0.391-0.391,0.391-1.023,0-1.414s-1.023-0.391-1.414,0l-4.377,4.377l-4.377-4.376
	c-0.391-0.391-1.023-0.391-1.414,0s-0.391,1.023,0,1.414l4.377,4.376l-4.376,4.375c-0.391,0.391-0.391,1.023,0,1.414
	c0.195,0.195,0.451,0.293,0.707,0.293s0.512-0.098,0.707-0.293l4.376-4.375l4.376,4.376c0.195,0.195,0.451,0.293,0.707,0.293
	s0.512-0.098,0.707-0.293c0.391-0.391,0.391-1.023,0-1.414L28.332,8.333z"/>
</svg>
