<svg version="1.1" xmlns="http://www.w3.org/2000/svg" x="0px" y="0px" viewBox="0 0 200 200" preserveAspectRatio="xMinYMin meet" role="img">
<path fill="#FFF" fill="#FFF" d="M12.507,90.288c-5.826-5.658-5.464-11.451,0-15.879l79.419-45.681c5.666-4.056,10.39-4.056,15.878,0l79.42,45.681 c6.358,5.482,5.642,11.275,0,15.879l-79.42,45.685c-4.615,3.306-10.213,3.723-15.878,0L12.507,90.288z M9.238,116.211 c0,4.423-0.894,7.734,3.269,11.784l79.419,45.68c5.666,3.724,11.263,3.306,15.878,0l79.42-45.68 c4.277-3.479,3.383-6.897,3.383-11.874v-3.213l-81.822,46.014c-5.195,3.638-11.509,4.1-17.868,0L9.238,112.998V116.211z"/></svg>