<svg version="1.1" xmlns="http://www.w3.org/2000/svg" x="0px" y="0px" viewBox="0 0 200 200" preserveAspectRatio="xMinYMin meet" role="img"><path fill="#FFF" d="M35.897,33.829v120.673c0,6.107,4.955,11.054,11.063,11.054h83.228c6.112,0,11.068-4.946,11.068-11.054V134.92 l27.778-19.138c5.912-4.275,11.067-7.413,11.067-13.521V53.917c0-6.1-4.955-11.055-11.067-11.055h-27.778v-9.033l-60.747,0v44.228 h4.439l7.511,9.85v26.024l0,0H57.261V87.907l7.503-9.849h4.444V33.83L35.897,33.829z M163.749,96.972l-22.492,18.003V94.44V59.207 h22.492V96.972z"/></svg>