<?xml version="1.0" encoding="UTF-8"?>
<svg width="752pt" height="752pt" version="1.1" viewBox="0 0 752 752" xmlns="http://www.w3.org/2000/svg">
 <path d="m228.01 287.2c21.148 0 40.691-11.281 51.266-29.598 10.574-18.316 10.574-40.883 0-59.195-10.574-18.316-30.117-29.602-51.266-29.602-21.148 0-40.691 11.285-51.266 29.602-10.574 18.312-10.574 40.879 0 59.195 10.574 18.316 30.117 29.598 51.266 29.598zm0-88.793c10.574 0 20.344 5.6406 25.633 14.797 5.2891 9.1602 5.2891 20.441 0 29.602-5.2891 9.1562-15.059 14.797-25.633 14.797-10.574 0-20.348-5.6406-25.633-14.797-5.2891-9.1602-5.2891-20.441 0-29.602 5.2852-9.1562 15.059-14.797 25.633-14.797zm295.99 118.39c-21.148 0-40.691 11.281-51.266 29.598-10.578 18.316-10.578 40.883 0 59.199 10.574 18.316 30.117 29.598 51.266 29.598 21.148 0 40.691-11.281 51.266-29.598 10.574-18.316 10.574-40.883 0-59.199s-30.117-29.598-51.266-29.598zm0 88.797c-10.574 0-20.348-5.6445-25.633-14.801-5.2891-9.1562-5.2891-20.441 0-29.598 5.2852-9.1602 15.059-14.801 25.633-14.801 10.574 0 20.344 5.6406 25.633 14.801 5.2891 9.1562 5.2891 20.441 0 29.598-5.2891 9.1562-15.059 14.801-25.633 14.801zm-295.99 59.195c-21.148 0-40.691 11.285-51.266 29.602-10.574 18.312-10.574 40.879 0 59.195 10.574 18.316 30.117 29.598 51.266 29.598 21.148 0 40.691-11.281 51.266-29.598 10.574-18.316 10.574-40.883 0-59.195-10.574-18.316-30.117-29.602-51.266-29.602zm0 88.797c-10.574 0-20.348-5.6406-25.633-14.801-5.2891-9.1562-5.2891-20.438 0-29.598 5.2852-9.1562 15.059-14.797 25.633-14.797 10.574 0 20.344 5.6406 25.633 14.797 5.2891 9.1602 5.2891 20.441 0 29.598-5.2891 9.1602-15.059 14.801-25.633 14.801zm88.797-340.39h251.59c5.2852 0 10.172 2.8203 12.816 7.4023 2.6445 4.5781 2.6445 10.219 0 14.797-2.6445 4.5781-7.5312 7.4023-12.816 7.4023h-251.59c-5.2891 0-10.176-2.8242-12.816-7.4023-2.6445-4.5781-2.6445-10.219 0-14.797 2.6406-4.582 7.5273-7.4023 12.816-7.4023zm-133.2 148h251.59c5.2891 0 10.172 2.8203 12.816 7.3984 2.6445 4.5781 2.6445 10.219 0 14.801-2.6445 4.5781-7.5273 7.3984-12.816 7.3984h-251.59c-5.2891 0-10.172-2.8203-12.816-7.3984-2.6445-4.582-2.6445-10.223 0-14.801 2.6445-4.5781 7.5273-7.3984 12.816-7.3984zm384.79 177.59h-251.59c-5.2891 0-10.176-2.8203-12.816-7.3984-2.6445-4.5781-2.6445-10.219 0-14.797 2.6406-4.582 7.5273-7.4023 12.816-7.4023h251.59c5.2852 0 10.172 2.8203 12.816 7.4023 2.6445 4.5781 2.6445 10.219 0 14.797-2.6445 4.5781-7.5312 7.3984-12.816 7.3984z"/>
</svg>
