<?xml version="1.0" encoding="utf-8"?>
<!-- Generator: Adobe Illustrator 16.0.0, SVG Export Plug-In . SVG Version: 6.00 Build 0)  -->
<!DOCTYPE svg PUBLIC "-//W3C//DTD SVG 1.1//EN" "http://www.w3.org/Graphics/SVG/1.1/DTD/svg11.dtd">
<svg version="1.1" id="Layer_1" xmlns="http://www.w3.org/2000/svg" xmlns:xlink="http://www.w3.org/1999/xlink" x="0px" y="0px"
	 width="200px" height="200px" viewBox="0 0 200 200" enable-background="new 0 0 200 200" xml:space="preserve">
<path d="M166.6,87.8c0-0.8-0.399-4.8-4-8.8c-3.8-4.4-9.8-6.8-17.6-7.4c-0.8-1.2-1.8-2.4-3.4-3.6c-4.399-3.4-11.199-5.2-20-5.4
	c-0.8-1-2.199-2.2-3.8-3.4c-4-2.8-9-4.4-15.2-5V38c0-1.6,0.2-8.4-4.399-13.2c-2-2.2-5.8-4.8-12.2-4.8c-6.6,0-10.4,2.6-12.6,4.8
	c-4.2,4.6-4.2,10.6-4.2,12V94c-3.8-4-8-8.4-10.4-10c-5-3.8-14.4-1.8-19.8,2.2c-5.2,3.8-7,9.6-5,15.2c3.6,10,12.6,20,14.8,22.399
	c2,3.8,11,20.4,19,26.4C72,153.4,75.2,166.6,76,175l0.4,4.4H152V159.6c1-2.8,3.4-8.8,6-11.6c6.2-6.2,8.2-21.8,8.2-26.6V88
	L166.6,87.8z"/>
<path fill="#FFFFFF" d="M156.8,121c0,5.8-2.399,16.8-5.399,19.8C146.2,146,143,156,142.8,157l-0.2,0.6V169.2H85.4
	c-0.4-2.2-0.8-5-1.6-8c-2.4-9.601-5.6-15.8-9.8-19c-5.8-4.4-14-18.601-16.6-23.8L57,117.8l-0.4-0.6c0-0.2-9.8-10.2-13.2-19.4
	c-0.4-1.2-0.4-2.2,1-3.6c2.6-2.4,7.6-3,8.8-2.6c3,2.4,12.2,12.2,17.4,18l8.6,9.601V36.6v-0.2v-0.2c0-0.8,0.2-3.4,1.6-4.8
	c1-1.2,2.8-1.8,5.4-1.8c2.2,0,3.8,0.6,5,1.6c1.6,1.8,1.8,5,1.8,6.2v21.4l0,0v30.4h9.8V64c9,1,11.601,4.8,12,5.4l0.4,1v18.8h9.8V72.6
	c8.4,0.8,11.6,3.4,12.4,4.6v19h9.8V81.6c8.6,1.2,10,5.8,10.2,6.8V121H156.8z"/>
</svg>
