<svg width="194" height="280" viewBox="80 -40 50 280" fill="none" xmlns="http://www.w3.org/2000/svg">
	<!-- 0 0 194 280 -->
	<g>
		<path d="M49.0368 102.821C49.0402 65.8983 79.2474 35.6911 116.169 35.6887L116.169 35.6947C153.093 35.6957 183.303 65.9054 183.307 102.821L183.304 203.515C183.307 240.438 153.097 270.647 116.172 270.647C79.2502 270.649 49.0399 240.439 49.0399 203.515L49.0368 102.821Z" fill="#FFFFFF55"/>
		<path
			d="M116.169 35.6887C79.2474 35.6911 49.0402 65.8983 49.0368 102.821L49.0399 203.515C49.0399 240.439 79.2502 270.649 116.172 270.647C153.097 270.647 183.307 240.438 183.304 203.515L183.307 102.821C183.303 65.9054 153.093 35.6957 116.169 35.6947L116.169 35.6887ZM116.172 65.6228C118.345 65.63 120.398 66.4813 121.952 68.0355C123.504 69.5873 124.354 71.6397 124.357 73.8188L124.361 98.3827C124.36 100.554 123.503 102.606 121.953 104.162C120.399 105.714 118.343 106.568 116.172 106.569C111.657 106.568 107.983 102.894 107.981 98.3775L107.981 73.8183C107.984 71.6378 108.838 69.589 110.395 68.0323C111.945 66.4817 114.001 65.6279 116.172 65.6221L116.172 65.6228ZM178.568 203.513C178.568 220.109 172.059 235.755 160.235 247.579C148.412 259.402 132.764 265.909 116.172 265.909C99.581 265.911 83.9319 259.401 72.1097 247.579C60.2889 235.758 53.7771 220.11 53.7765 203.513L53.7765 102.821C53.7753 86.2264 60.2843 70.5807 72.1066 58.7585C83.4402 47.4248 98.2963 40.9887 114.124 40.4787L114.123 61.7414C111.565 62.1772 109.26 63.376 107.499 65.1373C105.273 67.3681 103.89 70.437 103.886 73.8175L103.888 98.3788C103.889 104.437 108.343 109.467 114.127 110.462L114.122 166.151L118.215 166.151L118.213 110.459C120.77 110.019 123.076 108.819 124.843 107.058C127.071 104.829 128.45 101.757 128.448 98.3825L128.446 73.814C128.447 67.7587 123.998 62.7259 118.212 61.7441L118.21 40.478C134.037 40.9905 148.894 47.4241 160.23 58.7599C172.051 70.5806 178.56 86.231 178.557 102.82L178.568 203.513Z"
			fill="black"/>
		<path
			d="M110.029 98.3789C110.029 101.753 112.791 104.516 116.168 104.518L116.17 104.516C117.859 104.52 119.397 103.822 120.511 102.716C121.623 101.603 122.313 100.066 122.308 98.3774L122.312 73.8102C122.308 70.4323 119.548 67.6721 116.169 67.6723C114.479 67.6723 112.947 68.3632 111.836 69.4745C110.721 70.5893 110.03 72.1256 110.029 73.815L110.029 98.3789Z"
			fill="#11517F"/>
		<path
			d="M23.2294 9.10578C22.6436 8.52 21.6938 8.52 21.108 9.10578L11.5621 18.6517C10.9763 19.2375 10.9763 20.1873 11.5621 20.773C12.1479 21.3588 13.0976 21.3588 13.6834 20.773L22.1687 12.2878L30.654 20.773C31.2398 21.3588 32.1895 21.3588 32.7753 20.773C33.3611 20.1873 33.3611 19.2375 32.7753 18.6517L23.2294 9.10578ZM23.6687 86.1664L23.6687 10.1664H20.6687L20.6687 86.1664H23.6687Z"
			fill="black"/>
		<line x1="8.1687" y1="84.6664" x2="35.1687" y2="84.6664" stroke="black" stroke-width="3"/>
	</g>
</svg>
