<svg xmlns="http://www.w3.org/2000/svg" xmlns:xlink="http://www.w3.org/1999/xlink"><defs><linearGradient x1="262.624" y1="547.206" x2="375.377" y2="432.484" id="bootstrap-a" gradientUnits="userSpaceOnUse"><stop offset="0" stop-color="#070135"/><stop offset="1" stop-color="#612d50"/></linearGradient></defs><symbol id="android-studio"><path fill="#7CB342" d="M1000 40.412c-474.219 0-859.375 385.156-859.375 859.375h1718.75c.781-475-384.375-859.375-859.375-859.375z"/><path fill="#8BC34A" d="M1000 899.786H140.625c0 474.219 385.156 859.375 859.375 859.375s859.375-385.156 859.375-859.375H1000z"/><linearGradient id="android-studio-a" gradientUnits="userSpaceOnUse" x1="-429.894" y1="1736.936" x2="48.482" y2="2215.313" gradientTransform="translate(1413.326 -2722.763) scale(1.9992)"><stop offset=".33" stop-color="#263238" stop-opacity=".16"/><stop offset="1" stop-color="#263238" stop-opacity="0"/></linearGradient><path fill="url(#android-studio-a)" d="M1619.531 901.349v-1.562h-39.844L1100 420.099H900.781v160.937H850c-49.219 0-89.844 40.625-89.844 89.844v203.906h.781c-.781 7.031 3.906 15.625 13.281 25.781.782.782.782.782.782 1.563l31.25 31.25-360.156 624.219c41.406 35.156 85.938 65.625 132.812 92.188 125 70.312 267.969 110.938 421.875 110.938 153.125 0 296.875-40.625 421.875-110.938 46.875-26.562 91.406-57.812 132.812-92.188 126.562-107.031 221.094-249.219 269.531-412.5 3.125-10.156 5.469-20.312 8.594-29.688l-214.062-214.062z"/><path fill="#646464" d="M1689.062 1799.786c-.781-7.812-3.125-14.844-7.031-21.875l-250-433.594c115.625-112.5 188.281-270.312 188.281-444.531h-160.156c0 114.062-42.188 218.75-111.719 300L1193.75 932.599l31.25-31.25c10.156-10.156 14.062-19.531 14.062-26.562h.781V670.88c0-49.219-40.625-89.844-89.844-89.844h-50V420.099H900.78v160.937H850c-49.219 0-89.844 40.625-89.844 89.844v203.906h.781c-.781 7.812 3.906 16.406 14.062 26.562l31.25 31.25-488.28 844.532c-3.906 7.031-6.25 14.062-7.031 21.875L300 1944.317c-.781 5.469 2.344 10.156 7.031 13.281 4.688 3.125 10.156 2.344 14.844-.781l120.312-81.25c6.25-4.688 11.719-10.156 15.625-16.406l241.406-417.969c89.062 50 192.188 78.906 301.562 78.906s212.5-28.906 301.562-78.906l241.406 417.188c3.906 7.031 9.375 12.5 15.625 16.406l120.312 82.031c4.688 3.125 10.156 3.125 14.844.782 4.688-3.125 7.031-7.812 7.031-13.281l-12.498-144.532zM1000 659.942v-1.562l.781 1.562c65.625.781 119.531 53.906 119.531 120.312s-53.906 119.531-119.531 120.312H1000c-65.625 0-119.531-53.906-119.531-120.312 0-67.187 53.125-120.312 119.531-120.312zm0 699.219c-80.469 0-156.25-21.094-221.094-57.031l145.312-251.562 30.469 30.469c12.5 12.5 28.906 18.75 44.531 18.75v-.781l.781.781c16.406 0 32.812-6.25 44.531-18.75l30.469-30.469 145.312 252.344c-64.061 35.937-139.842 56.249-220.311 56.249z"/><path fill="#E1E1E1" d="M1689.062 1799.786c-.781-7.812-3.125-14.844-7.031-21.875l-250-433.594-82.812-144.531-154.688-267.188-117.969 117.969 145.312 252.344 79.688 138.281 241.406 417.188c3.906 7.031 9.375 12.5 15.625 16.406l120.312 82.031c4.688 3.125 10.156 3.125 14.844.781 4.688-3.125 7.031-7.812 7.031-13.281l-11.718-144.531z"/><path fill="#F1F1F1" d="M1460.156 899.786c0 114.062-42.188 218.75-111.719 300-35.938 41.406-78.125 76.562-126.562 103.125-65.625 36.719-141.406 57.031-221.875 57.031s-156.25-21.094-221.094-57.031l145.312-252.344L806.25 932.599l-488.281 845.312c-3.906 7.031-6.25 14.062-7.031 21.875L300 1945.099c-.781 5.469 2.344 10.156 7.031 13.281 4.688 3.125 10.156 2.344 14.844-.781l120.312-81.25c6.249-4.688 11.719-10.156 15.625-16.406l241.405-417.969c89.062 50 192.188 78.906 301.563 78.906s212.5-28.906 301.562-78.906c47.656-26.562 91.406-59.375 129.688-96.875 115.625-112.5 188.281-270.312 188.281-444.531l-160.155-.782z"/><path fill="#262626" fill-opacity=".2" d="M1432.031 1333.38c-39.062 37.5-82.031 70.312-129.688 96.875-89.062 50-192.188 78.906-301.562 78.906s-212.501-28.906-301.563-78.906l-241.405 417.969c-3.906 7.031-9.376 12.5-15.625 16.406l-120.312 81.25c-4.688 3.125-10.156 3.125-14.844.781-3.906-2.344-5.469-6.25-6.25-10.156l-.781 7.031c-.781 5.469 2.344 10.156 7.031 13.281 4.688 2.344 10.156 2.344 14.844-.781l120.312-81.25c6.249-4.688 11.719-10.156 15.625-16.406l241.405-417.969c89.062 50 192.188 78.906 301.563 78.906s212.5-28.906 301.562-78.906c47.656-26.562 91.406-59.375 129.688-96.875 115.625-112.5 188.281-270.312 188.281-444.531h-.781c-2.343 170.312-74.219 324.219-187.5 434.375z"/><path fill="#646464" d="M1150 580.255h-50V419.318H900.781v160.937H850c-49.219 0-89.844 40.625-89.844 89.844v203.906h.781c-.781 7.812 3.906 16.406 14.062 26.562l180.469 180.469c12.5 12.5 28.906 18.75 44.531 18.75v-.781l.781.781c16.406 0 32.812-6.25 44.531-18.75l180.469-180.469c10.156-10.156 14.062-19.531 14.062-26.562h.781V670.88c-.779-50-40.623-90.625-90.623-90.625zm-149.219 319.531h-.782c-65.624 0-119.53-53.906-119.53-120.312s53.906-120.312 119.53-120.312V657.6l.782 1.562c65.624.781 119.53 53.906 119.53 120.312s-53.905 119.531-119.53 120.312z"/><path fill="none" d="M1000 899.786h.781c65.625-.781 119.531-53.906 119.531-120.312s-53.906-119.531-119.531-120.312L1000 657.6v1.562c-65.625 0-119.531 53.906-119.531 120.312S933.594 899.786 1000 899.786z"/></symbol><symbol id="android" viewBox="-147 -70 294 345"><g fill="#a4c639"><use stroke-width="14.4" xlink:href="#android-a" stroke="#FFF"/><use xlink:href="#android-b" transform="scale(-1 1)"/><g id="android-b" stroke="#FFF" stroke-width="7.2"><rect rx="6.5" transform="rotate(29)" height="86" width="13" y="-86" x="14"/><rect id="android-c" rx="24" height="133" width="48" y="41" x="-143"/><use y="97" x="85" xlink:href="#android-c"/></g><g id="android-a"><ellipse cy="41" rx="91" ry="84"/><rect rx="22" height="182" width="182" y="20" x="-91"/></g></g><g stroke="#FFF" stroke-width="7.2" fill="#FFF"><path d="M-95 44.5H95"/><circle cx="-42" r="4"/><circle cx="42" r="4"/></g></symbol><symbol id="aws" viewBox="0 0 304 182" preserveAspectRatio="xMidYMid meet"><style>.st1{fill-rule:evenodd;clip-rule:evenodd;fill:#f90}</style><path d="M86.4 66.4c0 3.7.4 6.7 1.1 8.9.8 2.2 1.8 4.6 3.2 7.2.5.8.7 1.6.7 2.3 0 1-.6 2-1.9 3L83.2 92c-.9.6-1.8.9-2.6.9-1 0-2-.5-3-1.4-1.4-1.5-2.6-3.1-3.6-4.7-1-1.7-2-3.6-3.1-5.9-7.8 9.2-17.6 13.8-29.4 13.8-8.4 0-15.1-2.4-20-7.2-4.9-4.8-7.4-11.2-7.4-19.2 0-8.5 3-15.4 9.1-20.6 6.1-5.2 14.2-7.8 24.5-7.8 3.4 0 6.9.3 10.6.8 3.7.5 7.5 1.3 11.5 2.2v-7.3c0-7.6-1.6-12.9-4.7-16-3.2-3.1-8.6-4.6-16.3-4.6-3.5 0-7.1.4-10.8 1.3-3.7.9-7.3 2-10.8 3.4-1.6.7-2.8 1.1-3.5 1.3-.7.2-1.2.3-1.6.3-1.4 0-2.1-1-2.1-3.1v-4.9c0-1.6.2-2.8.7-3.5.5-.7 1.4-1.4 2.8-2.1 3.5-1.8 7.7-3.3 12.6-4.5C41 1.9 46.2 1.3 51.7 1.3c11.9 0 20.6 2.7 26.2 8.1 5.5 5.4 8.3 13.6 8.3 24.6v32.4zM45.8 81.6c3.3 0 6.7-.6 10.3-1.8 3.6-1.2 6.8-3.4 9.5-6.4 1.6-1.9 2.8-4 3.4-6.4.6-2.4 1-5.3 1-8.7v-4.2c-2.9-.7-6-1.3-9.2-1.7-3.2-.4-6.3-.6-9.4-.6-6.7 0-11.6 1.3-14.9 4-3.3 2.7-4.9 6.5-4.9 11.5 0 4.7 1.2 8.2 3.7 10.6 2.4 2.5 5.9 3.7 10.5 3.7zm80.3 10.8c-1.8 0-3-.3-3.8-1-.8-.6-1.5-2-2.1-3.9L96.7 10.2c-.6-2-.9-3.3-.9-4 0-1.6.8-2.5 2.4-2.5h9.8c1.9 0 3.2.3 3.9 1 .8.6 1.4 2 2 3.9l16.8 66.2 15.6-66.2c.5-2 1.1-3.3 1.9-3.9.8-.6 2.2-1 4-1h8c1.9 0 3.2.3 4 1 .8.6 1.5 2 1.9 3.9l15.8 67 17.3-67c.6-2 1.3-3.3 2-3.9.8-.6 2.1-1 3.9-1h9.3c1.6 0 2.5.8 2.5 2.5 0 .5-.1 1-.2 1.6-.1.6-.3 1.4-.7 2.5l-24.1 77.3c-.6 2-1.3 3.3-2.1 3.9-.8.6-2.1 1-3.8 1h-8.6c-1.9 0-3.2-.3-4-1-.8-.7-1.5-2-1.9-4L156 23l-15.4 64.4c-.5 2-1.1 3.3-1.9 4-.8.7-2.2 1-4 1h-8.6zm128.5 2.7c-5.2 0-10.4-.6-15.4-1.8-5-1.2-8.9-2.5-11.5-4-1.6-.9-2.7-1.9-3.1-2.8-.4-.9-.6-1.9-.6-2.8v-5.1c0-2.1.8-3.1 2.3-3.1.6 0 1.2.1 1.8.3.6.2 1.5.6 2.5 1 3.4 1.5 7.1 2.7 11 3.5 4 .8 7.9 1.2 11.9 1.2 6.3 0 11.2-1.1 14.6-3.3 3.4-2.2 5.2-5.4 5.2-9.5 0-2.8-.9-5.1-2.7-7-1.8-1.9-5.2-3.6-10.1-5.2L246 52c-7.3-2.3-12.7-5.7-16-10.2-3.3-4.4-5-9.3-5-14.5 0-4.2.9-7.9 2.7-11.1 1.8-3.2 4.2-6 7.2-8.2 3-2.3 6.4-4 10.4-5.2 4-1.2 8.2-1.7 12.6-1.7 2.2 0 4.5.1 6.7.4 2.3.3 4.4.7 6.5 1.1 2 .5 3.9 1 5.7 1.6 1.8.6 3.2 1.2 4.2 1.8 1.4.8 2.4 1.6 3 2.5.6.8.9 1.9.9 3.3v4.7c0 2.1-.8 3.2-2.3 3.2-.8 0-2.1-.4-3.8-1.2-5.7-2.6-12.1-3.9-19.2-3.9-5.7 0-10.2.9-13.3 2.8-3.1 1.9-4.7 4.8-4.7 8.9 0 2.8 1 5.2 3 7.1 2 1.9 5.7 3.8 11 5.5l14.2 4.5c7.2 2.3 12.4 5.5 15.5 9.6 3.1 4.1 4.6 8.8 4.6 14 0 4.3-.9 8.2-2.6 11.6-1.8 3.4-4.2 6.4-7.3 8.8-3.1 2.5-6.8 4.3-11.1 5.6-4.5 1.4-9.2 2.1-14.3 2.1z" fill="#252f3e"/><path class="st1" d="M273.5 143.7c-32.9 24.3-80.7 37.2-121.8 37.2-57.6 0-109.5-21.3-148.7-56.7-3.1-2.8-.3-6.6 3.4-4.4 42.4 24.6 94.7 39.5 148.8 39.5 36.5 0 76.6-7.6 113.5-23.2 5.5-2.5 10.2 3.6 4.8 7.6z"/><path class="st1" d="M287.2 128.1c-4.2-5.4-27.8-2.6-38.5-1.3-3.2.4-3.7-2.4-.8-4.5 18.8-13.2 49.7-9.4 53.3-5 3.6 4.5-1 35.4-18.6 50.2-2.7 2.3-5.3 1.1-4.1-1.9 4-9.9 12.9-32.2 8.7-37.5z"/></symbol><symbol id="blender" preserveAspectRatio="xMinYMin meet"><path d="M972.44 1095.91c2.68-48.28 26.36-90.85 62.02-121.05 35.04-29.65 82.17-47.73 133.57-47.76 51.4.03 98.53 18.11 133.57 47.76 35.66 30.2 59.34 72.77 62.05 121.05 2.72 49.64-17.21 95.81-52.24 129.98-35.67 34.77-86.51 56.62-143.35 56.62-56.87 0-107.73-21.85-143.45-56.62-35-34.18-54.92-80.34-52.17-129.98z" fill="#005385"/><path d="M660.89 1193.66c.32 18.84 6.4 55.58 15.42 84.33 19 60.71 51.25 116.93 96.16 166.48 46.06 50.86 102.72 91.78 168.23 120.76 68.87 30.53 143.51 46.1 220.89 45.94 77.41-.14 152-15.96 220.88-46.67 65.46-29.3 122.12-70.32 168.15-121.31 44.84-49.74 77.03-106.05 96.07-166.79 9.63-30.71 15.6-61.84 18.06-93.09 2.41-30.77 1.38-61.65-2.97-92.45-8.54-60.04-29.34-116.41-61.28-167.79-29.35-47.18-67.03-88.51-111.88-123.31l.06-.06-452.56-347.54c-.37-.33-.76-.65-1.14-.97-29.78-22.74-79.69-22.67-112.32.17-33.08 23.13-36.79 61.28-7.45 85.44l-.1.06 188.77 153.55-575.43.59h-.8c-47.54.03-93.22 31.29-102.3 70.7-9.25 40.19 23.06 73.49 72.49 73.67l-.06.2 291.64-.57-520.47 399.46c-.64.5-1.34.99-1.98 1.5-49.04 37.59-64.94 100.13-34.04 139.71 31.41 40.23 98.11 40.28 147.73.16l284.04-232.41c0-.01-4.13 31.37-3.81 50.24zm729.84 105.03c-58.5 59.69-140.4 93.47-229.1 93.62-88.74.17-170.67-33.36-229.22-92.9-28.6-29.04-49.61-62.34-62.6-97.94-12.67-34.93-17.63-71.98-14.36-109.37 3.17-36.6 13.95-71.47 31.38-103.04 17.11-31.03 40.63-59.05 69.64-82.79 56.87-46.39 129.27-71.47 205.09-71.57 75.82-.09 148.18 24.8 205.09 70.99 28.98 23.62 52.5 51.54 69.58 82.51 17.44 31.54 28.25 66.35 31.45 102.94 3.22 37.39-1.69 74.44-14.4 109.4-12.96 35.64-33.95 69.01-62.55 98.15z" fill="#ff7021"/></symbol><symbol id="bootstrap" viewBox="0 0 32 32" preserveAspectRatio="xMinYMin meet"><g transform="matrix(.24963 0 0 .24924 -63.666 -106.047)"><rect width="128.016" height="128.546" ry="20.68" x="255.239" y="425.326" fill="url(#bootstrap-a)"/><path d="M320.213 480.665c3.27 0 5.748-.7 7.437-2.133s2.533-3.52 2.533-6.293c0-2.738-.844-4.818-2.533-6.24-1.7-1.458-4.168-2.187-7.437-2.187h-11.48v16.854h11.48m.7 34.827c4.167 0 7.293-.87 9.377-2.613 2.12-1.742 3.18-4.373 3.18-7.893 0-3.45-1.042-6.027-3.126-7.733-2.084-1.742-5.227-2.613-9.43-2.613h-12.18v20.854h12.18m19.293-28.64c4.455 1.28 7.904 3.645 10.347 7.093s3.664 7.68 3.665 12.694c0 7.68-2.623 13.405-7.868 17.174s-13.22 5.653-23.927 5.653h-34.436V449.84h31.15c11.173 0 19.257 1.67 24.25 5.013 5.03 3.342 7.545 8.694 7.545 16.054 0 3.876-.916 7.182-2.748 9.92-1.832 2.702-4.5 4.7-7.976 6.027" fill="#fff"/></g></symbol><symbol id="camera" viewBox="0 1800 200 200" preserveAspectRatio="xMinYMin meet"><path fill="##11517F" d="M120.758 1851.507c6.511 0 11.789 5.278 11.789 11.789v27.705l17.684-10.159 35.466-20.395v79.105l-35.485-20.415-17.684-10.159v27.705c0 6.512-5.278 11.789-11.789 11.789h-96.16c-6.511 0-11.79-5.277-11.79-11.789v-73.388c0-6.511 5.278-11.789 11.79-11.789h96.179m0-11.788h-96.18c-13.022 0-23.579 10.556-23.579 23.578v73.407c0 13.022 10.556 23.579 23.579 23.579h96.18c13.022 0 23.579-10.557 23.579-23.579v-7.328l39.514 22.713a12.294 12.294 0 006.032 1.828c4.48 0 7.584-3.576 7.584-9.727v-88.419c0-6.149-3.104-9.726-7.584-9.726a12.278 12.278 0 00-6.032 1.827l-39.514 22.753v-7.329c0-13.022-10.557-23.577-23.579-23.577z"/></symbol><symbol id="chrome" viewBox="0 0 64 64" preserveAspectRatio="xMinYMin meet"><circle fill="#397DB2" cx="32.077" cy="32.122" r="11.741"/><path fill="#E33434" d="M60.712 17.803C52.828 1.943 33.58-4.524 17.718 3.359A32.055 32.055 0 005.447 14.083l12.886 22.336c-2.375-7.542 1.818-15.581 9.361-17.955a14.358 14.358 0 014.096-.658"/><path fill="#4CB749" d="M5.447 14.081C-4.416 28.794-.485 48.709 14.229 58.58A32.067 32.067 0 0029.5 63.907l13.465-22.914c-5.032 6.1-14.056 6.972-20.155 1.932a14.3 14.3 0 01-4.47-6.514"/><path fill="#FCD209" d="M29.5 63.907c17.662 1.335 33.062-11.9 34.398-29.562a32.06 32.06 0 00-3.186-16.541H31.797c7.908.037 14.281 6.475 14.252 14.383a14.326 14.326 0 01-3.084 8.811"/></symbol><symbol id="flask" viewBox="-67.5 132.5 200 200" preserveAspectRatio="xMinYMin meet"><path d="M-3.34 296.27c-6.98-5.5-14.43-10.75-19.51-18.16-10.71-13.07-18.95-28.2-24.58-44.1-3.41-10.34-4.58-21.43-8.97-31.37-4.59-7.21.79-15.11 8.7-17.4 3.52-.67 9.71-4 2.23-1.62-6.7 4.91-7.35-4.47-.48-5.06 4.69-.63 6.41-4.46 4.81-7.91-5.04-3.28 12.21-6.88 3.53-11.79-9.03-9.73 12.64-11.61 7.29-.54-1.27 8.51 15.15-1.57 11.34 8.27 3.88 4.72 14.51 1.08 14.24 7.7 5.64.39 7.58 5.13 12.88 5.49 5.5 2.48 15.44 4.43 17.31 10.62-5.44 4.31-18.05-8.9-18.66 3.04 1.65 17.63 1.22 35.79 7.67 52.58 3.05 10.16 10.45 18.17 17.12 26.08 6.4 7.75 15.06 13.21 23.87 17.8 7.74 3.65 16.09 6.07 24.52 7.59 3.42-2.62 9.46-12.34 14.79-8.24.26 4.62-10.59 9.64-.52 9.13 5.93-1.79 10.03 4.58 14.9-1.17 4.5 5.32 18.66-3.4 15.48 7.48-4.32 2.79-10.62 1.11-14.96 4.94-7.14-3.57-12.82 3.19-20.72 2.34-8.78 1.57-17.7 2.2-26.6 2.21-14.6-1.15-29.5-1.64-43.38-6.72-7.83-2.28-15.46-6.73-22.33-11.19h.03zm12.33 5.33c7.64 3.3 15.11 6.78 23.47 7.83 13.28 1.84 26.99 4.7 40.32 2.1-6.04-2.73-12.27 1.06-18.28-1.95-7.21 1.54-14.89-.4-22.33-1.36-8.33-3.71-17.32-6.26-25.12-11.08-9.75-3.56 5.04 4.57 7.67 5.22 6.09 3.46-6.7-1.72-8.51-3.21-5.11-2.86-5.75-2.27-.5.64l3.21 1.79h.07zm-14.54-10.27c7.4 2.75-.03-5.21-3.42-4.75-1.5-2.61-5.74-4.25-2.75-5.65-5.38 1.86-5.63-7.1-8.16-5.82-5.69-1.79-2.22-8.16-8.99-12.08-.62-4.12-6.73-7.69-8.68-13.9-.86-3.18-6.91-12.31-3.19-3.81 3.16 8.19 8.72 15.19 13.36 22.18 3.6 6.66 7.84 13.62 14.39 17.79 2.21 2.12 4.34 5.37 7.45 6.03l-.01.01zm8.86 3.29c1.64-.74-2.35-.93 0 0zm4.01 1.46c-.42-2.02-1.83 1.14 0 0zm13.66 6.91c1.46-2.15-4.65-.8 0 0zm6.09 2.12c3.03 1.91 17.7 4.19 8.52.78-1.55.33-17.04-4.38-8.52-.78zM-2.86 281.8c-.29-1.27-4.71-1.41 0 0zm8.77 5.12c2.29-1.61-4.74-1.23 0 0zm7.45 4.58c3.28-1.24-5.32-1.25 0 0zm-19.81-13.6c3.55 2.73 14.35.34 5.44-1.63-4.05-2.16-13.17-3.63-6.95 1.3l1.51.33zM18.29 293c1.48-2.52-6.22-1.45 0 0zm-7.52-5.98c8.7 2.46-7.31-5.5-2.15-.91l1.15.51 1 .39v.01zm15.07 8.71c8.24.08-7.45-1.15 0 0zm-35.46-22.6c-.32-1.53-2.03.13 0 0zm14.07 8.6c-.5-1.46-2.58-.06 0 0zm-13.28-9.56c4.72-.29-6.47-2.09 0 0zm-15.73-10.16c-.59-2.26-5.14-4.08 0 0zm39.01 23.86c.46-1.95-4.03-.59 0 0zm-19.14-12.14c3.52-.37-5.64-2.37 0 0zm32.38 20.13c5.48-2.18-5.34-1.06 0 0zm-16.84-11.44c6.31.81-7.52-4.29-1.39-.46l1.39.46zm21.95 13.5c5.9-3.52 3.95 8.26 10.01 1 5.97-4.36-5.15 5.39 2.2.78 5.33-3.56 13.19 1.69 18.15 3.39 3.57-.17 7.04 3.09 10.71 1.11 7.04-1.9-13.79-2.82-8.32-6.18-6.45 1.88-11.21-2.23-14.38-6.37-7.24-1.67-15.6-5.37-19.21-11.77-1.47-2.4 2.12.34-1.27-3.59-4.35-3.88-6.53-8.28-9.46-13-3.49-1.86-3.91-7.35-4.26-.18.03-4.52-4.22-7.57-5.27-6.31-.02-4.35 4.55-2.17 1.35-5.39-.69-4.52-2.95-9.22-3.63-14.32-1.06-2.46-.15-7.73-3.61-2.16-1.26 5.88-.42-7.23 1.55-2.91 2.58-4.41-.93-3.89-1.06-3.28 1.68-3.72 1.06-9-.44-6.99.89-3.95 1.41-14.51-1.33-12.64 1.66-4.12 3.16-18.87-4.08-13.25-2.93.04-8 1.06-10.4 2.25 7.52 4.15-.76 1.5-3.82.84-.4 3.84-3.44 2.18-7.21 2.22 6.06.74-2.95 6.18-6.41 4.08-4.51 2.15 3.89 7.53.09 9.2.47 2.5-6.91-.9-6.33 4.89-4.38-1.84-.6 6.87 1.59 3.92 7.44 2.02 5.24 6.61 5.43 10.97-1.21 2.54-5.99-5.98-1.06-5.58-3.89-6.32-4.29-2.29-7.53.65-.74.21 8.24 4.18 2.6 6.12 4.96.77 5.11 5.11 6.11 7.86 2.98 3.11 2.36-3.44 5.94.3-2.26-3.32-11.97-9.37-4.15-7.44-.04-3.34-1.41-6.05.99-5.98 2.38-4.29-2.48 10.59 2.86 5.13 1.48-.65 1.85-4.29 4.5.34 3.86 3.8 1.4 6.55-4.05 3.07.97 3.31 7.29 4.49 6.1 9.66 1.26 4.55 3.02 2.87 4.55 2.61 1.14 4.42 1.89 1.17 1.95-.93 5.51 1.18 4.21 4.43 5.94 6.71 3.8 1.72-5.44-11.61 1.09-4.01 6.85 6.18 2.58 8.78-3.58 7.79 3.89-.32 5.15 5.27 10.02 5.06 4.44 2.12 7.44 10.23-.21 6.85-2.65-2.39-12.06-5.35-4.37-.8 7.09 3.29 12.72 5.24 19.56 9.37 4.89 3.44 7 7.49 8.86 8.28-4.11 1.97-12.39-1.56-6.3-2.65-3.84-.7-8.15-2.63-4.48 2.14 3.13 2.61 11.07 2.34 12.49 2.63-1.2 2.66-3.28 2.86.05 3.08-3.71 1.98 1.19 2.29 1.53 3.42v.01zm-7.59-21.43c-2.26-2.36-2.85-6.79-.4-2.94 1.26.5 4.01 7.23.4 2.94zm-6.01-9.17c-2.85-5.5 3.58 1.55 0 0zm-8.46-14.8c-2.69-6.03 1.91-3.29.6.98l-.6-.98zM-14.03 234c-1.15-1.98-3.19-7.79-2.55-9.56.57 2.88 6.14 12.42 2.73 4-3.77-7.1 4.5 2.3 5.36 4.08.4 1.76-2.32-.48-.48 3.65-3.37-4.71-1.99 2.6-5.05-2.12l-.01-.05zm-7.66-5.28c.32-4.61 1.75 3.15 0 0zm3.45 1.19c1.64-3.47 2.78 4.83 0 0zm-8.36-6.3c-2.85-2.83-4.91-5.44.14-1.75 1.95.07-4.32-5.94.47-1.91 5.04.91 2.48 8.25-.61 3.66zm4.35-.11c1.66-1.65.88 1.61 0 0zm2.68.85c-2.52-4.7 3.05 1.98 0 0zm-5.32-5.08c-8.29-7.38 10.42 3.85 1.35 1.38l-1.35-1.38zm23.74 13.8c-3.59-2.15-.96-15.14.27-6.25 3.49-1.13-.19 4.59 2.41 4.53-.4 3.6-1.58 4.9-2.68 1.72zm-22.06-16.23c-5.32-7.35 15.47 7.43 3.41 1.86-1.26-.33-2.77-.44-3.41-1.86zm.82-2.8c3.17-.67 13.17 5.55 3.98 1.78-1.02-1.13-3.19-.62-3.98-1.78zm27.17 13.54c.34-6.33 1.89-3.78.01.92l-.01-.92zm-24.82-15.74c1.29-1.89-3.42-8.55.68-2.39 1.72 1.41 5.14 2.36 2.18 2.96 4.66 4.12-1.15 1.11-2.86-.57zm23.47 13.78c.89-7.22.79 4.21 0 0zm-20.03-16.79c1.57-3.31 2.9 3.69 0 0zm17.19-.37c-1.65-2.9 2.08-12.77 2.5-6.64-1.73 4.77-.5 7.44.7 1.03 2.23-5.04-.48 9.94-3.2 5.61zm-1.66 66.32c-.97-.86.13.54 0 0zm8.48 4.28c4.71 1.21 4.69-.73.43-1.32-2.29-2.13-9.51-4.39-3.05-.26.42 1.15 1.78 1.06 2.62 1.58zm-16.72-11.11c2.59 1.95 9.77 5.48 3.7.75 2.05-2.38-3.92-3.65-1.95-5.24-5.04-3.09-3.98-2.86-.45-2.71-6.06-2.71.88-2.5.55-3.89-2.34-.46-11.6-4.12-6.15.29-5.54-2.82-1.32 1.05-2.99.65-5.73-1.55 5.04 4.32-.9 2.86 3.25 2.57 8.75 6.6 1.37 2.72-.97 1.4 5.28 3.52 6.87 4.58l-.05-.01zm8.86 5.1c10.76 3.47-5.29-4.24 0 0zm45.34 27.47c.13-2.14-1.47 1.83 0 0zm4.66 1.96c2.49-2.4.11 3.84 4.12-.59.04-3.17-.12-5.04-4.62-1.19-1.24.69-1.78 3.61.5 1.78zM-24.44 256c-.76-3-5.34-2.99 0 0zm4.99 3.26c-1.85-3.06-6.6-2.77 0 0zm28.31 17.08c2.77 2.46 12.7 1.8 3.35.3-1.37-2.04-8.77-1.54-3.35-.3zm38.92 24.05c4.26-3.58-4.12 1.59 0 0zm8.85 6.08c.03-1.15-1.83.5 0 0zm.02-1.61c4.71-4.98-4.57.29 0 0zm-93.33-59.11c-4.01-5.73-2.5-8.3-6.37-12.98-.73-3.58-6.64-11.7-3.06-3.09 3.29 5.04 4.26 12.82 9.42 16.08v-.01zm91.83 57.51c8.68-5.59-3.55-2.43 0 0zm6.62 2.6c4.35-3.72-2.75-.78 0 0zm-87.68-56.19c1.24-1.84-3.21-.24 0 0zm86.3 54.42c4.2-2.71-.98-2.29-.76.25l.76-.25zM3.36 268.14c-.14-1.84-2.22.15 0 0zm3.52 2.02c-1.12-2.26-1.72.36 0 0zm60.26 35.76c5.38-3.89-3.27-.75-1.13.74l1.13-.74zm-2.07-1c4.4-3.67-4.63 1.63 0 0zm10.54 7.02c2.94-1.97-3.58-.64 0 0zm-98.81-63.61c3.95.88 15.77 9.72 8.8.61-3.57-1.06-1.43-9.79-5.08-8.24 2.44 4.09 2 5.83-3.12 3.25-6.45-3.15-3.62 1.55-2.37 2.86-1.72.4 2.27 1.49 1.77 1.52zm-17.98-14.2c.7-2.92-6.51-16.09-3.41-6.59 1.12 1.98 1 5.75 3.41 6.59zm33.01 20.36c-2.04-1.7-.1-.24 0 0zm5 1.16c0-3.09-5.53-1.26 0 0zm43.38 27.34c-.83-2.11-3.26-.04 0 0zm2.09 1.53c-.31-1.19-1.15.23 0 0zm17.19 10.83c1.66-1.22-2.07-.16 0 0zm-91.7-58.92c4.73-1.83-5.07-1.3 0 0zm68.59 43.21c-.06-3.06-3.02.77 0 0zm-70.46-47.57c3.03-1.03-2.81-.67 0 0zm8.81 4.27c-.05-1.01-.93.38 0 0zM82.3 302.29c3.91-.79 12.81 1.99 14.25-1.03-4.75-.12-16.41-3.35-16.96.77l1.03.17 1.68.1v-.01zm-104.76-65.24c.07-3.1-2.42-.11 0 0zm-23.19-16.09c-1.05-5.9-4-.89 0 0zm5.53 1.39c.07-1.9-5.06-1.7 0 0zm23.04 14.3c.94-.86-2.21-.63 0 0zm-21.98-16.26c-.54-4.46-6.42-.67 0 0zm-11.34-7.35c-.16-2.07-1.1.77 0 0zm1.69-1.27c-.27-2.45-1.45.3 0 0zm9.31 5.55c3.94-1.55-7.17-3.21-.8-.28l.8.28zm124.68 77.04c2.52-2.32-3.2-.72 0 0zm15.06 7.8c1.01-2.98-2.55.4 0 0zm-138.79-89.69c.42-2.9-3.13.57 0 0zm-13.26-8.88c-.7-4.09-.6-11.25 6.21-8.83-9.08 1.81 6.3 11.3 4.35 3.8 3.82.19 7.48-2.26 5.47 1.45 7.54-.82 12.75-7.36 20.03-6.43 5.72-.76 11.86-1.32 17.98-3.61 5.02-.36 9.85-5.77 7.1-8.97-6.85-.58-14.02.27-21.58 1.78-8.39 1.74-16 5.06-24.46 6.47-8.24 1.11 1.66 3.05-.7 3.49-4.29 1.49 5.14 2.5-.55 4.08-3.52-.67-7.17-1.88-5.67-5.58-7.9 1.03-14.85 4.3-8.6 12.34l.46.01h-.04zm19.05-9.65c1.85-6.82 9.92 5.61 3.03.92-.81-.62-2.17-1.12-3.03-.92zm.36-3.31c2.68-1.98 1.42 1.12 0 0zm3.4.06c.25-3.14 7.78 1.72 1.24 1.13l-1.24-1.13zm4.64-1.86c1.7-1.99.49 1.75 0 0zm1.19-.81c2.83-3.39 15.99-2.18 6.3-.33-2.58-1.95-4.57 1.15-6.3.33zm17.17-2.65c-.42-9.27 8.54 3.3 0 0zm4.88-.03c1.77-4.67 6.93-1.88.83-.94.13.5-.18 2.42-.83.94zm-39.35 24.78c5.33-3.27-5.65-2.83 0 0zm3.94 1.14c1.87-1.99-4.01-.8 0 0zm145.67 90.05c.08-2.71-2.33 1.22 0 0zm-15.98-10.9c.46-3.12-2.06.27 0 0zm20.39 11.96c4.25.02 12.89-1.32 3.63-1.32-1.45.24-8.47.18-3.63 1.32zm-146.6-93.12c3.45-.23 5.38-3.8-.67-3.6-9.39-.97 8.28 3.22-1.14 2.02-1.27.84 1.8 1.81 1.87 1.57l-.06.01zm3.03 1.53c-.36-2.21-1.07 1.17 0 0zm-7.84-28.74c6.15-2.09 14.55-4.44 17.46 1.03-2.96-3.55-1.19-7.05 1.6-1.85 3.95 5.25 5.92-2.39 3.36-4.16 2.92 3.63 6.24 5.35 1.96.23 4.67-5.61-9.33.73-12.51.67-1.53.69-15.8 3.64-11.85 4.08h-.02zm3.6-6.9c3.5-2.64 12.13 1.58 6.6-2.63-.54-.48-12.11 3.19-6.6 2.63zm12.78.53c4.1.1-1.78-5.51 3.11-2.97-.8-2.62-5.69-3.11-8.08-4.16-1.35 2.39 2.75 7.16 4.97 7.13zm-10.53-11.6c1.42-1.92-2.49.97 0 0zm5.2 1.25c6.61-.88-1.68-2.85-1.33-.07l1.33.07zm-9.76-7.62c-4.65-6.08 8.76 1.02 4.03-5.34-3.99-3.16-7.81 3.58-4.03 5.34zm59.74 32.18c2.14-3.78-8.82-5.1-1.43-1.34.67.23.52 1.6 1.43 1.34z"/></symbol><symbol id="git" viewBox="0 0 32 32" preserveAspectRatio="xMinYMin meet"><path d="M31.396 14.575L17.425.604a2.06 2.06 0 00-2.915 0l-2.9 2.901 3.68 3.68a2.447 2.447 0 013.099 3.12l3.547 3.548a2.451 2.451 0 11-.935 4.05 2.453 2.453 0 01-.534-2.668l-3.308-3.308v8.705a2.453 2.453 0 11-2.016-.071v-8.786a2.451 2.451 0 01-1.331-3.216l-3.628-3.628-9.58 9.58a2.061 2.061 0 000 2.915l13.972 13.97a2.061 2.061 0 002.914 0L31.396 17.49a2.062 2.062 0 000-2.915" fill="#f03c2e"/></symbol><symbol id="google-appscript" preserveAspectRatio="xMinYMin meet"><path fill="#367DF5" d="M37.401.293H5.547A5.097 5.097 0 00.45 5.391v53.305a5.097 5.097 0 005.097 5.097h41.921a5.096 5.096 0 005.098-5.097v-43.24L37.401.293z"/><path fill="#EBF2FE" d="M.45 29.812h21.154V19.789L37.401 35.42 21.604 50.966v-9.684H.45z"/><path fill="#A0C3FF" d="M37.401.293V15.37h15.165z"/><path fill="#2255AD" d="M52.566 15.37H37.401l15.165 14.952z"/></symbol><symbol id="google-maps" preserveAspectRatio="xMinYMin meet"><path d="M354.06 1575.63V576.61c0-58.06 47.12-105.22 105.21-105.22h998.99L354.06 1575.63z" fill="#1ea361"/><path d="M354.06 1596.61v-20.98l1104.2-1104.21h20.98c58.08 0 105.22 47.13 105.22 105.18v21L480.24 1701.81h-20.97c-58.09 0-105.21-47.15-105.21-105.2" fill="#fedb43"/><path fill="#5384c4" d="M480.24 1701.81l489.02-489 489 489z"/><path d="M1458.26 1701.81l-489-489 126.18-126.21 489.02 489.02v20.98c0 58.05-47.15 105.19-105.22 105.19h-20.98v.02z" fill="#fff"/><path fill="#c2c2c1" d="M1584.46 1575.63l-489.02-489.02 489.02-489.01z"/><path d="M573.53 607.43c62.58-28.66 140.91-16.97 191.75 29.93-15.9 16.21-32.25 32.05-48.57 47.82-50.85-50.47-146.4-26.52-170.23 40.23-31.16 65.69 20.62 152.05 93.92 152.99 47.96 5.59 95.8-26.53 105.91-74.3-33.5.06-66.95-.27-100.37.25-.96-20.6-1.08-41.29-.63-61.98 55.94 1.45 113.26-3.2 168.38 2.27 4.21 40.91 1.31 84.35-20.69 120.25-34.5 64.21-115.97 92.27-184.93 76.04-85.21-17.66-149.02-105.1-137.39-191.72 5.98-61.08 47.27-116.45 102.85-141.78" fill="#efefef"/><path d="M1369.54 298.19h39.99c99.7 5.72 197.18 54.41 257.59 134.53 39.54 50.6 61.65 113.42 66.61 177.23v23.66c-2.31 123.67-81.45 225.19-149.98 321.39-76.95 108.69-148.01 227.15-167.72 361.13-5.27 22.67 1.07 54.44-26.05 64.7-6.39-4.96-13.83-9.07-18.28-16-8.06-74.92-26.76-148.88-58.72-217.26-36.22-79.71-86.75-151.72-138.01-222.19-31.23-42.26-60.67-86-85.03-132.63-38.25-69.86-52.5-152.43-36.87-230.82 12.84-61.91 45.23-119.26 90.07-163.6 60.42-59.1 142.13-94.84 226.4-100.14m-7.77 217.84c-47.29 10.55-86.97 52.37-90.97 101.32-4.96 45.57 21.71 91.84 62.55 111.95 44.3 23.43 102.44 16.25 139.47-17.6 34.5-30.54 47.09-83.3 29.04-126-21.35-53.42-84.69-83.85-140.09-69.67" fill="#dc4b3e"/><path d="M1361.77 516.03c55.4-14.18 118.74 16.25 140.09 69.68 18.05 42.7 5.46 95.45-29.04 126-37.04 33.85-95.17 41.04-139.47 17.6-40.84-20.11-67.51-66.38-62.55-111.95 3.99-48.96 43.68-90.78 90.97-101.33" fill="#802c27"/></symbol><symbol id="greensock" viewBox="500.5 320.5 200 200" preserveAspectRatio="xMinYMin meet"><path d="M542.31 409.46c-5.24 2.46-19.11 13.56-21.78 16.85-2.77 3.29-3.6-1.85-.72-10.38 2.26-6.88 8.01-16.23 17.67-24.25 5.65-4.62 18.08-11.3 25.69-15.21 1.54-.82 21.47-9.25 39.25-13.46 1.54-.41-1.85 2.57-2.36 4.21-2.67 7.81-55.99 41.3-55.99 41.3l-1.76.94zM617.41 503.68c.92 5.55.1 5.96-5.65 6.68-5.75.72-9.97-1.44-11.51-2.88-1.54-1.44-1.85-4.62-.31-7.5.93-1.85 1.85-2.47 2.36-4.73.51-2.16.92-2.67 1.33-3.49.41-.72.51-1.44.62-6.47s0-14.49.51-18.49c.51-4.11 18.29 1.85 18.29 1.85s-4.21 10.48-5.34 13.05-1.03 7.5-1.03 8.53-.41 3.08-.72 3.18c-.31.1 1.03 2.77.41 4.32-.4 1.43.94 5.13 1.04 5.95zM624.19 346.59c-.62-3.9 0-11.61.82-12.84 2.57-3.49 16.13-3.9 19.01.21 1.23 1.85 1.13 6.16.92 8.94-.21 2.77-.92 8.73-1.03 10.69-.1 1.44-15 3.7-18.29-.21-.91-1.04-1.43-6.79-1.43-6.79zM654.4 493.71c6.27 4.52 11.1 5.34 14.28 6.99s2.36 4.83-2.98 5.75c-4.32.82-11.1-.82-15.62-.82s-14.59.51-17.26-1.34c-3.08-2.16-1.75-6.16-1.75-6.16.82-2.26 2.88-7.29 2.26-11.4s-1.44-6.37-2.98-10.17-2.67-13.15-1.23-13.67 1.03 0 2.88.41c1.85.41 3.9 1.03 7.91 1.03s8.42-.62 9.97-.92c1.54-.31 2.77-.62 2.26 2.57-.51 3.18-2.05 9.14-2.16 13.77-.1 4.62-.1 9.97.21 10.89.3.91 2.56 1.94 4.21 3.07z"/><path d="M632.41 356.86c-11.3 9.76-33.19 12.43-65.65 24.97-8.32 3.18-30.51 12.74-35.86 22.71 17.98-10.38 24.66 3.9 26.1 18.6 1.33 13.77 8.22 20.96 25.89 20.55 18.19-.41 23.73 10.17 28.77 22.6 9.76-47.57 25.38-56.82 35.45-64.93 21.36-17.38-4.94-47.99-14.7-44.5z" fill="#88ce02"/><path d="M632.41 356.86c-27.12 9.45-53.94 11.82-85.48 31.23-7.5 4.62-23.32 15.1-26.4 35.14 11.51-12.74 38.12-28.77 70.69-38.94 16.44-5.14 28.46-8.53 43.05-14.18-1.04-6.57-1.04-9.14-1.86-13.25z" fill="#88ce02"/><path d="M667.04 413.16s-1.95 6.68-5.86 8.84c0 0-2.88 1.03-8.63-2.16-1.64-.92-2.88-4.11-2.77-5.14.1-2.47.48-3.49.48-3.49s2.75-3.06 4.7-2.96c1.06.06 3.63.6 4.58-.33 1.08 0 1.28.42 1.75 0 .92-1.02 5.95 1.85 5.75 5.24zM625.12 348.54s-.41 5.24-1.13 8.53c-.1.62-3.18.92-5.45 1.85 4.32 12.33 30.31 12.23 33.7 6.17-1.64-1.13-4.93-2.88-6.47-3.49-1.54-.62-1.44-.51-1.54-3.39-.1-2.88-.31-8.22-.51-9.66-.21-1.45-16.14-1.45-18.6-.01z"/><path d="M626.15 348.54s0 2.98-.31 5.86c-.1 1.33-.21 2.16-.41 3.18-.1.62 3.49 3.08 4.52 8.53 4.93 10.99 16.34 5.55 21.06.31-1.64-1.13-4.32-2.67-7.4-3.9-1.54-.62-.82-1.95-.92-4.83-.1-2.88-.51-7.09-.72-8.63-.21-1.55-13.36-1.96-15.82-.52z" fill="#efefef"/><path d="M625.12 348.54s-.1 1.85-.41 4.01c1.33 1.33 3.08 3.18 4.42 4.32.92.82 3.18.72 5.24.72 1.85 0 3.49.2 4.21-.21 1.64-.82 4.01-2.88 5.34-4.42-.1-1.85-.21-3.6-.31-4.42-.1-1.44-16.03-1.44-18.49 0z"/><path d="M634.47 356.35c-1.23 0-2.67-.1-3.8-.31-.51-.1-1.03-.41-1.44-.62-.72-.51-1.44-1.13-2.26-1.75-1.64-1.23-1.75-1.95-1.75-2.26.72-6.47-.21-11.92-.21-11.92s-.72-2.77 3.19-3.49c3.9-.72 6.27-.82 6.27-.82s2.47 0 6.27.82c3.9.72 3.19 3.49 3.19 3.49s-.92 5.44-.21 11.92c0 .31-.1 1.03-1.75 2.26-1.44 1.03-2.57 2.16-3.7 2.36-1.13.22-2.57.32-3.8.32z"/><path d="M634.47 332.51c-6.78 0-8.12 1.85-10.07 3.9-.41.51-.1 3.6.62 10.17h.92s-.62-1.85-.51-4.01c.1-2.16.51-2.05.21-2.57-.41-.62-1.23-1.64.62-2.67s4.73.82 8.22.92c3.49-.1 6.47-1.95 8.32-.92 1.85 1.03 1.03 2.05.62 2.67-.41.62.1.41.21 2.57.1 2.16-.51 4.01-.51 4.01h.92c.62-6.58 1.03-9.45.72-9.97-1.77-2.25-3.51-4-10.29-4.1zM653.68 368.06s6.47-1.54 10.89 2.67c4.42 4.32 4.11 9.66 2.77 12.95 1.13 1.34 3.18 5.03 1.64 9.45 6.78 5.75 3.8 14.59-2.26 20.45 0 0-1.44-5.34-7.19-5.65.21-2.05-5.34-3.7-2.77-9.04-3.9-.92-3.8-3.6-4.42-6.88-.51-3.3 1.34-23.95 1.34-23.95z"/><path d="M651.32 370.94s7.5-3.8 11.92.51 3.18 9.04 1.85 12.33c1.13 1.34 3.8 5.14 2.16 9.66-.31 1.03-2.57 1.03-4.21 3.7 4.11-2.36 6.68-1.75 7.6 1.23 1.44 4.62-1.75 10.17-4.52 13.25 0-.1-.1-.21-.1-.31-.41 1.54-.92 4.52-4.01 7.81-1.54 1.64-2.77 1.44-4.52 1.03-2.05-.51-2.77-1.44-5.65-2.98-1.64-.92-.72-2.05-.72-2.98 0-.21.21-.51.51-.92.2-.51.82-1.33 1.75-2.26 0 0 1.33-1.85 3.29-1.75 1.95.1 4.01-.31 4.52-.82 0-3.6-4.11-3.7-2.67-9.86.1-.31.62-.82 2.26-1.03-2.47-.51-3.6-.62-5.34-2.26-1.23-1.13-2.16-2.57-2.47-4.42-.63-3.19-1.65-19.93-1.65-19.93z" fill="#efefef"/><path d="M629.64 364.46c-.62-.82-3.8-4.93-9.86-6.58-1.75-.51-2.88.92-4.62 1.95-.51-.31-2.77-1.34-4.01-.62s-2.05 1.44-3.29 1.95c-.62-.31-2.26-.31-3.6.21-1.33.41-3.39 1.33-5.34 4.01-1.23 4.42 21.78 1.13 21.78 1.13l8.94-2.05z"/><path d="M629.84 364.46c-3.29-1.13-2.77-4.93-10.07-5.55-1.44-.1-2.36 1.03-3.39 1.75.51.51 1.03 1.34 1.34 2.16-.92-1.03-2.57-2.36-4.21-2.67-1.54-.31-2.57.82-4.21 1.64.31.31.62.82 1.03 1.44-1.44-.92-2.47-1.23-4.42-.51-1.34.41-3.9 1.54-5.86 4.31-1.23 4.42 20.75-.51 20.75-.51l9.04-2.06zM648.75 365.59s.62-.51.41-.62c1.13-.62 2.67-1.34 3.39.62 2.36-.82 2.67.31 3.8 1.54 2.88-1.34 3.08.31 3.29 1.03-.92 0-2.26.1-4.11.31-3.49.51-6.89-2.98-6.78-2.88z" fill="#88ce02"/><path d="M613.82 363.03s5.86 2.05 10.79 1.75c4.93-.41 13.36-.82 17.88 1.85 0 0 4.62-1.64 8.94-.51s12.23 8.53 9.86 16.34c-.21.51-1.54 1.34-3.08 1.85 0 0 .82 3.49-.62 6.37-1.44 2.77-4.62 8.12-4.73 15.51-.1 1.23-.31 3.8-.51 5.03-8.01-.31-20.34-3.29-32.47-3.08.1-1.33.21-2.16.31-3.49h.31c-.62-3.39-.82-5.14-1.44-7.71-3.9-2.46-8.01-5.34-11.51-10.79-3.39-5.45 6.27-23.12 6.27-23.12zM653.47 418.51s6.37 22.81-1.13 32.36c0 0 1.13 4.42-1.44 9.14-.41 2.05-.92 3.9-1.23 5.96-1.34 8.53-3.6 12.12-4.21 25.79l-6.17-.1s-.72-9.86-2.88-15.1c-1.23-2.98-6.06-6.99-5.86-10.99.21-3.08.82-5.65 6.06-9.76.41-5.96-5.55-11.61-4.62-33.8l21.48-3.5z"/><path d="M651.62 417.58c1.64 10.48 5.45 25.99-1.44 33.6.31 1.44.51 3.49.1 5.86-.21 1.23-.62 2.57-1.13 4.01-1.03 2.47-1.44 6.06-1.75 8.22-1.34 8.53-8.84 12.64-10.99 7.4-1.23-2.98-3.8-5.55-4.01-9.55-.21-3.08 1.95-9.25 7.09-9.04-.31-12.43-6.06-9.97-7.6-35.86l19.73-4.64zM613.82 363.03s2.26.72 4.72.92c2.47.21 5.14 0 7.5-.1 4.93-.41 11.92-.92 16.54 1.75 0 0 2.57-.82 5.34-.62 1.23.1 2.47 1.13 3.9 1.54 4.52 1.13 8.84 8.63 6.88 15.41-.21.51-1.64 0-3.29.51.31 1.44.51 4.73-1.13 8.22-1.75 3.49-4.01 8.01-3.6 16.64-10.79-.51-15.62-1.23-26.3-1.75-.92-3.8-1.54-7.6-1.64-9.55 1.44-.72 2.26-1.33 3.39-2.57-3.08.51-4.32.31-6.17-.72s-5.14-4.32-6.78-6.47c-.21-.21-1.34 3.18-3.9 3.29-.93-1.33 2.98-5.14 2.26-6.58-2.55-5.23 2.28-19.92 2.28-19.92z" fill="#efefef"/><path d="M640.32 422.62s-5.44-12.12-21.78-8.53c-3.9 10.99-9.14 23.63-5.75 37.3-3.39 4.62-7.29 7.19-7.29 15.72 0 8.53.41 9.97.41 9.97l12.02.62s3.9-5.03 5.45-10.48c.41-1.54.82-4.32.51-7.5.41-.62 2.16-2.05 2.36-4.83 0 0 5.86-3.08 9.25-10.58 3.18-6.8 2.36-12.65 4.82-21.69z"/><path d="M652.24 422.31c0-1.95-.82-3.9-1.34-6.88-.31-1.64-.72-3.49-.72-6.06.21-.41.41-2.36.21-3.49-5.14-.51-13.97-1.23-26.51-1.23-.1.72-.31 2.26-.41 3.49-.67 1.64-1.07 3.5-1.48 5.3-.42.07-.85.15-1.3.25-8.94 23.84-5.65 33.7-4.32 38.01-6.06 7.71-8.84 9.35-7.6 24.97h8.01c3.7-5.86 4.52-8.01 4.73-15.72 0-.31-1.13.62-1.95 1.64.62-3.19 2.36-3.8 3.7-5.75.62-.82 1.13-2.05 1.13-3.7 7.19-4.83 9.86-10.89 11.4-17.16.7-2.43 1.46-5.75 2.32-8.53 6.53-.18 14.13.74 14.13-5.14z" fill="#efefef"/><path d="M614.95 406.07s2.77.1 5.24.92c2.36.82 2.36 1.33 3.29 2.36.92 1.03 3.18 2.57 2.77 4.11-.21.82-.72 1.03-1.44 1.75-.31.31-2.57 2.77-3.08 3.08-.31.21-.72.51-1.03.72-.31.21-1.23.82-1.54 1.03-1.03.51-1.75.82-2.88.72 0 0-2.57-.1-4.21-1.85 0 0-.21-.82.21-1.23 0 0-2.16-1.85-2.78-3.08-.62-1.23-.62-2.98-.21-3.9.21-.93 4.22-3.5 5.66-4.63zM606.42 461.14c.92.62 7.19 4.32 17.36 3.8-.21 1.95-.1 5.75-4.62 12.43-2.26 3.29-4.21 9.04-4.62 16.34.1 1.64 1.03 3.08-.21 5.24.41 1.33 2.05 4.01 2.88 5.65.82 1.64 1.23 3.49-4.21 3.6-5.55.1-14.49-.51-13.25-4.83.62-2.26 2.36-4.62 2.57-5.55.21-.92.21-3.7 1.95-5.55 1.54-5.14 1.03-10.07.72-14.69-.52-4.83-.63-12.53 1.43-16.44z"/><path d="M615.97 377.41c7.3-9.76 1.13-17.57-10.58-15.21-4.73.92-9.45 4.21-9.76 10.17-1.54.21-5.03.41-6.78 6.78-1.34 4.93-2.05 5.86-4.42 8.32-1.54 1.75.1 5.34 1.23 7.91 3.8 8.84 15.51 9.66 23.43 16.34 2.67-.72 5.45-3.7 6.27-5.65-6.68-7.91-5.24-10.99-7.91-15.1 2.87-1.03 9.45-5.03 8.52-13.56z"/><path d="M614.54 376.79c.41-.62 1.13-1.95 1.44-2.47.1-.1 1.23 1.85 1.34 1.75 2.77-4.52 3.49-11.1.31-11.71-.72-.1-2.05-.41-3.18-.82-2.05-.72-3.9-.72-7.19-.1-4.52.82-9.04 4.11-9.04 8.84 0 .31 3.18 1.23 4.11 5.04-1.54-2.16-4.21-4.52-7.4-2.47-3.39 2.16-1.64 7.09-6.16 12.23-1.54 1.75-1.34 3.8.31 7.91 2.67 6.47 15.31 9.97 22.19 16.13 1.64-.72 2.77-2.36 3.6-3.6-4.62-4.83-6.47-9.35-7.81-12.64-1.64-3.8-3.49-5.96-7.09-8.84 1.85.72 3.29 1.44 4.11 2.06.92.62 2.26.72 3.49.31 4.4-1.55 6.76-7.71 6.97-11.62z" fill="#efefef"/><path d="M659.23 378.44c-.31 3.9-3.18 1.95-4.73 1.23-3.08-1.33-6.16-2.26-9.76-2.26-3.6 0-8.22.31-12.22 1.34-5.55 1.54-7.19 1.44-9.66.21-2.47-1.34-6.78-4.62-6.78-4.62s-.1 1.03.93 2.36c1.33 1.64 4.31 3.7 8.32 5.03 1.95.62 3.49.21 5.24-.21 9.14-2.26 18.8-2.67 26.92 2.26.41.21 1.85-.41 2.47-1.34.81-1.33-.73-4-.73-4z"/><path d="M642.17 336.11c-.31-.92-2.57-2.57-7.81-2.57-5.65 0-7.29 1.75-7.4 2.67 0 .31-.41 3.6-.51 4.93 0 0 0 1.64.1 4.11.1 1.64.51 2.57.72 4.73.21 2.26.82 3.7 1.95 5.55.51.31.92.62 1.44.72 2.05.41 5.65.51 7.6 0 1.13-.31 2.57-2.26 2.88-4.01.41-2.16.82-3.7.92-5.03.21-1.33.31-4.32.41-5.14.32-2.26-.2-5.76-.3-5.96z" fill="#efefef"/><path d="M631.38 463.1s5.45 2.36 18.91.31c0 0-3.8 19.11-2.05 28.66 0 0 1.75 2.47 14.69 7.19 0 0 5.75 1.44 5.55 4.32 0 0 .21.62-6.78.41-6.99-.21-13.56-1.44-18.19-1.44s-9.56.21-10.38-1.13c-.92-1.23.21-4.42 1.54-6.27 1.44-1.95 1.03-3.39.92-6.88-.3-9.15-7.29-18.6-4.21-25.17z"/><path d="M630.25 464.84c-.72 1.03.1 4.93 1.13 8.73 1.03 3.8 3.29 6.06 3.8 12.33.51 6.16.62 6.99-1.13 10.58-1.75 3.6-2.26 6.88 3.8 6.99s9.35-.1 15.51.82c6.16.92 8.32 1.23 11.71.72 3.39-.51 4.11-1.64 2.67-2.67s-7.4-2.16-9.97-4.21c-2.47-1.85-9.45-4.93-9.55-5.75-.31-2.77-.41-12.84.1-16.13s1.23-8.01 1.44-9.25c.21-1.23 1.23-2.47-.51-2.06-1.75.41-8.32 1.34-13.25 1.03-4.92-.31-5.44-1.44-5.75-1.13z" fill="#88ce02"/><path d="M623.37 401.96c0 .72 8.01 4.73 12.43 5.55 4.42.82 13.67 0 15.1-.31l-.21 1.44s-10.99 1.64-19.42-.62c-8.43-2.26-7.5-2.77-7.5-2.77l-.4-3.29z"/><path d="M606.21 489.6c1.23.62 5.65 1.75 8.53 1.13.41-.1 0-7.09 1.13-10.27 1.64-4.42 4.31-8.01 5.55-15.82-4.32-.41-9.25-1.54-11.81-2.36-3.29 10.06-2.16 18.69-3.4 27.32zM613.1 496.08c.72.21 1.23 1.03 1.44.51.41-.92-.72-2.67-.82-3.9v-.1c-.92-.82-7.19-.92-6.78-.51-.72 1.33-1.85 1.13-2.26 3.8-.21 1.33 1.44.21 2.98.1-2.77 1.85-5.96 4.21-6.47 6.27-.62 2.88.41 3.7 3.49 5.24 2.67.62 5.86.72 8.32.62 2.77-.51 3.29-1.85 2.47-3.7-1.24-2.79-2.07-6.38-2.37-8.33z" fill="#efefef"/><path d="M614.23 362.61c3.39 1.95 8.12 1.44 9.86 1.34.41 0 4.52-.72 4.73-.62.41.1.41.41.41.41s-1.54.82-5.03 1.03c-3.29.21-7.19 0-9.35-1.03-2.57-1.13-.62-1.13-.62-1.13z"/><path d="M613.71 407.2c2.98-.21 6.06.51 8.01 2.57 1.03 1.03 2.67 2.16 2.47 3.18 0 .31-.62 1.13-1.13 1.75-.31.41-1.23 1.33-1.54 1.64-.41.31-1.85 1.44-2.16 1.64s-.72.72-1.03.82c-1.03.51-2.16.1-3.19-.41-1.03-.51.21-.62-.92-1.44-2.77-1.95-4.32-3.29-3.18-7.09.1-.7 1.24-1.53 2.67-2.66z" fill="#efefef"/><path d="M587.51 383.68c-9.25 3.7-32.77 15.41-39.45 19.01 5.55 3.49 8.12 11.92 8.94 20.45.1.82.21 1.54.31 2.36.1.72.21 1.23.31 1.54 0 .1 0 .31.1.41 6.06-16.54 27.74-34.01 28.56-35.34.41-.62-.51-3.29.92-5.86 1.86-3.29 5.45-4.73.31-2.57zM609.5 461.25c4.73-9.45 4.83-18.49 4.73-29.08 0-4.42 3.18-10.69 1.54-8.94-6.17 6.88-21.68 19.83-32.88 20.55 15.72-.51 21.88 7.4 26.61 17.47z" opacity=".4"/><path d="M539.02 411.42c5.86-4.21 36.17-20.34 43.46-22.6 7.29-2.36 5.03-5.14 5.03-5.14s-29.59 12.74-47.26 23.73"/><path d="M625.32 381.72c-2.36-.92-4.21 1.85-3.6 4.52.62 2.67 6.17 5.65 5.86 15.41-.21 8.01-1.95 11.3-1.95 11.3l-3.9-4.93s-.62-11.1-1.95-12.74c-1.34-1.64-5.55-4.62-7.19-6.17s1.85-3.6 1.64-6.47c-.21-2.77 1.75-8.32 1.75-8.32l9.34 7.4zM639.6 425.49c-.21 7.71 1.54 19.11 2.26 24.56.72 5.45 1.64 5.86 0 8.32-1.64 2.36-3.8 6.27-3.8 6.27l-7.09-.62s5.65-7.19 5.96-8.53c.31-1.33-2.88-11.51-2.88-11.51l5.55-18.49zM625.94 353.57c1.44 3.18 3.18 4.62 5.96 5.55 1.64.62 8.12 1.44 10.69-1.44 1.13-1.33.41-4.93.41-4.93l-5.86 4.73-7.91-1.44-.92-2.36-2.37-.11z" opacity=".4"/><path d="M625.63 360.97c3.39 1.44 9.97 2.98 11.82 3.39 1.85.41 4.83-1.44 6.27-2.36 2.57-1.64 5.86-.31 7.4 1.44 1.03 1.13 1.44 1.85 1.44 2.16 0 .41-1.23 0-1.23 0-.72-.31-1.54-.41-2.16-.82-.82-.41-1.65-1.03-2.88-.92-5.14.62-6.17 2.36-10.58 1.34-4.42-1.03-5.55-1.95-10.27-1.65" fill="#88ce02" stroke="#000" stroke-width=".4" stroke-miterlimit="10"/><path d="M609.71 456.93c-.21-.21.21-.41 0-.41-1.33 0-3.18-1.03-4.21-2.47-4.42-6.37-10.89-10.58-22.6-10.27-17.57.41-24.56-6.78-25.89-20.55-.72-7.5-2.77-14.79-6.99-18.9l-2.47 1.54c4.73 4.11 6.27 10.79 7.29 19.93 1.64 13.77 12.74 20.14 25.69 20.34 13.46.21 18.29 2.98 23.32 9.76 1.64 2.16 3.49 2.88 4.93 3.18l.93-2.15z"/><path d="M657.38 390.87c.31 1.54 1.13 4.52 2.77 5.96.72.72.82.92.21.92s-5.14-.21-5.14-.21l-1.23-2.16 3.39-4.51z" opacity=".4"/></symbol><symbol id="gulp" preserveAspectRatio="xMinYMin meet"><path fill="#DA4648" d="M86.72 304.739c-20.313 0-43.226-1.704-62.246-9.693 11.229 19.185 11.983 29.981 13.627 52.411C40.622 381.864 49.072 386 87.54 386c38.736 0 47.047-4.172 49.036-38.831 1.273-22.186 1.643-33.154 12.517-52.179-19.025 8.058-42.038 9.749-62.373 9.749zm8.947-188.906c-30.314-1.508-76.667-.5-94.087-11.406L11.845 198.9c4.249-14.444 22.892-53.307 44.167-40.857 3.253 1.903 10.943 9.313 6.702 14.434-4.246 5.132-7.967-6.287-10.59-7.64C35 156 16.413 205.171 19.262 215.307c4.002 14.233 23.321-9.211 25.739-14.26.253-.368 7.125-23.106 11.115-13.264 2.902 7.138-5.157 20.585-7.27 27.674-4.306 14.4-7.846 22.043-10.992 21.275-1.583-.387-.764-7.396 3.576-20.804-5.514 6.155-17.523 18.772-26.813 12.037l5.348 56.073c1.876 19.67 66.071 17.057 78.708 16.381 20.406-1.091 52.949.373 55.723-23.696l6.922-60.077c-15.006 13.666-38.748 16.514-20.338-5.299 17.223-20.377-8.142-3.647-13.826 8.512-4.424 9.521-7.21 19.905-11.825 29.267-2.425 4.88-10.028 5.387-8.343-1.593 2.34-9.711 8.219-18.746 12.152-27.834-3.749 3.666-20.39 16.549-22.136 4.129-8.275 6.437-17.966 7.277-15.02-6.059-11.78 20.952-27.648 10.241-19.877-10.455 5.711-15.165 18.271-21.265 8.889-2.636-8.48 16.779-1.681 17.724 5.505 10.571 4.701-4.678 8.957-14.43 11.325-19.881 3.892-8.949 7.821.037 5.231 6.098-1.299 3.029-11.083 23.529-.652 18.689 11.492-5.319 18.356-37.944 23.014-49.686 1.025-2.587 10.057-15.023 10.057-4.966 0 10.026-9.953 24.646-13.678 33.796-9.209 22.688-5.518 25.707 11.622 8.312 1.313-1.355 17.317-23.274 10.296-6.619 4.257-4.643 13.404-13.856 18.785-4.492 4.403 7.672-13.415 23.584-8.999 24.667 4.418 1.084 18.787-12.817 19.133-16.02l3.536-32.748 7.341-67.982C163 114.833 129.167 117.5 95.667 115.833zM87.474 85.99c-25.663 0-54.035-.43-78.914 6.941-19.8 5.866 6.141 11.804 13.253 12.932 14.659 2.324 152.661 12.568 152.661-7.873.001-6.628-38.953-12-87-12zm34.738 15.507c0 4.156-20.679 4.156-20.679 0 0-4.158 20.679-4.158 20.679 0z"/><path fill="#DA4648" d="M103.627 100.252a.47.47 0 00-.078.25c0 1.007 3.727 1.822 8.323 1.822s8.323-.815 8.323-1.822l10.871-44.078 43.231-45.645c.015-.014.027-.028.041-.043.915-1.035-.94-4.238-4.022-6.985-3.08-2.747-6.407-3.677-7.441-2.631-.008.008-.016.016-.021.023l-46.129 48.539-13.098 50.57z"/></symbol><symbol id="heroku" preserveAspectRatio="xMinYMin meet"><path fill="#6762A6" d="M42.36 58.867H6.509a5.557 5.557 0 01-5.552-5.554V6.209A5.556 5.556 0 016.509.657H42.36a5.556 5.556 0 015.552 5.552v47.094a5.558 5.558 0 01-5.552 5.554v.01z"/><path fill="#FFF" d="M30.383 50.859V27.743s1.491-5.53-18.516 2.259c-.035.115-.035-21.372-.035-21.372l6.539-.046v13.767s18.321-7.228 18.321 5.472V50.86h-6.309zm3.728-33.957h-6.94c2.5-3.052 4.761-8.284 4.761-8.284h7.17s-1.228 3.408-4.991 8.284zM11.935 50.813V37.654l6.585 6.586-6.585 6.585v-.012z"/></symbol><symbol id="illustrator" viewBox="0 0 240 234" preserveAspectRatio="xMinYMin meet"><style>.st1{fill:#ff9a00}</style><g id="Layer_2_1_"><g id="Surfaces"><g id="Drawing_Surface"><path d="M42.5 0h155C221 0 240 19 240 42.5v149c0 23.5-19 42.5-42.5 42.5h-155C19 234 0 215 0 191.5v-149C0 19 19 0 42.5 0z" fill="#300" id="Outline_no_shadow"/></g></g><g id="Outlined_Mnemonics_Logos"><g id="Ai"><path class="st1" d="M116.3 140.4H79.1l-7.6 23.5c-.2.9-1 1.5-1.9 1.4H50.8c-1.1 0-1.4-.6-1.1-1.8l32.2-92.7c.3-1 .6-2.1 1-3.3.4-2.1.6-4.3.6-6.5-.1-.5.3-1 .8-1.1H110.2c.8 0 1.2.3 1.3.8l36.5 103c.3 1.1 0 1.6-1 1.6h-20.9c-.7.1-1.4-.4-1.6-1.1l-8.2-23.8zm-31.4-20.3h25.4c-.6-2.1-1.4-4.6-2.3-7.2-.9-2.7-1.8-5.6-2.7-8.6-1-3.1-1.9-6.1-2.9-9.2-1-3.1-1.9-6-2.7-8.9-.8-2.8-1.5-5.4-2.2-7.8h-.2c-.9 4.3-2 8.6-3.4 12.9-1.5 4.8-3 9.8-4.6 14.8-1.4 5.1-2.9 9.8-4.4 14zM169.8 77c-3.3.1-6.5-1.2-8.9-3.5-2.3-2.5-3.5-5.8-3.4-9.2-.1-3.4 1.2-6.6 3.6-8.9 2.4-2.3 5.6-3.5 8.9-3.5 3.9 0 6.9 1.2 9.1 3.5 2.2 2.4 3.4 5.6 3.3 8.9.1 3.4-1.1 6.7-3.5 9.2-2.3 2.4-5.7 3.7-9.1 3.5zm-11.2 86.8v-77c0-1 .4-1.4 1.3-1.4h19.8c.9 0 1.3.5 1.3 1.4v77c0 1.1-.4 1.6-1.3 1.6h-19.6c-1 0-1.5-.6-1.5-1.6z"/></g></g></g></symbol><symbol id="indesign" viewBox="0 0 240 234" preserveAspectRatio="xMinYMin meet"><style>.st1{fill:#f36}</style><path d="M42.5 0h155C221 0 240 19 240 42.5v149c0 23.5-19 42.5-42.5 42.5h-155C19 234 0 215 0 191.5v-149C0 19 19 0 42.5 0z" fill="#49021f"/><g id="Outlined_Mnemonics_Logos"><g id="Id"><path class="st1" d="M87.2 61.2v102.6c0 1.1-.5 1.6-1.4 1.6H66.2c-.9 0-1.3-.5-1.3-1.6V61.2c0-.9.5-1.3 1.4-1.3h19.5c.6-.1 1.2.3 1.3 1 .1.1.1.2.1.3zM144.8 167c-7.4.1-14.8-1.4-21.5-4.5-6.3-2.9-11.5-7.7-15.1-13.6-3.7-6.1-5.5-13.7-5.5-22.8-.1-7.4 1.8-14.7 5.5-21.1 3.8-6.5 9.3-11.9 15.9-15.5 7-3.9 15.4-5.8 25.3-5.8.5 0 1.2 0 2.1.1.9.1 1.9.1 3.1.2V52.4c0-.7.3-1.1 1-1.1h20.3c.5-.1.9.3 1 .7v95.4c0 1.8.1 3.8.2 6 .2 2.1.3 4.1.4 5.8 0 .7-.3 1.3-1 1.6-5.2 2.2-10.7 3.8-16.3 4.8-5 .9-10.2 1.4-15.4 1.4zm9.8-20v-44c-.9-.2-1.8-.4-2.7-.5-1.1-.1-2.2-.2-3.3-.2-3.9 0-7.8.8-11.3 2.6-3.4 1.7-6.3 4.2-8.5 7.4s-3.3 7.5-3.3 12.7c-.1 3.5.5 7 1.7 10.3 1 2.7 2.5 5.1 4.5 7.1 1.9 1.8 4.2 3.2 6.8 4 2.7.9 5.5 1.3 8.3 1.3 1.5 0 2.9-.1 4.2-.2 1.3.1 2.5-.1 3.6-.5z"/></g></g></symbol><symbol id="info" viewBox="32.5 32.5 134.667 134.667" preserveAspectRatio="xMinYMin meet"><path opacity=".4" fill="#FFF" d="M99.998 86.748a7.07 7.07 0 004.956-2.044 7.05 7.05 0 002.044-4.956c0-1.834-.742-3.64-2.044-4.941-1.313-1.305-3.122-2.059-4.956-2.059s-3.641.754-4.939 2.059a6.977 6.977 0 000 9.897 7.025 7.025 0 004.939 2.044zM99.998 89.962a5.479 5.479 0 00-5.479 5.477v32.663a5.479 5.479 0 0010.956 0V95.44a5.477 5.477 0 00-5.477-5.478z"/><circle opacity=".4" fill="none" stroke="#FFF" stroke-width="7" stroke-miterlimit="10" cx="100" cy="102" r="53.814"/></symbol><symbol id="js" viewBox="0 1800 200 200" preserveAspectRatio="xMinYMin meet"><path fill="#f7df1e" d="M14.48 1814.48h169.09v169.09H14.48z"/><path d="M128.06 1946.58c3.41 5.56 7.84 9.65 15.67 9.65 6.58 0 10.79-3.29 10.79-7.84 0-5.45-4.32-7.38-11.57-10.55l-3.97-1.71c-11.47-4.88-19.08-11-19.08-23.94 0-11.92 9.08-20.99 23.27-20.99 10.1 0 17.36 3.52 22.6 12.72l-12.37 7.95c-2.72-4.88-5.66-6.81-10.23-6.81-4.65 0-7.6 2.95-7.6 6.81 0 4.77 2.95 6.7 9.77 9.65l3.97 1.7c13.5 5.79 21.12 11.69 21.12 24.96 0 14.3-11.24 22.14-26.33 22.14-14.76 0-24.29-7.03-28.95-16.25l12.91-7.49zm-56.13 1.38c2.5 4.43 4.77 8.17 10.23 8.17 5.22 0 8.51-2.04 8.51-9.98v-54.03h15.89v54.24c0 16.45-9.65 23.94-23.73 23.94-12.72 0-20.09-6.58-23.84-14.51l12.94-7.83z"/></symbol><symbol id="mailgun" preserveAspectRatio="xMinYMin meet"><path d="M32.066 19.956c-6.69 0-12.13 5.433-12.13 12.1s5.443 12.1 12.13 12.1 12.13-5.433 12.13-12.1-5.443-12.1-12.13-12.1zm-18.885 12.1c0-10.408 8.46-18.852 18.885-18.852S50.95 21.658 50.95 32.065c0 .72-.066 1.375-.13 2.03-.13 1.833 1.18 3.207 3.016 3.207 3.082 0 3.4-3.993 3.4-5.302 0-13.943-11.28-25.2-25.246-25.2S6.754 18.057 6.754 32 18.033 57.2 32 57.2c7.4 0 14.033-3.207 18.69-8.248l5.18 4.32A31.874 31.874 0 0132 63.942C14.295 63.944 0 49.608 0 32 0 14.326 14.36.056 32 .056 49.705.056 64 14.392 64 32c0 7.07-3.4 12.83-10.164 12.83-3.016 0-4.787-1.375-5.836-2.88-3.344 5.368-9.246 8.902-16.066 8.902-10.295.065-18.754-8.38-18.754-18.786zm18.885-5.564c3.082 0 5.574 2.487 5.574 5.498 0 3.077-2.492 5.564-5.574 5.564S26.492 35.077 26.492 32c.066-3.01 2.492-5.498 5.574-5.498z" fill="#c02126"/></symbol><symbol id="mapbox" viewBox="0 0 32 32" preserveAspectRatio="xMinYMin meet"><path d="M16 0C7.163 0 0 7.163 0 16s7.163 16 16 16 16-7.163 16-16S24.837 0 16 0zm7.595 19.924C18.124 25.395 8.35 23.65 8.35 23.65s-1.764-9.755 3.726-15.244c3.042-3.042 8.08-2.916 11.267.252s3.294 8.225.252 11.267zm-5.76-.972l1.566-3.222 3.222-1.566-3.222-1.566-1.566-3.222-1.566 3.222-3.222 1.566 3.222 1.566z" fill="#4264fb"/></symbol><symbol id="npm" viewBox="0 0 18 7" preserveAspectRatio="xMinYMin meet"><path fill="#CB3837" d="M0 0h18v6H9v1H5V6H0V0zm1 5h2V2h1v3h1V1H1v4zm5-4v5h2V5h2V1H6zm2 1h1v2H8V2zm3-1v4h2V2h1v3h1V2h1v3h1V1h-6z"/><path fill="#FFF" d="M1 5h2V2h1v3h1V1H1zM6 1v5h2V5h2V1H6zm3 3H8V2h1v2zM11 1v4h2V2h1v3h1V2h1v3h1V1z"/></symbol><symbol id="photoshop" viewBox="0 0 240 234" preserveAspectRatio="xMinYMin meet"><path d="M197.5 234h-155C19 234 0 215 0 191.5v-149C0 19 19 0 42.5 0h155C221 0 240 19 240 42.5v149c0 23.5-19 42.5-42.5 42.5z" fill="#26c9ff"/><path d="M193.7 224H46.3c-20 0-36.3-16.3-36.3-36.4V46.4C10 26.3 26.3 10 46.3 10h147.3c20.1 0 36.3 16.3 36.3 36.3v141.3c.1 20.1-16.2 36.4-36.2 36.4z" fill="#062026"/><path d="M58 54.8c0-.7 1.4-1.2 2.2-1.2 6.4-.3 15.9-.5 25.8-.5 27.7 0 38.5 15.2 38.5 34.7 0 25.4-18.4 36.3-41 36.3-3.8 0-5.1-.2-7.8-.2v38.4c0 .8-.3 1.2-1.2 1.2H59.2c-.8 0-1.2-.3-1.2-1.2V54.8zm17.8 53.1c2.3.2 4.1.2 8.1.2 11.7 0 22.7-4.1 22.7-20 0-12.7-7.9-19.1-21.2-19.1-4 0-7.8.2-9.6.3v38.6zm86-11.9c-7.9 0-10.6 4-10.6 7.3 0 3.6 1.8 6.1 12.4 11.6 15.7 7.6 20.6 14.9 20.6 25.6 0 16-12.2 24.6-28.7 24.6-8.7 0-16.2-1.8-20.5-4.3-.7-.3-.8-.8-.8-1.6v-14.7c0-1 .5-1.3 1.2-.8 6.3 4.1 13.5 5.9 20.1 5.9 7.9 0 11.2-3.3 11.2-7.8 0-3.6-2.3-6.8-12.4-12-14.2-6.8-20.1-13.7-20.1-25.2 0-12.9 10.1-23.6 27.6-23.6 8.6 0 14.6 1.3 17.9 2.8.8.5 1 1.3 1 2v13.7c0 .8-.5 1.3-1.5 1-4.4-2.8-10.9-4.5-17.4-4.5z" fill="#d9f5ff"/></symbol><symbol id="php" viewBox="0 -24.5 120 113" preserveAspectRatio="xMinYMin meet"><path fill="#777BB3" d="M59.224 61.988c31.958 0 57.866-13.434 57.866-30.005 0-16.57-25.908-30.004-57.866-30.004-31.96 0-57.868 13.434-57.868 30.004s25.909 30.005 57.868 30.005"/><path d="M32.813 35.427c2.524 0 4.408-.46 5.6-1.363 1.18-.896 1.994-2.448 2.42-4.612.399-2.023.247-3.436-.45-4.198-.713-.778-2.253-1.174-4.58-1.174h-4.032l-2.235 11.347h3.277zm-13.19 13.977a.632.632 0 01-.483-.224.61.61 0 01-.132-.512l5.924-30.07c.058-.29.316-.5.616-.5h12.77c4.014 0 7.001 1.075 8.879 3.195 1.888 2.131 2.47 5.11 1.732 8.855a14.016 14.016 0 01-1.535 4.21 14.126 14.126 0 01-2.826 3.494c-1.384 1.275-2.95 2.202-4.65 2.748-1.675.537-3.825.81-6.39.81h-5.171l-1.477 7.494a.626.626 0 01-.616.5h-6.64zM64.155 41.41a.63.63 0 01-.483-.224.615.615 0 01-.132-.512l2.621-13.305c.25-1.265.187-2.174-.172-2.557-.221-.235-.884-.628-2.846-.628h-4.75L55.1 40.909a.625.625 0 01-.616.5h-6.59a.63.63 0 01-.483-.223.612.612 0 01-.132-.512l5.925-30.07c.057-.29.316-.5.616-.5h6.59c.186 0 .364.082.484.224.12.143.166.33.13.512l-1.429 7.258h5.108c3.89 0 6.53.677 8.067 2.068 1.567 1.42 2.055 3.692 1.453 6.75L71.465 40.91a.624.624 0 01-.615.5h-6.695zM84.646 35.427c2.524 0 4.409-.46 5.6-1.363 1.18-.895 1.993-2.448 2.422-4.612.397-2.023.245-3.436-.451-4.198-.713-.778-2.255-1.174-4.58-1.174h-4.033L81.37 35.427h3.277zM71.457 49.404a.634.634 0 01-.484-.224.618.618 0 01-.133-.512l5.926-30.07c.057-.29.315-.5.616-.5h12.77c4.014 0 7 1.075 8.878 3.195 1.888 2.13 2.47 5.11 1.732 8.855a13.973 13.973 0 01-1.535 4.21 14.14 14.14 0 01-2.826 3.494c-1.385 1.275-2.95 2.202-4.65 2.748-1.675.537-3.824.81-6.39.81h-5.17l-1.477 7.494a.625.625 0 01-.618.5h-6.639z"/><path fill="#FFF" d="M32.288 24.7h3.516c2.807 0 3.782.607 4.114.969.55.601.653 1.87.3 3.665-.397 2.012-1.133 3.439-2.188 4.238-1.08.82-2.835 1.237-5.216 1.237h-2.517l1.991-10.11zm6.03-7.221h-12.77c-.6 0-1.117.42-1.232 1.002L18.391 48.55c-.07.362.025.738.264 1.023.238.285.593.451.968.451h6.64c.602 0 1.118-.421 1.233-1.003l1.378-6.992h4.654c2.632 0 4.847-.283 6.584-.842 1.787-.572 3.43-1.541 4.885-2.884a14.772 14.772 0 002.945-3.643 14.643 14.643 0 001.604-4.395c.777-3.94.145-7.097-1.876-9.38-2.002-2.26-5.148-3.406-9.351-3.406m-9.546 18.566h4.04c2.678 0 4.673-.496 5.983-1.491 1.31-.996 2.194-2.656 2.654-4.983.44-2.236.239-3.812-.6-4.731-.841-.919-2.523-1.378-5.046-1.378h-4.55l-2.48 12.583m9.545-17.329c3.841 0 6.644.994 8.406 2.984 1.76 1.989 2.291 4.765 1.588 8.33a13.336 13.336 0 01-1.467 4.026c-.69 1.217-1.59 2.33-2.703 3.34-1.326 1.223-2.8 2.096-4.42 2.615-1.621.521-3.685.78-6.195.78H27.84l-1.576 7.994h-6.64l5.925-30.069h12.77"/><path fill="#FFF" d="M60.407 9.484H53.82a1.25 1.25 0 00-1.232 1.002L46.66 40.555c-.07.364.026.738.264 1.023.239.287.593.451.968.451h6.59c.6 0 1.116-.42 1.23-1.002l3.198-16.224h4.232c1.957 0 2.368.412 2.385.43.118.126.275.71.017 2.018l-2.621 13.304c-.072.364.025.738.264 1.023.238.286.593.451.967.451h6.695c.6 0 1.118-.42 1.231-1.002l2.757-13.992c.647-3.285.093-5.749-1.645-7.324-1.658-1.502-4.435-2.233-8.49-2.233h-4.348l1.285-6.52a1.225 1.225 0 00-.265-1.023 1.258 1.258 0 00-.968-.451m0 1.238l-1.575 7.995h5.87c3.693 0 6.24.636 7.642 1.905 1.402 1.271 1.822 3.33 1.263 6.177L70.85 40.79h-6.694l2.62-13.305c.3-1.512.189-2.545-.329-3.095s-1.62-.826-3.304-.826h-5.267L54.483 40.79h-6.59l5.926-30.07h6.589"/><path fill="#FFF" d="M84.123 24.7h3.514c2.807 0 3.782.607 4.114.969.55.601.654 1.87.3 3.665-.397 2.012-1.132 3.439-2.188 4.238-1.079.82-2.834 1.237-5.215 1.237H82.13l1.992-10.11zm6.03-7.221H77.381c-.6 0-1.117.42-1.233 1.002L70.226 48.55c-.072.362.024.738.262 1.023.239.285.595.451.97.451h6.639c.602 0 1.118-.421 1.233-1.003l1.377-6.992h4.654c2.631 0 4.847-.283 6.583-.842 1.788-.572 3.432-1.542 4.886-2.884a14.746 14.746 0 002.945-3.643c.752-1.325 1.29-2.805 1.604-4.395.777-3.941.146-7.097-1.875-9.38-2.004-2.26-5.148-3.406-9.352-3.406m-9.546 18.566h4.042c2.675 0 4.67-.496 5.981-1.491 1.31-.996 2.195-2.656 2.653-4.983.442-2.236.24-3.812-.6-4.731s-2.522-1.378-5.045-1.378h-4.55l-2.48 12.583m9.545-17.329c3.841 0 6.644.994 8.405 2.984 1.762 1.989 2.292 4.765 1.59 8.33-.29 1.468-.778 2.809-1.467 4.026a13.427 13.427 0 01-2.703 3.34c-1.326 1.223-2.8 2.096-4.42 2.615-1.621.521-3.686.78-6.196.78h-5.688l-1.576 7.994h-6.64l5.925-30.069h12.77"/></symbol><symbol id="python" viewBox="0.5 0.5 2000 2000" preserveAspectRatio="xMinYMin meet"><path fill="#366D9C" d="M988.188 23.5c-488.405 0-457.918 211.812-457.918 211.812l.548 219.436h466.091v65.877H345.694S33.143 485.186 33.143 978.006c0 492.809 272.795 475.32 272.795 475.32h162.818V1224.65s-8.779-272.785 268.44-272.785h462.254s259.721 4.197 259.721-251.01v-421.98S1498.613 23.5 988.188 23.5zm-256.98 147.561c46.371 0 83.836 37.475 83.836 83.846s-37.484 83.836-83.836 83.836c-46.391 0-83.875-37.465-83.875-83.836 0-46.362 37.503-83.846 83.875-83.846z"/><path fill="#FFDE4F" d="M1002.065 1937.443c488.425 0 457.929-211.812 457.929-211.812l-.539-219.426h-466.08v-65.887h651.213s312.531 35.41 312.531-457.391c0-492.799-272.767-475.338-272.767-475.338h-162.837v228.684s8.808 272.797-268.411 272.797H790.801s-259.72-4.199-259.72 251v421.988s-39.442 255.385 470.984 255.385zm257.009-147.588c-46.381 0-83.855-37.467-83.855-83.838s37.475-83.855 83.855-83.855c46.371 0 83.856 37.484 83.856 83.855s-37.485 83.838-83.856 83.838z"/></symbol><symbol id="react" viewBox="0 0 841.9 595.3" preserveAspectRatio="xMinYMin meet"><g fill="#61DAFB"><path d="M666.3 296.5c0-32.5-40.7-63.3-103.1-82.4 14.4-63.6 8-114.2-20.2-130.4-6.5-3.8-14.1-5.6-22.4-5.6v22.3c4.6 0 8.3.9 11.4 2.6 13.6 7.8 19.5 37.5 14.9 75.7-1.1 9.4-2.9 19.3-5.1 29.4-19.6-4.8-41-8.5-63.5-10.9-13.5-18.5-27.5-35.3-41.6-50 32.6-30.3 63.2-46.9 84-46.9V78c-27.5 0-63.5 19.6-99.9 53.6-36.4-33.8-72.4-53.2-99.9-53.2v22.3c20.7 0 51.4 16.5 84 46.6-14 14.7-28 31.4-41.3 49.9-22.6 2.4-44 6.1-63.6 11-2.3-10-4-19.7-5.2-29-4.7-38.2 1.1-67.9 14.6-75.8 3-1.8 6.9-2.6 11.5-2.6V78.5c-8.4 0-16 1.8-22.6 5.6-28.1 16.2-34.4 66.7-19.9 130.1-62.2 19.2-102.7 49.9-102.7 82.3 0 32.5 40.7 63.3 103.1 82.4-14.4 63.6-8 114.2 20.2 130.4 6.5 3.8 14.1 5.6 22.5 5.6 27.5 0 63.5-19.6 99.9-53.6 36.4 33.8 72.4 53.2 99.9 53.2 8.4 0 16-1.8 22.6-5.6 28.1-16.2 34.4-66.7 19.9-130.1 62-19.1 102.5-49.9 102.5-82.3zm-130.2-66.7c-3.7 12.9-8.3 26.2-13.5 39.5-4.1-8-8.4-16-13.1-24-4.6-8-9.5-15.8-14.4-23.4 14.2 2.1 27.9 4.7 41 7.9zm-45.8 106.5c-7.8 13.5-15.8 26.3-24.1 38.2-14.9 1.3-30 2-45.2 2-15.1 0-30.2-.7-45-1.9-8.3-11.9-16.4-24.6-24.2-38-7.6-13.1-14.5-26.4-20.8-39.8 6.2-13.4 13.2-26.8 20.7-39.9 7.8-13.5 15.8-26.3 24.1-38.2 14.9-1.3 30-2 45.2-2 15.1 0 30.2.7 45 1.9 8.3 11.9 16.4 24.6 24.2 38 7.6 13.1 14.5 26.4 20.8 39.8-6.3 13.4-13.2 26.8-20.7 39.9zm32.3-13c5.4 13.4 10 26.8 13.8 39.8-13.1 3.2-26.9 5.9-41.2 8 4.9-7.7 9.8-15.6 14.4-23.7 4.6-8 8.9-16.1 13-24.1zM421.2 430c-9.3-9.6-18.6-20.3-27.8-32 9 .4 18.2.7 27.5.7 9.4 0 18.7-.2 27.8-.7-9 11.7-18.3 22.4-27.5 32zm-74.4-58.9c-14.2-2.1-27.9-4.7-41-7.9 3.7-12.9 8.3-26.2 13.5-39.5 4.1 8 8.4 16 13.1 24 4.7 8 9.5 15.8 14.4 23.4zM420.7 163c9.3 9.6 18.6 20.3 27.8 32-9-.4-18.2-.7-27.5-.7-9.4 0-18.7.2-27.8.7 9-11.7 18.3-22.4 27.5-32zm-74 58.9c-4.9 7.7-9.8 15.6-14.4 23.7-4.6 8-8.9 16-13 24-5.4-13.4-10-26.8-13.8-39.8 13.1-3.1 26.9-5.8 41.2-7.9zm-90.5 125.2c-35.4-15.1-58.3-34.9-58.3-50.6 0-15.7 22.9-35.6 58.3-50.6 8.6-3.7 18-7 27.7-10.1 5.7 19.6 13.2 40 22.5 60.9-9.2 20.8-16.6 41.1-22.2 60.6-9.9-3.1-19.3-6.5-28-10.2zM310 490c-13.6-7.8-19.5-37.5-14.9-75.7 1.1-9.4 2.9-19.3 5.1-29.4 19.6 4.8 41 8.5 63.5 10.9 13.5 18.5 27.5 35.3 41.6 50-32.6 30.3-63.2 46.9-84 46.9-4.5-.1-8.3-1-11.3-2.7zm237.2-76.2c4.7 38.2-1.1 67.9-14.6 75.8-3 1.8-6.9 2.6-11.5 2.6-20.7 0-51.4-16.5-84-46.6 14-14.7 28-31.4 41.3-49.9 22.6-2.4 44-6.1 63.6-11 2.3 10.1 4.1 19.8 5.2 29.1zm38.5-66.7c-8.6 3.7-18 7-27.7 10.1-5.7-19.6-13.2-40-22.5-60.9 9.2-20.8 16.6-41.1 22.2-60.6 9.9 3.1 19.3 6.5 28.1 10.2 35.4 15.1 58.3 34.9 58.3 50.6-.1 15.7-23 35.6-58.4 50.6zM320.8 78.4z"/><circle cx="420.9" cy="296.5" r="45.7"/><path d="M520.5 78.1z"/></g></symbol><symbol id="return" preserveAspectRatio="xMinYMin meet"><path fill="none" stroke="#FFF" stroke-width="9.013" stroke-linecap="round" stroke-linejoin="round" stroke-miterlimit="10" d="M150.916 15.569c26.459 0 47.97 22.271 47.97 48.729s-21.39 48.729-47.847 48.729H12.773"/><path fill="none" stroke="#FFF" stroke-width="9.013" stroke-linecap="round" stroke-linejoin="round" stroke-miterlimit="10" d="M61.001 63.782l-49.887 48.179 49.887 44.47"/></symbol><symbol id="ruby" viewBox="0 -66 411 342" preserveAspectRatio="xMinYMin meet"><g fill="#C00"><path d="M352.6 129.5v18.1h32.7c6.7 0 18.2-4.899 18.601-18.6v-7c0-11.7-9.601-18.6-18.601-18.6H369V95h32.3V76.8h-31c-8 0-18.7 6.601-18.7 18.9v6.3c0 12.3 10.601 18.6 18.7 18.6 22.5.101-5.399 0 15.4 0v8.801M177.4 125.1s17.5-1.5 17.5-24.1-21.2-24.7-21.2-24.7h-38.2v71.3h19.2v-17.2l16.6 17.199h28.4L177.4 125.1zm-7.4-14.6h-15.3V94.2h15.4s4.3 1.6 4.3 8.1-4.4 8.2-4.4 8.2zm72.3-33.7h-19.5c-13.9 0-18.6 12.6-18.6 18.6v52.2h19.5v-12.5H242v12.5h18.9V95.4c0-15.2-13.8-18.6-18.6-18.6zm-.3 38.1h-18.4V97.6s0-3.899 6.101-3.899h6.7c5.399 0 5.5 3.899 5.5 3.899v17.3H242zM269.8 76.8h20.3v70.8h-20.3zM318.6 129.3V76.8h-20.2v70.8h47.5v-18.3z"/><path d="M15 147.6h79s-15.1-68.899 34.9-96.8c10.9-5.3 45.6-25.1 102.4 16.9 1.8-1.5 3.5-2.7 3.5-2.7s-52-51.9-109.9-46.1C95.8 21.5 60 48 39 83s-24 64.6-24 64.6z"/><path d="M15 147.6h79s-15.1-68.899 34.9-96.8c10.9-5.3 45.6-25.1 102.4 16.9 1.8-1.5 3.5-2.7 3.5-2.7s-52-51.9-109.9-46.1C95.8 21.5 60 48 39 83s-24 64.6-24 64.6z"/><path d="M15 147.6h79s-15.1-68.899 34.9-96.8c10.9-5.3 45.6-25.1 102.4 16.9 1.8-1.5 3.5-2.7 3.5-2.7s-52-51.9-109.9-46.1c-29.2 2.6-65 29.1-86 64.1S15 147.6 15 147.6zM179.6 24.5l.4-6.7c-.9-.5-3.4-1.7-9.7-3.5l-.4 6.6c3.3 1.1 6.5 2.3 9.7 3.6z"/><path d="M170.1 45.7l-.4 6.3c3.3.1 6.6.5 9.9 1.2l.4-6.2c-3.4-.7-6.7-1.1-9.9-1.3zm-37-31.2h1l-2-6.1c-3.1 0-6.3.2-9.6.6l1.9 5.9c2.9-.3 5.8-.4 8.7-.4zm4.8 36.8l2.3 6.9c2.9-1.4 5.8-2.6 8.7-3.5l-2.2-6.6c-3.4 1-6.3 2.1-8.8 3.2zM92.5 25L88 18.1c-2.5 1.3-5.1 2.7-7.8 4.3l4.6 7c2.6-1.6 5.1-3.1 7.7-4.4zM113 70l4.8 7.2c1.7-2.5 3.7-4.8 5.9-7.1l-4.5-6.8c-2.3 2.1-4.4 4.4-6.2 6.7zm-14.5 32.2l8.1 6.399c.4-3.899 1.1-7.8 2.1-11.699l-7.2-5.7c-1.3 3.7-2.2 7.4-3 11zM54.7 54.7l-7.1-6.2c-2.6 2.5-5.1 5-7.4 7.5l7.7 6.6c2.1-2.7 4.4-5.4 6.8-7.9zM24.5 99.4L13 95.2c-1.9 4.3-4 9.3-5 12l11.5 4.2c1.3-3.4 3.4-8.3 5-12zM97 127.6c.2 5.301.7 9.601 1.2 12.601l12 4.3c-.9-3.9-1.8-8.3-2.4-13L97 127.6z"/></g></symbol><symbol id="sass" preserveAspectRatio="xMinYMin meet"><path d="M55.094 35.56a13.19 13.19 0 00-5.8 1.35c-.6-1.188-1.2-2.225-1.3-3-.113-.9-.25-1.45-.113-2.525s.763-2.6.763-2.725c-.012-.113-.138-.663-1.425-.675s-2.4.25-2.525.588a14.36 14.36 0 00-.538 1.913c-.225 1.175-2.575 5.338-3.913 7.526-.438-.85-.813-1.6-.888-2.2-.113-.9-.25-1.45-.113-2.525s.763-2.6.763-2.725c-.012-.113-.138-.663-1.425-.675s-2.4.25-2.525.588-.263 1.138-.538 1.913c-.263.775-3.388 7.726-4.2 9.538-.413.925-.775 1.663-1.038 2.163s-.012.038-.037.088l-.35.663v.012c-.175.313-.363.613-.45.613-.062 0-.188-.838.025-1.988.463-2.413 1.588-6.176 1.575-6.313 0-.062.213-.725-.725-1.063-.913-.338-1.238.225-1.313.225s-.138.2-.138.2 1.013-4.238-1.938-4.238c-1.85 0-4.4 2.013-5.663 3.85l-6.376 3.488-.138-.15C11.178 35.66 4.565 32.96 4.84 27.835c.1-1.863.75-6.776 12.7-12.726 9.788-4.875 17.627-3.538 18.99-.563 1.938 4.25-4.188 12.15-14.364 13.29-3.875.438-5.913-1.063-6.426-1.625-.538-.588-.613-.613-.813-.5-.325.175-.125.7 0 1.013.3.788 1.55 2.188 3.675 2.888 1.863.613 6.413.95 11.914-1.175 6.163-2.388 10.976-9.013 9.563-14.55-1.438-5.638-10.788-7.488-19.627-4.35C15.19 11.41 9.5 14.334 5.4 18.172.515 22.722-.26 26.698.064 28.348c1.138 5.888 9.25 9.726 12.5 12.564l-.45.25c-1.625.8-7.813 4.038-9.363 7.463-1.75 3.875.275 6.663 1.625 7.038 4.175 1.163 8.45-.925 10.763-4.363 2.3-3.438 2.025-7.9.963-9.938l-.038-.075 1.275-.75a74.573 74.573 0 012.35-1.325c-.4 1.088-.688 2.375-.838 4.25-.175 2.2.725 5.05 1.913 6.176.525.488 1.15.5 1.538.5 1.375 0 2-1.138 2.688-2.5.85-1.663 1.6-3.588 1.6-3.588s-.938 5.213 1.625 5.213c.938 0 1.875-1.213 2.3-1.838v.012s.025-.038.075-.125c.1-.15.15-.238.15-.238v-.025c.375-.65 1.213-2.138 2.463-4.6 1.613-3.175 3.163-7.15 3.163-7.15s.15.975.613 2.575c.275.95.875 1.988 1.338 3l-.6.825.012.013a35.62 35.62 0 01-.988 1.25c-1.275 1.525-2.8 3.263-3 3.763-.238.588-.188 1.025.275 1.375.338.25.938.3 1.575.25 1.15-.075 1.95-.363 2.35-.538a8.14 8.14 0 002.025-1.063c1.25-.925 2.013-2.238 1.938-3.988-.038-.963-.35-1.913-.738-2.813l.338-.5c1.975-2.888 3.5-6.063 3.5-6.063s.15.975.613 2.575c.238.813.713 1.7 1.138 2.575-1.85 1.513-3.013 3.263-3.413 4.413-.738 2.125-.163 3.088.925 3.313.488.1 1.188-.125 1.713-.35a7.76 7.76 0 002.163-1.113c1.25-.925 2.45-2.213 2.388-3.95-.038-.8-.25-1.588-.538-2.338 1.575-.65 3.613-1.025 6.2-.713 5.563.65 6.663 4.125 6.45 5.575s-1.375 2.25-1.763 2.5c-.388.238-.513.325-.475.5.05.263.225.25.563.2.463-.075 2.925-1.188 3.025-3.863.15-3.438-3.113-7.188-8.9-7.15zM12.19 50.025c-1.838 2.013-4.425 2.775-5.525 2.125-1.188-.688-.725-3.65 1.538-5.788 1.375-1.3 3.163-2.5 4.338-3.238l1.138-.688c.075-.05.125-.075.125-.075.088-.05.188-.113.288-.175.838 3.05.038 5.725-1.9 7.838zm13.44-9.138c-.638 1.563-1.988 5.575-2.8 5.35-.7-.188-1.125-3.225-.138-6.226.5-1.513 1.563-3.313 2.188-4.013 1.013-1.125 2.113-1.5 2.388-1.038.325.6-1.238 4.95-1.638 5.926zm11.088 5.3c-.275.138-.525.238-.638.163-.088-.05.113-.238.113-.238s1.388-1.488 1.938-2.175l1.088-1.388v.15c0 1.8-1.725 3-2.5 3.488zm8.55-1.95c-.2-.15-.175-.613.5-2.063.263-.575.863-1.538 1.9-2.45.125.375.2.738.188 1.075-.013 2.25-1.613 3.088-2.588 3.438z" fill="#cf649a"/></symbol><symbol id="sketch" viewBox="0 0 5.12 5.12" preserveAspectRatio="xMinYMin meet"><g fill-rule="evenodd"><path d="M1.117.416L2.56.264l1.443.152L5.12 1.902 2.56 4.855 0 1.902z" fill="#fdb300"/><g fill="#ea6c00"><path d="M1.037 1.92L2.56 4.855 0 1.919zM4.083 1.92L2.56 4.855l2.56-2.937z"/></g><path d="M1.014 1.92h3.04l-1.52 2.936z" fill="#fdad00"/><g fill="#fdd231"><path d="M2.508.264L1.092.417 1.014 1.92zM2.558.264l1.416.153.079 1.502z"/></g><g fill="#fdad00"><path d="M5.12 1.92L4 .424l.08 1.494zM0 1.92L1.12.424l-.08 1.494z"/></g><path d="M2.534.264L1.014 1.92h3.04z" fill="#feeeb7"/></g></symbol><symbol id="three" viewBox="0.5 400.5 200 200"><path fill="none" stroke="#000" stroke-width="2.878" stroke-linecap="round" stroke-linejoin="round" stroke-miterlimit="10" d="M20 416.7l41.43 166.79L185.7 464.63z"/><path fill="none" stroke="#000" stroke-width="2.878" stroke-linecap="round" stroke-linejoin="round" stroke-miterlimit="10" d="M123.35 524.26l-19.39-83.27-63.25 59.11z"/><path fill="none" stroke="#000" stroke-width="2.878" stroke-linecap="round" stroke-linejoin="round" stroke-miterlimit="10" d="M154.4 494.57l-9.93-41.87-93.3 89.49 41.26 11.65-30.89-125.12-31.15 29.82z"/></symbol><symbol id="vue" viewBox="0 0 261.76 226.69" preserveAspectRatio="xMinYMin meet"><path d="M161.096.001l-30.224 52.35L100.647.002H-.005L130.872 226.69 261.749 0z" fill="#41b883"/><path d="M161.096.001l-30.224 52.35L100.647.002H52.346l78.526 136.01L209.398.001z" fill="#34495e"/></symbol><symbol id="webpack" viewBox="0.5 400.5 200 200" preserveAspectRatio="xMinYMin meet"><path d="M161.71 540.17l-58.63 33.17v-25.83l36.54-20.1 22.09 12.76zm4.02-3.64v-69.35l-21.45 12.4v44.58l21.45 12.37zm-126.44 3.64l58.63 33.17v-25.83l-36.55-20.1-22.08 12.76zm-4.02-3.64v-69.35l21.45 12.4v44.58l-21.45 12.37zm2.52-73.85l60.13-34.01v24.96l-38.53 21.2-.31.17-21.29-12.32zm125.42 0l-60.13-34.01v24.96l38.53 21.18.31.18 21.29-12.31z" fill="#8ed6fb"/><path d="M97.93 542.76l-36.06-19.83v-39.27l36.06 20.82v38.28zm5.14 0l36.05-19.82v-39.28l-36.05 20.82v38.28zm-38.76-63.63l36.19-19.89 36.19 19.89-36.19 20.89-36.19-20.89z" fill="#1c78c0"/></symbol><symbol id="wordpress" viewBox="0 0 32 32" preserveAspectRatio="xMinYMin meet"><path d="M2.26 16c0 5.45 3.13 10.145 7.7 12.348L3.478 10.435C2.725 12.174 2.26 14.03 2.26 16zm23.015-.696c0-1.68-.638-2.9-1.16-3.768-.696-1.16-1.333-2.087-1.333-3.246 0-1.275.986-2.435 2.32-2.435h.174C22.84 3.594 19.594 2.26 16 2.26A13.95 13.95 0 004.522 8.463h.87c1.45 0 3.652-.174 3.652-.174.754-.058.812 1.043.116 1.16 0 0-.754.116-1.565.116l4.986 14.84 3.014-8.986-2.145-5.855L12 9.45c-.754-.058-.638-1.16.058-1.16 0 0 2.26.174 3.594.174 1.45 0 3.652-.174 3.652-.174.754-.058.812 1.043.116 1.16 0 0-.754.116-1.565.116L22.84 24.35l1.4-4.58c.58-1.913 1.043-3.246 1.043-4.464zm-9.043 1.913L12.116 29.16c1.217.348 2.55.58 3.884.58 1.623 0 3.13-.3 4.58-.754-.058-.058-.058-.116-.116-.174zM28.058 9.45l.116 1.4c0 1.4-.232 2.957-1.043 4.928l-4.174 12.116c4.058-2.377 6.84-6.783 6.84-11.884-.058-2.377-.696-4.58-1.74-6.55zM16 0C7.188 0 0 7.188 0 16s7.188 16 16 16 16-7.188 16-16S24.812 0 16 0zm0 31.304C7.594 31.304.754 24.464.754 16A15.27 15.27 0 0116 .754 15.27 15.27 0 0131.246 16c0 8.464-6.84 15.304-15.246 15.304z"/></symbol></svg>