<svg xmlns="http://www.w3.org/2000/svg" xmlns:xlink="http://www.w3.org/1999/xlink"><defs><linearGradient x1="262.624" y1="547.206" x2="375.377" y2="432.484" id="bootstrap-a" gradientUnits="userSpaceOnUse"><stop offset="0" stop-color="#070135"/><stop offset="1" stop-color="#612d50"/></linearGradient></defs><symbol id="after-effects" viewBox="0 0 200 200" preserveAspectRatio="xMinYMin meet"><path fill="#99F" d="M164.584 195H35.417C15.833 195 0 179.166 0 159.584V35.417C0 15.833 15.833 0 35.417 0h129.167C184.166 0 200 15.833 200 35.417v124.167C200 179.166 184.166 195 164.584 195z"/><path fill="#1E013F" d="M161.416 186.666H38.583c-16.667 0-30.25-13.582-30.25-30.332V38.667c0-16.75 13.583-30.333 30.25-30.333h122.75c16.75 0 30.25 13.583 30.25 30.25v117.75c.083 16.75-13.499 30.332-30.167 30.332z"/><path fill="#99F" d="M84.26 115.24H55.23l-5.93 18.417c-.155.702-.78 1.171-1.482 1.092H33.146c-.857 0-1.092-.468-.857-1.404L57.416 61.32c.233-.781.468-1.483.779-2.419.312-1.639.469-3.355.469-5.072-.078-.391.234-.781.624-.859H79.499c.546 0 .937.234 1.015.625l28.482 79.985c.234.857 0 1.249-.781 1.249H91.906c-.546.077-1.092-.312-1.248-.859l-6.398-18.73zM59.756 99.713h19.822a112.062 112.062 0 00-1.796-5.619 236.262 236.262 0 01-2.106-6.711c-.78-2.419-1.482-4.76-2.264-7.179-.78-2.419-1.482-4.682-2.106-6.945-.624-2.185-1.171-4.214-1.717-6.086h-.156c-.702 3.355-1.561 6.71-2.653 10.066-1.17 3.746-2.341 7.647-3.589 11.549-1.015 3.979-2.264 7.647-3.435 10.925zm95.514 8.349h-24.735c.312 2.42 1.092 4.838 2.419 6.944 1.405 2.107 3.354 3.746 5.695 4.683 3.122 1.327 6.555 2.029 9.99 1.951 2.73-.079 5.461-.312 8.114-.857a29.227 29.227 0 006.944-1.797c.392-.311.626-.155.626.626v11.939c0 .311-.079.623-.157.937-.155.233-.311.39-.545.545a33.315 33.315 0 01-7.805 2.341 52.734 52.734 0 01-11.081.937c-5.93 0-10.924-.937-14.982-2.73-3.822-1.639-7.179-4.214-9.832-7.413a28.663 28.663 0 01-5.385-10.224 39.839 39.839 0 01-1.639-11.393c0-4.214.625-8.349 1.951-12.407a31.84 31.84 0 015.853-10.69c2.575-3.122 5.774-5.619 9.443-7.414 3.667-1.795 8.036-2.419 13.03-2.419 4.136-.078 8.272.703 12.095 2.419 3.201 1.404 6.011 3.511 8.194 6.243 2.03 2.653 3.669 5.618 4.682 8.896 1.016 3.121 1.483 6.321 1.483 9.52 0 1.873-.079 3.512-.155 4.995-.157 1.481-.234 2.575-.312 3.277-.079.545-.547 1.014-1.093 1.014-.468 0-1.327.078-2.574.157-1.25.155-2.732.233-4.527.233-1.794-.001-3.667-.313-5.697-.313zm-24.736-11.393H147c2.027 0 3.511 0 4.447-.079.624-.078 1.248-.234 1.795-.624v-.78a8.937 8.937 0 00-.469-2.888c-1.404-4.37-5.54-7.335-10.145-7.179a10.987 10.987 0 00-10.378 5.931c-.936 1.795-1.482 3.668-1.716 5.619z"/></symbol><symbol id="android-studio"><path fill="#7CB342" d="M1000 40.412c-474.219 0-859.375 385.156-859.375 859.375h1718.75c.781-475-384.375-859.375-859.375-859.375z"/><path fill="#8BC34A" d="M1000 899.786H140.625c0 474.219 385.156 859.375 859.375 859.375s859.375-385.156 859.375-859.375H1000z"/><linearGradient id="android-studio-a" gradientUnits="userSpaceOnUse" x1="-429.894" y1="1736.936" x2="48.482" y2="2215.313" gradientTransform="translate(1413.326 -2722.763) scale(1.9992)"><stop offset=".33" stop-color="#263238" stop-opacity=".16"/><stop offset="1" stop-color="#263238" stop-opacity="0"/></linearGradient><path fill="url(#android-studio-a)" d="M1619.531 901.349v-1.562h-39.844L1100 420.099H900.781v160.937H850c-49.219 0-89.844 40.625-89.844 89.844v203.906h.781c-.781 7.031 3.906 15.625 13.281 25.781.782.782.782.782.782 1.563l31.25 31.25-360.156 624.219c41.406 35.156 85.938 65.625 132.812 92.188 125 70.312 267.969 110.938 421.875 110.938 153.125 0 296.875-40.625 421.875-110.938 46.875-26.562 91.406-57.812 132.812-92.188 126.562-107.031 221.094-249.219 269.531-412.5 3.125-10.156 5.469-20.312 8.594-29.688l-214.062-214.062z"/><path fill="#646464" d="M1689.062 1799.786c-.781-7.812-3.125-14.844-7.031-21.875l-250-433.594c115.625-112.5 188.281-270.312 188.281-444.531h-160.156c0 114.062-42.188 218.75-111.719 300L1193.75 932.599l31.25-31.25c10.156-10.156 14.062-19.531 14.062-26.562h.781V670.88c0-49.219-40.625-89.844-89.844-89.844h-50V420.099H900.78v160.937H850c-49.219 0-89.844 40.625-89.844 89.844v203.906h.781c-.781 7.812 3.906 16.406 14.062 26.562l31.25 31.25-488.28 844.532c-3.906 7.031-6.25 14.062-7.031 21.875L300 1944.317c-.781 5.469 2.344 10.156 7.031 13.281 4.688 3.125 10.156 2.344 14.844-.781l120.312-81.25c6.25-4.688 11.719-10.156 15.625-16.406l241.406-417.969c89.062 50 192.188 78.906 301.562 78.906s212.5-28.906 301.562-78.906l241.406 417.188c3.906 7.031 9.375 12.5 15.625 16.406l120.312 82.031c4.688 3.125 10.156 3.125 14.844.782 4.688-3.125 7.031-7.812 7.031-13.281l-12.498-144.532zM1000 659.942v-1.562l.781 1.562c65.625.781 119.531 53.906 119.531 120.312s-53.906 119.531-119.531 120.312H1000c-65.625 0-119.531-53.906-119.531-120.312 0-67.187 53.125-120.312 119.531-120.312zm0 699.219c-80.469 0-156.25-21.094-221.094-57.031l145.312-251.562 30.469 30.469c12.5 12.5 28.906 18.75 44.531 18.75v-.781l.781.781c16.406 0 32.812-6.25 44.531-18.75l30.469-30.469 145.312 252.344c-64.061 35.937-139.842 56.249-220.311 56.249z"/><path fill="#E1E1E1" d="M1689.062 1799.786c-.781-7.812-3.125-14.844-7.031-21.875l-250-433.594-82.812-144.531-154.688-267.188-117.969 117.969 145.312 252.344 79.688 138.281 241.406 417.188c3.906 7.031 9.375 12.5 15.625 16.406l120.312 82.031c4.688 3.125 10.156 3.125 14.844.781 4.688-3.125 7.031-7.812 7.031-13.281l-11.718-144.531z"/><path fill="#F1F1F1" d="M1460.156 899.786c0 114.062-42.188 218.75-111.719 300-35.938 41.406-78.125 76.562-126.562 103.125-65.625 36.719-141.406 57.031-221.875 57.031s-156.25-21.094-221.094-57.031l145.312-252.344L806.25 932.599l-488.281 845.312c-3.906 7.031-6.25 14.062-7.031 21.875L300 1945.099c-.781 5.469 2.344 10.156 7.031 13.281 4.688 3.125 10.156 2.344 14.844-.781l120.312-81.25c6.249-4.688 11.719-10.156 15.625-16.406l241.405-417.969c89.062 50 192.188 78.906 301.563 78.906s212.5-28.906 301.562-78.906c47.656-26.562 91.406-59.375 129.688-96.875 115.625-112.5 188.281-270.312 188.281-444.531l-160.155-.782z"/><path fill="#262626" fill-opacity=".2" d="M1432.031 1333.38c-39.062 37.5-82.031 70.312-129.688 96.875-89.062 50-192.188 78.906-301.562 78.906s-212.501-28.906-301.563-78.906l-241.405 417.969c-3.906 7.031-9.376 12.5-15.625 16.406l-120.312 81.25c-4.688 3.125-10.156 3.125-14.844.781-3.906-2.344-5.469-6.25-6.25-10.156l-.781 7.031c-.781 5.469 2.344 10.156 7.031 13.281 4.688 2.344 10.156 2.344 14.844-.781l120.312-81.25c6.249-4.688 11.719-10.156 15.625-16.406l241.405-417.969c89.062 50 192.188 78.906 301.563 78.906s212.5-28.906 301.562-78.906c47.656-26.562 91.406-59.375 129.688-96.875 115.625-112.5 188.281-270.312 188.281-444.531h-.781c-2.343 170.312-74.219 324.219-187.5 434.375z"/><path fill="#646464" d="M1150 580.255h-50V419.318H900.781v160.937H850c-49.219 0-89.844 40.625-89.844 89.844v203.906h.781c-.781 7.812 3.906 16.406 14.062 26.562l180.469 180.469c12.5 12.5 28.906 18.75 44.531 18.75v-.781l.781.781c16.406 0 32.812-6.25 44.531-18.75l180.469-180.469c10.156-10.156 14.062-19.531 14.062-26.562h.781V670.88c-.779-50-40.623-90.625-90.623-90.625zm-149.219 319.531h-.782c-65.624 0-119.53-53.906-119.53-120.312s53.906-120.312 119.53-120.312V657.6l.782 1.562c65.624.781 119.53 53.906 119.53 120.312s-53.905 119.531-119.53 120.312z"/><path fill="none" d="M1000 899.786h.781c65.625-.781 119.531-53.906 119.531-120.312s-53.906-119.531-119.531-120.312L1000 657.6v1.562c-65.625 0-119.531 53.906-119.531 120.312S933.594 899.786 1000 899.786z"/></symbol><symbol id="aws" viewBox="0 0 304 182" preserveAspectRatio="xMidYMid meet"><style>.st1{fill-rule:evenodd;clip-rule:evenodd;fill:#f90}</style><path d="M86.4 66.4c0 3.7.4 6.7 1.1 8.9.8 2.2 1.8 4.6 3.2 7.2.5.8.7 1.6.7 2.3 0 1-.6 2-1.9 3L83.2 92c-.9.6-1.8.9-2.6.9-1 0-2-.5-3-1.4-1.4-1.5-2.6-3.1-3.6-4.7-1-1.7-2-3.6-3.1-5.9-7.8 9.2-17.6 13.8-29.4 13.8-8.4 0-15.1-2.4-20-7.2-4.9-4.8-7.4-11.2-7.4-19.2 0-8.5 3-15.4 9.1-20.6 6.1-5.2 14.2-7.8 24.5-7.8 3.4 0 6.9.3 10.6.8 3.7.5 7.5 1.3 11.5 2.2v-7.3c0-7.6-1.6-12.9-4.7-16-3.2-3.1-8.6-4.6-16.3-4.6-3.5 0-7.1.4-10.8 1.3-3.7.9-7.3 2-10.8 3.4-1.6.7-2.8 1.1-3.5 1.3-.7.2-1.2.3-1.6.3-1.4 0-2.1-1-2.1-3.1v-4.9c0-1.6.2-2.8.7-3.5.5-.7 1.4-1.4 2.8-2.1 3.5-1.8 7.7-3.3 12.6-4.5C41 1.9 46.2 1.3 51.7 1.3c11.9 0 20.6 2.7 26.2 8.1 5.5 5.4 8.3 13.6 8.3 24.6v32.4zM45.8 81.6c3.3 0 6.7-.6 10.3-1.8 3.6-1.2 6.8-3.4 9.5-6.4 1.6-1.9 2.8-4 3.4-6.4.6-2.4 1-5.3 1-8.7v-4.2c-2.9-.7-6-1.3-9.2-1.7-3.2-.4-6.3-.6-9.4-.6-6.7 0-11.6 1.3-14.9 4-3.3 2.7-4.9 6.5-4.9 11.5 0 4.7 1.2 8.2 3.7 10.6 2.4 2.5 5.9 3.7 10.5 3.7zm80.3 10.8c-1.8 0-3-.3-3.8-1-.8-.6-1.5-2-2.1-3.9L96.7 10.2c-.6-2-.9-3.3-.9-4 0-1.6.8-2.5 2.4-2.5h9.8c1.9 0 3.2.3 3.9 1 .8.6 1.4 2 2 3.9l16.8 66.2 15.6-66.2c.5-2 1.1-3.3 1.9-3.9.8-.6 2.2-1 4-1h8c1.9 0 3.2.3 4 1 .8.6 1.5 2 1.9 3.9l15.8 67 17.3-67c.6-2 1.3-3.3 2-3.9.8-.6 2.1-1 3.9-1h9.3c1.6 0 2.5.8 2.5 2.5 0 .5-.1 1-.2 1.6-.1.6-.3 1.4-.7 2.5l-24.1 77.3c-.6 2-1.3 3.3-2.1 3.9-.8.6-2.1 1-3.8 1h-8.6c-1.9 0-3.2-.3-4-1-.8-.7-1.5-2-1.9-4L156 23l-15.4 64.4c-.5 2-1.1 3.3-1.9 4-.8.7-2.2 1-4 1h-8.6zm128.5 2.7c-5.2 0-10.4-.6-15.4-1.8-5-1.2-8.9-2.5-11.5-4-1.6-.9-2.7-1.9-3.1-2.8-.4-.9-.6-1.9-.6-2.8v-5.1c0-2.1.8-3.1 2.3-3.1.6 0 1.2.1 1.8.3.6.2 1.5.6 2.5 1 3.4 1.5 7.1 2.7 11 3.5 4 .8 7.9 1.2 11.9 1.2 6.3 0 11.2-1.1 14.6-3.3 3.4-2.2 5.2-5.4 5.2-9.5 0-2.8-.9-5.1-2.7-7-1.8-1.9-5.2-3.6-10.1-5.2L246 52c-7.3-2.3-12.7-5.7-16-10.2-3.3-4.4-5-9.3-5-14.5 0-4.2.9-7.9 2.7-11.1 1.8-3.2 4.2-6 7.2-8.2 3-2.3 6.4-4 10.4-5.2 4-1.2 8.2-1.7 12.6-1.7 2.2 0 4.5.1 6.7.4 2.3.3 4.4.7 6.5 1.1 2 .5 3.9 1 5.7 1.6 1.8.6 3.2 1.2 4.2 1.8 1.4.8 2.4 1.6 3 2.5.6.8.9 1.9.9 3.3v4.7c0 2.1-.8 3.2-2.3 3.2-.8 0-2.1-.4-3.8-1.2-5.7-2.6-12.1-3.9-19.2-3.9-5.7 0-10.2.9-13.3 2.8-3.1 1.9-4.7 4.8-4.7 8.9 0 2.8 1 5.2 3 7.1 2 1.9 5.7 3.8 11 5.5l14.2 4.5c7.2 2.3 12.4 5.5 15.5 9.6 3.1 4.1 4.6 8.8 4.6 14 0 4.3-.9 8.2-2.6 11.6-1.8 3.4-4.2 6.4-7.3 8.8-3.1 2.5-6.8 4.3-11.1 5.6-4.5 1.4-9.2 2.1-14.3 2.1z" fill="#252f3e"/><path class="st1" d="M273.5 143.7c-32.9 24.3-80.7 37.2-121.8 37.2-57.6 0-109.5-21.3-148.7-56.7-3.1-2.8-.3-6.6 3.4-4.4 42.4 24.6 94.7 39.5 148.8 39.5 36.5 0 76.6-7.6 113.5-23.2 5.5-2.5 10.2 3.6 4.8 7.6z"/><path class="st1" d="M287.2 128.1c-4.2-5.4-27.8-2.6-38.5-1.3-3.2.4-3.7-2.4-.8-4.5 18.8-13.2 49.7-9.4 53.3-5 3.6 4.5-1 35.4-18.6 50.2-2.7 2.3-5.3 1.1-4.1-1.9 4-9.9 12.9-32.2 8.7-37.5z"/></symbol><symbol id="bash" viewBox="0 0 32 32" preserveAspectRatio="xMinYMin meet"><path d="M28.057 6.53L17.952.532a3.8 3.8 0 00-3.88 0L3.965 6.53A4.03 4.03 0 002 10.002v11.996a4.03 4.03 0 001.948 3.472l10.105 5.998a3.8 3.8 0 003.88 0L28.04 25.47a4.03 4.03 0 001.948-3.472V10.002a4.03 4.03 0 00-1.93-3.472zM20.23 25.262v.86a.318.318 0 01-.148.265l-.512.293c-.08.042-.148 0-.148-.113v-.847a1.66 1.66 0 01-1.164.113c-.062-.042-.086-.122-.056-.2l.183-.78a.322.322 0 01.102-.17.18.18 0 01.05-.035.11.11 0 01.08 0 1.41 1.41 0 001.059-.134 1.41 1.41 0 00.79-1.21c0-.438-.24-.62-.82-.625-.734 0-1.4-.14-1.43-1.224a3.137 3.137 0 011.186-2.4v-.872a.34.34 0 01.148-.268l.494-.314c.08-.042.148 0 .148.116v.872a1.61 1.61 0 01.967-.116c.07.04.098.128.064.2l-.173.773a.325.325 0 01-.138.195c-.02.012-.05.008-.074 0a1.28 1.28 0 00-.931.152 1.17 1.17 0 00-.706 1.037c0 .395.208.515.907.53.935 0 1.337.423 1.348 1.362a3.346 3.346 0 01-1.228 2.53zm5.293-1.45a.201.201 0 01-.078.194L22.9 25.558c-.024.02-.06.023-.087.007s-.04-.05-.033-.08v-.66a.184.184 0 01.116-.162l2.516-1.507c.024-.02.06-.023.087-.007s.04.05.033.08v.582zM27.288 9.06l-9.562 5.906c-1.193.706-2.07 1.478-2.07 2.914v11.778c0 .86.353 1.4.882 1.58a3.14 3.14 0 01-.53.053 3.13 3.13 0 01-1.595-.441L4.308 24.853A3.3 3.3 0 012.706 22V10.002a3.304 3.304 0 011.602-2.858l10.105-5.998c.98-.58 2.196-.58 3.176 0l10.105 5.998c.833.504 1.4 1.35 1.552 2.3-.328-.713-1.083-.9-1.962-.395h.003z" fill="#1b1b1f" fill-rule="evenodd"/></symbol><symbol id="blender" viewBox="0 0 2000 2000" preserveAspectRatio="xMinYMin meet"><path d="M972.44 1095.91c2.68-48.28 26.36-90.85 62.02-121.05 35.04-29.65 82.17-47.73 133.57-47.76 51.4.03 98.53 18.11 133.57 47.76 35.66 30.2 59.34 72.77 62.05 121.05 2.72 49.64-17.21 95.81-52.24 129.98-35.67 34.77-86.51 56.62-143.35 56.62-56.87 0-107.73-21.85-143.45-56.62-35-34.18-54.92-80.34-52.17-129.98z" fill="#005385"/><path d="M660.89 1193.66c.32 18.84 6.4 55.58 15.42 84.33 19 60.71 51.25 116.93 96.16 166.48 46.06 50.86 102.72 91.78 168.23 120.76 68.87 30.53 143.51 46.1 220.89 45.94 77.41-.14 152-15.96 220.88-46.67 65.46-29.3 122.12-70.32 168.15-121.31 44.84-49.74 77.03-106.05 96.07-166.79 9.63-30.71 15.6-61.84 18.06-93.09 2.41-30.77 1.38-61.65-2.97-92.45-8.54-60.04-29.34-116.41-61.28-167.79-29.35-47.18-67.03-88.51-111.88-123.31l.06-.06-452.56-347.54c-.37-.33-.76-.65-1.14-.97-29.78-22.74-79.69-22.67-112.32.17-33.08 23.13-36.79 61.28-7.45 85.44l-.1.06 188.77 153.55-575.43.59h-.8c-47.54.03-93.22 31.29-102.3 70.7-9.25 40.19 23.06 73.49 72.49 73.67l-.06.2 291.64-.57-520.47 399.46c-.64.5-1.34.99-1.98 1.5-49.04 37.59-64.94 100.13-34.04 139.71 31.41 40.23 98.11 40.28 147.73.16l284.04-232.41c0-.01-4.13 31.37-3.81 50.24zm729.84 105.03c-58.5 59.69-140.4 93.47-229.1 93.62-88.74.17-170.67-33.36-229.22-92.9-28.6-29.04-49.61-62.34-62.6-97.94-12.67-34.93-17.63-71.98-14.36-109.37 3.17-36.6 13.95-71.47 31.38-103.04 17.11-31.03 40.63-59.05 69.64-82.79 56.87-46.39 129.27-71.47 205.09-71.57 75.82-.09 148.18 24.8 205.09 70.99 28.98 23.62 52.5 51.54 69.58 82.51 17.44 31.54 28.25 66.35 31.45 102.94 3.22 37.39-1.69 74.44-14.4 109.4-12.96 35.64-33.95 69.01-62.55 98.15z" fill="#ff7021"/></symbol><symbol id="bootstrap" viewBox="0 0 32 32" preserveAspectRatio="xMinYMin meet"><g transform="matrix(.24963 0 0 .24924 -63.666 -106.047)"><rect width="128.016" height="128.546" ry="20.68" x="255.239" y="425.326" fill="url(#bootstrap-a)"/><path d="M320.213 480.665c3.27 0 5.748-.7 7.437-2.133s2.533-3.52 2.533-6.293c0-2.738-.844-4.818-2.533-6.24-1.7-1.458-4.168-2.187-7.437-2.187h-11.48v16.854h11.48m.7 34.827c4.167 0 7.293-.87 9.377-2.613 2.12-1.742 3.18-4.373 3.18-7.893 0-3.45-1.042-6.027-3.126-7.733-2.084-1.742-5.227-2.613-9.43-2.613h-12.18v20.854h12.18m19.293-28.64c4.455 1.28 7.904 3.645 10.347 7.093s3.664 7.68 3.665 12.694c0 7.68-2.623 13.405-7.868 17.174s-13.22 5.653-23.927 5.653h-34.436V449.84h31.15c11.173 0 19.257 1.67 24.25 5.013 5.03 3.342 7.545 8.694 7.545 16.054 0 3.876-.916 7.182-2.748 9.92-1.832 2.702-4.5 4.7-7.976 6.027" fill="#fff"/></g></symbol><symbol id="bosch" viewBox="0 0 250 180"><path d="M38.622 102.364c0-2.87-2.117-4.854-6.56-4.854h-8.903v9.783h9.12c3.719 0 6.343-1.325 6.343-4.93zM37.02 82.948c0-2.796-1.9-4.709-4.741-4.709h-9.12v9.268h8.903c3.203 0 4.958-2.353 4.958-4.56zm14.876 20.812c0 8.387-7.727 13.903-15.536 13.903H10.907V67.867h23.336c8.976 0 15.464 4.484 15.464 13.682 0 7.87-6.85 10.224-6.85 10.224 0 .074 9.04 2.134 9.04 11.987M89.996 92.73c0-7.797-3.574-14.123-10.642-14.123-7.076 0-10.577 6.326-10.577 14.123 0 7.87 3.501 14.194 10.577 14.194 7.068 0 10.642-6.325 10.642-14.194zm12.251 0c0 14.636-8.387 26.11-22.893 26.11-14.441 0-22.902-11.474-22.902-26.11 0-14.564 8.46-26.11 22.894-26.11 14.514 0 22.901 11.546 22.901 26.11M145.016 102.584c0 10.96-9.918 16.256-19.247 16.256-10.795 0-16.341-4.12-20.712-9.341l7.945-7.798c3.357 4.267 7.736 6.4 12.622 6.4 4.009 0 6.705-1.985 6.705-4.928 0-3.162-2.382-4.148-8.903-5.517l-1.747-.367c-7.848-1.648-14.296-6.104-14.296-15.004 0-9.781 7.953-15.665 18.458-15.665 8.895 0 14.659 3.823 18.16 7.792l-7.735 7.653c-2.407-2.575-6.054-4.635-10.207-4.635-2.842 0-6.054 1.325-6.054 4.635 0 3.015 3.34 4.11 7.583 5.001l1.755.369c7.1 1.49 15.673 3.677 15.673 15.15M192.38 108.028c-5.103 7.355-9.845 10.812-19.69 10.812-13.998 0-23.046-11.621-23.046-26.405 0-14.048 8.17-25.743 23.192-25.743 8.242 0 14.151 3.236 19.182 10.812l-10.062 6.694c-2.045-3.532-4.669-5.59-9.048-5.59-5.538 0-10.867 4.954-10.867 13.827 0 9.943 5.763 14.489 11.237 14.489 4.734 0 6.923-2.354 8.968-5.737l10.134 6.84M239.093 117.663h-13.13V98.025h-15.1v19.638h-13.05V67.867h13.05v18.316h15.1V67.867h13.13v49.796" fill="#ec1b24" fill-rule="evenodd"/></symbol><symbol id="camera" viewBox="0 1800 200 200" preserveAspectRatio="xMinYMin meet"><path fill="##11517F" d="M120.758 1851.507c6.511 0 11.789 5.278 11.789 11.789v27.705l17.684-10.159 35.466-20.395v79.105l-35.485-20.415-17.684-10.159v27.705c0 6.512-5.278 11.789-11.789 11.789h-96.16c-6.511 0-11.79-5.277-11.79-11.789v-73.388c0-6.511 5.278-11.789 11.79-11.789h96.179m0-11.788h-96.18c-13.022 0-23.579 10.556-23.579 23.578v73.407c0 13.022 10.556 23.579 23.579 23.579h96.18c13.022 0 23.579-10.557 23.579-23.579v-7.328l39.514 22.713a12.294 12.294 0 006.032 1.828c4.48 0 7.584-3.576 7.584-9.727v-88.419c0-6.149-3.104-9.726-7.584-9.726a12.278 12.278 0 00-6.032 1.827l-39.514 22.753v-7.329c0-13.022-10.557-23.577-23.579-23.577z"/></symbol><symbol id="chrome" viewBox="0 0 64 64" preserveAspectRatio="xMinYMin meet"><circle fill="#397DB2" cx="32.077" cy="32.122" r="11.741"/><path fill="#E33434" d="M60.712 17.803C52.828 1.943 33.58-4.524 17.718 3.359A32.055 32.055 0 005.447 14.083l12.886 22.336c-2.375-7.542 1.818-15.581 9.361-17.955a14.358 14.358 0 014.096-.658"/><path fill="#4CB749" d="M5.447 14.081C-4.416 28.794-.485 48.709 14.229 58.58A32.067 32.067 0 0029.5 63.907l13.465-22.914c-5.032 6.1-14.056 6.972-20.155 1.932a14.3 14.3 0 01-4.47-6.514"/><path fill="#FCD209" d="M29.5 63.907c17.662 1.335 33.062-11.9 34.398-29.562a32.06 32.06 0 00-3.186-16.541H31.797c7.908.037 14.281 6.475 14.252 14.383a14.326 14.326 0 01-3.084 8.811"/></symbol><symbol id="flask" viewBox="-67.5 132.5 200 200" preserveAspectRatio="xMinYMin meet"><path d="M-3.34 296.27c-6.98-5.5-14.43-10.75-19.51-18.16-10.71-13.07-18.95-28.2-24.58-44.1-3.41-10.34-4.58-21.43-8.97-31.37-4.59-7.21.79-15.11 8.7-17.4 3.52-.67 9.71-4 2.23-1.62-6.7 4.91-7.35-4.47-.48-5.06 4.69-.63 6.41-4.46 4.81-7.91-5.04-3.28 12.21-6.88 3.53-11.79-9.03-9.73 12.64-11.61 7.29-.54-1.27 8.51 15.15-1.57 11.34 8.27 3.88 4.72 14.51 1.08 14.24 7.7 5.64.39 7.58 5.13 12.88 5.49 5.5 2.48 15.44 4.43 17.31 10.62-5.44 4.31-18.05-8.9-18.66 3.04 1.65 17.63 1.22 35.79 7.67 52.58 3.05 10.16 10.45 18.17 17.12 26.08 6.4 7.75 15.06 13.21 23.87 17.8 7.74 3.65 16.09 6.07 24.52 7.59 3.42-2.62 9.46-12.34 14.79-8.24.26 4.62-10.59 9.64-.52 9.13 5.93-1.79 10.03 4.58 14.9-1.17 4.5 5.32 18.66-3.4 15.48 7.48-4.32 2.79-10.62 1.11-14.96 4.94-7.14-3.57-12.82 3.19-20.72 2.34-8.78 1.57-17.7 2.2-26.6 2.21-14.6-1.15-29.5-1.64-43.38-6.72-7.83-2.28-15.46-6.73-22.33-11.19h.03zm12.33 5.33c7.64 3.3 15.11 6.78 23.47 7.83 13.28 1.84 26.99 4.7 40.32 2.1-6.04-2.73-12.27 1.06-18.28-1.95-7.21 1.54-14.89-.4-22.33-1.36-8.33-3.71-17.32-6.26-25.12-11.08-9.75-3.56 5.04 4.57 7.67 5.22 6.09 3.46-6.7-1.72-8.51-3.21-5.11-2.86-5.75-2.27-.5.64l3.21 1.79h.07zm-14.54-10.27c7.4 2.75-.03-5.21-3.42-4.75-1.5-2.61-5.74-4.25-2.75-5.65-5.38 1.86-5.63-7.1-8.16-5.82-5.69-1.79-2.22-8.16-8.99-12.08-.62-4.12-6.73-7.69-8.68-13.9-.86-3.18-6.91-12.31-3.19-3.81 3.16 8.19 8.72 15.19 13.36 22.18 3.6 6.66 7.84 13.62 14.39 17.79 2.21 2.12 4.34 5.37 7.45 6.03l-.01.01zm8.86 3.29c1.64-.74-2.35-.93 0 0zm4.01 1.46c-.42-2.02-1.83 1.14 0 0zm13.66 6.91c1.46-2.15-4.65-.8 0 0zm6.09 2.12c3.03 1.91 17.7 4.19 8.52.78-1.55.33-17.04-4.38-8.52-.78zM-2.86 281.8c-.29-1.27-4.71-1.41 0 0zm8.77 5.12c2.29-1.61-4.74-1.23 0 0zm7.45 4.58c3.28-1.24-5.32-1.25 0 0zm-19.81-13.6c3.55 2.73 14.35.34 5.44-1.63-4.05-2.16-13.17-3.63-6.95 1.3l1.51.33zM18.29 293c1.48-2.52-6.22-1.45 0 0zm-7.52-5.98c8.7 2.46-7.31-5.5-2.15-.91l1.15.51 1 .39v.01zm15.07 8.71c8.24.08-7.45-1.15 0 0zm-35.46-22.6c-.32-1.53-2.03.13 0 0zm14.07 8.6c-.5-1.46-2.58-.06 0 0zm-13.28-9.56c4.72-.29-6.47-2.09 0 0zm-15.73-10.16c-.59-2.26-5.14-4.08 0 0zm39.01 23.86c.46-1.95-4.03-.59 0 0zm-19.14-12.14c3.52-.37-5.64-2.37 0 0zm32.38 20.13c5.48-2.18-5.34-1.06 0 0zm-16.84-11.44c6.31.81-7.52-4.29-1.39-.46l1.39.46zm21.95 13.5c5.9-3.52 3.95 8.26 10.01 1 5.97-4.36-5.15 5.39 2.2.78 5.33-3.56 13.19 1.69 18.15 3.39 3.57-.17 7.04 3.09 10.71 1.11 7.04-1.9-13.79-2.82-8.32-6.18-6.45 1.88-11.21-2.23-14.38-6.37-7.24-1.67-15.6-5.37-19.21-11.77-1.47-2.4 2.12.34-1.27-3.59-4.35-3.88-6.53-8.28-9.46-13-3.49-1.86-3.91-7.35-4.26-.18.03-4.52-4.22-7.57-5.27-6.31-.02-4.35 4.55-2.17 1.35-5.39-.69-4.52-2.95-9.22-3.63-14.32-1.06-2.46-.15-7.73-3.61-2.16-1.26 5.88-.42-7.23 1.55-2.91 2.58-4.41-.93-3.89-1.06-3.28 1.68-3.72 1.06-9-.44-6.99.89-3.95 1.41-14.51-1.33-12.64 1.66-4.12 3.16-18.87-4.08-13.25-2.93.04-8 1.06-10.4 2.25 7.52 4.15-.76 1.5-3.82.84-.4 3.84-3.44 2.18-7.21 2.22 6.06.74-2.95 6.18-6.41 4.08-4.51 2.15 3.89 7.53.09 9.2.47 2.5-6.91-.9-6.33 4.89-4.38-1.84-.6 6.87 1.59 3.92 7.44 2.02 5.24 6.61 5.43 10.97-1.21 2.54-5.99-5.98-1.06-5.58-3.89-6.32-4.29-2.29-7.53.65-.74.21 8.24 4.18 2.6 6.12 4.96.77 5.11 5.11 6.11 7.86 2.98 3.11 2.36-3.44 5.94.3-2.26-3.32-11.97-9.37-4.15-7.44-.04-3.34-1.41-6.05.99-5.98 2.38-4.29-2.48 10.59 2.86 5.13 1.48-.65 1.85-4.29 4.5.34 3.86 3.8 1.4 6.55-4.05 3.07.97 3.31 7.29 4.49 6.1 9.66 1.26 4.55 3.02 2.87 4.55 2.61 1.14 4.42 1.89 1.17 1.95-.93 5.51 1.18 4.21 4.43 5.94 6.71 3.8 1.72-5.44-11.61 1.09-4.01 6.85 6.18 2.58 8.78-3.58 7.79 3.89-.32 5.15 5.27 10.02 5.06 4.44 2.12 7.44 10.23-.21 6.85-2.65-2.39-12.06-5.35-4.37-.8 7.09 3.29 12.72 5.24 19.56 9.37 4.89 3.44 7 7.49 8.86 8.28-4.11 1.97-12.39-1.56-6.3-2.65-3.84-.7-8.15-2.63-4.48 2.14 3.13 2.61 11.07 2.34 12.49 2.63-1.2 2.66-3.28 2.86.05 3.08-3.71 1.98 1.19 2.29 1.53 3.42v.01zm-7.59-21.43c-2.26-2.36-2.85-6.79-.4-2.94 1.26.5 4.01 7.23.4 2.94zm-6.01-9.17c-2.85-5.5 3.58 1.55 0 0zm-8.46-14.8c-2.69-6.03 1.91-3.29.6.98l-.6-.98zM-14.03 234c-1.15-1.98-3.19-7.79-2.55-9.56.57 2.88 6.14 12.42 2.73 4-3.77-7.1 4.5 2.3 5.36 4.08.4 1.76-2.32-.48-.48 3.65-3.37-4.71-1.99 2.6-5.05-2.12l-.01-.05zm-7.66-5.28c.32-4.61 1.75 3.15 0 0zm3.45 1.19c1.64-3.47 2.78 4.83 0 0zm-8.36-6.3c-2.85-2.83-4.91-5.44.14-1.75 1.95.07-4.32-5.94.47-1.91 5.04.91 2.48 8.25-.61 3.66zm4.35-.11c1.66-1.65.88 1.61 0 0zm2.68.85c-2.52-4.7 3.05 1.98 0 0zm-5.32-5.08c-8.29-7.38 10.42 3.85 1.35 1.38l-1.35-1.38zm23.74 13.8c-3.59-2.15-.96-15.14.27-6.25 3.49-1.13-.19 4.59 2.41 4.53-.4 3.6-1.58 4.9-2.68 1.72zm-22.06-16.23c-5.32-7.35 15.47 7.43 3.41 1.86-1.26-.33-2.77-.44-3.41-1.86zm.82-2.8c3.17-.67 13.17 5.55 3.98 1.78-1.02-1.13-3.19-.62-3.98-1.78zm27.17 13.54c.34-6.33 1.89-3.78.01.92l-.01-.92zm-24.82-15.74c1.29-1.89-3.42-8.55.68-2.39 1.72 1.41 5.14 2.36 2.18 2.96 4.66 4.12-1.15 1.11-2.86-.57zm23.47 13.78c.89-7.22.79 4.21 0 0zm-20.03-16.79c1.57-3.31 2.9 3.69 0 0zm17.19-.37c-1.65-2.9 2.08-12.77 2.5-6.64-1.73 4.77-.5 7.44.7 1.03 2.23-5.04-.48 9.94-3.2 5.61zm-1.66 66.32c-.97-.86.13.54 0 0zm8.48 4.28c4.71 1.21 4.69-.73.43-1.32-2.29-2.13-9.51-4.39-3.05-.26.42 1.15 1.78 1.06 2.62 1.58zm-16.72-11.11c2.59 1.95 9.77 5.48 3.7.75 2.05-2.38-3.92-3.65-1.95-5.24-5.04-3.09-3.98-2.86-.45-2.71-6.06-2.71.88-2.5.55-3.89-2.34-.46-11.6-4.12-6.15.29-5.54-2.82-1.32 1.05-2.99.65-5.73-1.55 5.04 4.32-.9 2.86 3.25 2.57 8.75 6.6 1.37 2.72-.97 1.4 5.28 3.52 6.87 4.58l-.05-.01zm8.86 5.1c10.76 3.47-5.29-4.24 0 0zm45.34 27.47c.13-2.14-1.47 1.83 0 0zm4.66 1.96c2.49-2.4.11 3.84 4.12-.59.04-3.17-.12-5.04-4.62-1.19-1.24.69-1.78 3.61.5 1.78zM-24.44 256c-.76-3-5.34-2.99 0 0zm4.99 3.26c-1.85-3.06-6.6-2.77 0 0zm28.31 17.08c2.77 2.46 12.7 1.8 3.35.3-1.37-2.04-8.77-1.54-3.35-.3zm38.92 24.05c4.26-3.58-4.12 1.59 0 0zm8.85 6.08c.03-1.15-1.83.5 0 0zm.02-1.61c4.71-4.98-4.57.29 0 0zm-93.33-59.11c-4.01-5.73-2.5-8.3-6.37-12.98-.73-3.58-6.64-11.7-3.06-3.09 3.29 5.04 4.26 12.82 9.42 16.08v-.01zm91.83 57.51c8.68-5.59-3.55-2.43 0 0zm6.62 2.6c4.35-3.72-2.75-.78 0 0zm-87.68-56.19c1.24-1.84-3.21-.24 0 0zm86.3 54.42c4.2-2.71-.98-2.29-.76.25l.76-.25zM3.36 268.14c-.14-1.84-2.22.15 0 0zm3.52 2.02c-1.12-2.26-1.72.36 0 0zm60.26 35.76c5.38-3.89-3.27-.75-1.13.74l1.13-.74zm-2.07-1c4.4-3.67-4.63 1.63 0 0zm10.54 7.02c2.94-1.97-3.58-.64 0 0zm-98.81-63.61c3.95.88 15.77 9.72 8.8.61-3.57-1.06-1.43-9.79-5.08-8.24 2.44 4.09 2 5.83-3.12 3.25-6.45-3.15-3.62 1.55-2.37 2.86-1.72.4 2.27 1.49 1.77 1.52zm-17.98-14.2c.7-2.92-6.51-16.09-3.41-6.59 1.12 1.98 1 5.75 3.41 6.59zm33.01 20.36c-2.04-1.7-.1-.24 0 0zm5 1.16c0-3.09-5.53-1.26 0 0zm43.38 27.34c-.83-2.11-3.26-.04 0 0zm2.09 1.53c-.31-1.19-1.15.23 0 0zm17.19 10.83c1.66-1.22-2.07-.16 0 0zm-91.7-58.92c4.73-1.83-5.07-1.3 0 0zm68.59 43.21c-.06-3.06-3.02.77 0 0zm-70.46-47.57c3.03-1.03-2.81-.67 0 0zm8.81 4.27c-.05-1.01-.93.38 0 0zM82.3 302.29c3.91-.79 12.81 1.99 14.25-1.03-4.75-.12-16.41-3.35-16.96.77l1.03.17 1.68.1v-.01zm-104.76-65.24c.07-3.1-2.42-.11 0 0zm-23.19-16.09c-1.05-5.9-4-.89 0 0zm5.53 1.39c.07-1.9-5.06-1.7 0 0zm23.04 14.3c.94-.86-2.21-.63 0 0zm-21.98-16.26c-.54-4.46-6.42-.67 0 0zm-11.34-7.35c-.16-2.07-1.1.77 0 0zm1.69-1.27c-.27-2.45-1.45.3 0 0zm9.31 5.55c3.94-1.55-7.17-3.21-.8-.28l.8.28zm124.68 77.04c2.52-2.32-3.2-.72 0 0zm15.06 7.8c1.01-2.98-2.55.4 0 0zm-138.79-89.69c.42-2.9-3.13.57 0 0zm-13.26-8.88c-.7-4.09-.6-11.25 6.21-8.83-9.08 1.81 6.3 11.3 4.35 3.8 3.82.19 7.48-2.26 5.47 1.45 7.54-.82 12.75-7.36 20.03-6.43 5.72-.76 11.86-1.32 17.98-3.61 5.02-.36 9.85-5.77 7.1-8.97-6.85-.58-14.02.27-21.58 1.78-8.39 1.74-16 5.06-24.46 6.47-8.24 1.11 1.66 3.05-.7 3.49-4.29 1.49 5.14 2.5-.55 4.08-3.52-.67-7.17-1.88-5.67-5.58-7.9 1.03-14.85 4.3-8.6 12.34l.46.01h-.04zm19.05-9.65c1.85-6.82 9.92 5.61 3.03.92-.81-.62-2.17-1.12-3.03-.92zm.36-3.31c2.68-1.98 1.42 1.12 0 0zm3.4.06c.25-3.14 7.78 1.72 1.24 1.13l-1.24-1.13zm4.64-1.86c1.7-1.99.49 1.75 0 0zm1.19-.81c2.83-3.39 15.99-2.18 6.3-.33-2.58-1.95-4.57 1.15-6.3.33zm17.17-2.65c-.42-9.27 8.54 3.3 0 0zm4.88-.03c1.77-4.67 6.93-1.88.83-.94.13.5-.18 2.42-.83.94zm-39.35 24.78c5.33-3.27-5.65-2.83 0 0zm3.94 1.14c1.87-1.99-4.01-.8 0 0zm145.67 90.05c.08-2.71-2.33 1.22 0 0zm-15.98-10.9c.46-3.12-2.06.27 0 0zm20.39 11.96c4.25.02 12.89-1.32 3.63-1.32-1.45.24-8.47.18-3.63 1.32zm-146.6-93.12c3.45-.23 5.38-3.8-.67-3.6-9.39-.97 8.28 3.22-1.14 2.02-1.27.84 1.8 1.81 1.87 1.57l-.06.01zm3.03 1.53c-.36-2.21-1.07 1.17 0 0zm-7.84-28.74c6.15-2.09 14.55-4.44 17.46 1.03-2.96-3.55-1.19-7.05 1.6-1.85 3.95 5.25 5.92-2.39 3.36-4.16 2.92 3.63 6.24 5.35 1.96.23 4.67-5.61-9.33.73-12.51.67-1.53.69-15.8 3.64-11.85 4.08h-.02zm3.6-6.9c3.5-2.64 12.13 1.58 6.6-2.63-.54-.48-12.11 3.19-6.6 2.63zm12.78.53c4.1.1-1.78-5.51 3.11-2.97-.8-2.62-5.69-3.11-8.08-4.16-1.35 2.39 2.75 7.16 4.97 7.13zm-10.53-11.6c1.42-1.92-2.49.97 0 0zm5.2 1.25c6.61-.88-1.68-2.85-1.33-.07l1.33.07zm-9.76-7.62c-4.65-6.08 8.76 1.02 4.03-5.34-3.99-3.16-7.81 3.58-4.03 5.34zm59.74 32.18c2.14-3.78-8.82-5.1-1.43-1.34.67.23.52 1.6 1.43 1.34z"/></symbol><symbol id="git" viewBox="0 0 32 32" preserveAspectRatio="xMinYMin meet"><path d="M31.396 14.575L17.425.604a2.06 2.06 0 00-2.915 0l-2.9 2.901 3.68 3.68a2.447 2.447 0 013.099 3.12l3.547 3.548a2.451 2.451 0 11-.935 4.05 2.453 2.453 0 01-.534-2.668l-3.308-3.308v8.705a2.453 2.453 0 11-2.016-.071v-8.786a2.451 2.451 0 01-1.331-3.216l-3.628-3.628-9.58 9.58a2.061 2.061 0 000 2.915l13.972 13.97a2.061 2.061 0 002.914 0L31.396 17.49a2.062 2.062 0 000-2.915" fill="#f03c2e"/></symbol><symbol id="google-cloud" viewBox="0 0 64 64" preserveAspectRatio="xMinYMin meet"><path d="M40.728 20.488l2.05.035 5.57-5.57.27-2.36A24.93 24.93 0 0031.993 6.26c-11.54 0-21.28 7.852-24.163 18.488.608-.424 1.908-.106 1.908-.106l11.13-1.83s.572-.947.862-.9A13.88 13.88 0 0132 17.375c3.3.007 6.34 1.173 8.728 3.102z" fill="#ea4335"/><path d="M56.17 24.77a25.073 25.073 0 00-7.555-12.177l-7.887 7.887c3.16 2.55 5.187 6.452 5.187 10.82v1.392c3.837 0 6.954 3.124 6.954 6.954 0 3.837-3.124 6.954-6.954 6.954H32.007L30.615 48v8.346l1.392 1.385h13.908A18.11 18.11 0 0064 39.647c-.007-6.155-3.1-11.6-7.83-14.876z" fill="#4285f4"/><path d="M18.085 57.74h13.9V46.6h-13.9a6.89 6.89 0 01-2.862-.622l-2.007.615-5.57 5.57-.488 1.88a18 18 0 0010.926 3.689z" fill="#34a853"/><path d="M18.085 21.57A18.11 18.11 0 000 39.654c0 5.873 2.813 11.095 7.166 14.403l8.064-8.064a6.96 6.96 0 01-4.099-6.339c0-3.837 3.124-6.954 6.954-6.954 2.82 0 5.244 1.7 6.34 4.1l8.064-8.064c-3.307-4.353-8.53-7.166-14.403-7.166z" fill="#fbbc05"/></symbol><symbol id="google-maps" preserveAspectRatio="xMinYMin meet"><path d="M354.06 1575.63V576.61c0-58.06 47.12-105.22 105.21-105.22h998.99L354.06 1575.63z" fill="#1ea361"/><path d="M354.06 1596.61v-20.98l1104.2-1104.21h20.98c58.08 0 105.22 47.13 105.22 105.18v21L480.24 1701.81h-20.97c-58.09 0-105.21-47.15-105.21-105.2" fill="#fedb43"/><path fill="#5384c4" d="M480.24 1701.81l489.02-489 489 489z"/><path d="M1458.26 1701.81l-489-489 126.18-126.21 489.02 489.02v20.98c0 58.05-47.15 105.19-105.22 105.19h-20.98v.02z" fill="#fff"/><path fill="#c2c2c1" d="M1584.46 1575.63l-489.02-489.02 489.02-489.01z"/><path d="M573.53 607.43c62.58-28.66 140.91-16.97 191.75 29.93-15.9 16.21-32.25 32.05-48.57 47.82-50.85-50.47-146.4-26.52-170.23 40.23-31.16 65.69 20.62 152.05 93.92 152.99 47.96 5.59 95.8-26.53 105.91-74.3-33.5.06-66.95-.27-100.37.25-.96-20.6-1.08-41.29-.63-61.98 55.94 1.45 113.26-3.2 168.38 2.27 4.21 40.91 1.31 84.35-20.69 120.25-34.5 64.21-115.97 92.27-184.93 76.04-85.21-17.66-149.02-105.1-137.39-191.72 5.98-61.08 47.27-116.45 102.85-141.78" fill="#efefef"/><path d="M1369.54 298.19h39.99c99.7 5.72 197.18 54.41 257.59 134.53 39.54 50.6 61.65 113.42 66.61 177.23v23.66c-2.31 123.67-81.45 225.19-149.98 321.39-76.95 108.69-148.01 227.15-167.72 361.13-5.27 22.67 1.07 54.44-26.05 64.7-6.39-4.96-13.83-9.07-18.28-16-8.06-74.92-26.76-148.88-58.72-217.26-36.22-79.71-86.75-151.72-138.01-222.19-31.23-42.26-60.67-86-85.03-132.63-38.25-69.86-52.5-152.43-36.87-230.82 12.84-61.91 45.23-119.26 90.07-163.6 60.42-59.1 142.13-94.84 226.4-100.14m-7.77 217.84c-47.29 10.55-86.97 52.37-90.97 101.32-4.96 45.57 21.71 91.84 62.55 111.95 44.3 23.43 102.44 16.25 139.47-17.6 34.5-30.54 47.09-83.3 29.04-126-21.35-53.42-84.69-83.85-140.09-69.67" fill="#dc4b3e"/><path d="M1361.77 516.03c55.4-14.18 118.74 16.25 140.09 69.68 18.05 42.7 5.46 95.45-29.04 126-37.04 33.85-95.17 41.04-139.47 17.6-40.84-20.11-67.51-66.38-62.55-111.95 3.99-48.96 43.68-90.78 90.97-101.33" fill="#802c27"/></symbol><symbol id="gov-uk" viewBox="0 0 250 180" preserveAspectRatio="xMinYMin meet"><g fill="#7f7f7f"><path d="M184.62 112.808c-1.723-.227-4.1-.528-5.643-.735 1.583-3.425 2.538-5.402 2.538-5.402.093-.654 1.87-3.739 2.584-6.29.647-2.076 1.015-5.902 1.015-6.537 0-6.603-2.31-12.586-6.183-16.926-3.88-4.334-9.282-7.018-15.445-7.018-1.255 0-2.75.067-6.183.734-3.512.868-5.182 1.356-8.286 2.177-5.249 1.623-7.392 2.45-14.904 6.063-.755.36-1.062 1.028-1.215 1.53-.147.513-.12.9-.12.9l-.308 27.931h-4.687V78.727s-.027-.875.307-1.91c.327-1.035 1.102-2.03 2.397-2.89a48.98 48.98 0 013.058-1.817c-1.121-.755-1.883-2.023-1.883-3.486 0-2.33 1.883-4.2 4.194-4.2a4.2 4.2 0 014.206 4.2c0 .214-.053.428-.066.628a2.37 2.37 0 01.26-.093c.928-.32 1.95-.635 2.951-.935a4.164 4.164 0 01-2.15-3.633 4.198 4.198 0 118.394 0c0 .708-.214 1.376-.515 1.964 2.037-.561 3.473-.942 3.473-.942.193-.047.387-.087.607-.134-1.135-.76-1.876-2.03-1.876-3.485a4.19 4.19 0 014.18-4.193 4.18 4.18 0 014.193 4.193c0 .815-.227 1.562-.62 2.203.02-.013.06-.013.08-.026 1.455-.247 3.098-.294 4.58-.294a4.145 4.145 0 01-.801-2.437c0-2.337 1.89-4.2 4.186-4.2a4.17 4.17 0 014.18 4.2 4.16 4.16 0 01-1.495 3.185c1.569.387 3.084.901 4.533 1.582a3.968 3.968 0 01-.207-1.215c0-2.324 1.883-4.2 4.2-4.2a4.196 4.196 0 014.187 4.2 4.178 4.178 0 01-3.385 4.1 27.622 27.622 0 013.565 3.212v-.134a4.199 4.199 0 014.187-4.193 4.186 4.186 0 014.187 4.193c0 2.31-1.87 4.187-4.187 4.187a3.84 3.84 0 01-1.155-.187 30.824 30.824 0 012.103 3.792 4.2 4.2 0 013.472-1.822 4.186 4.186 0 014.187 4.193 4.193 4.193 0 01-4.187 4.186c-.48 0-.908-.1-1.335-.24.247 1.155.447 2.324.58 3.526.495-.2 1.036-.32 1.603-.32a4.173 4.173 0 014.187 4.192 4.18 4.18 0 01-4.187 4.187c-.647 0-1.255-.16-1.796-.427-.067.447-.14.921-.194 1.389-.133.48-.24.914-.353 1.315a4.164 4.164 0 013.645 4.153c0 2.304-1.87 4.18-4.186 4.18-.875 0-1.67-.254-2.344-.721-.568 1.342-1.309 3.072-2.123 5.055M122.588 109.536a4.004 4.004 0 01-4.013-4.013 4.007 4.007 0 014.013-4.027h.04a4.003 4.003 0 014.013 4.027 4 4 0 01-4.013 4.013zM122.628 99.787a3.826 3.826 0 003.833-3.84 3.829 3.829 0 00-3.833-3.832h-.04a3.829 3.829 0 00-3.833 3.833 3.826 3.826 0 003.833 3.84zM122.601 90.372a3.65 3.65 0 01-3.652-3.659c0-2.03 1.61-3.66 3.652-3.666h.027a3.646 3.646 0 013.646 3.666 3.653 3.653 0 01-3.646 3.66zM122.621 73.212a3.45 3.45 0 000-6.898h-.026a3.445 3.445 0 00-3.439 3.452 3.444 3.444 0 003.439 3.446zM122.601 81.558a3.485 3.485 0 01-3.472-3.485 3.49 3.49 0 013.472-3.492h.027a3.495 3.495 0 013.472 3.492 3.49 3.49 0 01-3.472 3.485zM134.734 26.204a.796.796 0 00-.775-.574c-.5 0-.74.347-.82.58-.789 3.079-2.371 5.977-8.408 6.491.268-2.638.962-4.627 2.15-6.043 1.129-1.222 2.691-2.036 4.968-2.524.094-.007.348-.06.501-.22a.78.78 0 00.174-.561.744.744 0 00-.234-.554.775.775 0 00-.5-.174h-18.356a.775.775 0 00-.501.174c-.1.1-.234.267-.234.554a.78.78 0 00.174.56c.153.161.414.214.5.221 2.277.488 3.847 1.302 4.968 2.524 1.189 1.416 1.883 3.405 2.15 6.043-6.036-.514-7.618-3.412-8.406-6.49a.844.844 0 00-.821-.581.796.796 0 00-.775.574l-.02.053v16.8c0 .308.26.735.861.715.608 0 .755-.34.828-.494l.02-.08c1.43-3.5 4.447-5.763 8.347-6.344-.234 2.758-.948 4.821-2.204 6.283-1.135 1.23-2.63 2.01-4.947 2.504l-.067.014a.898.898 0 00-.434.22c-.087.1-.194.287-.174.588 0 .26.134.434.234.527.18.14.374.167.547.187H131.743c.173-.02.367-.047.547-.187a.713.713 0 00.234-.527c.02-.3-.087-.488-.174-.588a.898.898 0 00-.434-.22l-.067-.014c-2.317-.494-3.819-1.275-4.947-2.504-1.256-1.462-1.97-3.525-2.204-6.283 3.9.581 6.918 2.845 8.347 6.344l.02.08c.073.153.22.494.821.494.608.02.868-.407.868-.715v-16.8zM122.628 65.733c4.901 0 8.888-3.98 8.888-8.887 0-4.908-3.987-8.888-8.888-8.888h-.027c-4.9 0-8.894 3.98-8.894 8.888 0 4.908 3.993 8.887 8.894 8.887zM58.487 107.733a4.107 4.107 0 01-2.344.721 4.18 4.18 0 01-4.187-4.18 4.153 4.153 0 013.646-4.153c-.113-.4-.22-.841-.354-1.315-.053-.475-.127-.942-.193-1.39-.541.261-1.149.428-1.797.428a4.182 4.182 0 01-4.186-4.193 4.172 4.172 0 014.186-4.187c.561 0 1.109.114 1.603.32.134-1.201.334-2.376.58-3.525-.426.14-.854.24-1.341.24-2.297 0-4.18-1.883-4.18-4.186a4.185 4.185 0 014.18-4.194c1.462 0 2.71.722 3.479 1.823a30.824 30.824 0 012.103-3.792 4.06 4.06 0 01-1.155.18 4.18 4.18 0 01-4.187-4.18c0-2.324 1.87-4.2 4.187-4.2a4.2 4.2 0 014.186 4.2v.127a27.621 27.621 0 013.566-3.212c-1.93-.38-3.392-2.05-3.392-4.093 0-2.324 1.89-4.2 4.193-4.2a4.205 4.205 0 014.207 4.2c0 .42-.087.815-.214 1.209a25.427 25.427 0 014.527-1.583 4.171 4.171 0 01-1.495-3.185 4.18 4.18 0 014.193-4.2c2.29 0 4.18 1.87 4.18 4.2 0 .915-.3 1.743-.801 2.437 1.482 0 3.125.047 4.58.3.02.014.06.014.08.027a4.177 4.177 0 01-.62-2.203 4.178 4.178 0 014.186-4.193 4.19 4.19 0 014.187 4.193c0 1.456-.741 2.718-1.877 3.485.22.04.414.087.608.134 0 0 1.436.38 3.472.941-.3-.587-.514-1.255-.514-1.963 0-2.33 1.89-4.2 4.2-4.2a4.192 4.192 0 014.187 4.2 4.147 4.147 0 01-2.137 3.626c.995.307 2.01.621 2.945.942.093.02.18.06.26.093-.013-.2-.067-.414-.067-.628a4.2 4.2 0 018.4 0c0 1.456-.761 2.731-1.89 3.486a51.127 51.127 0 013.065 1.816c1.296.861 2.077 1.856 2.398 2.885.333 1.041.307 1.916.307 1.916v30.508h-4.681l-.314-27.937s.027-.38-.12-.895c-.154-.5-.46-1.175-1.215-1.53-7.512-3.611-9.656-4.44-14.904-6.069-3.105-.814-4.774-1.302-8.293-2.17-3.425-.667-4.921-.734-6.176-.734-6.164 0-11.565 2.684-15.452 7.018-3.859 4.34-6.176 10.316-6.176 16.926 0 .628.367 4.46 1.015 6.537.714 2.551 2.49 5.636 2.584 6.284 0 0 .955 1.983 2.537 5.408-1.542.207-3.926.5-5.642.735-.821-1.984-1.556-3.713-2.123-5.055"/><path d="M188.359 116.146c-.414-.587-1.082-.975-1.923-1.108-.287-.054-8.253-1.102-9.188-1.229-.28-.02-.621.174-.715.661-.106.541.24.848.475.915l-.06-.027c4.246 1.97 6.75 5.983 6.81 10.777-6.59-1.362-8.24-4.74-8.653-9.408 0-.2-.187-.56-.735-.607-.48-.04-.734.2-.828.414l-.013.04-2.518 20.185v.027c0 .28.194.627.628.727.434.1.801-.153.908-.447 1.997-4.273 5.963-6.817 10.677-6.938-1.262 4.735-4.8 8.414-9.402 9.656l.02.013a554.02 554.02 0 00-10.39-.995c-3.338-1.001-5.788-2.79-6.683-6.95a6.224 6.224 0 01.354-1.617c.848-2.283 2.497-3.792 4.34-3.125 1.923.722 2.123 2.892 1.282 5.175a6.062 6.062 0 01-1.502 2.304c1.996-.04 3.779-.748 5.188-2.738 2.337-3.325 2.063-8.453-1.59-10.563-2.377-1.389-5.688.227-8.2 3.358.762-4.934 3.76-9.288 4.1-13.094.475-5.361-1.588-11.324-4.533-12.967-3.058 1.122-5.85 6.657-6.116 12.006-.174 3.813 2.41 8.84 2.544 13.869-2.064-3.586-5.215-5.723-7.793-4.648-3.906 1.596-4.887 6.63-3.018 10.243 1.155 2.163 2.798 3.105 4.774 3.419-.54-.648-.954-1.51-1.168-2.49-.514-2.385-.047-4.495 1.97-4.935 1.91-.414 3.345 1.275 3.866 3.659.167.768.193 1.502.087 2.19v-.007c-1.516 3.586-4.254 4.835-7.666 5.676a488.47 488.47 0 00-10.476-.354l-.374-.073c-4.942-.795-7.459-3.953-7.96-9.876 4.347.654 7.726 3.198 9.308 7.091.074.234.334.594.915.594.675 0 .915-.44.915-.74v-18.67a.855.855 0 00-.848-.601.896.896 0 00-.848.56v.014l-.02.027c-.868 3.439-2.65 6.684-9.435 7.238.554-6.597 3.572-8.627 7.973-9.582.12 0 .334-.053.507-.24a.773.773 0 00.214-.541v-.054a.862.862 0 00-.28-.574.755.755 0 00-.495-.193h-20.352a.767.767 0 00-.494.193.864.864 0 00-.287.574v.054c0 .274.133.447.22.54.174.188.387.241.508.241 4.4.955 7.418 2.985 7.979 9.582-6.79-.554-8.574-3.8-9.435-7.238l-.027-.027v-.013a.896.896 0 00-.848-.561c-.474 0-.754.3-.841.6V134.209c0 .3.24.741.901.741.588 0 .848-.36.922-.594 1.582-3.893 4.968-6.437 9.301-7.091-.494 5.923-3.011 9.08-7.952 9.876l-.374.073c-3.506.08-7.011.2-10.477.354-3.412-.841-6.15-2.09-7.659-5.676v.007a5.692 5.692 0 01.087-2.19c.521-2.384 1.95-4.073 3.86-3.66 2.023.441 2.484 2.551 1.976 4.935-.22.982-.634 1.843-1.175 2.49 1.976-.313 3.619-1.255 4.78-3.418 1.864-3.612.882-8.647-3.017-10.243-2.584-1.075-5.73 1.062-7.8 4.648.14-5.028 2.725-10.056 2.545-13.87-.26-5.348-3.058-10.883-6.117-12.005-2.944 1.643-5.008 7.606-4.534 12.967.341 3.806 3.34 8.16 4.094 13.094-2.504-3.131-5.816-4.747-8.193-3.358-3.653 2.11-3.927 7.238-1.583 10.563 1.41 1.99 3.185 2.698 5.182 2.738a6.13 6.13 0 01-1.496-2.304c-.848-2.283-.648-4.453 1.275-5.175 1.85-.667 3.493.842 4.334 3.125.207.541.314 1.089.36 1.616-.894 4.16-3.345 5.95-6.683 6.951-3.5.3-6.945.635-10.39.995l.02-.013c-4.6-1.242-8.14-4.921-9.395-9.656 4.707.12 8.674 2.665 10.677 6.938.107.294.467.548.901.447.44-.1.635-.447.635-.727v-.027l-2.518-20.185-.02-.04c-.087-.214-.347-.454-.828-.414-.547.046-.734.407-.734.607-.414 4.668-2.063 8.046-8.654 9.408.067-4.794 2.564-8.807 6.81-10.777l-.06.027c.235-.067.582-.374.475-.915-.094-.487-.427-.68-.715-.66-.934.126-8.9 1.174-9.18 1.228-.849.133-1.516.52-1.93 1.108-.455.628-.595 1.443-.428 2.43.234 1.356 3.005 20.834 3.272 22.623.02.154.234 1.977.307 2.518.08.567.801 1.135.801 1.135s4.074 2.75 4.795 3.305c.687.527.293 1.449.293 1.449l-3.612 5.282c-.287.353-.44.707-.44.707a1.95 1.95 0 00-.12.681c0 .641.293 1.202.78 1.563l59.521.02h1.463l59.227-.02a1.935 1.935 0 00.654-2.244s-.147-.354-.44-.707l-3.613-5.282s-.394-.922.3-1.45c.715-.553 4.788-3.304 4.788-3.304s.721-.568.808-1.135c.067-.541.287-2.364.307-2.518.26-1.79 3.032-21.267 3.265-22.622.167-.988.027-1.803-.427-2.43m-89.675 33.459l-13.275.701c-1.342.073-2.517-.962-2.577-2.31l-.114-1.89a2.444 2.444 0 012.337-2.557l13.261-.721a2.454 2.454 0 012.585 2.33l.106 1.87a2.452 2.452 0 01-2.323 2.577m29.28-3.352l-4.728 4.727a.914.914 0 01-.614.274h-.02a.944.944 0 01-.621-.274l-4.728-4.727a.933.933 0 010-1.362l4.728-4.728a.936.936 0 01.62-.267h.02a.907.907 0 01.615.267l4.727 4.728a.933.933 0 010 1.362m34.428 1.743c-.06 1.348-1.235 2.383-2.584 2.31l-13.274-.701a2.457 2.457 0 01-2.324-2.578l.107-1.87a2.456 2.456 0 012.59-2.33l13.255.722a2.44 2.44 0 012.337 2.557z"/></g></symbol><symbol id="greensock" viewBox="500.5 320.5 200 200" preserveAspectRatio="xMinYMin meet"><path d="M542.31 409.46c-5.24 2.46-19.11 13.56-21.78 16.85-2.77 3.29-3.6-1.85-.72-10.38 2.26-6.88 8.01-16.23 17.67-24.25 5.65-4.62 18.08-11.3 25.69-15.21 1.54-.82 21.47-9.25 39.25-13.46 1.54-.41-1.85 2.57-2.36 4.21-2.67 7.81-55.99 41.3-55.99 41.3l-1.76.94zM617.41 503.68c.92 5.55.1 5.96-5.65 6.68-5.75.72-9.97-1.44-11.51-2.88-1.54-1.44-1.85-4.62-.31-7.5.93-1.85 1.85-2.47 2.36-4.73.51-2.16.92-2.67 1.33-3.49.41-.72.51-1.44.62-6.47s0-14.49.51-18.49c.51-4.11 18.29 1.85 18.29 1.85s-4.21 10.48-5.34 13.05-1.03 7.5-1.03 8.53-.41 3.08-.72 3.18c-.31.1 1.03 2.77.41 4.32-.4 1.43.94 5.13 1.04 5.95zM624.19 346.59c-.62-3.9 0-11.61.82-12.84 2.57-3.49 16.13-3.9 19.01.21 1.23 1.85 1.13 6.16.92 8.94-.21 2.77-.92 8.73-1.03 10.69-.1 1.44-15 3.7-18.29-.21-.91-1.04-1.43-6.79-1.43-6.79zM654.4 493.71c6.27 4.52 11.1 5.34 14.28 6.99s2.36 4.83-2.98 5.75c-4.32.82-11.1-.82-15.62-.82s-14.59.51-17.26-1.34c-3.08-2.16-1.75-6.16-1.75-6.16.82-2.26 2.88-7.29 2.26-11.4s-1.44-6.37-2.98-10.17-2.67-13.15-1.23-13.67 1.03 0 2.88.41c1.85.41 3.9 1.03 7.91 1.03s8.42-.62 9.97-.92c1.54-.31 2.77-.62 2.26 2.57-.51 3.18-2.05 9.14-2.16 13.77-.1 4.62-.1 9.97.21 10.89.3.91 2.56 1.94 4.21 3.07z"/><path d="M632.41 356.86c-11.3 9.76-33.19 12.43-65.65 24.97-8.32 3.18-30.51 12.74-35.86 22.71 17.98-10.38 24.66 3.9 26.1 18.6 1.33 13.77 8.22 20.96 25.89 20.55 18.19-.41 23.73 10.17 28.77 22.6 9.76-47.57 25.38-56.82 35.45-64.93 21.36-17.38-4.94-47.99-14.7-44.5z" fill="#88ce02"/><path d="M632.41 356.86c-27.12 9.45-53.94 11.82-85.48 31.23-7.5 4.62-23.32 15.1-26.4 35.14 11.51-12.74 38.12-28.77 70.69-38.94 16.44-5.14 28.46-8.53 43.05-14.18-1.04-6.57-1.04-9.14-1.86-13.25z" fill="#88ce02"/><path d="M667.04 413.16s-1.95 6.68-5.86 8.84c0 0-2.88 1.03-8.63-2.16-1.64-.92-2.88-4.11-2.77-5.14.1-2.47.48-3.49.48-3.49s2.75-3.06 4.7-2.96c1.06.06 3.63.6 4.58-.33 1.08 0 1.28.42 1.75 0 .92-1.02 5.95 1.85 5.75 5.24zM625.12 348.54s-.41 5.24-1.13 8.53c-.1.62-3.18.92-5.45 1.85 4.32 12.33 30.31 12.23 33.7 6.17-1.64-1.13-4.93-2.88-6.47-3.49-1.54-.62-1.44-.51-1.54-3.39-.1-2.88-.31-8.22-.51-9.66-.21-1.45-16.14-1.45-18.6-.01z"/><path d="M626.15 348.54s0 2.98-.31 5.86c-.1 1.33-.21 2.16-.41 3.18-.1.62 3.49 3.08 4.52 8.53 4.93 10.99 16.34 5.55 21.06.31-1.64-1.13-4.32-2.67-7.4-3.9-1.54-.62-.82-1.95-.92-4.83-.1-2.88-.51-7.09-.72-8.63-.21-1.55-13.36-1.96-15.82-.52z" fill="#efefef"/><path d="M625.12 348.54s-.1 1.85-.41 4.01c1.33 1.33 3.08 3.18 4.42 4.32.92.82 3.18.72 5.24.72 1.85 0 3.49.2 4.21-.21 1.64-.82 4.01-2.88 5.34-4.42-.1-1.85-.21-3.6-.31-4.42-.1-1.44-16.03-1.44-18.49 0z"/><path d="M634.47 356.35c-1.23 0-2.67-.1-3.8-.31-.51-.1-1.03-.41-1.44-.62-.72-.51-1.44-1.13-2.26-1.75-1.64-1.23-1.75-1.95-1.75-2.26.72-6.47-.21-11.92-.21-11.92s-.72-2.77 3.19-3.49c3.9-.72 6.27-.82 6.27-.82s2.47 0 6.27.82c3.9.72 3.19 3.49 3.19 3.49s-.92 5.44-.21 11.92c0 .31-.1 1.03-1.75 2.26-1.44 1.03-2.57 2.16-3.7 2.36-1.13.22-2.57.32-3.8.32z"/><path d="M634.47 332.51c-6.78 0-8.12 1.85-10.07 3.9-.41.51-.1 3.6.62 10.17h.92s-.62-1.85-.51-4.01c.1-2.16.51-2.05.21-2.57-.41-.62-1.23-1.64.62-2.67s4.73.82 8.22.92c3.49-.1 6.47-1.95 8.32-.92 1.85 1.03 1.03 2.05.62 2.67-.41.62.1.41.21 2.57.1 2.16-.51 4.01-.51 4.01h.92c.62-6.58 1.03-9.45.72-9.97-1.77-2.25-3.51-4-10.29-4.1zM653.68 368.06s6.47-1.54 10.89 2.67c4.42 4.32 4.11 9.66 2.77 12.95 1.13 1.34 3.18 5.03 1.64 9.45 6.78 5.75 3.8 14.59-2.26 20.45 0 0-1.44-5.34-7.19-5.65.21-2.05-5.34-3.7-2.77-9.04-3.9-.92-3.8-3.6-4.42-6.88-.51-3.3 1.34-23.95 1.34-23.95z"/><path d="M651.32 370.94s7.5-3.8 11.92.51 3.18 9.04 1.85 12.33c1.13 1.34 3.8 5.14 2.16 9.66-.31 1.03-2.57 1.03-4.21 3.7 4.11-2.36 6.68-1.75 7.6 1.23 1.44 4.62-1.75 10.17-4.52 13.25 0-.1-.1-.21-.1-.31-.41 1.54-.92 4.52-4.01 7.81-1.54 1.64-2.77 1.44-4.52 1.03-2.05-.51-2.77-1.44-5.65-2.98-1.64-.92-.72-2.05-.72-2.98 0-.21.21-.51.51-.92.2-.51.82-1.33 1.75-2.26 0 0 1.33-1.85 3.29-1.75 1.95.1 4.01-.31 4.52-.82 0-3.6-4.11-3.7-2.67-9.86.1-.31.62-.82 2.26-1.03-2.47-.51-3.6-.62-5.34-2.26-1.23-1.13-2.16-2.57-2.47-4.42-.63-3.19-1.65-19.93-1.65-19.93z" fill="#efefef"/><path d="M629.64 364.46c-.62-.82-3.8-4.93-9.86-6.58-1.75-.51-2.88.92-4.62 1.95-.51-.31-2.77-1.34-4.01-.62s-2.05 1.44-3.29 1.95c-.62-.31-2.26-.31-3.6.21-1.33.41-3.39 1.33-5.34 4.01-1.23 4.42 21.78 1.13 21.78 1.13l8.94-2.05z"/><path d="M629.84 364.46c-3.29-1.13-2.77-4.93-10.07-5.55-1.44-.1-2.36 1.03-3.39 1.75.51.51 1.03 1.34 1.34 2.16-.92-1.03-2.57-2.36-4.21-2.67-1.54-.31-2.57.82-4.21 1.64.31.31.62.82 1.03 1.44-1.44-.92-2.47-1.23-4.42-.51-1.34.41-3.9 1.54-5.86 4.31-1.23 4.42 20.75-.51 20.75-.51l9.04-2.06zM648.75 365.59s.62-.51.41-.62c1.13-.62 2.67-1.34 3.39.62 2.36-.82 2.67.31 3.8 1.54 2.88-1.34 3.08.31 3.29 1.03-.92 0-2.26.1-4.11.31-3.49.51-6.89-2.98-6.78-2.88z" fill="#88ce02"/><path d="M613.82 363.03s5.86 2.05 10.79 1.75c4.93-.41 13.36-.82 17.88 1.85 0 0 4.62-1.64 8.94-.51s12.23 8.53 9.86 16.34c-.21.51-1.54 1.34-3.08 1.85 0 0 .82 3.49-.62 6.37-1.44 2.77-4.62 8.12-4.73 15.51-.1 1.23-.31 3.8-.51 5.03-8.01-.31-20.34-3.29-32.47-3.08.1-1.33.21-2.16.31-3.49h.31c-.62-3.39-.82-5.14-1.44-7.71-3.9-2.46-8.01-5.34-11.51-10.79-3.39-5.45 6.27-23.12 6.27-23.12zM653.47 418.51s6.37 22.81-1.13 32.36c0 0 1.13 4.42-1.44 9.14-.41 2.05-.92 3.9-1.23 5.96-1.34 8.53-3.6 12.12-4.21 25.79l-6.17-.1s-.72-9.86-2.88-15.1c-1.23-2.98-6.06-6.99-5.86-10.99.21-3.08.82-5.65 6.06-9.76.41-5.96-5.55-11.61-4.62-33.8l21.48-3.5z"/><path d="M651.62 417.58c1.64 10.48 5.45 25.99-1.44 33.6.31 1.44.51 3.49.1 5.86-.21 1.23-.62 2.57-1.13 4.01-1.03 2.47-1.44 6.06-1.75 8.22-1.34 8.53-8.84 12.64-10.99 7.4-1.23-2.98-3.8-5.55-4.01-9.55-.21-3.08 1.95-9.25 7.09-9.04-.31-12.43-6.06-9.97-7.6-35.86l19.73-4.64zM613.82 363.03s2.26.72 4.72.92c2.47.21 5.14 0 7.5-.1 4.93-.41 11.92-.92 16.54 1.75 0 0 2.57-.82 5.34-.62 1.23.1 2.47 1.13 3.9 1.54 4.52 1.13 8.84 8.63 6.88 15.41-.21.51-1.64 0-3.29.51.31 1.44.51 4.73-1.13 8.22-1.75 3.49-4.01 8.01-3.6 16.64-10.79-.51-15.62-1.23-26.3-1.75-.92-3.8-1.54-7.6-1.64-9.55 1.44-.72 2.26-1.33 3.39-2.57-3.08.51-4.32.31-6.17-.72s-5.14-4.32-6.78-6.47c-.21-.21-1.34 3.18-3.9 3.29-.93-1.33 2.98-5.14 2.26-6.58-2.55-5.23 2.28-19.92 2.28-19.92z" fill="#efefef"/><path d="M640.32 422.62s-5.44-12.12-21.78-8.53c-3.9 10.99-9.14 23.63-5.75 37.3-3.39 4.62-7.29 7.19-7.29 15.72 0 8.53.41 9.97.41 9.97l12.02.62s3.9-5.03 5.45-10.48c.41-1.54.82-4.32.51-7.5.41-.62 2.16-2.05 2.36-4.83 0 0 5.86-3.08 9.25-10.58 3.18-6.8 2.36-12.65 4.82-21.69z"/><path d="M652.24 422.31c0-1.95-.82-3.9-1.34-6.88-.31-1.64-.72-3.49-.72-6.06.21-.41.41-2.36.21-3.49-5.14-.51-13.97-1.23-26.51-1.23-.1.72-.31 2.26-.41 3.49-.67 1.64-1.07 3.5-1.48 5.3-.42.07-.85.15-1.3.25-8.94 23.84-5.65 33.7-4.32 38.01-6.06 7.71-8.84 9.35-7.6 24.97h8.01c3.7-5.86 4.52-8.01 4.73-15.72 0-.31-1.13.62-1.95 1.64.62-3.19 2.36-3.8 3.7-5.75.62-.82 1.13-2.05 1.13-3.7 7.19-4.83 9.86-10.89 11.4-17.16.7-2.43 1.46-5.75 2.32-8.53 6.53-.18 14.13.74 14.13-5.14z" fill="#efefef"/><path d="M614.95 406.07s2.77.1 5.24.92c2.36.82 2.36 1.33 3.29 2.36.92 1.03 3.18 2.57 2.77 4.11-.21.82-.72 1.03-1.44 1.75-.31.31-2.57 2.77-3.08 3.08-.31.21-.72.51-1.03.72-.31.21-1.23.82-1.54 1.03-1.03.51-1.75.82-2.88.72 0 0-2.57-.1-4.21-1.85 0 0-.21-.82.21-1.23 0 0-2.16-1.85-2.78-3.08-.62-1.23-.62-2.98-.21-3.9.21-.93 4.22-3.5 5.66-4.63zM606.42 461.14c.92.62 7.19 4.32 17.36 3.8-.21 1.95-.1 5.75-4.62 12.43-2.26 3.29-4.21 9.04-4.62 16.34.1 1.64 1.03 3.08-.21 5.24.41 1.33 2.05 4.01 2.88 5.65.82 1.64 1.23 3.49-4.21 3.6-5.55.1-14.49-.51-13.25-4.83.62-2.26 2.36-4.62 2.57-5.55.21-.92.21-3.7 1.95-5.55 1.54-5.14 1.03-10.07.72-14.69-.52-4.83-.63-12.53 1.43-16.44z"/><path d="M615.97 377.41c7.3-9.76 1.13-17.57-10.58-15.21-4.73.92-9.45 4.21-9.76 10.17-1.54.21-5.03.41-6.78 6.78-1.34 4.93-2.05 5.86-4.42 8.32-1.54 1.75.1 5.34 1.23 7.91 3.8 8.84 15.51 9.66 23.43 16.34 2.67-.72 5.45-3.7 6.27-5.65-6.68-7.91-5.24-10.99-7.91-15.1 2.87-1.03 9.45-5.03 8.52-13.56z"/><path d="M614.54 376.79c.41-.62 1.13-1.95 1.44-2.47.1-.1 1.23 1.85 1.34 1.75 2.77-4.52 3.49-11.1.31-11.71-.72-.1-2.05-.41-3.18-.82-2.05-.72-3.9-.72-7.19-.1-4.52.82-9.04 4.11-9.04 8.84 0 .31 3.18 1.23 4.11 5.04-1.54-2.16-4.21-4.52-7.4-2.47-3.39 2.16-1.64 7.09-6.16 12.23-1.54 1.75-1.34 3.8.31 7.91 2.67 6.47 15.31 9.97 22.19 16.13 1.64-.72 2.77-2.36 3.6-3.6-4.62-4.83-6.47-9.35-7.81-12.64-1.64-3.8-3.49-5.96-7.09-8.84 1.85.72 3.29 1.44 4.11 2.06.92.62 2.26.72 3.49.31 4.4-1.55 6.76-7.71 6.97-11.62z" fill="#efefef"/><path d="M659.23 378.44c-.31 3.9-3.18 1.95-4.73 1.23-3.08-1.33-6.16-2.26-9.76-2.26-3.6 0-8.22.31-12.22 1.34-5.55 1.54-7.19 1.44-9.66.21-2.47-1.34-6.78-4.62-6.78-4.62s-.1 1.03.93 2.36c1.33 1.64 4.31 3.7 8.32 5.03 1.95.62 3.49.21 5.24-.21 9.14-2.26 18.8-2.67 26.92 2.26.41.21 1.85-.41 2.47-1.34.81-1.33-.73-4-.73-4z"/><path d="M642.17 336.11c-.31-.92-2.57-2.57-7.81-2.57-5.65 0-7.29 1.75-7.4 2.67 0 .31-.41 3.6-.51 4.93 0 0 0 1.64.1 4.11.1 1.64.51 2.57.72 4.73.21 2.26.82 3.7 1.95 5.55.51.31.92.62 1.44.72 2.05.41 5.65.51 7.6 0 1.13-.31 2.57-2.26 2.88-4.01.41-2.16.82-3.7.92-5.03.21-1.33.31-4.32.41-5.14.32-2.26-.2-5.76-.3-5.96z" fill="#efefef"/><path d="M631.38 463.1s5.45 2.36 18.91.31c0 0-3.8 19.11-2.05 28.66 0 0 1.75 2.47 14.69 7.19 0 0 5.75 1.44 5.55 4.32 0 0 .21.62-6.78.41-6.99-.21-13.56-1.44-18.19-1.44s-9.56.21-10.38-1.13c-.92-1.23.21-4.42 1.54-6.27 1.44-1.95 1.03-3.39.92-6.88-.3-9.15-7.29-18.6-4.21-25.17z"/><path d="M630.25 464.84c-.72 1.03.1 4.93 1.13 8.73 1.03 3.8 3.29 6.06 3.8 12.33.51 6.16.62 6.99-1.13 10.58-1.75 3.6-2.26 6.88 3.8 6.99s9.35-.1 15.51.82c6.16.92 8.32 1.23 11.71.72 3.39-.51 4.11-1.64 2.67-2.67s-7.4-2.16-9.97-4.21c-2.47-1.85-9.45-4.93-9.55-5.75-.31-2.77-.41-12.84.1-16.13s1.23-8.01 1.44-9.25c.21-1.23 1.23-2.47-.51-2.06-1.75.41-8.32 1.34-13.25 1.03-4.92-.31-5.44-1.44-5.75-1.13z" fill="#88ce02"/><path d="M623.37 401.96c0 .72 8.01 4.73 12.43 5.55 4.42.82 13.67 0 15.1-.31l-.21 1.44s-10.99 1.64-19.42-.62c-8.43-2.26-7.5-2.77-7.5-2.77l-.4-3.29z"/><path d="M606.21 489.6c1.23.62 5.65 1.75 8.53 1.13.41-.1 0-7.09 1.13-10.27 1.64-4.42 4.31-8.01 5.55-15.82-4.32-.41-9.25-1.54-11.81-2.36-3.29 10.06-2.16 18.69-3.4 27.32zM613.1 496.08c.72.21 1.23 1.03 1.44.51.41-.92-.72-2.67-.82-3.9v-.1c-.92-.82-7.19-.92-6.78-.51-.72 1.33-1.85 1.13-2.26 3.8-.21 1.33 1.44.21 2.98.1-2.77 1.85-5.96 4.21-6.47 6.27-.62 2.88.41 3.7 3.49 5.24 2.67.62 5.86.72 8.32.62 2.77-.51 3.29-1.85 2.47-3.7-1.24-2.79-2.07-6.38-2.37-8.33z" fill="#efefef"/><path d="M614.23 362.61c3.39 1.95 8.12 1.44 9.86 1.34.41 0 4.52-.72 4.73-.62.41.1.41.41.41.41s-1.54.82-5.03 1.03c-3.29.21-7.19 0-9.35-1.03-2.57-1.13-.62-1.13-.62-1.13z"/><path d="M613.71 407.2c2.98-.21 6.06.51 8.01 2.57 1.03 1.03 2.67 2.16 2.47 3.18 0 .31-.62 1.13-1.13 1.75-.31.41-1.23 1.33-1.54 1.64-.41.31-1.85 1.44-2.16 1.64s-.72.72-1.03.82c-1.03.51-2.16.1-3.19-.41-1.03-.51.21-.62-.92-1.44-2.77-1.95-4.32-3.29-3.18-7.09.1-.7 1.24-1.53 2.67-2.66z" fill="#efefef"/><path d="M587.51 383.68c-9.25 3.7-32.77 15.41-39.45 19.01 5.55 3.49 8.12 11.92 8.94 20.45.1.82.21 1.54.31 2.36.1.72.21 1.23.31 1.54 0 .1 0 .31.1.41 6.06-16.54 27.74-34.01 28.56-35.34.41-.62-.51-3.29.92-5.86 1.86-3.29 5.45-4.73.31-2.57zM609.5 461.25c4.73-9.45 4.83-18.49 4.73-29.08 0-4.42 3.18-10.69 1.54-8.94-6.17 6.88-21.68 19.83-32.88 20.55 15.72-.51 21.88 7.4 26.61 17.47z" opacity=".4"/><path d="M539.02 411.42c5.86-4.21 36.17-20.34 43.46-22.6 7.29-2.36 5.03-5.14 5.03-5.14s-29.59 12.74-47.26 23.73"/><path d="M625.32 381.72c-2.36-.92-4.21 1.85-3.6 4.52.62 2.67 6.17 5.65 5.86 15.41-.21 8.01-1.95 11.3-1.95 11.3l-3.9-4.93s-.62-11.1-1.95-12.74c-1.34-1.64-5.55-4.62-7.19-6.17s1.85-3.6 1.64-6.47c-.21-2.77 1.75-8.32 1.75-8.32l9.34 7.4zM639.6 425.49c-.21 7.71 1.54 19.11 2.26 24.56.72 5.45 1.64 5.86 0 8.32-1.64 2.36-3.8 6.27-3.8 6.27l-7.09-.62s5.65-7.19 5.96-8.53c.31-1.33-2.88-11.51-2.88-11.51l5.55-18.49zM625.94 353.57c1.44 3.18 3.18 4.62 5.96 5.55 1.64.62 8.12 1.44 10.69-1.44 1.13-1.33.41-4.93.41-4.93l-5.86 4.73-7.91-1.44-.92-2.36-2.37-.11z" opacity=".4"/><path d="M625.63 360.97c3.39 1.44 9.97 2.98 11.82 3.39 1.85.41 4.83-1.44 6.27-2.36 2.57-1.64 5.86-.31 7.4 1.44 1.03 1.13 1.44 1.85 1.44 2.16 0 .41-1.23 0-1.23 0-.72-.31-1.54-.41-2.16-.82-.82-.41-1.65-1.03-2.88-.92-5.14.62-6.17 2.36-10.58 1.34-4.42-1.03-5.55-1.95-10.27-1.65" fill="#88ce02" stroke="#000" stroke-width=".4" stroke-miterlimit="10"/><path d="M609.71 456.93c-.21-.21.21-.41 0-.41-1.33 0-3.18-1.03-4.21-2.47-4.42-6.37-10.89-10.58-22.6-10.27-17.57.41-24.56-6.78-25.89-20.55-.72-7.5-2.77-14.79-6.99-18.9l-2.47 1.54c4.73 4.11 6.27 10.79 7.29 19.93 1.64 13.77 12.74 20.14 25.69 20.34 13.46.21 18.29 2.98 23.32 9.76 1.64 2.16 3.49 2.88 4.93 3.18l.93-2.15z"/><path d="M657.38 390.87c.31 1.54 1.13 4.52 2.77 5.96.72.72.82.92.21.92s-5.14-.21-5.14-.21l-1.23-2.16 3.39-4.51z" opacity=".4"/></symbol><symbol id="gulp" viewBox="0 0 175 387" preserveAspectRatio="xMinYMin meet"><path fill="#DA4648" d="M86.72 304.739c-20.313 0-43.226-1.704-62.246-9.693 11.229 19.185 11.983 29.981 13.627 52.411C40.622 381.864 49.072 386 87.54 386c38.736 0 47.047-4.172 49.036-38.831 1.273-22.186 1.643-33.154 12.517-52.179-19.025 8.058-42.038 9.749-62.373 9.749zm8.947-188.906c-30.314-1.508-76.667-.5-94.087-11.406L11.845 198.9c4.249-14.444 22.892-53.307 44.167-40.857 3.253 1.903 10.943 9.313 6.702 14.434-4.246 5.132-7.967-6.287-10.59-7.64C35 156 16.413 205.171 19.262 215.307c4.002 14.233 23.321-9.211 25.739-14.26.253-.368 7.125-23.106 11.115-13.264 2.902 7.138-5.157 20.585-7.27 27.674-4.306 14.4-7.846 22.043-10.992 21.275-1.583-.387-.764-7.396 3.576-20.804-5.514 6.155-17.523 18.772-26.813 12.037l5.348 56.073c1.876 19.67 66.071 17.057 78.708 16.381 20.406-1.091 52.949.373 55.723-23.696l6.922-60.077c-15.006 13.666-38.748 16.514-20.338-5.299 17.223-20.377-8.142-3.647-13.826 8.512-4.424 9.521-7.21 19.905-11.825 29.267-2.425 4.88-10.028 5.387-8.343-1.593 2.34-9.711 8.219-18.746 12.152-27.834-3.749 3.666-20.39 16.549-22.136 4.129-8.275 6.437-17.966 7.277-15.02-6.059-11.78 20.952-27.648 10.241-19.877-10.455 5.711-15.165 18.271-21.265 8.889-2.636-8.48 16.779-1.681 17.724 5.505 10.571 4.701-4.678 8.957-14.43 11.325-19.881 3.892-8.949 7.821.037 5.231 6.098-1.299 3.029-11.083 23.529-.652 18.689 11.492-5.319 18.356-37.944 23.014-49.686 1.025-2.587 10.057-15.023 10.057-4.966 0 10.026-9.953 24.646-13.678 33.796-9.209 22.688-5.518 25.707 11.622 8.312 1.313-1.355 17.317-23.274 10.296-6.619 4.257-4.643 13.404-13.856 18.785-4.492 4.403 7.672-13.415 23.584-8.999 24.667 4.418 1.084 18.787-12.817 19.133-16.02l3.536-32.748 7.341-67.982C163 114.833 129.167 117.5 95.667 115.833zM87.474 85.99c-25.663 0-54.035-.43-78.914 6.941-19.8 5.866 6.141 11.804 13.253 12.932 14.659 2.324 152.661 12.568 152.661-7.873.001-6.628-38.953-12-87-12zm34.738 15.507c0 4.156-20.679 4.156-20.679 0 0-4.158 20.679-4.158 20.679 0z"/><path fill="#DA4648" d="M103.627 100.252a.47.47 0 00-.078.25c0 1.007 3.727 1.822 8.323 1.822s8.323-.815 8.323-1.822l10.871-44.078 43.231-45.645c.015-.014.027-.028.041-.043.915-1.035-.94-4.238-4.022-6.985-3.08-2.747-6.407-3.677-7.441-2.631-.008.008-.016.016-.021.023l-46.129 48.539-13.098 50.57z"/></symbol><symbol id="heroku" viewBox="0 0 49 60" preserveAspectRatio="xMinYMin meet"><path fill="#6762A6" d="M42.36 58.867H6.509a5.557 5.557 0 01-5.552-5.554V6.209A5.556 5.556 0 016.509.657H42.36a5.556 5.556 0 015.552 5.552v47.094a5.558 5.558 0 01-5.552 5.554v.01z"/><path fill="#FFF" d="M30.383 50.859V27.743s1.491-5.53-18.516 2.259c-.035.115-.035-21.372-.035-21.372l6.539-.046v13.767s18.321-7.228 18.321 5.472V50.86h-6.309zm3.728-33.957h-6.94c2.5-3.052 4.761-8.284 4.761-8.284h7.17s-1.228 3.408-4.991 8.284zM11.935 50.813V37.654l6.585 6.586-6.585 6.585v-.012z"/></symbol><symbol id="illustrator" viewBox="0 0 200 200" preserveAspectRatio="xMinYMin meet"><path fill="#FF9A00" d="M164.584 195H35.417C15.833 195 0 179.166 0 159.584V35.417C0 15.833 15.833 0 35.417 0h129.167C184.166 0 200 15.833 200 35.417v124.167C200 179.166 184.166 195 164.584 195z"/><path fill="#300" d="M161.416 186.666H38.583c-16.667 0-30.25-13.582-30.25-30.332V38.667c0-16.75 13.583-30.333 30.25-30.333h122.75c16.75 0 30.25 13.583 30.25 30.25v117.75c.083 16.75-13.499 30.332-30.167 30.332z"/><g fill="#FF9A00"><path d="M100.211 113.369h-31l-6.334 19.584c-.166.75-.833 1.25-1.583 1.166H45.627c-.916 0-1.166-.5-.916-1.5l26.833-77.25c.25-.833.5-1.75.833-2.75.334-1.75.5-3.583.5-5.417-.083-.417.25-.833.667-.917h21.583c.667 0 1 .25 1.084.667l30.417 85.833c.25.918 0 1.334-.834 1.334h-17.416c-.584.084-1.167-.334-1.334-.916l-6.833-19.834zM74.044 96.453h21.167c-.5-1.75-1.167-3.833-1.917-6-.75-2.25-1.5-4.667-2.25-7.167-.833-2.583-1.583-5.083-2.417-7.667-.833-2.583-1.583-5-2.25-7.417-.666-2.333-1.25-4.5-1.833-6.5h-.167c-.75 3.583-1.666 7.167-2.833 10.75-1.25 4-2.5 8.167-3.833 12.333a163.599 163.599 0 01-3.667 11.668zM144.794 60.536c-2.75.083-5.416-1-7.416-2.917-1.918-2.083-2.918-4.833-2.834-7.667-.084-2.833 1-5.5 3-7.417 2-1.917 4.666-2.917 7.416-2.917 3.25 0 5.75 1 7.584 2.917 1.834 2 2.834 4.667 2.75 7.417.084 2.833-.916 5.583-2.916 7.667-1.918 2-4.75 3.084-7.584 2.917zm-9.334 72.333V68.703c0-.833.334-1.167 1.084-1.167h16.5c.75 0 1.084.417 1.084 1.167v64.167c0 .916-.334 1.334-1.084 1.334H136.71c-.832-.001-1.25-.501-1.25-1.335z"/></g></symbol><symbol id="indesign" viewBox="0 0 200 200" preserveAspectRatio="xMinYMin meet"><path fill="#F36" d="M164.584 195H35.417C15.833 195 0 179.166 0 159.584V35.417C0 15.833 15.833 0 35.417 0h129.167C184.166 0 200 15.833 200 35.417v124.167C200 179.166 184.166 195 164.584 195z"/><path fill="#49021F" d="M161.416 186.666H38.583c-16.667 0-30.25-13.582-30.25-30.332V38.667c0-16.75 13.583-30.333 30.25-30.333h122.75c16.75 0 30.25 13.583 30.25 30.25v117.75c.083 16.75-13.499 30.332-30.167 30.332z"/><g fill="#F36"><path d="M72.583 51v85.5c0 .916-.416 1.334-1.166 1.334H55.083c-.75 0-1.083-.418-1.083-1.334V51c0-.75.417-1.083 1.167-1.083h16.25c.5-.083 1 .25 1.083.833.083.083.083.167.083.25zM120.583 139.166c-6.166.084-12.332-1.166-17.916-3.75-5.25-2.416-9.584-6.416-12.584-11.332C87 119 85.5 112.666 85.5 105.084A34.235 34.235 0 0190.083 87.5c3.167-5.417 7.75-9.917 13.25-12.917 5.834-3.25 12.834-4.833 21.084-4.833.416 0 1 0 1.75.083s1.584.083 2.584.167V43.667c0-.583.25-.917.832-.917h16.918c.416-.083.75.25.832.583v79.501c0 1.5.084 3.166.168 5 .166 1.75.25 3.416.332 4.832 0 .584-.25 1.084-.832 1.334-4.334 1.834-8.918 3.166-13.584 4-4.166.75-8.5 1.166-12.834 1.166zm8.168-16.666V85.833c-.75-.167-1.5-.333-2.25-.417-.918-.083-1.834-.167-2.75-.167-3.25 0-6.5.667-9.418 2.167a18.679 18.679 0 00-7.082 6.167c-1.834 2.667-2.751 6.25-2.751 10.583-.083 2.918.417 5.834 1.417 8.584.834 2.25 2.084 4.25 3.75 5.916 1.584 1.5 3.5 2.668 5.666 3.334 2.25.75 4.584 1.084 6.918 1.084 1.25 0 2.416-.084 3.5-.168a7.081 7.081 0 003-.416z"/></g></symbol><symbol id="info" viewBox="32.5 32.5 134.667 134.667" preserveAspectRatio="xMinYMin meet"><path opacity=".4" fill="#FFF" d="M99.998 86.748a7.07 7.07 0 004.956-2.044 7.05 7.05 0 002.044-4.956c0-1.834-.742-3.64-2.044-4.941-1.313-1.305-3.122-2.059-4.956-2.059s-3.641.754-4.939 2.059a6.977 6.977 0 000 9.897 7.025 7.025 0 004.939 2.044zM99.998 89.962a5.479 5.479 0 00-5.479 5.477v32.663a5.479 5.479 0 0010.956 0V95.44a5.477 5.477 0 00-5.477-5.478z"/><circle opacity=".4" fill="none" stroke="#FFF" stroke-width="7" stroke-miterlimit="10" cx="100" cy="102" r="53.814"/></symbol><symbol id="js" viewBox="0 1800 200 200" preserveAspectRatio="xMinYMin meet"><path fill="#f7df1e" d="M14.48 1814.48h169.09v169.09H14.48z"/><path d="M128.06 1946.58c3.41 5.56 7.84 9.65 15.67 9.65 6.58 0 10.79-3.29 10.79-7.84 0-5.45-4.32-7.38-11.57-10.55l-3.97-1.71c-11.47-4.88-19.08-11-19.08-23.94 0-11.92 9.08-20.99 23.27-20.99 10.1 0 17.36 3.52 22.6 12.72l-12.37 7.95c-2.72-4.88-5.66-6.81-10.23-6.81-4.65 0-7.6 2.95-7.6 6.81 0 4.77 2.95 6.7 9.77 9.65l3.97 1.7c13.5 5.79 21.12 11.69 21.12 24.96 0 14.3-11.24 22.14-26.33 22.14-14.76 0-24.29-7.03-28.95-16.25l12.91-7.49zm-56.13 1.38c2.5 4.43 4.77 8.17 10.23 8.17 5.22 0 8.51-2.04 8.51-9.98v-54.03h15.89v54.24c0 16.45-9.65 23.94-23.73 23.94-12.72 0-20.09-6.58-23.84-14.51l12.94-7.83z"/></symbol><symbol id="mailgun" viewBox="0 0 200 200" preserveAspectRatio="xMinYMin meet"><path d="M32.066 19.956c-6.69 0-12.13 5.433-12.13 12.1s5.443 12.1 12.13 12.1 12.13-5.433 12.13-12.1-5.443-12.1-12.13-12.1zm-18.885 12.1c0-10.408 8.46-18.852 18.885-18.852S50.95 21.658 50.95 32.065c0 .72-.066 1.375-.13 2.03-.13 1.833 1.18 3.207 3.016 3.207 3.082 0 3.4-3.993 3.4-5.302 0-13.943-11.28-25.2-25.246-25.2S6.754 18.057 6.754 32 18.033 57.2 32 57.2c7.4 0 14.033-3.207 18.69-8.248l5.18 4.32A31.874 31.874 0 0132 63.942C14.295 63.944 0 49.608 0 32 0 14.326 14.36.056 32 .056 49.705.056 64 14.392 64 32c0 7.07-3.4 12.83-10.164 12.83-3.016 0-4.787-1.375-5.836-2.88-3.344 5.368-9.246 8.902-16.066 8.902-10.295.065-18.754-8.38-18.754-18.786zm18.885-5.564c3.082 0 5.574 2.487 5.574 5.498 0 3.077-2.492 5.564-5.574 5.564S26.492 35.077 26.492 32c.066-3.01 2.492-5.498 5.574-5.498z" fill="#c02126"/></symbol><symbol id="mapbox" viewBox="0 0 32 32" preserveAspectRatio="xMinYMin meet"><path d="M16 0C7.163 0 0 7.163 0 16s7.163 16 16 16 16-7.163 16-16S24.837 0 16 0zm7.595 19.924C18.124 25.395 8.35 23.65 8.35 23.65s-1.764-9.755 3.726-15.244c3.042-3.042 8.08-2.916 11.267.252s3.294 8.225.252 11.267zm-5.76-.972l1.566-3.222 3.222-1.566-3.222-1.566-1.566-3.222-1.566 3.222-3.222 1.566 3.222 1.566z" fill="#4264fb"/></symbol><symbol id="nodejs" viewBox="0 0 32 32"><g fill="#8cc84b"><path d="M14.656.427a2.674 2.674 0 012.61 0c3.974 2.245 7.95 4.487 11.923 6.734.748.421 1.247 1.253 1.24 2.114v13.51c.005.897-.544 1.749-1.332 2.16-3.961 2.233-7.92 4.469-11.88 6.702-.808.462-1.858.426-2.64-.073-1.187-.689-2.377-1.374-3.564-2.061-.243-.145-.517-.26-.688-.495.151-.205.422-.23.642-.32.496-.157.951-.41 1.407-.655.115-.08.255-.049.366.022 1.015.582 2.022 1.181 3.04 1.758.218.125.438-.041.624-.145 3.887-2.197 7.779-4.385 11.665-6.583a.386.386 0 00.212-.38c.002-4.456 0-8.914.001-13.37a.418.418 0 00-.249-.417c-3.947-2.223-7.892-4.45-11.839-6.673a.411.411 0 00-.465 0C11.783 4.477 7.84 6.706 3.892 8.93a.413.413 0 00-.25.414v13.372a.378.378 0 00.214.375c1.053.597 2.108 1.19 3.161 1.785.594.32 1.323.51 1.977.265a1.5 1.5 0 00.971-1.409c.005-4.43-.003-8.862.004-13.292-.014-.197.172-.36.364-.34a65.963 65.963 0 011.518 0c.211-.004.357.208.33.406-.001 4.459.006 8.917-.003 13.376.002 1.188-.487 2.482-1.586 3.063-1.354.701-3.027.553-4.365-.12-1.158-.578-2.263-1.26-3.401-1.88-.79-.409-1.337-1.264-1.331-2.16V9.275c-.009-.879.511-1.726 1.282-2.14L14.657.427z"/><path d="M18.111 9.785c1.727-.11 3.576-.065 5.13.785 1.204.652 1.871 2.021 1.893 3.358-.034.18-.223.28-.395.267-.5 0-1.002.007-1.503-.003-.213.008-.336-.188-.363-.376-.144-.64-.493-1.273-1.095-1.582-.924-.462-1.996-.439-3.004-.43-.736.04-1.527.103-2.15.536-.479.328-.624.99-.453 1.522.16.383.602.506.964.62 2.081.544 4.287.49 6.329 1.207.845.292 1.672.86 1.962 1.745.378 1.186.212 2.604-.632 3.556-.684.784-1.681 1.21-2.675 1.442-1.323.295-2.696.302-4.039.171-1.263-.143-2.577-.475-3.552-1.336-.834-.724-1.241-1.852-1.2-2.94.009-.184.192-.313.368-.297.505-.005 1.01-.006 1.514 0 .202-.014.351.16.362.35.093.61.322 1.25.853 1.61 1.026.662 2.313.617 3.487.635.973-.043 2.066-.056 2.86-.699.418-.367.543-.98.43-1.508-.123-.446-.59-.654-.99-.79-2.055-.65-4.285-.414-6.32-1.149-.826-.292-1.625-.844-1.943-1.693-.443-1.2-.24-2.687.693-3.607.909-.915 2.221-1.268 3.47-1.394z"/></g></symbol><symbol id="parcel" viewBox="0 0 200 200" preserveAspectRatio="xMinYMin meet"><linearGradient id="parcel-a" gradientUnits="userSpaceOnUse" x1="72.512" y1="108.938" x2="46.365" y2="37.1"><stop offset=".164" stop-color="#945b1e"/><stop offset=".218" stop-color="#986023"/><stop offset=".284" stop-color="#a36d33"/><stop offset=".358" stop-color="#b6824c"/><stop offset=".436" stop-color="#d0a06f"/><stop offset=".445" stop-color="#d3a473"/></linearGradient><path d="M13.15 49.19s59.33-15.94 59.83-15.94 20.13 30 20.71 30.82c.58.82.74 1.89.74 3.7v33.2L41.91 87.73l-7.73-6.25-21.03-32.29z" fill="url(#parcel-a)"/><linearGradient id="parcel-b" gradientUnits="userSpaceOnUse" x1="126.205" y1="118.119" x2="142.734" y2="40.358"><stop offset=".164" stop-color="#945b1e"/><stop offset=".257" stop-color="#975e21"/><stop offset=".338" stop-color="#9e672c"/><stop offset=".415" stop-color="#ac763e"/><stop offset=".488" stop-color="#be8c57"/><stop offset=".551" stop-color="#d3a473"/></linearGradient><path d="M113.9 37.03l69.62 12L163.7 79.6l-9.18 44.54-60.1-14.96V69.82c0-3.2.25-5.42 1.73-7.31 1.48-1.9 17.75-25.48 17.75-25.48z" fill="url(#parcel-b)"/><linearGradient id="parcel-c" gradientUnits="userSpaceOnUse" x1="152.139" y1="172.787" x2="152.139" y2="54.997"><stop offset=".368" stop-color="#c99867"/><stop offset=".795" stop-color="#cf9f6e"/><stop offset="1" stop-color="#d3a473"/></linearGradient><path d="M110.39 172.79l51.72-33.09s2.63-53.8 2.63-56.32.88-3.62 2.19-4.82C168.25 77.35 193.89 55 193.89 55L141.4 77.35s-26.41 23.56-27.83 24.98c-1.42 1.42-3.18 3.07-3.18 6.68v63.78z" fill="url(#parcel-c)"/><path d="M39.5 146.6l70.89 26.19V109.9c0-2.18 0-4.38-1.32-5.48-1.31-1.1-24.76-16.44-24.76-16.44L7.57 68.69S31.82 82.72 33.69 83.7c1.86.99 2.74 1.42 2.74 4.82 0 3.4 3.07 58.08 3.07 58.08z" fill="#b88b60"/><path d="M65.36 109.13l12.05 3.62V98.83c0-1.1.11-2.19-2.3-3.62-2.41-1.42-26.29-16.15-26.29-16.15l-12.5-3.14s24.87 14.8 26.08 15.57c1.21.77 2.63.77 2.63 4.27 0 3.5.33 13.37.33 13.37z" fill="#8e643a"/><path d="M135.1 109.92l8.79-4.27s.33-12.33.41-13.56.41-2.3 1.64-3.37 27.99-25.23 27.99-25.23l-8.37 3.56s-27.18 24.87-28.08 25.69c-.9.82-2.38 1.73-2.38 3.53v13.65z" fill="#ae7f53"/><path d="M101.96 162.66l-.03-10.69 1.2.49-2.35-5.89-2.27 4 1.2.49.03 10.69-3.75-1.53-.04-10.69 1.21.49-2.35-5.88-2.28 3.99 1.2.49.03 10.69-1.36-.56v2.16l10.94 4.47v-2.16zM82.02 149.61l.02 5.4c-1.78-.48-3.15.27-3.15.27l7.48 3.05s-1.37-1.86-3.16-2.84l-.02-5.4c1.92.42 3.39-1.26 3.38-4.03l-.02-4.92-5.37-2.19.54 2.41-.63.76.56 4.15-1.7-4.81.4-.97-.53-2.1-1.23-.5.02 4.9c0 2.76 1.48 5.65 3.41 6.82z"/></symbol><symbol id="pepsi" viewBox="0 0 250 180" preserveAspectRatio="xMinYMin meet"><g transform="matrix(.5 0 0 .5 .645 1.355)"><circle cx="255.978" cy="180.135" r="148.213" fill="#fff"/><path d="M344.743 61.655C320 43.095 289.298 32.101 256.01 32.101c-81.708 0-147.94 66.244-147.94 147.952 0 32.881 10.739 63.25 28.882 87.811C236.44 238.9 315.01 160.847 344.741 61.651" fill="#eb1933"/><path d="M380.13 99.593c2.98 9.683 4.635 19.942 4.635 30.587 0 34.347-16.918 64.563-42.573 83.482-44.684 32.895-109.782 32.939-199.667 61.263 27.134 32.428 67.895 53.073 113.488 53.073 81.714 0 147.971-66.239 147.971-147.94 0-29.663-8.79-57.278-23.855-80.457z" fill="#2151a1"/></g></symbol><symbol id="photoshop" viewBox="0 0 234 234" preserveAspectRatio="xMinYMin meet"><path fill="#26c9ff" d="M197.5 234h-155C19 234 0 215 0 191.5v-149C0 19 19 0 42.5 0h155C221 0 240 19 240 42.5v149c0 23.5-19 42.5-42.5 42.5z"/><path fill="#062026" d="M193.7 224H46.3c-20 0-36.3-16.3-36.3-36.4V46.4C10 26.3 26.3 10 46.3 10h147.3c20.1 0 36.3 16.3 36.3 36.3v141.3c.1 20.1-16.2 36.4-36.2 36.4z"/><path fill="#d9f5FF" d="M58 54.8c0-.7 1.4-1.2 2.2-1.2 6.4-.3 15.9-.5 25.8-.5 27.7 0 38.5 15.2 38.5 34.7 0 25.4-18.4 36.3-41 36.3-3.8 0-5.1-.2-7.8-.2v38.4c0 .8-.3 1.2-1.2 1.2H59.2c-.8 0-1.2-.3-1.2-1.2V54.8zm17.8 53.1c2.3.2 4.1.2 8.1.2 11.7 0 22.7-4.1 22.7-20 0-12.7-7.9-19.1-21.2-19.1-4 0-7.8.2-9.6.3v38.6zm86-11.9c-7.9 0-10.6 4-10.6 7.3 0 3.6 1.8 6.1 12.4 11.6 15.7 7.6 20.6 14.9 20.6 25.6 0 16-12.2 24.6-28.7 24.6-8.7 0-16.2-1.8-20.5-4.3-.7-.3-.8-.8-.8-1.6v-14.7c0-1 .5-1.3 1.2-.8 6.3 4.1 13.5 5.9 20.1 5.9 7.9 0 11.2-3.3 11.2-7.8 0-3.6-2.3-6.8-12.4-12-14.2-6.8-20.1-13.7-20.1-25.2 0-12.9 10.1-23.6 27.6-23.6 8.6 0 14.6 1.3 17.9 2.8.8.5 1 1.3 1 2v13.7c0 .8-.5 1.3-1.5 1-4.4-2.8-10.9-4.5-17.4-4.5z"/></symbol><symbol id="php" viewBox="0 -24.5 120 113" preserveAspectRatio="xMinYMin meet"><path fill="#777BB3" d="M59.224 61.988c31.958 0 57.866-13.434 57.866-30.005 0-16.57-25.908-30.004-57.866-30.004-31.96 0-57.868 13.434-57.868 30.004s25.909 30.005 57.868 30.005"/><path d="M32.813 35.427c2.524 0 4.408-.46 5.6-1.363 1.18-.896 1.994-2.448 2.42-4.612.399-2.023.247-3.436-.45-4.198-.713-.778-2.253-1.174-4.58-1.174h-4.032l-2.235 11.347h3.277zm-13.19 13.977a.632.632 0 01-.483-.224.61.61 0 01-.132-.512l5.924-30.07c.058-.29.316-.5.616-.5h12.77c4.014 0 7.001 1.075 8.879 3.195 1.888 2.131 2.47 5.11 1.732 8.855a14.016 14.016 0 01-1.535 4.21 14.126 14.126 0 01-2.826 3.494c-1.384 1.275-2.95 2.202-4.65 2.748-1.675.537-3.825.81-6.39.81h-5.171l-1.477 7.494a.626.626 0 01-.616.5h-6.64zM64.155 41.41a.63.63 0 01-.483-.224.615.615 0 01-.132-.512l2.621-13.305c.25-1.265.187-2.174-.172-2.557-.221-.235-.884-.628-2.846-.628h-4.75L55.1 40.909a.625.625 0 01-.616.5h-6.59a.63.63 0 01-.483-.223.612.612 0 01-.132-.512l5.925-30.07c.057-.29.316-.5.616-.5h6.59c.186 0 .364.082.484.224.12.143.166.33.13.512l-1.429 7.258h5.108c3.89 0 6.53.677 8.067 2.068 1.567 1.42 2.055 3.692 1.453 6.75L71.465 40.91a.624.624 0 01-.615.5h-6.695zM84.646 35.427c2.524 0 4.409-.46 5.6-1.363 1.18-.895 1.993-2.448 2.422-4.612.397-2.023.245-3.436-.451-4.198-.713-.778-2.255-1.174-4.58-1.174h-4.033L81.37 35.427h3.277zM71.457 49.404a.634.634 0 01-.484-.224.618.618 0 01-.133-.512l5.926-30.07c.057-.29.315-.5.616-.5h12.77c4.014 0 7 1.075 8.878 3.195 1.888 2.13 2.47 5.11 1.732 8.855a13.973 13.973 0 01-1.535 4.21 14.14 14.14 0 01-2.826 3.494c-1.385 1.275-2.95 2.202-4.65 2.748-1.675.537-3.824.81-6.39.81h-5.17l-1.477 7.494a.625.625 0 01-.618.5h-6.639z"/><path fill="#FFF" d="M32.288 24.7h3.516c2.807 0 3.782.607 4.114.969.55.601.653 1.87.3 3.665-.397 2.012-1.133 3.439-2.188 4.238-1.08.82-2.835 1.237-5.216 1.237h-2.517l1.991-10.11zm6.03-7.221h-12.77c-.6 0-1.117.42-1.232 1.002L18.391 48.55c-.07.362.025.738.264 1.023.238.285.593.451.968.451h6.64c.602 0 1.118-.421 1.233-1.003l1.378-6.992h4.654c2.632 0 4.847-.283 6.584-.842 1.787-.572 3.43-1.541 4.885-2.884a14.772 14.772 0 002.945-3.643 14.643 14.643 0 001.604-4.395c.777-3.94.145-7.097-1.876-9.38-2.002-2.26-5.148-3.406-9.351-3.406m-9.546 18.566h4.04c2.678 0 4.673-.496 5.983-1.491 1.31-.996 2.194-2.656 2.654-4.983.44-2.236.239-3.812-.6-4.731-.841-.919-2.523-1.378-5.046-1.378h-4.55l-2.48 12.583m9.545-17.329c3.841 0 6.644.994 8.406 2.984 1.76 1.989 2.291 4.765 1.588 8.33a13.336 13.336 0 01-1.467 4.026c-.69 1.217-1.59 2.33-2.703 3.34-1.326 1.223-2.8 2.096-4.42 2.615-1.621.521-3.685.78-6.195.78H27.84l-1.576 7.994h-6.64l5.925-30.069h12.77"/><path fill="#FFF" d="M60.407 9.484H53.82a1.25 1.25 0 00-1.232 1.002L46.66 40.555c-.07.364.026.738.264 1.023.239.287.593.451.968.451h6.59c.6 0 1.116-.42 1.23-1.002l3.198-16.224h4.232c1.957 0 2.368.412 2.385.43.118.126.275.71.017 2.018l-2.621 13.304c-.072.364.025.738.264 1.023.238.286.593.451.967.451h6.695c.6 0 1.118-.42 1.231-1.002l2.757-13.992c.647-3.285.093-5.749-1.645-7.324-1.658-1.502-4.435-2.233-8.49-2.233h-4.348l1.285-6.52a1.225 1.225 0 00-.265-1.023 1.258 1.258 0 00-.968-.451m0 1.238l-1.575 7.995h5.87c3.693 0 6.24.636 7.642 1.905 1.402 1.271 1.822 3.33 1.263 6.177L70.85 40.79h-6.694l2.62-13.305c.3-1.512.189-2.545-.329-3.095s-1.62-.826-3.304-.826h-5.267L54.483 40.79h-6.59l5.926-30.07h6.589"/><path fill="#FFF" d="M84.123 24.7h3.514c2.807 0 3.782.607 4.114.969.55.601.654 1.87.3 3.665-.397 2.012-1.132 3.439-2.188 4.238-1.079.82-2.834 1.237-5.215 1.237H82.13l1.992-10.11zm6.03-7.221H77.381c-.6 0-1.117.42-1.233 1.002L70.226 48.55c-.072.362.024.738.262 1.023.239.285.595.451.97.451h6.639c.602 0 1.118-.421 1.233-1.003l1.377-6.992h4.654c2.631 0 4.847-.283 6.583-.842 1.788-.572 3.432-1.542 4.886-2.884a14.746 14.746 0 002.945-3.643c.752-1.325 1.29-2.805 1.604-4.395.777-3.941.146-7.097-1.875-9.38-2.004-2.26-5.148-3.406-9.352-3.406m-9.546 18.566h4.042c2.675 0 4.67-.496 5.981-1.491 1.31-.996 2.195-2.656 2.653-4.983.442-2.236.24-3.812-.6-4.731s-2.522-1.378-5.045-1.378h-4.55l-2.48 12.583m9.545-17.329c3.841 0 6.644.994 8.405 2.984 1.762 1.989 2.292 4.765 1.59 8.33-.29 1.468-.778 2.809-1.467 4.026a13.427 13.427 0 01-2.703 3.34c-1.326 1.223-2.8 2.096-4.42 2.615-1.621.521-3.686.78-6.196.78h-5.688l-1.576 7.994h-6.64l5.925-30.069h12.77"/></symbol><symbol id="python" viewBox="0.5 0.5 2000 2000" preserveAspectRatio="xMinYMin meet"><path fill="#366D9C" d="M988.188 23.5c-488.405 0-457.918 211.812-457.918 211.812l.548 219.436h466.091v65.877H345.694S33.143 485.186 33.143 978.006c0 492.809 272.795 475.32 272.795 475.32h162.818V1224.65s-8.779-272.785 268.44-272.785h462.254s259.721 4.197 259.721-251.01v-421.98S1498.613 23.5 988.188 23.5zm-256.98 147.561c46.371 0 83.836 37.475 83.836 83.846s-37.484 83.836-83.836 83.836c-46.391 0-83.875-37.465-83.875-83.836 0-46.362 37.503-83.846 83.875-83.846z"/><path fill="#FFDE4F" d="M1002.065 1937.443c488.425 0 457.929-211.812 457.929-211.812l-.539-219.426h-466.08v-65.887h651.213s312.531 35.41 312.531-457.391c0-492.799-272.767-475.338-272.767-475.338h-162.837v228.684s8.808 272.797-268.411 272.797H790.801s-259.72-4.199-259.72 251v421.988s-39.442 255.385 470.984 255.385zm257.009-147.588c-46.381 0-83.855-37.467-83.855-83.838s37.475-83.855 83.855-83.855c46.371 0 83.856 37.484 83.856 83.855s-37.485 83.838-83.856 83.838z"/></symbol><symbol id="react" viewBox="0 0 841.9 595.3" preserveAspectRatio="xMinYMin meet"><g fill="#61DAFB"><path d="M666.3 296.5c0-32.5-40.7-63.3-103.1-82.4 14.4-63.6 8-114.2-20.2-130.4-6.5-3.8-14.1-5.6-22.4-5.6v22.3c4.6 0 8.3.9 11.4 2.6 13.6 7.8 19.5 37.5 14.9 75.7-1.1 9.4-2.9 19.3-5.1 29.4-19.6-4.8-41-8.5-63.5-10.9-13.5-18.5-27.5-35.3-41.6-50 32.6-30.3 63.2-46.9 84-46.9V78c-27.5 0-63.5 19.6-99.9 53.6-36.4-33.8-72.4-53.2-99.9-53.2v22.3c20.7 0 51.4 16.5 84 46.6-14 14.7-28 31.4-41.3 49.9-22.6 2.4-44 6.1-63.6 11-2.3-10-4-19.7-5.2-29-4.7-38.2 1.1-67.9 14.6-75.8 3-1.8 6.9-2.6 11.5-2.6V78.5c-8.4 0-16 1.8-22.6 5.6-28.1 16.2-34.4 66.7-19.9 130.1-62.2 19.2-102.7 49.9-102.7 82.3 0 32.5 40.7 63.3 103.1 82.4-14.4 63.6-8 114.2 20.2 130.4 6.5 3.8 14.1 5.6 22.5 5.6 27.5 0 63.5-19.6 99.9-53.6 36.4 33.8 72.4 53.2 99.9 53.2 8.4 0 16-1.8 22.6-5.6 28.1-16.2 34.4-66.7 19.9-130.1 62-19.1 102.5-49.9 102.5-82.3zm-130.2-66.7c-3.7 12.9-8.3 26.2-13.5 39.5-4.1-8-8.4-16-13.1-24-4.6-8-9.5-15.8-14.4-23.4 14.2 2.1 27.9 4.7 41 7.9zm-45.8 106.5c-7.8 13.5-15.8 26.3-24.1 38.2-14.9 1.3-30 2-45.2 2-15.1 0-30.2-.7-45-1.9-8.3-11.9-16.4-24.6-24.2-38-7.6-13.1-14.5-26.4-20.8-39.8 6.2-13.4 13.2-26.8 20.7-39.9 7.8-13.5 15.8-26.3 24.1-38.2 14.9-1.3 30-2 45.2-2 15.1 0 30.2.7 45 1.9 8.3 11.9 16.4 24.6 24.2 38 7.6 13.1 14.5 26.4 20.8 39.8-6.3 13.4-13.2 26.8-20.7 39.9zm32.3-13c5.4 13.4 10 26.8 13.8 39.8-13.1 3.2-26.9 5.9-41.2 8 4.9-7.7 9.8-15.6 14.4-23.7 4.6-8 8.9-16.1 13-24.1zM421.2 430c-9.3-9.6-18.6-20.3-27.8-32 9 .4 18.2.7 27.5.7 9.4 0 18.7-.2 27.8-.7-9 11.7-18.3 22.4-27.5 32zm-74.4-58.9c-14.2-2.1-27.9-4.7-41-7.9 3.7-12.9 8.3-26.2 13.5-39.5 4.1 8 8.4 16 13.1 24 4.7 8 9.5 15.8 14.4 23.4zM420.7 163c9.3 9.6 18.6 20.3 27.8 32-9-.4-18.2-.7-27.5-.7-9.4 0-18.7.2-27.8.7 9-11.7 18.3-22.4 27.5-32zm-74 58.9c-4.9 7.7-9.8 15.6-14.4 23.7-4.6 8-8.9 16-13 24-5.4-13.4-10-26.8-13.8-39.8 13.1-3.1 26.9-5.8 41.2-7.9zm-90.5 125.2c-35.4-15.1-58.3-34.9-58.3-50.6 0-15.7 22.9-35.6 58.3-50.6 8.6-3.7 18-7 27.7-10.1 5.7 19.6 13.2 40 22.5 60.9-9.2 20.8-16.6 41.1-22.2 60.6-9.9-3.1-19.3-6.5-28-10.2zM310 490c-13.6-7.8-19.5-37.5-14.9-75.7 1.1-9.4 2.9-19.3 5.1-29.4 19.6 4.8 41 8.5 63.5 10.9 13.5 18.5 27.5 35.3 41.6 50-32.6 30.3-63.2 46.9-84 46.9-4.5-.1-8.3-1-11.3-2.7zm237.2-76.2c4.7 38.2-1.1 67.9-14.6 75.8-3 1.8-6.9 2.6-11.5 2.6-20.7 0-51.4-16.5-84-46.6 14-14.7 28-31.4 41.3-49.9 22.6-2.4 44-6.1 63.6-11 2.3 10.1 4.1 19.8 5.2 29.1zm38.5-66.7c-8.6 3.7-18 7-27.7 10.1-5.7-19.6-13.2-40-22.5-60.9 9.2-20.8 16.6-41.1 22.2-60.6 9.9 3.1 19.3 6.5 28.1 10.2 35.4 15.1 58.3 34.9 58.3 50.6-.1 15.7-23 35.6-58.4 50.6zM320.8 78.4z"/><circle cx="420.9" cy="296.5" r="45.7"/><path d="M520.5 78.1z"/></g></symbol><symbol id="return" viewBox="0 0 210 172" preserveAspectRatio="xMinYMin meet"><path fill="none" stroke="#FFF" stroke-width="9.013" stroke-linecap="round" stroke-linejoin="round" stroke-miterlimit="10" d="M150.916 15.569c26.459 0 47.97 22.271 47.97 48.729s-21.39 48.729-47.847 48.729H12.773"/><path fill="none" stroke="#FFF" stroke-width="9.013" stroke-linecap="round" stroke-linejoin="round" stroke-miterlimit="10" d="M61.001 63.782l-49.887 48.179 49.887 44.47"/></symbol><symbol id="ruby" viewBox="0 -66 411 342" preserveAspectRatio="xMinYMin meet"><g fill="#C00"><path d="M352.6 129.5v18.1h32.7c6.7 0 18.2-4.899 18.601-18.6v-7c0-11.7-9.601-18.6-18.601-18.6H369V95h32.3V76.8h-31c-8 0-18.7 6.601-18.7 18.9v6.3c0 12.3 10.601 18.6 18.7 18.6 22.5.101-5.399 0 15.4 0v8.801M177.4 125.1s17.5-1.5 17.5-24.1-21.2-24.7-21.2-24.7h-38.2v71.3h19.2v-17.2l16.6 17.199h28.4L177.4 125.1zm-7.4-14.6h-15.3V94.2h15.4s4.3 1.6 4.3 8.1-4.4 8.2-4.4 8.2zm72.3-33.7h-19.5c-13.9 0-18.6 12.6-18.6 18.6v52.2h19.5v-12.5H242v12.5h18.9V95.4c0-15.2-13.8-18.6-18.6-18.6zm-.3 38.1h-18.4V97.6s0-3.899 6.101-3.899h6.7c5.399 0 5.5 3.899 5.5 3.899v17.3H242zM269.8 76.8h20.3v70.8h-20.3zM318.6 129.3V76.8h-20.2v70.8h47.5v-18.3z"/><path d="M15 147.6h79s-15.1-68.899 34.9-96.8c10.9-5.3 45.6-25.1 102.4 16.9 1.8-1.5 3.5-2.7 3.5-2.7s-52-51.9-109.9-46.1C95.8 21.5 60 48 39 83s-24 64.6-24 64.6z"/><path d="M15 147.6h79s-15.1-68.899 34.9-96.8c10.9-5.3 45.6-25.1 102.4 16.9 1.8-1.5 3.5-2.7 3.5-2.7s-52-51.9-109.9-46.1C95.8 21.5 60 48 39 83s-24 64.6-24 64.6z"/><path d="M15 147.6h79s-15.1-68.899 34.9-96.8c10.9-5.3 45.6-25.1 102.4 16.9 1.8-1.5 3.5-2.7 3.5-2.7s-52-51.9-109.9-46.1c-29.2 2.6-65 29.1-86 64.1S15 147.6 15 147.6zM179.6 24.5l.4-6.7c-.9-.5-3.4-1.7-9.7-3.5l-.4 6.6c3.3 1.1 6.5 2.3 9.7 3.6z"/><path d="M170.1 45.7l-.4 6.3c3.3.1 6.6.5 9.9 1.2l.4-6.2c-3.4-.7-6.7-1.1-9.9-1.3zm-37-31.2h1l-2-6.1c-3.1 0-6.3.2-9.6.6l1.9 5.9c2.9-.3 5.8-.4 8.7-.4zm4.8 36.8l2.3 6.9c2.9-1.4 5.8-2.6 8.7-3.5l-2.2-6.6c-3.4 1-6.3 2.1-8.8 3.2zM92.5 25L88 18.1c-2.5 1.3-5.1 2.7-7.8 4.3l4.6 7c2.6-1.6 5.1-3.1 7.7-4.4zM113 70l4.8 7.2c1.7-2.5 3.7-4.8 5.9-7.1l-4.5-6.8c-2.3 2.1-4.4 4.4-6.2 6.7zm-14.5 32.2l8.1 6.399c.4-3.899 1.1-7.8 2.1-11.699l-7.2-5.7c-1.3 3.7-2.2 7.4-3 11zM54.7 54.7l-7.1-6.2c-2.6 2.5-5.1 5-7.4 7.5l7.7 6.6c2.1-2.7 4.4-5.4 6.8-7.9zM24.5 99.4L13 95.2c-1.9 4.3-4 9.3-5 12l11.5 4.2c1.3-3.4 3.4-8.3 5-12zM97 127.6c.2 5.301.7 9.601 1.2 12.601l12 4.3c-.9-3.9-1.8-8.3-2.4-13L97 127.6z"/></g></symbol><symbol id="sass" viewBox="0 0 64 64" preserveAspectRatio="xMinYMin meet"><path d="M55.094 35.56a13.19 13.19 0 00-5.8 1.35c-.6-1.188-1.2-2.225-1.3-3-.113-.9-.25-1.45-.113-2.525s.763-2.6.763-2.725c-.012-.113-.138-.663-1.425-.675s-2.4.25-2.525.588a14.36 14.36 0 00-.538 1.913c-.225 1.175-2.575 5.338-3.913 7.526-.438-.85-.813-1.6-.888-2.2-.113-.9-.25-1.45-.113-2.525s.763-2.6.763-2.725c-.012-.113-.138-.663-1.425-.675s-2.4.25-2.525.588-.263 1.138-.538 1.913c-.263.775-3.388 7.726-4.2 9.538-.413.925-.775 1.663-1.038 2.163s-.012.038-.037.088l-.35.663v.012c-.175.313-.363.613-.45.613-.062 0-.188-.838.025-1.988.463-2.413 1.588-6.176 1.575-6.313 0-.062.213-.725-.725-1.063-.913-.338-1.238.225-1.313.225s-.138.2-.138.2 1.013-4.238-1.938-4.238c-1.85 0-4.4 2.013-5.663 3.85l-6.376 3.488-.138-.15C11.178 35.66 4.565 32.96 4.84 27.835c.1-1.863.75-6.776 12.7-12.726 9.788-4.875 17.627-3.538 18.99-.563 1.938 4.25-4.188 12.15-14.364 13.29-3.875.438-5.913-1.063-6.426-1.625-.538-.588-.613-.613-.813-.5-.325.175-.125.7 0 1.013.3.788 1.55 2.188 3.675 2.888 1.863.613 6.413.95 11.914-1.175 6.163-2.388 10.976-9.013 9.563-14.55-1.438-5.638-10.788-7.488-19.627-4.35C15.19 11.41 9.5 14.334 5.4 18.172.515 22.722-.26 26.698.064 28.348c1.138 5.888 9.25 9.726 12.5 12.564l-.45.25c-1.625.8-7.813 4.038-9.363 7.463-1.75 3.875.275 6.663 1.625 7.038 4.175 1.163 8.45-.925 10.763-4.363 2.3-3.438 2.025-7.9.963-9.938l-.038-.075 1.275-.75a74.573 74.573 0 012.35-1.325c-.4 1.088-.688 2.375-.838 4.25-.175 2.2.725 5.05 1.913 6.176.525.488 1.15.5 1.538.5 1.375 0 2-1.138 2.688-2.5.85-1.663 1.6-3.588 1.6-3.588s-.938 5.213 1.625 5.213c.938 0 1.875-1.213 2.3-1.838v.012s.025-.038.075-.125c.1-.15.15-.238.15-.238v-.025c.375-.65 1.213-2.138 2.463-4.6 1.613-3.175 3.163-7.15 3.163-7.15s.15.975.613 2.575c.275.95.875 1.988 1.338 3l-.6.825.012.013a35.62 35.62 0 01-.988 1.25c-1.275 1.525-2.8 3.263-3 3.763-.238.588-.188 1.025.275 1.375.338.25.938.3 1.575.25 1.15-.075 1.95-.363 2.35-.538a8.14 8.14 0 002.025-1.063c1.25-.925 2.013-2.238 1.938-3.988-.038-.963-.35-1.913-.738-2.813l.338-.5c1.975-2.888 3.5-6.063 3.5-6.063s.15.975.613 2.575c.238.813.713 1.7 1.138 2.575-1.85 1.513-3.013 3.263-3.413 4.413-.738 2.125-.163 3.088.925 3.313.488.1 1.188-.125 1.713-.35a7.76 7.76 0 002.163-1.113c1.25-.925 2.45-2.213 2.388-3.95-.038-.8-.25-1.588-.538-2.338 1.575-.65 3.613-1.025 6.2-.713 5.563.65 6.663 4.125 6.45 5.575s-1.375 2.25-1.763 2.5c-.388.238-.513.325-.475.5.05.263.225.25.563.2.463-.075 2.925-1.188 3.025-3.863.15-3.438-3.113-7.188-8.9-7.15zM12.19 50.025c-1.838 2.013-4.425 2.775-5.525 2.125-1.188-.688-.725-3.65 1.538-5.788 1.375-1.3 3.163-2.5 4.338-3.238l1.138-.688c.075-.05.125-.075.125-.075.088-.05.188-.113.288-.175.838 3.05.038 5.725-1.9 7.838zm13.44-9.138c-.638 1.563-1.988 5.575-2.8 5.35-.7-.188-1.125-3.225-.138-6.226.5-1.513 1.563-3.313 2.188-4.013 1.013-1.125 2.113-1.5 2.388-1.038.325.6-1.238 4.95-1.638 5.926zm11.088 5.3c-.275.138-.525.238-.638.163-.088-.05.113-.238.113-.238s1.388-1.488 1.938-2.175l1.088-1.388v.15c0 1.8-1.725 3-2.5 3.488zm8.55-1.95c-.2-.15-.175-.613.5-2.063.263-.575.863-1.538 1.9-2.45.125.375.2.738.188 1.075-.013 2.25-1.613 3.088-2.588 3.438z" fill="#cf649a"/></symbol><symbol id="sketch" viewBox="0 0 5.12 5.12" preserveAspectRatio="xMinYMin meet"><g fill-rule="evenodd"><path d="M1.117.416L2.56.264l1.443.152L5.12 1.902 2.56 4.855 0 1.902z" fill="#fdb300"/><g fill="#ea6c00"><path d="M1.037 1.92L2.56 4.855 0 1.919zM4.083 1.92L2.56 4.855l2.56-2.937z"/></g><path d="M1.014 1.92h3.04l-1.52 2.936z" fill="#fdad00"/><g fill="#fdd231"><path d="M2.508.264L1.092.417 1.014 1.92zM2.558.264l1.416.153.079 1.502z"/></g><g fill="#fdad00"><path d="M5.12 1.92L4 .424l.08 1.494zM0 1.92L1.12.424l-.08 1.494z"/></g><path d="M2.534.264L1.014 1.92h3.04z" fill="#feeeb7"/></g></symbol><symbol id="spotify" viewBox="0 0 250 180" preserveAspectRatio="xMinYMin meet"><path fill="#1ed760" d="M240.26 92.521a3.825 3.825 0 01-3.836-3.84 3.858 3.858 0 013.858-3.862 3.825 3.825 0 013.836 3.84 3.862 3.862 0 01-3.858 3.862m.022-7.32a3.431 3.431 0 00-3.457 3.48c0 1.913 1.477 3.454 3.435 3.454a3.435 3.435 0 003.457-3.476 3.405 3.405 0 00-3.435-3.457m.848 3.85l1.087 1.523h-.915l-.975-1.395h-.843v1.395h-.765v-4.03h1.8c.933 0 1.548.48 1.548 1.285 0 .66-.382 1.065-.937 1.223m-.645-1.819h-1.001v1.275h1c.5 0 .796-.244.796-.637 0-.413-.3-.638-.795-.638m-48.013-13.2a3.911 3.911 0 10-.004 7.823 3.913 3.913 0 000-7.826m2.7 10.837h-5.453a.401.401 0 00-.397.401v23.797c0 .225.176.401.397.401h5.456a.401.401 0 00.401-.401V85.269a.401.401 0 00-.4-.401m12.123.022v-.75c0-2.22.85-3.21 2.76-3.21 1.136 0 2.047.226 3.074.57a.397.397 0 00.525-.382v-4.594a.401.401 0 00-.285-.382 14.973 14.973 0 00-4.537-.652c-5.036 0-7.698 2.838-7.698 8.204v1.155h-2.622a.401.401 0 00-.4.398v4.713c0 .221.18.401.4.401h2.622v18.712c0 .218.176.398.397.398h5.456a.401.401 0 00.398-.401V90.358h5.092l7.803 18.712c-.885 1.96-1.755 2.354-2.943 2.354-.964 0-1.977-.288-3.011-.855a.409.409 0 00-.315-.03.397.397 0 00-.237.218l-1.848 4.054a.397.397 0 00.168.517c1.932 1.046 3.675 1.493 5.828 1.493 4.027 0 6.254-1.875 8.216-6.926l9.464-24.457a.397.397 0 00-.371-.548h-5.677a.401.401 0 00-.375.27l-5.82 16.616-6.375-16.627a.397.397 0 00-.371-.259h-9.318m-20.913-.022h-6v-6.139a.397.397 0 00-.401-.397h-5.457a.401.401 0 00-.397.397v6.139h-2.625a.397.397 0 00-.397.401v4.688a.4.4 0 00.397.4h2.625v12.128c0 4.905 2.437 7.387 7.252 7.387 1.958 0 3.578-.401 5.108-1.267a.397.397 0 00.202-.35v-4.462a.397.397 0 00-.577-.36c-1.05.53-2.067.773-3.203.773-1.751 0-2.531-.791-2.531-2.572V90.358h6a.397.397 0 00.401-.401v-4.688a.397.397 0 00-.397-.401m-28.766-.499c-7.35 0-13.113 5.662-13.113 12.888 0 7.151 5.723 12.75 13.024 12.75 7.375 0 13.154-5.64 13.154-12.84 0-7.177-5.737-12.798-13.065-12.798m0 20.107c-3.91 0-6.862-3.142-6.862-7.312 0-4.181 2.85-7.215 6.772-7.215 3.938 0 6.9 3.142 6.9 7.312 0 4.181-2.86 7.215-6.81 7.215m-26.3-20.107c-3.076 0-5.596 1.211-7.673 3.69v-2.79a.401.401 0 00-.398-.401h-5.456a.401.401 0 00-.397.401v31.012a.4.4 0 00.397.397h5.456a.401.401 0 00.398-.397v-9.788c2.081 2.33 4.6 3.469 7.672 3.469 5.707 0 11.486-4.395 11.486-12.795s-5.775-12.798-11.486-12.798m5.145 12.798c0 4.275-2.636 7.264-6.409 7.264-3.73 0-6.543-3.124-6.543-7.264 0-4.14 2.812-7.263 6.543-7.263 3.713 0 6.413 3.052 6.413 7.263m-31.638-6.787c-6.09-1.455-7.173-2.475-7.173-4.616 0-2.025 1.904-3.386 4.74-3.386 2.744 0 5.47 1.031 8.324 3.161a.401.401 0 00.563-.086l2.977-4.196a.401.401 0 00-.075-.54c-3.397-2.73-7.226-4.054-11.7-4.054-6.58 0-11.174 3.945-11.174 9.596 0 6.056 3.963 8.201 10.814 9.855 5.828 1.342 6.814 2.467 6.814 4.48 0 2.228-1.988 3.612-5.194 3.612-3.555 0-6.453-1.2-9.7-4.005a.412.412 0 00-.293-.097.394.394 0 00-.274.142l-3.337 3.967a.394.394 0 00.041.555 19.886 19.886 0 0013.428 5.149c7.088 0 11.67-3.874 11.67-9.866 0-5.066-3.026-7.867-10.451-9.675M44.011 58.02a35.286 35.286 0 100 70.572 35.286 35.286 0 000-70.572m16.184 50.893a2.197 2.197 0 01-3.026.731c-8.287-5.062-18.712-6.206-30.996-3.4a2.198 2.198 0 11-.979-4.287c13.44-3.075 24.97-1.751 34.27 3.934a2.203 2.203 0 01.731 3.022m4.313-9.607a2.752 2.752 0 01-3.78.907c-9.484-5.83-23.943-7.518-35.163-4.113a2.756 2.756 0 01-1.597-5.265c12.817-3.889 28.746-2.002 39.636 4.687a2.752 2.752 0 01.907 3.788m.375-10.009c-11.377-6.753-30.141-7.376-40.997-4.076a3.3 3.3 0 11-1.916-6.315c12.46-3.787 33.182-3.052 46.273 4.718a3.3 3.3 0 01-3.367 5.677" fill-rule="evenodd"/></symbol><symbol id="three" viewBox="0.5 400.5 200 200"><path fill="none" stroke="#444" stroke-width="2.878" stroke-linecap="round" stroke-linejoin="round" stroke-miterlimit="10" d="M20 416.7l41.43 166.79L185.7 464.63z"/><path fill="none" stroke="#444" stroke-width="2.878" stroke-linecap="round" stroke-linejoin="round" stroke-miterlimit="10" d="M123.35 524.26l-19.39-83.27-63.25 59.11z"/><path fill="none" stroke="#444" stroke-width="2.878" stroke-linecap="round" stroke-linejoin="round" stroke-miterlimit="10" d="M154.4 494.57l-9.93-41.87-93.3 89.49 41.26 11.65-30.89-125.12-31.15 29.82z"/></symbol><symbol id="tuborg" viewBox="0 0 250 180" preserveAspectRatio="xMinYMin meet"><g fill="#33b540"><path d="M234.304 107.465V110c0 .657-.367.925-.929 1.165-2.938 1.298-6.922 2.879-11.72 2.879-13.159 0-13.553-11.425-13.62-19.98-.05-8.343 1.393-21.279 11.88-21.279 4.087 0 5.19 1.657 6.407 1.657.92 0 1.281-1.041 1.697-1.021.408.012 3.925.003 3.925.003.142 0 .201.039.201.15v12.33c0 .093-.087.165-.183.165h-5.21c-.105 0-.203-.072-.203-.164 0 0 0-1.557.019-1.576-.198-3.329-1.727-6.843-4.494-6.843-4.697 0-5.003 5.205-5.06 14.873-.05 9.876-.05 17.032 4.642 17.032 2.648 0 3.488-1.481 3.591-1.57v-6.625c0-.56-.414-.876-.77-1.096-.32-.182-.636-.267-.955-.374-1.126-.42-1.147-2.167-1.147-2.468l.004-3.997c0-.1.088-.179.182-.179h10.165c.114 0 .192.079.192.179v11.49c.035.043 1.209 2.047 1.209 2.047.106.083.177.395.177.666zm-44.117-16.566h-3.246V78.845h3.761c2.92 0 4.198 2.983 4.198 6.612 0 3.291-2.107 5.442-4.713 5.442zm16.782 17.197c0-.102-.092-.169-.201-.21-1.332-.537-2.139-1.284-2.565-2.515-2.2-6.216-3.187-9.515-7.844-10.615-.234-.059-.234-.307 0-.394 3.42-1.106 7.385-3.845 7.385-10.316 0-6.363-5.6-10.393-12.164-10.393l-16.16-.008c-.111 0-.204.062-.204.168v3.907c0 .103.093.18.208.18 0 0 3.243.588 3.243 2.5v24.97c0 1.85-3.243 2.452-3.243 2.452-.115 0-.208.1-.208.198v3.919c0 .107.093.188.204.188h14.742c.112 0 .197-.081.197-.188v-3.919a.203.203 0 00-.196-.198s-3.222-.603-3.222-2.451v-8.577h2.955c2.152 0 3.366 2.889 6.066 11.904.316 1.051 1.13 3.418 4.431 3.418l6.395-.02a.182.182 0 00.182-.188v-3.832zm-81.685-.968h-1.966c-.639 0-1.171-.486-1.171-1.092V95.769h3.035c3.547 0 5.353 2.765 5.567 5.626.268 3.377-1.752 5.733-5.465 5.733zm-3.137-28.272h3.137c2.45 0 4.437 1.622 4.437 5.254 0 3.34-1.917 5.314-4.437 5.558l-3.137.019zm9.77 14.043c-.307-.058-.249-.152-.055-.181 4.1-1.492 5.986-5.034 5.986-9.16 0-5.56-4.987-9.905-12.052-9.905-1.957 0-15.086-.012-15.086-.012-.112 0-.21.147-.21.247l-.008 3.989c0 .108.078.143.213.186 1.014.327 3.224.735 3.224 2.327 0 .58-.044 24.207-.044 24.98 0 1.73-2.196 1.998-3.218 2.315-.137.052-.214.085-.214.197l.009 3.993c0 .102.108.24.22.24h16.993c7.57 0 12.116-4.01 12.116-10.094 0-5.498-3.762-8.42-7.874-9.122zm-23.77-19.056v3.97c0 .11-.067.168-.19.19-1.413.327-3.247 1.042-3.247 2.387v22.851c0 6.82-7.596 9.605-13.3 9.605-5.46 0-12.603-2.785-12.603-9.605V80.39c0-1.772-3.23-2.387-3.23-2.387-.116 0-.199-.08-.199-.19v-3.97c0-.107.083-.189.194-.189l14.909-.01c.119 0 .196.092.196.2v3.97c0 .108-.077.189-.196.189-1.376.323-3.229 1.04-3.229 2.387v23.312c0 2.758 2.636 4.187 5.056 4.187 2.86 0 5.074-1.443 5.074-4.187V80.39c0-1.707-3.082-2.35-3.238-2.387-.16-.037-.211-.08-.211-.19V73.84c0-.11.092-.194.198-.194l13.827.01c.104 0 .189.08.189.188zm-34.956-1.63l-.01 14.182c0 .096-.08.172-.184.172H68.03c-.1 0-.186-.076-.186-.172l.007-1.6c-.135-5.196-1.68-7.137-2.678-7.137h-1.717v29.416c0 .941.985 1.737 3.06 2.223.152.038.165.113.17.178v3.793a.17.17 0 01-.17.174H52.172a.178.178 0 01-.178-.174v-3.128-.665c.006-.065.012-.14.178-.178 2.075-.486 3.05-1.282 3.05-2.223V77.658h-1.72c-1.003 0-2.57 1.964-2.681 7.273v1.464c0 .096-.082.172-.187.172h-4.964c-.114 0-.207-.076-.207-.172V72.213c0-.111.093-.193.207-.193 0 0 1.603.616 3.086.616h21.166c1.472 0 3.08-.616 3.08-.616.105 0 .188.082.188.193zm84.786 35.576c-5.283 0-5.283-4.69-5.283-15.189 0-10.49.065-14.513 5.358-14.513 5.255 0 5.19 4.023 5.19 14.513 0 10.5 0 15.19-5.265 15.19zm0-34.792c-15.341 0-15.341 10.524-15.341 19.603 0 9.077 0 20.24 15.34 20.24 15.316 0 15.316-11.163 15.316-20.24 0-9.079 0-19.603-15.315-19.603"/><path d="M66.937 47.632c-.379-.188-.868-.38-1.475-.587 0 0-7.578-2.392-14.663-1.115-5.791 1.046-10.024 3.135-12.233 6.734-1.905 3.104-.29 5.124-.29 6.928 0 1.743-1.163 2.557-3.369 4.532-2.209 1.974-15.367 11.269-15.6 30.09-.186 14.987 7.888 28.254 15.336 33.112 8.015 5.23 13.746 6.103 19.664 6.391 7.205.345 15.498-2.164 18.94-4.766 1.39-1.049.929-2.09-.698-1.277-.71.354-1.676.983-3.097 1.591-3.077 1.319-8.87 2.824-16.54 1.778-9.254-1.263-20.214-7.203-25.324-20.679-5.594-14.748-3.254-26.257 4.065-36.018 7.32-9.758 12.657-9.079 11.503-13.494-.763-2.92-1.7-5.862 1.386-8.708 1.687-1.558 4.226-2.947 9.221-3.875 4.571-.852 9.898-.035 12.335.76 1.898.618 1.865-.887.839-1.397"/></g></symbol><symbol id="typescript" viewBox="0 0 64 64" preserveAspectRatio="xMinYMin meet"><path d="M0 32v32h64.002V-.002H0zm51.577-2.55c1.625.406 2.865 1.128 4.003 2.306.59.63 1.463 1.778 1.534 2.052.02.08-2.763 1.95-4.45 2.997-.06.04-.305-.223-.58-.63-.823-1.2-1.686-1.717-3.007-1.808-1.94-.132-3.2.884-3.18 2.58 0 .498.07.792.274 1.2.427.884 1.22 1.412 3.708 2.49 4.582 1.97 6.542 3.27 7.76 5.12 1.36 2.062 1.666 5.354.742 7.802-1.016 2.662-3.535 4.47-7.08 5.07-1.097.193-3.698.163-4.876-.05-2.57-.457-5.008-1.727-6.512-3.393-.59-.65-1.737-2.347-1.666-2.47.03-.04.295-.203.59-.376l2.377-1.37 1.84-1.067.386.57c.538.823 1.717 1.95 2.428 2.326 2.042 1.077 4.846.924 6.227-.315.59-.538.833-1.097.833-1.92 0-.742-.09-1.067-.477-1.625-.498-.71-1.514-1.31-4.4-2.56-3.302-1.422-4.724-2.306-6.024-3.708-.752-.813-1.463-2.113-1.758-3.2-.244-.904-.305-3.17-.112-4.084.68-3.2 3.088-5.415 6.563-6.075 1.128-.213 3.75-.132 4.856.142zm-15.025 2.67l.02 2.62h-8.33v23.67H22.35V34.74h-8.33v-2.57l.07-2.64c.03-.04 5.1-.06 11.246-.05l11.185.03z" fill="#007acc"/></symbol><symbol id="unity" viewBox="0 0 64 64" preserveAspectRatio="xMinYMin meet"><path d="M63.221 25.42L56.387 0 30.87 6.814l-3.775 6.637-7.648-.055L.78 32.006l18.668 18.603 7.658-.057 3.78 6.637L56.388 64l6.832-25.418L59.339 32zm-15.99-15.9L36.037 28.86H13.644l14.094-14.342zM36.037 35.144l11.196 19.338-19.507-5.012-14.094-14.32h22.392zm5.468-3.14L52.7 12.665l5.413 19.34L52.7 51.341z" fill="#222c37"/></symbol><symbol id="vue" viewBox="0 0 261.76 226.69" preserveAspectRatio="xMinYMin meet"><path d="M161.096.001l-30.224 52.35L100.647.002H-.005L130.872 226.69 261.749 0z" fill="#41b883"/><path d="M161.096.001l-30.224 52.35L100.647.002H52.346l78.526 136.01L209.398.001z" fill="#34495e"/></symbol><symbol id="webpack" viewBox="0.5 400.5 200 200" preserveAspectRatio="xMinYMin meet"><path d="M161.71 540.17l-58.63 33.17v-25.83l36.54-20.1 22.09 12.76zm4.02-3.64v-69.35l-21.45 12.4v44.58l21.45 12.37zm-126.44 3.64l58.63 33.17v-25.83l-36.55-20.1-22.08 12.76zm-4.02-3.64v-69.35l21.45 12.4v44.58l-21.45 12.37zm2.52-73.85l60.13-34.01v24.96l-38.53 21.2-.31.17-21.29-12.32zm125.42 0l-60.13-34.01v24.96l38.53 21.18.31.18 21.29-12.31z" fill="#8ed6fb"/><path d="M97.93 542.76l-36.06-19.83v-39.27l36.06 20.82v38.28zm5.14 0l36.05-19.82v-39.28l-36.05 20.82v38.28zm-38.76-63.63l36.19-19.89 36.19 19.89-36.19 20.89-36.19-20.89z" fill="#1c78c0"/></symbol><symbol id="wordpress" viewBox="0 0 32 32" preserveAspectRatio="xMinYMin meet"><path d="M2.26 16c0 5.45 3.13 10.145 7.7 12.348L3.478 10.435C2.725 12.174 2.26 14.03 2.26 16zm23.015-.696c0-1.68-.638-2.9-1.16-3.768-.696-1.16-1.333-2.087-1.333-3.246 0-1.275.986-2.435 2.32-2.435h.174C22.84 3.594 19.594 2.26 16 2.26A13.95 13.95 0 004.522 8.463h.87c1.45 0 3.652-.174 3.652-.174.754-.058.812 1.043.116 1.16 0 0-.754.116-1.565.116l4.986 14.84 3.014-8.986-2.145-5.855L12 9.45c-.754-.058-.638-1.16.058-1.16 0 0 2.26.174 3.594.174 1.45 0 3.652-.174 3.652-.174.754-.058.812 1.043.116 1.16 0 0-.754.116-1.565.116L22.84 24.35l1.4-4.58c.58-1.913 1.043-3.246 1.043-4.464zm-9.043 1.913L12.116 29.16c1.217.348 2.55.58 3.884.58 1.623 0 3.13-.3 4.58-.754-.058-.058-.058-.116-.116-.174zM28.058 9.45l.116 1.4c0 1.4-.232 2.957-1.043 4.928l-4.174 12.116c4.058-2.377 6.84-6.783 6.84-11.884-.058-2.377-.696-4.58-1.74-6.55zM16 0C7.188 0 0 7.188 0 16s7.188 16 16 16 16-7.188 16-16S24.812 0 16 0zm0 31.304C7.594 31.304.754 24.464.754 16A15.27 15.27 0 0116 .754 15.27 15.27 0 0131.246 16c0 8.464-6.84 15.304-15.246 15.304z"/></symbol></svg>