<?xml version="1.0" encoding="UTF-8"?><!DOCTYPE svg PUBLIC "-//W3C//DTD SVG 1.1//EN" "http://www.w3.org/Graphics/SVG/1.1/DTD/svg11.dtd"><svg xmlns="http://www.w3.org/2000/svg" xmlns:xlink="http://www.w3.org/1999/xlink"><defs><linearGradient x1="262.624" y1="547.206" x2="375.377" y2="432.484" id="bootstrap-a" gradientUnits="userSpaceOnUse"><stop offset="0" stop-color="#070135"/><stop offset="1" stop-color="#612d50"/></linearGradient></defs><symbol id="android-studio"><path fill="#7CB342" d="M1000 40.412c-474.219 0-859.375 385.156-859.375 859.375h1718.75c.781-475-384.375-859.375-859.375-859.375z"/><path fill="#8BC34A" d="M1000 899.786H140.625c0 474.219 385.156 859.375 859.375 859.375s859.375-385.156 859.375-859.375H1000z"/><linearGradient id="android-studio-a" gradientUnits="userSpaceOnUse" x1="-429.894" y1="1736.936" x2="48.482" y2="2215.313" gradientTransform="translate(1413.326 -2722.763) scale(1.9992)"><stop offset=".33" stop-color="#263238" stop-opacity=".16"/><stop offset="1" stop-color="#263238" stop-opacity="0"/></linearGradient><path fill="url(#android-studio-a)" d="M1619.531 901.349v-1.562h-39.844L1100 420.099H900.781v160.937H850c-49.219 0-89.844 40.625-89.844 89.844v203.906h.781c-.781 7.031 3.906 15.625 13.281 25.781.782.782.782.782.782 1.563l31.25 31.25-360.156 624.219c41.406 35.156 85.938 65.625 132.812 92.188 125 70.312 267.969 110.938 421.875 110.938 153.125 0 296.875-40.625 421.875-110.938 46.875-26.562 91.406-57.812 132.812-92.188 126.562-107.031 221.094-249.219 269.531-412.5 3.125-10.156 5.469-20.312 8.594-29.688l-214.062-214.062z"/><path fill="#646464" d="M1689.062 1799.786c-.781-7.812-3.125-14.844-7.031-21.875l-250-433.594c115.625-112.5 188.281-270.312 188.281-444.531h-160.156c0 114.062-42.188 218.75-111.719 300L1193.75 932.599l31.25-31.25c10.156-10.156 14.062-19.531 14.062-26.562h.781V670.88c0-49.219-40.625-89.844-89.844-89.844h-50V420.099H900.78v160.937H850c-49.219 0-89.844 40.625-89.844 89.844v203.906h.781c-.781 7.812 3.906 16.406 14.062 26.562l31.25 31.25-488.28 844.532c-3.906 7.031-6.25 14.062-7.031 21.875L300 1944.317c-.781 5.469 2.344 10.156 7.031 13.281 4.688 3.125 10.156 2.344 14.844-.781l120.312-81.25c6.25-4.688 11.719-10.156 15.625-16.406l241.406-417.969c89.062 50 192.188 78.906 301.562 78.906s212.5-28.906 301.562-78.906l241.406 417.188c3.906 7.031 9.375 12.5 15.625 16.406l120.312 82.031c4.688 3.125 10.156 3.125 14.844.782 4.688-3.125 7.031-7.812 7.031-13.281l-12.498-144.532zM1000 659.942v-1.562l.781 1.562c65.625.781 119.531 53.906 119.531 120.312s-53.906 119.531-119.531 120.312H1000c-65.625 0-119.531-53.906-119.531-120.312 0-67.187 53.125-120.312 119.531-120.312zm0 699.219c-80.469 0-156.25-21.094-221.094-57.031l145.312-251.562 30.469 30.469c12.5 12.5 28.906 18.75 44.531 18.75v-.781l.781.781c16.406 0 32.812-6.25 44.531-18.75l30.469-30.469 145.312 252.344c-64.061 35.937-139.842 56.249-220.311 56.249z"/><path fill="#E1E1E1" d="M1689.062 1799.786c-.781-7.812-3.125-14.844-7.031-21.875l-250-433.594-82.812-144.531-154.688-267.188-117.969 117.969 145.312 252.344 79.688 138.281 241.406 417.188c3.906 7.031 9.375 12.5 15.625 16.406l120.312 82.031c4.688 3.125 10.156 3.125 14.844.781 4.688-3.125 7.031-7.812 7.031-13.281l-11.718-144.531z"/><path fill="#F1F1F1" d="M1460.156 899.786c0 114.062-42.188 218.75-111.719 300-35.938 41.406-78.125 76.562-126.562 103.125-65.625 36.719-141.406 57.031-221.875 57.031s-156.25-21.094-221.094-57.031l145.312-252.344L806.25 932.599l-488.281 845.312c-3.906 7.031-6.25 14.062-7.031 21.875L300 1945.099c-.781 5.469 2.344 10.156 7.031 13.281 4.688 3.125 10.156 2.344 14.844-.781l120.312-81.25c6.249-4.688 11.719-10.156 15.625-16.406l241.405-417.969c89.062 50 192.188 78.906 301.563 78.906s212.5-28.906 301.562-78.906c47.656-26.562 91.406-59.375 129.688-96.875 115.625-112.5 188.281-270.312 188.281-444.531l-160.155-.782z"/><path fill="#262626" fill-opacity=".2" d="M1432.031 1333.38c-39.062 37.5-82.031 70.312-129.688 96.875-89.062 50-192.188 78.906-301.562 78.906s-212.501-28.906-301.563-78.906l-241.405 417.969c-3.906 7.031-9.376 12.5-15.625 16.406l-120.312 81.25c-4.688 3.125-10.156 3.125-14.844.781-3.906-2.344-5.469-6.25-6.25-10.156l-.781 7.031c-.781 5.469 2.344 10.156 7.031 13.281 4.688 2.344 10.156 2.344 14.844-.781l120.312-81.25c6.249-4.688 11.719-10.156 15.625-16.406l241.405-417.969c89.062 50 192.188 78.906 301.563 78.906s212.5-28.906 301.562-78.906c47.656-26.562 91.406-59.375 129.688-96.875 115.625-112.5 188.281-270.312 188.281-444.531h-.781c-2.343 170.312-74.219 324.219-187.5 434.375z"/><path fill="#646464" d="M1150 580.255h-50V419.318H900.781v160.937H850c-49.219 0-89.844 40.625-89.844 89.844v203.906h.781c-.781 7.812 3.906 16.406 14.062 26.562l180.469 180.469c12.5 12.5 28.906 18.75 44.531 18.75v-.781l.781.781c16.406 0 32.812-6.25 44.531-18.75l180.469-180.469c10.156-10.156 14.062-19.531 14.062-26.562h.781V670.88c-.779-50-40.623-90.625-90.623-90.625zm-149.219 319.531h-.782c-65.624 0-119.53-53.906-119.53-120.312s53.906-120.312 119.53-120.312V657.6l.782 1.562c65.624.781 119.53 53.906 119.53 120.312s-53.905 119.531-119.53 120.312z"/><path fill="none" d="M1000 899.786h.781c65.625-.781 119.531-53.906 119.531-120.312s-53.906-119.531-119.531-120.312L1000 657.6v1.562c-65.625 0-119.531 53.906-119.531 120.312S933.594 899.786 1000 899.786z"/></symbol><symbol id="android" viewBox="-147 -70 294 345"><g fill="#a4c639"><use stroke-width="14.4" xlink:href="#android-a" stroke="#FFF"/><use xlink:href="#android-b" transform="scale(-1 1)"/><g id="android-b" stroke="#FFF" stroke-width="7.2"><rect rx="6.5" transform="rotate(29)" height="86" width="13" y="-86" x="14"/><rect id="android-c" rx="24" height="133" width="48" y="41" x="-143"/><use y="97" x="85" xlink:href="#android-c"/></g><g id="android-a"><ellipse cy="41" rx="91" ry="84"/><rect rx="22" height="182" width="182" y="20" x="-91"/></g></g><g stroke="#FFF" stroke-width="7.2" fill="#FFF"><path d="M-95 44.5H95"/><circle cx="-42" r="4"/><circle cx="42" r="4"/></g></symbol><symbol id="aws" viewBox="0 0 304 182"><style>.st1{fill-rule:evenodd;clip-rule:evenodd;fill:#f90}</style><path d="M86.4 66.4c0 3.7.4 6.7 1.1 8.9.8 2.2 1.8 4.6 3.2 7.2.5.8.7 1.6.7 2.3 0 1-.6 2-1.9 3L83.2 92c-.9.6-1.8.9-2.6.9-1 0-2-.5-3-1.4-1.4-1.5-2.6-3.1-3.6-4.7-1-1.7-2-3.6-3.1-5.9-7.8 9.2-17.6 13.8-29.4 13.8-8.4 0-15.1-2.4-20-7.2-4.9-4.8-7.4-11.2-7.4-19.2 0-8.5 3-15.4 9.1-20.6 6.1-5.2 14.2-7.8 24.5-7.8 3.4 0 6.9.3 10.6.8 3.7.5 7.5 1.3 11.5 2.2v-7.3c0-7.6-1.6-12.9-4.7-16-3.2-3.1-8.6-4.6-16.3-4.6-3.5 0-7.1.4-10.8 1.3-3.7.9-7.3 2-10.8 3.4-1.6.7-2.8 1.1-3.5 1.3-.7.2-1.2.3-1.6.3-1.4 0-2.1-1-2.1-3.1v-4.9c0-1.6.2-2.8.7-3.5.5-.7 1.4-1.4 2.8-2.1 3.5-1.8 7.7-3.3 12.6-4.5C41 1.9 46.2 1.3 51.7 1.3c11.9 0 20.6 2.7 26.2 8.1 5.5 5.4 8.3 13.6 8.3 24.6v32.4zM45.8 81.6c3.3 0 6.7-.6 10.3-1.8 3.6-1.2 6.8-3.4 9.5-6.4 1.6-1.9 2.8-4 3.4-6.4.6-2.4 1-5.3 1-8.7v-4.2c-2.9-.7-6-1.3-9.2-1.7-3.2-.4-6.3-.6-9.4-.6-6.7 0-11.6 1.3-14.9 4-3.3 2.7-4.9 6.5-4.9 11.5 0 4.7 1.2 8.2 3.7 10.6 2.4 2.5 5.9 3.7 10.5 3.7zm80.3 10.8c-1.8 0-3-.3-3.8-1-.8-.6-1.5-2-2.1-3.9L96.7 10.2c-.6-2-.9-3.3-.9-4 0-1.6.8-2.5 2.4-2.5h9.8c1.9 0 3.2.3 3.9 1 .8.6 1.4 2 2 3.9l16.8 66.2 15.6-66.2c.5-2 1.1-3.3 1.9-3.9.8-.6 2.2-1 4-1h8c1.9 0 3.2.3 4 1 .8.6 1.5 2 1.9 3.9l15.8 67 17.3-67c.6-2 1.3-3.3 2-3.9.8-.6 2.1-1 3.9-1h9.3c1.6 0 2.5.8 2.5 2.5 0 .5-.1 1-.2 1.6-.1.6-.3 1.4-.7 2.5l-24.1 77.3c-.6 2-1.3 3.3-2.1 3.9-.8.6-2.1 1-3.8 1h-8.6c-1.9 0-3.2-.3-4-1-.8-.7-1.5-2-1.9-4L156 23l-15.4 64.4c-.5 2-1.1 3.3-1.9 4-.8.7-2.2 1-4 1h-8.6zm128.5 2.7c-5.2 0-10.4-.6-15.4-1.8-5-1.2-8.9-2.5-11.5-4-1.6-.9-2.7-1.9-3.1-2.8-.4-.9-.6-1.9-.6-2.8v-5.1c0-2.1.8-3.1 2.3-3.1.6 0 1.2.1 1.8.3.6.2 1.5.6 2.5 1 3.4 1.5 7.1 2.7 11 3.5 4 .8 7.9 1.2 11.9 1.2 6.3 0 11.2-1.1 14.6-3.3 3.4-2.2 5.2-5.4 5.2-9.5 0-2.8-.9-5.1-2.7-7-1.8-1.9-5.2-3.6-10.1-5.2L246 52c-7.3-2.3-12.7-5.7-16-10.2-3.3-4.4-5-9.3-5-14.5 0-4.2.9-7.9 2.7-11.1 1.8-3.2 4.2-6 7.2-8.2 3-2.3 6.4-4 10.4-5.2 4-1.2 8.2-1.7 12.6-1.7 2.2 0 4.5.1 6.7.4 2.3.3 4.4.7 6.5 1.1 2 .5 3.9 1 5.7 1.6 1.8.6 3.2 1.2 4.2 1.8 1.4.8 2.4 1.6 3 2.5.6.8.9 1.9.9 3.3v4.7c0 2.1-.8 3.2-2.3 3.2-.8 0-2.1-.4-3.8-1.2-5.7-2.6-12.1-3.9-19.2-3.9-5.7 0-10.2.9-13.3 2.8-3.1 1.9-4.7 4.8-4.7 8.9 0 2.8 1 5.2 3 7.1 2 1.9 5.7 3.8 11 5.5l14.2 4.5c7.2 2.3 12.4 5.5 15.5 9.6 3.1 4.1 4.6 8.8 4.6 14 0 4.3-.9 8.2-2.6 11.6-1.8 3.4-4.2 6.4-7.3 8.8-3.1 2.5-6.8 4.3-11.1 5.6-4.5 1.4-9.2 2.1-14.3 2.1z" fill="#252f3e"/><path class="st1" d="M273.5 143.7c-32.9 24.3-80.7 37.2-121.8 37.2-57.6 0-109.5-21.3-148.7-56.7-3.1-2.8-.3-6.6 3.4-4.4 42.4 24.6 94.7 39.5 148.8 39.5 36.5 0 76.6-7.6 113.5-23.2 5.5-2.5 10.2 3.6 4.8 7.6z"/><path class="st1" d="M287.2 128.1c-4.2-5.4-27.8-2.6-38.5-1.3-3.2.4-3.7-2.4-.8-4.5 18.8-13.2 49.7-9.4 53.3-5 3.6 4.5-1 35.4-18.6 50.2-2.7 2.3-5.3 1.1-4.1-1.9 4-9.9 12.9-32.2 8.7-37.5z"/></symbol><symbol id="blender" viewBox="18 268 180.928 147.722"><path d="M112.234 350.804c.328-5.895 3.22-11.094 7.574-14.78 4.278-3.622 10.032-5.829 16.31-5.833 6.276.004 12.03 2.211 16.308 5.832 4.355 3.687 7.246 8.886 7.578 14.781.332 6.062-2.102 11.7-6.379 15.871-4.356 4.246-10.563 6.914-17.504 6.914-6.945 0-13.156-2.668-17.516-6.914-4.273-4.172-6.707-9.809-6.37-15.87z" fill="#005385" stroke-width="0"/><path d="M74.191 362.741c.04 2.301.782 6.786 1.883 10.297 2.32 7.414 6.258 14.278 11.742 20.328 5.625 6.211 12.543 11.207 20.543 14.746 8.41 3.727 17.524 5.63 26.973 5.61 9.453-.016 18.562-1.949 26.972-5.699 7.993-3.578 14.911-8.586 20.532-14.813 5.476-6.074 9.406-12.949 11.73-20.367a51.442 51.442 0 002.207-11.367 51.794 51.794 0 00-.363-11.289c-1.043-7.332-3.582-14.215-7.484-20.489-3.583-5.76-8.184-10.808-13.66-15.058l.007-.008-55.262-42.437a7.93 7.93 0 00-.14-.118c-3.637-2.777-9.73-2.769-13.715.02-4.039 2.824-4.492 7.484-.91 10.433l-.012.008 23.051 18.75-70.266.074h-.097c-5.805.004-11.383 3.821-12.492 8.633-1.13 4.907 2.816 8.973 8.851 8.996l-.008.024 35.614-.07-63.555 48.777c-.078.062-.164.121-.242.183-5.989 4.59-7.93 12.227-4.157 17.06 3.836 4.913 11.981 4.917 18.04.02l34.683-28.38s-.504 3.832-.465 6.136zm89.121 12.825c-7.144 7.29-17.144 11.414-27.976 11.433-10.836.02-20.84-4.074-27.989-11.344-3.492-3.546-6.058-7.613-7.644-11.96a31.105 31.105 0 01-1.754-13.356 31.591 31.591 0 013.832-12.582c2.09-3.789 4.961-7.21 8.504-10.109 6.945-5.664 15.785-8.727 25.043-8.739 9.258-.01 18.094 3.028 25.043 8.668 3.54 2.883 6.41 6.293 8.496 10.075a31.594 31.594 0 013.84 12.57 31.133 31.133 0 01-1.758 13.36c-1.582 4.351-4.145 8.425-7.637 11.984z" fill="#ff7021" stroke-width="0"/></symbol><symbol id="bootstrap" viewBox="0 0 32 32"><g transform="matrix(.24963 0 0 .24924 -63.666 -106.047)"><rect width="128.016" height="128.546" ry="20.68" x="255.239" y="425.326" fill="url(#bootstrap-a)"/><path d="M320.213 480.665c3.27 0 5.748-.7 7.437-2.133s2.533-3.52 2.533-6.293c0-2.738-.844-4.818-2.533-6.24-1.7-1.458-4.168-2.187-7.437-2.187h-11.48v16.854h11.48m.7 34.827c4.167 0 7.293-.87 9.377-2.613 2.12-1.742 3.18-4.373 3.18-7.893 0-3.45-1.042-6.027-3.126-7.733-2.084-1.742-5.227-2.613-9.43-2.613h-12.18v20.854h12.18m19.293-28.64c4.455 1.28 7.904 3.645 10.347 7.093s3.664 7.68 3.665 12.694c0 7.68-2.623 13.405-7.868 17.174s-13.22 5.653-23.927 5.653h-34.436V449.84h31.15c11.173 0 19.257 1.67 24.25 5.013 5.03 3.342 7.545 8.694 7.545 16.054 0 3.876-.916 7.182-2.748 9.92-1.832 2.702-4.5 4.7-7.976 6.027" fill="#fff"/></g></symbol><symbol id="chrome"><g transform="matrix(.67685 0 0 .67685 -11.319 -1.379)"><linearGradient id="chrome-a" gradientUnits="userSpaceOnUse" x1="-1650.663" y1="1846.643" x2="-1650.663" y2="1881.334" gradientTransform="translate(820.385 -813.913) scale(.4582)"><stop offset="0" stop-color="#81b4e0"/><stop offset="1" stop-color="#0c5a94"/></linearGradient><circle fill="url(#chrome-a)" cx="64.114" cy="49.494" r="17.346"/><linearGradient id="chrome-b" gradientUnits="userSpaceOnUse" x1="-1647.431" y1="1780.922" x2="-1647.431" y2="1819.422" gradientTransform="translate(820.385 -813.913) scale(.4582)"><stop offset="0" stop-color="#f06b59"/><stop offset="1" stop-color="#df2227"/></linearGradient><path fill="url(#chrome-b)" d="M106.42 28.34C94.772 4.908 66.335-4.648 42.9 7a47.361 47.361 0 00-18.13 15.843l19.038 33C40.3 44.7 46.494 32.823 57.638 29.316c1.96-.617 4-.943 6.052-.972"/><linearGradient id="chrome-c" gradientUnits="userSpaceOnUse" x1="-1728.897" y1="1958.01" x2="-1709.437" y2="1925.857" gradientTransform="translate(820.385 -813.913) scale(.4582)"><stop offset="0" stop-color="#388b41"/><stop offset="1" stop-color="#4cb749"/></linearGradient><path fill="url(#chrome-c)" d="M24.77 22.84c-14.572 21.737-8.764 51.161 12.974 65.743a47.374 47.374 0 0022.562 7.87L80.2 62.6c-7.435 9.012-20.767 10.3-29.778 2.854a21.137 21.137 0 01-6.604-9.623"/><linearGradient id="chrome-d" gradientUnits="userSpaceOnUse" x1="-1586.64" y1="1965.401" x2="-1607.371" y2="1915.48" gradientTransform="translate(820.385 -813.913) scale(.4582)"><stop offset="0" stop-color="#e4b022"/><stop offset=".3" stop-color="#fcd209"/></linearGradient><path fill="url(#chrome-d)" d="M60.307 96.455c26.094 1.972 48.847-17.582 50.821-43.676a47.384 47.384 0 00-4.706-24.438H63.7c11.684.054 21.099 9.567 21.056 21.25A21.162 21.162 0 0180.2 62.609"/></g></symbol><symbol id="git" viewBox="0 0 32 32"><path d="M31.396 14.575L17.425.604a2.06 2.06 0 00-2.915 0l-2.9 2.901 3.68 3.68a2.447 2.447 0 013.099 3.12l3.547 3.548a2.451 2.451 0 11-.935 4.05 2.453 2.453 0 01-.534-2.668l-3.308-3.308v8.705a2.453 2.453 0 11-2.016-.071v-8.786a2.451 2.451 0 01-1.331-3.216l-3.628-3.628-9.58 9.58a2.061 2.061 0 000 2.915l13.972 13.97a2.061 2.061 0 002.914 0L31.396 17.49a2.062 2.062 0 000-2.915" fill="#f03c2e"/></symbol><symbol id="google-appscript"><path fill="#367DF5" d="M37.401.293H5.547A5.097 5.097 0 00.45 5.391v53.305a5.097 5.097 0 005.097 5.097h41.921a5.096 5.096 0 005.098-5.097v-43.24L37.401.293z"/><path fill="#EBF2FE" d="M.45 29.812h21.154V19.789L37.401 35.42 21.604 50.966v-9.684H.45z"/><path fill="#A0C3FF" d="M37.401.293V15.37h15.165z"/><path fill="#2255AD" d="M52.566 15.37H37.401l15.165 14.952z"/></symbol><symbol id="google-maps" viewBox="0 0 32 32"><path d="M.273 29.123V6.347A2.4 2.4 0 012.67 3.95h22.776z" clip-rule="evenodd" fill="#1ea361" fill-rule="evenodd"/><path d="M.273 29.601v-.478L25.447 3.95h.478a2.4 2.4 0 012.399 2.398v.479L3.149 32h-.478A2.4 2.4 0 01.273 29.6" clip-rule="evenodd" fill="#fedb43" fill-rule="evenodd"/><path clip-rule="evenodd" fill="#5384c4" fill-rule="evenodd" d="M3.15 32L14.297 20.85 25.447 32z"/><path d="M25.447 32L14.298 20.85l2.877-2.877 11.149 11.15v.477a2.4 2.4 0 01-2.4 2.399h-.477z" clip-rule="evenodd" fill="#fff" fill-rule="evenodd"/><path clip-rule="evenodd" fill="#c2c2c1" fill-rule="evenodd" d="M28.324 29.123l-11.15-11.149 11.15-11.148z"/><path d="M5.276 7.05c1.427-.654 3.213-.387 4.372.682-.362.37-.735.731-1.108 1.09-1.159-1.15-3.337-.604-3.88.918-.71 1.497.47 3.466 2.14 3.488 1.094.127 2.185-.605 2.416-1.694-.764.001-1.527-.006-2.289.006-.021-.47-.024-.942-.014-1.413 1.275.033 2.582-.073 3.839.051.096.933.03 1.923-.472 2.742-.787 1.464-2.644 2.103-4.216 1.734-1.943-.403-3.397-2.396-3.132-4.371.136-1.393 1.077-2.656 2.344-3.233" fill="#efefef"/><path d="M23.424 0h.912c2.273.13 4.495 1.24 5.872 3.067.903 1.154 1.406 2.586 1.52 4.04v.54c-.054 2.82-1.858 5.134-3.42 7.327-1.754 2.478-3.374 5.178-3.824 8.233-.12.517.024 1.241-.594 1.475-.145-.113-.315-.207-.417-.365-.183-1.708-.61-3.394-1.338-4.953-.827-1.817-1.977-3.459-3.147-5.066-.711-.963-1.383-1.96-1.938-3.023-.872-1.593-1.197-3.475-.84-5.263.292-1.411 1.03-2.718 2.053-3.73A8.165 8.165 0 0123.424 0m-.177 4.966c-1.078.24-1.983 1.194-2.074 2.31-.113 1.04.495 2.094 1.426 2.553 1.01.534 2.336.37 3.179-.402.787-.696 1.074-1.899.663-2.872-.487-1.218-1.931-1.912-3.194-1.589" fill="#dc4b3e"/><path d="M23.247 4.966c1.263-.323 2.707.37 3.194 1.589.411.973.124 2.176-.663 2.872-.843.772-2.17.936-3.179.402-.931-.459-1.54-1.514-1.426-2.553.09-1.116.996-2.07 2.074-2.31" fill="#802c27"/></symbol><symbol id="gulp"><path fill="#DA4648" d="M86.72 304.739c-20.313 0-43.226-1.704-62.246-9.693 11.229 19.185 11.983 29.981 13.627 52.411C40.622 381.864 49.072 386 87.54 386c38.736 0 47.047-4.172 49.036-38.831 1.273-22.186 1.643-33.154 12.517-52.179-19.025 8.058-42.038 9.749-62.373 9.749zm8.947-188.906c-30.314-1.508-76.667-.5-94.087-11.406L11.845 198.9c4.249-14.444 22.892-53.307 44.167-40.857 3.253 1.903 10.943 9.313 6.702 14.434-4.246 5.132-7.967-6.287-10.59-7.64C35 156 16.413 205.171 19.262 215.307c4.002 14.233 23.321-9.211 25.739-14.26.253-.368 7.125-23.106 11.115-13.264 2.902 7.138-5.157 20.585-7.27 27.674-4.306 14.4-7.846 22.043-10.992 21.275-1.583-.387-.764-7.396 3.576-20.804-5.514 6.155-17.523 18.772-26.813 12.037l5.348 56.073c1.876 19.67 66.071 17.057 78.708 16.381 20.406-1.091 52.949.373 55.723-23.696l6.922-60.077c-15.006 13.666-38.748 16.514-20.338-5.299 17.223-20.377-8.142-3.647-13.826 8.512-4.424 9.521-7.21 19.905-11.825 29.267-2.425 4.88-10.028 5.387-8.343-1.593 2.34-9.711 8.219-18.746 12.152-27.834-3.749 3.666-20.39 16.549-22.136 4.129-8.275 6.437-17.966 7.277-15.02-6.059-11.78 20.952-27.648 10.241-19.877-10.455 5.711-15.165 18.271-21.265 8.889-2.636-8.48 16.779-1.681 17.724 5.505 10.571 4.701-4.678 8.957-14.43 11.325-19.881 3.892-8.949 7.821.037 5.231 6.098-1.299 3.029-11.083 23.529-.652 18.689 11.492-5.319 18.356-37.944 23.014-49.686 1.025-2.587 10.057-15.023 10.057-4.966 0 10.026-9.953 24.646-13.678 33.796-9.209 22.688-5.518 25.707 11.622 8.312 1.313-1.355 17.317-23.274 10.296-6.619 4.257-4.643 13.404-13.856 18.785-4.492 4.403 7.672-13.415 23.584-8.999 24.667 4.418 1.084 18.787-12.817 19.133-16.02l3.536-32.748 7.341-67.982C163 114.833 129.167 117.5 95.667 115.833zM87.474 85.99c-25.663 0-54.035-.43-78.914 6.941-19.8 5.866 6.141 11.804 13.253 12.932 14.659 2.324 152.661 12.568 152.661-7.873.001-6.628-38.953-12-87-12zm34.738 15.507c0 4.156-20.679 4.156-20.679 0 0-4.158 20.679-4.158 20.679 0z"/><path fill="#DA4648" d="M103.627 100.252a.47.47 0 00-.078.25c0 1.007 3.727 1.822 8.323 1.822s8.323-.815 8.323-1.822l10.871-44.078 43.231-45.645c.015-.014.027-.028.041-.043.915-1.035-.94-4.238-4.022-6.985-3.08-2.747-6.407-3.677-7.441-2.631-.008.008-.016.016-.021.023l-46.129 48.539-13.098 50.57z"/></symbol><symbol id="heroku"><path fill="#6762A6" d="M42.36 58.867H6.509a5.557 5.557 0 01-5.552-5.554V6.209A5.556 5.556 0 016.509.657H42.36a5.556 5.556 0 015.552 5.552v47.094a5.558 5.558 0 01-5.552 5.554v.01z"/><path fill="#FFF" d="M30.383 50.859V27.743s1.491-5.53-18.516 2.259c-.035.115-.035-21.372-.035-21.372l6.539-.046v13.767s18.321-7.228 18.321 5.472V50.86h-6.309zm3.728-33.957h-6.94c2.5-3.052 4.761-8.284 4.761-8.284h7.17s-1.228 3.408-4.991 8.284zM11.935 50.813V37.654l6.585 6.586-6.585 6.585v-.012z"/></symbol><symbol id="illustrator" viewBox="0 0 240 234"><style>.st1{fill:#ff9a00}</style><g id="Layer_2_1_"><g id="Surfaces"><g id="Drawing_Surface"><path d="M42.5 0h155C221 0 240 19 240 42.5v149c0 23.5-19 42.5-42.5 42.5h-155C19 234 0 215 0 191.5v-149C0 19 19 0 42.5 0z" fill="#300" id="Outline_no_shadow"/></g></g><g id="Outlined_Mnemonics_Logos"><g id="Ai"><path class="st1" d="M116.3 140.4H79.1l-7.6 23.5c-.2.9-1 1.5-1.9 1.4H50.8c-1.1 0-1.4-.6-1.1-1.8l32.2-92.7c.3-1 .6-2.1 1-3.3.4-2.1.6-4.3.6-6.5-.1-.5.3-1 .8-1.1H110.2c.8 0 1.2.3 1.3.8l36.5 103c.3 1.1 0 1.6-1 1.6h-20.9c-.7.1-1.4-.4-1.6-1.1l-8.2-23.8zm-31.4-20.3h25.4c-.6-2.1-1.4-4.6-2.3-7.2-.9-2.7-1.8-5.6-2.7-8.6-1-3.1-1.9-6.1-2.9-9.2-1-3.1-1.9-6-2.7-8.9-.8-2.8-1.5-5.4-2.2-7.8h-.2c-.9 4.3-2 8.6-3.4 12.9-1.5 4.8-3 9.8-4.6 14.8-1.4 5.1-2.9 9.8-4.4 14zM169.8 77c-3.3.1-6.5-1.2-8.9-3.5-2.3-2.5-3.5-5.8-3.4-9.2-.1-3.4 1.2-6.6 3.6-8.9 2.4-2.3 5.6-3.5 8.9-3.5 3.9 0 6.9 1.2 9.1 3.5 2.2 2.4 3.4 5.6 3.3 8.9.1 3.4-1.1 6.7-3.5 9.2-2.3 2.4-5.7 3.7-9.1 3.5zm-11.2 86.8v-77c0-1 .4-1.4 1.3-1.4h19.8c.9 0 1.3.5 1.3 1.4v77c0 1.1-.4 1.6-1.3 1.6h-19.6c-1 0-1.5-.6-1.5-1.6z"/></g></g></g></symbol><symbol id="indesign" viewBox="0 0 240 234"><style>.st1{fill:#f36}</style><path d="M42.5 0h155C221 0 240 19 240 42.5v149c0 23.5-19 42.5-42.5 42.5h-155C19 234 0 215 0 191.5v-149C0 19 19 0 42.5 0z" fill="#49021f"/><g id="Outlined_Mnemonics_Logos"><g id="Id"><path class="st1" d="M87.2 61.2v102.6c0 1.1-.5 1.6-1.4 1.6H66.2c-.9 0-1.3-.5-1.3-1.6V61.2c0-.9.5-1.3 1.4-1.3h19.5c.6-.1 1.2.3 1.3 1 .1.1.1.2.1.3zM144.8 167c-7.4.1-14.8-1.4-21.5-4.5-6.3-2.9-11.5-7.7-15.1-13.6-3.7-6.1-5.5-13.7-5.5-22.8-.1-7.4 1.8-14.7 5.5-21.1 3.8-6.5 9.3-11.9 15.9-15.5 7-3.9 15.4-5.8 25.3-5.8.5 0 1.2 0 2.1.1.9.1 1.9.1 3.1.2V52.4c0-.7.3-1.1 1-1.1h20.3c.5-.1.9.3 1 .7v95.4c0 1.8.1 3.8.2 6 .2 2.1.3 4.1.4 5.8 0 .7-.3 1.3-1 1.6-5.2 2.2-10.7 3.8-16.3 4.8-5 .9-10.2 1.4-15.4 1.4zm9.8-20v-44c-.9-.2-1.8-.4-2.7-.5-1.1-.1-2.2-.2-3.3-.2-3.9 0-7.8.8-11.3 2.6-3.4 1.7-6.3 4.2-8.5 7.4s-3.3 7.5-3.3 12.7c-.1 3.5.5 7 1.7 10.3 1 2.7 2.5 5.1 4.5 7.1 1.9 1.8 4.2 3.2 6.8 4 2.7.9 5.5 1.3 8.3 1.3 1.5 0 2.9-.1 4.2-.2 1.3.1 2.5-.1 3.6-.5z"/></g></g></symbol><symbol id="js" viewBox="0 0 630 630"><path fill="#f7df1e" d="M0 0h630v630H0z"/><path d="M423.2 492.19c12.69 20.72 29.2 35.95 58.4 35.95 24.53 0 40.2-12.26 40.2-29.2 0-20.3-16.1-27.49-43.1-39.3l-14.8-6.35c-42.72-18.2-71.1-41-71.1-89.2 0-44.4 33.83-78.2 86.7-78.2 37.64 0 64.7 13.1 84.2 47.4l-46.1 29.6c-10.15-18.2-21.1-25.37-38.1-25.37-17.34 0-28.33 11-28.33 25.37 0 17.76 11 24.95 36.4 35.95l14.8 6.34c50.3 21.57 78.7 43.56 78.7 93 0 53.3-41.87 82.5-98.1 82.5-54.98 0-90.5-26.2-107.88-60.54zm-209.13 5.13c9.3 16.5 17.76 30.45 38.1 30.45 19.45 0 31.72-7.61 31.72-37.2v-201.3h59.2v202.1c0 61.3-35.94 89.2-88.4 89.2-47.4 0-74.85-24.53-88.81-54.075z"/></symbol><symbol id="mailgun"><path d="M32.066 19.956c-6.69 0-12.13 5.433-12.13 12.1s5.443 12.1 12.13 12.1 12.13-5.433 12.13-12.1-5.443-12.1-12.13-12.1zm-18.885 12.1c0-10.408 8.46-18.852 18.885-18.852S50.95 21.658 50.95 32.065c0 .72-.066 1.375-.13 2.03-.13 1.833 1.18 3.207 3.016 3.207 3.082 0 3.4-3.993 3.4-5.302 0-13.943-11.28-25.2-25.246-25.2S6.754 18.057 6.754 32 18.033 57.2 32 57.2c7.4 0 14.033-3.207 18.69-8.248l5.18 4.32A31.874 31.874 0 0132 63.942C14.295 63.944 0 49.608 0 32 0 14.326 14.36.056 32 .056 49.705.056 64 14.392 64 32c0 7.07-3.4 12.83-10.164 12.83-3.016 0-4.787-1.375-5.836-2.88-3.344 5.368-9.246 8.902-16.066 8.902-10.295.065-18.754-8.38-18.754-18.786zm18.885-5.564c3.082 0 5.574 2.487 5.574 5.498 0 3.077-2.492 5.564-5.574 5.564S26.492 35.077 26.492 32c.066-3.01 2.492-5.498 5.574-5.498z" fill="#c02126"/></symbol><symbol id="mapbox-icon" viewBox="0 0 32 32"><path d="M16 0C7.163 0 0 7.163 0 16s7.163 16 16 16 16-7.163 16-16S24.837 0 16 0zm7.595 19.924C18.124 25.395 8.35 23.65 8.35 23.65s-1.764-9.755 3.726-15.244c3.042-3.042 8.08-2.916 11.267.252s3.294 8.225.252 11.267zm-5.76-.972l1.566-3.222 3.222-1.566-3.222-1.566-1.566-3.222-1.566 3.222-3.222 1.566 3.222 1.566z"/></symbol><symbol id="npm" viewBox="0 0 18 7"><path fill="#CB3837" d="M0 0h18v6H9v1H5V6H0V0zm1 5h2V2h1v3h1V1H1v4zm5-4v5h2V5h2V1H6zm2 1h1v2H8V2zm3-1v4h2V2h1v3h1V2h1v3h1V1h-6z"/><path fill="#FFF" d="M1 5h2V2h1v3h1V1H1zM6 1v5h2V5h2V1H6zm3 3H8V2h1v2zM11 1v4h2V2h1v3h1V2h1v3h1V1z"/></symbol><symbol id="photoshop" viewBox="0 0 240 234"><path d="M197.5 234h-155C19 234 0 215 0 191.5v-149C0 19 19 0 42.5 0h155C221 0 240 19 240 42.5v149c0 23.5-19 42.5-42.5 42.5z" fill="#26c9ff"/><path d="M193.7 224H46.3c-20 0-36.3-16.3-36.3-36.4V46.4C10 26.3 26.3 10 46.3 10h147.3c20.1 0 36.3 16.3 36.3 36.3v141.3c.1 20.1-16.2 36.4-36.2 36.4z" fill="#062026"/><path d="M58 54.8c0-.7 1.4-1.2 2.2-1.2 6.4-.3 15.9-.5 25.8-.5 27.7 0 38.5 15.2 38.5 34.7 0 25.4-18.4 36.3-41 36.3-3.8 0-5.1-.2-7.8-.2v38.4c0 .8-.3 1.2-1.2 1.2H59.2c-.8 0-1.2-.3-1.2-1.2V54.8zm17.8 53.1c2.3.2 4.1.2 8.1.2 11.7 0 22.7-4.1 22.7-20 0-12.7-7.9-19.1-21.2-19.1-4 0-7.8.2-9.6.3v38.6zm86-11.9c-7.9 0-10.6 4-10.6 7.3 0 3.6 1.8 6.1 12.4 11.6 15.7 7.6 20.6 14.9 20.6 25.6 0 16-12.2 24.6-28.7 24.6-8.7 0-16.2-1.8-20.5-4.3-.7-.3-.8-.8-.8-1.6v-14.7c0-1 .5-1.3 1.2-.8 6.3 4.1 13.5 5.9 20.1 5.9 7.9 0 11.2-3.3 11.2-7.8 0-3.6-2.3-6.8-12.4-12-14.2-6.8-20.1-13.7-20.1-25.2 0-12.9 10.1-23.6 27.6-23.6 8.6 0 14.6 1.3 17.9 2.8.8.5 1 1.3 1 2v13.7c0 .8-.5 1.3-1.5 1-4.4-2.8-10.9-4.5-17.4-4.5z" fill="#d9f5ff"/></symbol><symbol id="php"><path fill="#777BB3" d="M59.224 55.637c25.192 0 45.616-10.591 45.616-23.654 0-13.062-20.424-23.652-45.616-23.652-25.194 0-45.618 10.59-45.618 23.652 0 13.063 20.424 23.654 45.618 23.654"/><path d="M38.404 34.698c1.99 0 3.475-.362 4.414-1.075.93-.706 1.572-1.929 1.909-3.635.313-1.595.194-2.709-.355-3.31-.563-.613-1.777-.924-3.61-.924h-3.18l-1.762 8.944h2.584zM28.006 45.717a.497.497 0 01-.381-.178.48.48 0 01-.104-.403l4.67-23.704a.494.494 0 01.486-.395h10.067c3.164 0 5.519.848 6.999 2.519 1.488 1.68 1.948 4.029 1.366 6.98a11.05 11.05 0 01-1.21 3.32 11.143 11.143 0 01-2.228 2.753c-1.091 1.006-2.326 1.737-3.667 2.166-1.32.424-3.014.639-5.037.639h-4.076l-1.164 5.908a.493.493 0 01-.486.395h-5.235zM63.111 39.414a.495.495 0 01-.38-.177.484.484 0 01-.105-.403l2.066-10.488c.197-.997.148-1.714-.135-2.016-.175-.185-.698-.495-2.244-.495h-3.744L55.972 39.02a.493.493 0 01-.486.394h-5.194a.496.496 0 01-.381-.177.482.482 0 01-.104-.403l4.67-23.704a.492.492 0 01.486-.395h5.194a.488.488 0 01.486.581l-1.128 5.721h4.027c3.068 0 5.148.534 6.36 1.631 1.235 1.12 1.62 2.91 1.145 5.321l-2.174 11.03a.491.491 0 01-.484.395H63.11zM79.265 34.698c1.989 0 3.474-.362 4.414-1.075.93-.705 1.571-1.929 1.909-3.635.313-1.595.193-2.709-.356-3.31-.562-.613-1.777-.924-3.61-.924h-3.179l-1.762 8.944h2.584zM68.867 45.717a.498.498 0 01-.382-.178.487.487 0 01-.104-.403l4.672-23.704a.492.492 0 01.485-.395h10.067c3.164 0 5.518.848 6.998 2.519 1.489 1.68 1.948 4.028 1.366 6.98a11.04 11.04 0 01-1.21 3.32 11.154 11.154 0 01-2.228 2.753c-1.092 1.006-2.326 1.737-3.666 2.166-1.32.424-3.015.639-5.037.639h-4.076l-1.164 5.908a.494.494 0 01-.487.395h-5.234z"/><path fill="#FFF" d="M37.99 26.241h2.772c2.213 0 2.981.48 3.243.765.433.474.515 1.473.236 2.89-.313 1.585-.893 2.71-1.724 3.34-.851.647-2.235.975-4.112.975H36.42l1.57-7.97zm4.754-5.692H32.677a.986.986 0 00-.97.79l-4.672 23.704a.967.967 0 00.208.807.995.995 0 00.763.355h5.235c.474 0 .88-.332.971-.79l1.087-5.512h3.668c2.075 0 3.821-.223 5.19-.664 1.409-.45 2.704-1.216 3.851-2.274.948-.86 1.73-1.826 2.322-2.871a11.54 11.54 0 001.264-3.465c.612-3.107.115-5.595-1.479-7.394-1.578-1.782-4.058-2.686-7.37-2.686M35.22 35.186h3.184c2.111 0 3.683-.392 4.716-1.176 1.033-.785 1.73-2.094 2.092-3.929.347-1.762.189-3.005-.473-3.729-.663-.724-1.989-1.086-3.977-1.086h-3.587l-1.955 9.92m7.524-13.661c3.029 0 5.238.784 6.627 2.352 1.388 1.568 1.806 3.756 1.252 6.566a10.522 10.522 0 01-1.157 3.174 10.614 10.614 0 01-2.13 2.633c-1.045.965-2.207 1.652-3.484 2.061-1.279.412-2.906.616-4.885.616h-4.483l-1.243 6.302h-5.235l4.671-23.704h10.067"/><path fill="#FFF" d="M60.157 14.247h-5.194a.986.986 0 00-.971.79L49.32 38.74a.965.965 0 00.208.807.993.993 0 00.763.356h5.194c.474 0 .88-.332.971-.79l2.52-12.79h3.335c1.544 0 1.868.325 1.881.34.094.098.217.559.014 1.59L62.141 38.74a.962.962 0 00.208.807.992.992 0 00.762.356h5.278c.472 0 .88-.332.97-.79l2.173-11.03c.51-2.59.073-4.532-1.296-5.774-1.307-1.184-3.497-1.76-6.694-1.76h-3.427l1.013-5.14a.966.966 0 00-.208-.806.993.993 0 00-.763-.356m0 .976l-1.242 6.302h4.627c2.911 0 4.919.501 6.025 1.502 1.105 1.002 1.436 2.625.995 4.87l-2.173 11.03H63.11l2.067-10.488c.235-1.193.148-2.007-.26-2.441-.408-.434-1.277-.652-2.606-.652h-4.15l-2.676 13.58h-5.194l4.67-23.703h5.195"/><path fill="#FFF" d="M78.852 26.241h2.77c2.213 0 2.982.48 3.243.765.434.474.516 1.473.237 2.89-.313 1.585-.893 2.71-1.725 3.34-.85.647-2.234.975-4.111.975H77.28l1.57-7.97zm4.753-5.692H73.538a.987.987 0 00-.972.79l-4.67 23.704a.967.967 0 00.208.807.997.997 0 00.763.355h5.235c.474 0 .88-.332.971-.79l1.086-5.512h3.67c2.073 0 3.82-.223 5.189-.664 1.409-.45 2.705-1.216 3.851-2.274.948-.86 1.73-1.826 2.321-2.871a11.51 11.51 0 001.265-3.465c.612-3.107.115-5.595-1.478-7.394-1.58-1.782-4.059-2.686-7.372-2.686M76.08 35.186h3.186c2.109 0 3.681-.392 4.714-1.176 1.034-.785 1.73-2.094 2.092-3.929.348-1.762.19-3.005-.472-3.729-.663-.724-1.989-1.086-3.978-1.086h-3.587l-1.955 9.92m7.525-13.661c3.028 0 5.237.784 6.625 2.352 1.39 1.568 1.807 3.756 1.253 6.566a10.508 10.508 0 01-1.156 3.174 10.602 10.602 0 01-2.13 2.633c-1.047.965-2.207 1.652-3.485 2.061-1.278.412-2.905.616-4.884.616h-4.484l-1.242 6.302h-5.235l4.671-23.704h10.067"/></symbol><symbol id="python"><g transform="translate(-473.36 -251.725)"><linearGradient id="python-a" gradientUnits="userSpaceOnUse" x1="-173.849" y1="864.242" x2="-119.249" y2="809.459" gradientTransform="matrix(1 0 0 -1 657.563 1125.827)"><stop offset="0" stop-color="#387eb8"/><stop offset="1" stop-color="#366994"/></linearGradient><path fill="url(#python-a)" d="M528.173 251.725c-28.032 0-26.281 12.156-26.281 12.156l.031 12.594h26.75v3.781h-37.375s-17.938-2.034-17.938 26.25 15.656 27.281 15.656 27.281h9.344v-13.125s-.504-15.656 15.406-15.656h26.531s14.906.241 14.906-14.406v-24.219s2.265-14.656-27.03-14.656zm-14.75 8.469c2.662 0 4.812 2.151 4.812 4.812s-2.151 4.812-4.812 4.812c-2.662 0-4.812-2.151-4.812-4.812s2.151-4.812 4.812-4.812z"/><linearGradient id="python-b" gradientUnits="userSpaceOnUse" x1="-140.273" y1="829.369" x2="-81.632" y2="773.187" gradientTransform="matrix(1 0 0 -1 657.563 1125.827)"><stop offset="0" stop-color="#ffe052"/><stop offset="1" stop-color="#ffc331"/></linearGradient><path fill="url(#python-b)" d="M528.969 361.571c28.032 0 26.282-12.156 26.282-12.156l-.031-12.594h-26.75v-3.781h37.375s17.938 2.034 17.938-26.25-15.656-27.281-15.656-27.281h-9.344v13.125s.504 15.656-15.406 15.656h-26.532s-14.906-.241-14.906 14.406v24.219s-2.264 14.656 27.03 14.656zm14.751-8.469a4.806 4.806 0 01-4.812-4.812 4.807 4.807 0 014.812-4.812 4.808 4.808 0 014.812 4.812 4.807 4.807 0 01-4.812 4.812z"/></g></symbol><symbol id="react" viewBox="0 0 841.9 595.3"><script/><g fill="#61DAFB"><path d="M666.3 296.5c0-32.5-40.7-63.3-103.1-82.4 14.4-63.6 8-114.2-20.2-130.4-6.5-3.8-14.1-5.6-22.4-5.6v22.3c4.6 0 8.3.9 11.4 2.6 13.6 7.8 19.5 37.5 14.9 75.7-1.1 9.4-2.9 19.3-5.1 29.4-19.6-4.8-41-8.5-63.5-10.9-13.5-18.5-27.5-35.3-41.6-50 32.6-30.3 63.2-46.9 84-46.9V78c-27.5 0-63.5 19.6-99.9 53.6-36.4-33.8-72.4-53.2-99.9-53.2v22.3c20.7 0 51.4 16.5 84 46.6-14 14.7-28 31.4-41.3 49.9-22.6 2.4-44 6.1-63.6 11-2.3-10-4-19.7-5.2-29-4.7-38.2 1.1-67.9 14.6-75.8 3-1.8 6.9-2.6 11.5-2.6V78.5c-8.4 0-16 1.8-22.6 5.6-28.1 16.2-34.4 66.7-19.9 130.1-62.2 19.2-102.7 49.9-102.7 82.3 0 32.5 40.7 63.3 103.1 82.4-14.4 63.6-8 114.2 20.2 130.4 6.5 3.8 14.1 5.6 22.5 5.6 27.5 0 63.5-19.6 99.9-53.6 36.4 33.8 72.4 53.2 99.9 53.2 8.4 0 16-1.8 22.6-5.6 28.1-16.2 34.4-66.7 19.9-130.1 62-19.1 102.5-49.9 102.5-82.3zm-130.2-66.7c-3.7 12.9-8.3 26.2-13.5 39.5-4.1-8-8.4-16-13.1-24-4.6-8-9.5-15.8-14.4-23.4 14.2 2.1 27.9 4.7 41 7.9zm-45.8 106.5c-7.8 13.5-15.8 26.3-24.1 38.2-14.9 1.3-30 2-45.2 2-15.1 0-30.2-.7-45-1.9-8.3-11.9-16.4-24.6-24.2-38-7.6-13.1-14.5-26.4-20.8-39.8 6.2-13.4 13.2-26.8 20.7-39.9 7.8-13.5 15.8-26.3 24.1-38.2 14.9-1.3 30-2 45.2-2 15.1 0 30.2.7 45 1.9 8.3 11.9 16.4 24.6 24.2 38 7.6 13.1 14.5 26.4 20.8 39.8-6.3 13.4-13.2 26.8-20.7 39.9zm32.3-13c5.4 13.4 10 26.8 13.8 39.8-13.1 3.2-26.9 5.9-41.2 8 4.9-7.7 9.8-15.6 14.4-23.7 4.6-8 8.9-16.1 13-24.1zM421.2 430c-9.3-9.6-18.6-20.3-27.8-32 9 .4 18.2.7 27.5.7 9.4 0 18.7-.2 27.8-.7-9 11.7-18.3 22.4-27.5 32zm-74.4-58.9c-14.2-2.1-27.9-4.7-41-7.9 3.7-12.9 8.3-26.2 13.5-39.5 4.1 8 8.4 16 13.1 24 4.7 8 9.5 15.8 14.4 23.4zM420.7 163c9.3 9.6 18.6 20.3 27.8 32-9-.4-18.2-.7-27.5-.7-9.4 0-18.7.2-27.8.7 9-11.7 18.3-22.4 27.5-32zm-74 58.9c-4.9 7.7-9.8 15.6-14.4 23.7-4.6 8-8.9 16-13 24-5.4-13.4-10-26.8-13.8-39.8 13.1-3.1 26.9-5.8 41.2-7.9zm-90.5 125.2c-35.4-15.1-58.3-34.9-58.3-50.6 0-15.7 22.9-35.6 58.3-50.6 8.6-3.7 18-7 27.7-10.1 5.7 19.6 13.2 40 22.5 60.9-9.2 20.8-16.6 41.1-22.2 60.6-9.9-3.1-19.3-6.5-28-10.2zM310 490c-13.6-7.8-19.5-37.5-14.9-75.7 1.1-9.4 2.9-19.3 5.1-29.4 19.6 4.8 41 8.5 63.5 10.9 13.5 18.5 27.5 35.3 41.6 50-32.6 30.3-63.2 46.9-84 46.9-4.5-.1-8.3-1-11.3-2.7zm237.2-76.2c4.7 38.2-1.1 67.9-14.6 75.8-3 1.8-6.9 2.6-11.5 2.6-20.7 0-51.4-16.5-84-46.6 14-14.7 28-31.4 41.3-49.9 22.6-2.4 44-6.1 63.6-11 2.3 10.1 4.1 19.8 5.2 29.1zm38.5-66.7c-8.6 3.7-18 7-27.7 10.1-5.7-19.6-13.2-40-22.5-60.9 9.2-20.8 16.6-41.1 22.2-60.6 9.9 3.1 19.3 6.5 28.1 10.2 35.4 15.1 58.3 34.9 58.3 50.6-.1 15.7-23 35.6-58.4 50.6zM320.8 78.4z"/><circle cx="420.9" cy="296.5" r="45.7"/><path d="M520.5 78.1z"/></g></symbol><symbol id="ruby"><g fill="#C00" fill-rule="evenodd"><path d="M352.6 129.5v18.1h32.7c6.7 0 18.2-4.9 18.6-18.6v-7c0-11.7-9.6-18.6-18.6-18.6H369V95h32.3V76.8h-31c-8 0-18.7 6.6-18.7 18.9v6.3c0 12.3 10.6 18.6 18.7 18.6 22.5.1-5.4 0 15.4 0v8.8m-208.3-4.3s17.5-1.5 17.5-24.1-21.2-24.7-21.2-24.7h-38.2v71.3h19.2v-17.2l16.6 17.2h28.4l-22.3-22.5zm-7.4-14.6h-15.3V94.2h15.4s4.3 1.6 4.3 8.1-4.4 8.2-4.4 8.2zm72.3-33.7h-19.5c-13.9 0-18.6 12.6-18.6 18.6v52.2h19.5v-12.5H242v12.5h18.9V95.4c0-15.2-13.8-18.6-18.6-18.6zm-.3 38.1h-18.4V97.6s0-3.9 6.1-3.9h6.7c5.4 0 5.5 3.9 5.5 3.9v17.3h.1zM269.8 76.8h20.3v70.8h-20.3zM318.6 129.3V76.8h-20.2v70.8h47.5v-18.3z"/><path d="M15 147.6h79s-15.1-68.9 34.9-96.8c10.9-5.3 45.6-25.1 102.4 16.9 1.8-1.5 3.5-2.7 3.5-2.7s-52-51.9-109.9-46.1C95.8 21.5 60 48 39 83c-21 35-24 64.6-24 64.6z"/><path d="M15 147.6h79s-15.1-68.9 34.9-96.8c10.9-5.3 45.6-25.1 102.4 16.9 1.8-1.5 3.5-2.7 3.5-2.7s-52-51.9-109.9-46.1C95.8 21.5 60 48 39 83c-21 35-24 64.6-24 64.6z"/><path d="M15 147.6h79s-15.1-68.9 34.9-96.8c10.9-5.3 45.6-25.1 102.4 16.9 1.8-1.5 3.5-2.7 3.5-2.7s-52-51.9-109.9-46.1c-29.2 2.6-65 29.1-86 64.1-21 35-23.9 64.6-23.9 64.6zM179.6 24.5l.4-6.7c-.9-.5-3.4-1.7-9.7-3.5l-.4 6.6c3.3 1.1 6.5 2.3 9.7 3.6z"/><path d="M170.1 45.7l-.4 6.3c3.3.1 6.6.5 9.9 1.2l.4-6.2c-3.4-.7-6.7-1.1-9.9-1.3zm-37-31.2h1l-2-6.1c-3.1 0-6.3.2-9.6.6l1.9 5.9c2.9-.3 5.8-.4 8.7-.4zm4.8 36.8l2.3 6.9c2.9-1.4 5.8-2.6 8.7-3.5l-2.2-6.6c-3.4 1-6.3 2.1-8.8 3.2zM92.5 25L88 18.1c-2.5 1.3-5.1 2.7-7.8 4.3l4.6 7c2.6-1.6 5.1-3.1 7.7-4.4zM113 70l4.8 7.2c1.7-2.5 3.7-4.8 5.9-7.1l-4.5-6.8c-2.3 2.1-4.4 4.4-6.2 6.7zm-14.5 32.2l8.1 6.4c.4-3.9 1.1-7.8 2.1-11.7l-7.2-5.7c-1.3 3.7-2.2 7.4-3 11zM54.7 54.7l-7.1-6.2c-2.6 2.5-5.1 5-7.4 7.5l7.7 6.6c2.1-2.7 4.4-5.4 6.8-7.9zM24.5 99.4L13 95.2c-1.9 4.3-4 9.3-5 12l11.5 4.2c1.3-3.4 3.4-8.3 5-12zM97 127.6c.2 5.3.7 9.6 1.2 12.6l12 4.3c-.9-3.9-1.8-8.3-2.4-13L97 127.6z"/></g></symbol><symbol id="sass"><path d="M55.094 35.56a13.19 13.19 0 00-5.8 1.35c-.6-1.188-1.2-2.225-1.3-3-.113-.9-.25-1.45-.113-2.525s.763-2.6.763-2.725c-.012-.113-.138-.663-1.425-.675s-2.4.25-2.525.588a14.36 14.36 0 00-.538 1.913c-.225 1.175-2.575 5.338-3.913 7.526-.438-.85-.813-1.6-.888-2.2-.113-.9-.25-1.45-.113-2.525s.763-2.6.763-2.725c-.012-.113-.138-.663-1.425-.675s-2.4.25-2.525.588-.263 1.138-.538 1.913c-.263.775-3.388 7.726-4.2 9.538-.413.925-.775 1.663-1.038 2.163s-.012.038-.037.088l-.35.663v.012c-.175.313-.363.613-.45.613-.062 0-.188-.838.025-1.988.463-2.413 1.588-6.176 1.575-6.313 0-.062.213-.725-.725-1.063-.913-.338-1.238.225-1.313.225s-.138.2-.138.2 1.013-4.238-1.938-4.238c-1.85 0-4.4 2.013-5.663 3.85l-6.376 3.488-.138-.15C11.178 35.66 4.565 32.96 4.84 27.835c.1-1.863.75-6.776 12.7-12.726 9.788-4.875 17.627-3.538 18.99-.563 1.938 4.25-4.188 12.15-14.364 13.29-3.875.438-5.913-1.063-6.426-1.625-.538-.588-.613-.613-.813-.5-.325.175-.125.7 0 1.013.3.788 1.55 2.188 3.675 2.888 1.863.613 6.413.95 11.914-1.175 6.163-2.388 10.976-9.013 9.563-14.55-1.438-5.638-10.788-7.488-19.627-4.35C15.19 11.41 9.5 14.334 5.4 18.172.515 22.722-.26 26.698.064 28.348c1.138 5.888 9.25 9.726 12.5 12.564l-.45.25c-1.625.8-7.813 4.038-9.363 7.463-1.75 3.875.275 6.663 1.625 7.038 4.175 1.163 8.45-.925 10.763-4.363 2.3-3.438 2.025-7.9.963-9.938l-.038-.075 1.275-.75a74.573 74.573 0 012.35-1.325c-.4 1.088-.688 2.375-.838 4.25-.175 2.2.725 5.05 1.913 6.176.525.488 1.15.5 1.538.5 1.375 0 2-1.138 2.688-2.5.85-1.663 1.6-3.588 1.6-3.588s-.938 5.213 1.625 5.213c.938 0 1.875-1.213 2.3-1.838v.012s.025-.038.075-.125c.1-.15.15-.238.15-.238v-.025c.375-.65 1.213-2.138 2.463-4.6 1.613-3.175 3.163-7.15 3.163-7.15s.15.975.613 2.575c.275.95.875 1.988 1.338 3l-.6.825.012.013a35.62 35.62 0 01-.988 1.25c-1.275 1.525-2.8 3.263-3 3.763-.238.588-.188 1.025.275 1.375.338.25.938.3 1.575.25 1.15-.075 1.95-.363 2.35-.538a8.14 8.14 0 002.025-1.063c1.25-.925 2.013-2.238 1.938-3.988-.038-.963-.35-1.913-.738-2.813l.338-.5c1.975-2.888 3.5-6.063 3.5-6.063s.15.975.613 2.575c.238.813.713 1.7 1.138 2.575-1.85 1.513-3.013 3.263-3.413 4.413-.738 2.125-.163 3.088.925 3.313.488.1 1.188-.125 1.713-.35a7.76 7.76 0 002.163-1.113c1.25-.925 2.45-2.213 2.388-3.95-.038-.8-.25-1.588-.538-2.338 1.575-.65 3.613-1.025 6.2-.713 5.563.65 6.663 4.125 6.45 5.575s-1.375 2.25-1.763 2.5c-.388.238-.513.325-.475.5.05.263.225.25.563.2.463-.075 2.925-1.188 3.025-3.863.15-3.438-3.113-7.188-8.9-7.15zM12.19 50.025c-1.838 2.013-4.425 2.775-5.525 2.125-1.188-.688-.725-3.65 1.538-5.788 1.375-1.3 3.163-2.5 4.338-3.238l1.138-.688c.075-.05.125-.075.125-.075.088-.05.188-.113.288-.175.838 3.05.038 5.725-1.9 7.838zm13.44-9.138c-.638 1.563-1.988 5.575-2.8 5.35-.7-.188-1.125-3.225-.138-6.226.5-1.513 1.563-3.313 2.188-4.013 1.013-1.125 2.113-1.5 2.388-1.038.325.6-1.238 4.95-1.638 5.926zm11.088 5.3c-.275.138-.525.238-.638.163-.088-.05.113-.238.113-.238s1.388-1.488 1.938-2.175l1.088-1.388v.15c0 1.8-1.725 3-2.5 3.488zm8.55-1.95c-.2-.15-.175-.613.5-2.063.263-.575.863-1.538 1.9-2.45.125.375.2.738.188 1.075-.013 2.25-1.613 3.088-2.588 3.438z" fill="#cf649a"/></symbol><symbol id="sketch" viewBox="0 0 5.12 5.12"><g fill-rule="evenodd"><path d="M1.117.416L2.56.264l1.443.152L5.12 1.902 2.56 4.855 0 1.902z" fill="#fdb300"/><g fill="#ea6c00"><path d="M1.037 1.92L2.56 4.855 0 1.919zM4.083 1.92L2.56 4.855l2.56-2.937z"/></g><path d="M1.014 1.92h3.04l-1.52 2.936z" fill="#fdad00"/><g fill="#fdd231"><path d="M2.508.264L1.092.417 1.014 1.92zM2.558.264l1.416.153.079 1.502z"/></g><g fill="#fdad00"><path d="M5.12 1.92L4 .424l.08 1.494zM0 1.92L1.12.424l-.08 1.494z"/></g><path d="M2.534.264L1.014 1.92h3.04z" fill="#feeeb7"/></g></symbol><symbol id="vue" viewBox="0 0 261.76 226.69"><path d="M161.096.001l-30.224 52.35L100.647.002H-.005L130.872 226.69 261.749 0z" fill="#41b883"/><path d="M161.096.001l-30.224 52.35L100.647.002H52.346l78.526 136.01L209.398.001z" fill="#34495e"/></symbol><symbol id="webgl"><g fill="#961A1F"><path d="M1063.744 423.953c-113.564 47.894-187.42-91.628-147.392-184.312 40.572-93.946 205.465-97.461 216.803 17.667-18.647 0-48.735 7.977-55.711-9.875-18.804-48.113-87.097-38.318-107.593 2.772-17.926 35.938-16.234 96.339 17.893 122.73 39.307 30.398 95.004 7.082 99.565-41.4h-54.4c-2.474 0-1.078-41.26-.513-41.26h55.455c7.468 0 43.728-5.252 49.177 0 4.29 4.133 0 35.55 0 41.322v70.494c0 15.78 5.64 23.786-11.077 23.786-27.776 0-24.215-1.434-29.536-28.446-9.834 12.646-20.728 21.49-32.671 26.522M1226.448 174.965v204.178h122.232v46.548h-177.243V174.965h55.011"/><path d="M966.285 456.857c-84.17 51.194-210.234 80.331-350.892 80.331-253.414 0-458.849-105.524-458.849-235.696 0-130.17 205.435-235.696 458.85-235.696 141.171 0 267.75 29.68 351.922 81.193C875.439 60.68 710.708.03 522.361.001 233.895-.047.025 134.901 0 301.411c-.024 166.504 233.803 301.533 522.27 301.576 187.6.029 351.902-60.423 444.015-146.13"/><path d="M503.997 155.457l-48.373 209.324-58.41-209.324h-44.355l-58.28 209.327-48.518-209.327H200.36l71.776 272.84h42.879L375.396 214l59.652 214.298h43.003l74.298-272.84h-48.352M673.213 270.296c-25.222-35.497-81.161-38.325-114.213-12.112-33.64 26.68-40.628 81.31-27.876 120.084 24.69 75.021 151.285 73.755 159.615-10.9h-34.1c-1.072 0-10.06 19.879-13.495 22.995-35.683 32.369-78.917-.2-79.927-40.823h129.559c.316-27.037-3.495-56.637-19.563-79.244zm-64.001 2.927c28.703 0 44.048 15.449 46.843 47.206h-92.8c1.36-25.86 21.852-47.206 45.957-47.206M872.104 296.532c-15.899-50.799-83.64-77.759-121.903-32.423V208.7 182.64c0-4.923-13.79-2.235-17.742-2.235-16.578 0-17.743-3.481-17.743 11.859v234.84c0 2.985 10.17 1.236 12.465 1.236 7.031 0 21.316 4.016 21.316-4.375v-12.498c23.779 31.098 73.984 27.389 100.243 1.474 28.737-28.362 35.044-79.133 23.364-116.409-3.45-11.024 3.424 10.93 0 0zm-31.885 40.259c0 29.782-11.61 67.53-48.02 65.397-29.82-1.747-43.36-29.69-43.36-56.619 0-28.536 5.509-69.452 41.282-72.084 38.796-2.856 50.098 30.398 50.098 63.306"/></g></symbol><symbol id="webpack"><path fill="#8ED6FB" d="M49.953 45.087L27.367 57.863v-9.948L41.44 40.17l8.513 4.916zm1.547-1.4V16.97l-8.262 4.775V38.92l8.262 4.767zm-48.703 1.4l22.586 12.776v-9.948l-14.08-7.744-8.506 4.916zm-1.547-1.4V16.97l8.26 4.775V38.92l-8.26 4.767zm.97-28.448L25.382 2.136v9.616L10.54 19.917l-.119.067L2.22 15.24zm48.31 0L27.366 2.136v9.616l14.843 8.159.119.066 8.202-4.738z"/><path fill="#1C78C0" d="M25.383 46.086l-13.888-7.64V23.323l13.888 8.018v14.745zm1.983 0l13.888-7.632V23.323L27.366 31.34v14.745zm-14.93-24.51l13.94-7.662 13.938 7.661-13.939 8.048-13.94-8.048z"/></symbol><symbol id="wordpress" viewBox="0 0 32 32"><path d="M2.26 16c0 5.45 3.13 10.145 7.7 12.348L3.478 10.435C2.725 12.174 2.26 14.03 2.26 16zm23.015-.696c0-1.68-.638-2.9-1.16-3.768-.696-1.16-1.333-2.087-1.333-3.246 0-1.275.986-2.435 2.32-2.435h.174C22.84 3.594 19.594 2.26 16 2.26A13.95 13.95 0 004.522 8.463h.87c1.45 0 3.652-.174 3.652-.174.754-.058.812 1.043.116 1.16 0 0-.754.116-1.565.116l4.986 14.84 3.014-8.986-2.145-5.855L12 9.45c-.754-.058-.638-1.16.058-1.16 0 0 2.26.174 3.594.174 1.45 0 3.652-.174 3.652-.174.754-.058.812 1.043.116 1.16 0 0-.754.116-1.565.116L22.84 24.35l1.4-4.58c.58-1.913 1.043-3.246 1.043-4.464zm-9.043 1.913L12.116 29.16c1.217.348 2.55.58 3.884.58 1.623 0 3.13-.3 4.58-.754-.058-.058-.058-.116-.116-.174zM28.058 9.45l.116 1.4c0 1.4-.232 2.957-1.043 4.928l-4.174 12.116c4.058-2.377 6.84-6.783 6.84-11.884-.058-2.377-.696-4.58-1.74-6.55zM16 0C7.188 0 0 7.188 0 16s7.188 16 16 16 16-7.188 16-16S24.812 0 16 0zm0 31.304C7.594 31.304.754 24.464.754 16A15.27 15.27 0 0116 .754 15.27 15.27 0 0131.246 16c0 8.464-6.84 15.304-15.246 15.304z"/></symbol></svg>