<?xml version="1.0" encoding="utf-8"?>
<!-- Generator: Adobe Illustrator 16.0.0, SVG Export Plug-In . SVG Version: 6.00 Build 0)  -->
<!DOCTYPE svg PUBLIC "-//W3C//DTD SVG 1.1//EN" "http://www.w3.org/Graphics/SVG/1.1/DTD/svg11.dtd">
<svg version="1.1" id="Layer_1" xmlns="http://www.w3.org/2000/svg" xmlns:xlink="http://www.w3.org/1999/xlink" x="0px" y="0px"
	 width="1000px" height="300px" viewBox="0 0 1000 300" enable-background="new 0 0 1000 300" xml:space="preserve">
<g>
	<path fill="#B7B7B7" d="M27.239,22.318h138.223v34.789h-47.835v124.246H75.072V57.106H27.239V22.318z"/>
	<path fill="#B7B7B7" d="M182.223,62.076h42.863v119.276h-42.863V62.076z M182.532,30.083c0-10.794,9.473-19.569,21.121-19.569
		c11.649,0,21.123,8.775,21.123,19.569s-9.474,19.569-21.123,19.569C192.005,49.652,182.532,40.877,182.532,30.083z"/>
	<path fill="#B7B7B7" d="M246.824,62.076h40.689v22.675h1.244c4.97-14.909,17.627-24.228,34.168-24.228
		c16.772,0,30.128,9.629,32.614,24.228h1.242c4.037-14.599,18.325-24.228,36.03-24.228c22.83,0,38.517,15.919,38.517,40.38v80.449
		h-42.865v-69.578c0-10.405-5.745-16.773-14.598-16.773s-14.289,6.368-14.289,16.773v69.578h-41.001v-69.578
		c0-10.405-5.747-16.773-14.6-16.773s-14.288,6.368-14.288,16.773v69.578h-42.864V62.076z"/>
	<path fill="#B7B7B7" d="M448.082,122.024c0-36.963,23.607-61.501,60.568-61.501c36.033,0,59.329,23.218,59.329,61.191v9.94h-77.654
		v1.863c0,11.492,7.455,19.88,20.19,19.88c8.774,0,15.842-3.806,18.326-10.562h39.138c-4.038,24.849-25.315,40.69-58.396,40.69
		C471.378,183.526,448.082,160.619,448.082,122.024z M528.53,108.047c-0.231-10.25-8.308-17.394-18.947-17.394
		c-10.482,0-19.024,7.066-19.258,17.394H528.53z"/>
	<path fill="#B7B7B7" d="M628.226,181.353h-42.863V22.318h42.863V181.353z"/>
	<path fill="#B7B7B7" d="M649.965,62.076h42.863v119.276h-42.863V62.076z M650.274,30.083c0-10.794,9.474-19.569,21.123-19.569
		c11.647,0,21.121,8.775,21.121,19.569s-9.474,19.569-21.121,19.569C659.748,49.652,650.274,40.877,650.274,30.083z"/>
	<path fill="#B7B7B7" d="M757.431,181.353h-42.863V62.076h40.688v22.675h1.244c5.203-15.064,19.102-24.228,36.652-24.228
		c25.314,0,41.699,18.792,41.621,44.728v76.102H791.91V114.26c0.076-11.804-6.29-18.948-17.084-18.948
		c-10.639,0-17.317,7.144-17.396,18.948V181.353z"/>
	<path fill="#B7B7B7" d="M851.531,122.024c0-36.963,23.607-61.501,60.571-61.501c36.03,0,59.326,23.218,59.326,61.191v9.94h-77.654
		v1.863c0,11.492,7.456,19.88,20.19,19.88c8.774,0,15.842-3.806,18.326-10.562h39.138c-4.037,24.849-25.315,40.69-58.396,40.69
		C874.827,183.526,851.531,160.619,851.531,122.024z M931.981,108.047c-0.233-10.25-8.31-17.394-18.948-17.394
		c-10.482,0-19.025,7.066-19.259,17.394H931.981z"/>
</g>
<rect x="27" y="251" fill="#8C8C8C" width="148" height="40"/>
</svg>
