<svg
   xmlns="http://www.w3.org/2000/svg"
   viewBox="0 0 96.251961 141.27016"
   x="0px"
   y="0px"
   version="1.1">
  <path
     d="M 36.666239,140.86808 A 1.7733863,1.7733863 0 1 0 38.7943,138.03066 33.437167,33.437167 0 0 1 25.316576,111.07521 V 79.757241 a 1.7733847,1.7733847 0 0 1 0.762556,-1.489642 1.6758485,1.6758485 0 0 1 1.533978,-0.23054 12.413692,12.413692 0 0 1 8.343774,11.75754 v 14.187071 a 1.7733847,1.7733847 0 0 0 3.546769,0 V 50.780136 a 5.320154,5.320154 0 0 1 10.640308,0 v 40.787847 a 1.773385,1.773385 0 0 0 3.54677,0 V 72.060752 a 5.320154,5.320154 0 0 1 10.640308,0 v 19.507231 a 1.7733847,1.7733847 0 0 0 3.546769,0 V 75.607522 a 5.320157,5.320157 0 0 1 10.640314,0 v 19.50723 a 1.7733847,1.7733847 0 0 0 3.54676,0 V 82.70106 a 5.320155,5.320155 0 0 1 10.64031,0 v 28.37415 c 0,10.3743 -0.37241,21.02348 -4.8236,27.35445 a 1.7733847,1.7733847 0 1 0 2.89948,2.0394 c 5.05415,-7.17334 5.47089,-18.45207 5.47089,-29.39385 V 82.70106 a 8.8669232,8.8669232 0 0 0 -14.18708,-7.093538 v 0 A 8.8669232,8.8669232 0 0 0 67.319192,68.992797 8.8669232,8.8669232 0 0 0 53.690731,64.967214 V 50.780136 a 8.8669235,8.8669235 0 0 0 -17.733847,0 v 28.99484 a 15.960462,15.960462 0 0 0 -7.182207,-5.054147 5.1782831,5.1782831 0 0 0 -4.752672,0.69162 5.3201539,5.3201539 0 0 0 -2.252198,4.344792 v 31.317969 a 36.957336,36.957336 0 0 0 14.896432,29.79287 z"
     id="path1067"
     style="display:inline;stroke-width:0.886692" />
  <path
     style="color:#000000;font-style:normal;font-variant:normal;font-weight:normal;font-stretch:normal;font-size:medium;line-height:normal;font-family:sans-serif;font-variant-ligatures:normal;font-variant-position:normal;font-variant-caps:normal;font-variant-numeric:normal;font-variant-alternates:normal;font-variant-east-asian:normal;font-feature-settings:normal;font-variation-settings:normal;text-indent:0;text-align:start;text-decoration:none;text-decoration-line:none;text-decoration-style:solid;text-decoration-color:#000000;letter-spacing:normal;word-spacing:normal;text-transform:none;writing-mode:lr-tb;direction:ltr;text-orientation:mixed;dominant-baseline:auto;baseline-shift:baseline;text-anchor:start;white-space:normal;shape-padding:0;shape-margin:0;inline-size:0;clip-rule:nonzero;display:inline;overflow:visible;visibility:visible;opacity:0.633099;isolation:auto;mix-blend-mode:normal;color-interpolation:sRGB;color-interpolation-filters:linearRGB;solid-color:#000000;solid-opacity:1;vector-effect:none;fill:#000000;fill-opacity:1;fill-rule:nonzero;stroke:none;stroke-width:3.99012;stroke-linecap:butt;stroke-linejoin:miter;stroke-miterlimit:4;stroke-dasharray:none;stroke-dashoffset:0;stroke-opacity:1;color-rendering:auto;image-rendering:auto;shape-rendering:auto;text-rendering:auto;enable-background:accumulate;stop-color:#000000;stop-opacity:1"
     d="M 44.582265,0 C 19.984076,0 -9.9999996e-7,19.984077 0,44.582267 0,60.854656 8.748502,75.102305 21.78977,82.886682 v -2.37779 c 2.24e-4,-0.713744 0.151363,-1.406427 0.419101,-2.047012 C 11.228184,71.201912 3.990115,58.749979 3.990115,44.582267 3.990114,22.140496 22.140494,3.9901154 44.582265,3.9901154 c 22.441771,-9e-7 40.592157,18.1503796 40.592157,40.5921516 0,8.974294 -2.9091,17.258068 -7.82784,23.973596 1.17963,0.61942 2.22979,1.484892 3.03588,2.575218 5.51454,-7.419767 8.78207,-16.6066 8.78207,-26.548814 C 89.164532,19.984076 69.180452,-8.9999996e-7 44.582265,0 Z" />
  <path
     style="color:#000000;font-style:normal;font-variant:normal;font-weight:normal;font-stretch:normal;font-size:medium;line-height:normal;font-family:sans-serif;font-variant-ligatures:normal;font-variant-position:normal;font-variant-caps:normal;font-variant-numeric:normal;font-variant-alternates:normal;font-variant-east-asian:normal;font-feature-settings:normal;font-variation-settings:normal;text-indent:0;text-align:start;text-decoration:none;text-decoration-line:none;text-decoration-style:solid;text-decoration-color:#000000;letter-spacing:normal;word-spacing:normal;text-transform:none;writing-mode:lr-tb;direction:ltr;text-orientation:mixed;dominant-baseline:auto;baseline-shift:baseline;text-anchor:start;white-space:normal;shape-padding:0;shape-margin:0;inline-size:0;clip-rule:nonzero;display:inline;overflow:visible;visibility:visible;opacity:0.441383;isolation:auto;mix-blend-mode:normal;color-interpolation:sRGB;color-interpolation-filters:linearRGB;solid-color:#000000;solid-opacity:1;vector-effect:none;fill:#000000;fill-opacity:1;fill-rule:nonzero;stroke:none;stroke-width:3.99012;stroke-linecap:butt;stroke-linejoin:miter;stroke-miterlimit:4;stroke-dasharray:none;stroke-dashoffset:0;stroke-opacity:1;color-rendering:auto;image-rendering:auto;shape-rendering:auto;text-rendering:auto;enable-background:accumulate;stop-color:#000000;stop-opacity:1"
     d="m 44.582265,13.603453 c -17.085404,0 -30.978812,13.89341 -30.978813,30.978814 0,14.099101 9.464886,26.016335 22.373396,29.754415 V 70.166458 C 25.28216,66.580937 17.593568,56.499621 17.593568,44.582267 c 0,-14.928986 12.059712,-26.988698 26.988697,-26.988698 14.928986,0 26.988707,12.059712 26.988707,26.988698 0,8.005382 -3.469848,15.183798 -8.988159,20.122026 1.228116,0.536805 2.338474,1.351285 3.228114,2.412428 5.996585,-5.652395 9.750145,-13.660415 9.750145,-22.534454 0,-17.085405 -13.893402,-30.978815 -30.978807,-30.978814 z" />
</svg>
