<svg
   xmlns="http://www.w3.org/2000/svg"
   viewBox="0 0 96.251961 141.27016"
   x="0px"
   y="0px"
   version="1.1">
  <path
     d="M 36.666239,140.86808 A 1.7733863,1.7733863 0 1 0 38.7943,138.03066 33.437167,33.437167 0 0 1 25.316576,111.07521 V 79.757241 a 1.7733847,1.7733847 0 0 1 0.762556,-1.489642 1.6758485,1.6758485 0 0 1 1.533978,-0.23054 12.413692,12.413692 0 0 1 8.343774,11.75754 v 14.187071 a 1.7733847,1.7733847 0 0 0 3.546769,0 V 50.780136 a 5.320154,5.320154 0 0 1 10.640308,0 v 40.787847 a 1.773385,1.773385 0 0 0 3.54677,0 V 72.060752 a 5.320154,5.320154 0 0 1 10.640308,0 v 19.507231 a 1.7733847,1.7733847 0 0 0 3.546769,0 V 75.607522 a 5.320157,5.320157 0 0 1 10.640314,0 v 19.50723 a 1.7733847,1.7733847 0 0 0 3.54676,0 V 82.70106 a 5.320155,5.320155 0 0 1 10.64031,0 v 28.37415 c 0,10.3743 -0.37241,21.02348 -4.8236,27.35445 a 1.7733847,1.7733847 0 1 0 2.89948,2.0394 c 5.05415,-7.17334 5.47089,-18.45207 5.47089,-29.39385 V 82.70106 a 8.8669232,8.8669232 0 0 0 -14.18708,-7.093538 v 0 A 8.8669232,8.8669232 0 0 0 67.319192,68.992797 8.8669232,8.8669232 0 0 0 53.690731,64.967214 V 50.780136 a 8.8669235,8.8669235 0 0 0 -17.733847,0 v 28.99484 a 15.960462,15.960462 0 0 0 -7.182207,-5.054147 5.1782831,5.1782831 0 0 0 -4.752672,0.69162 5.3201539,5.3201539 0 0 0 -2.252198,4.344792 v 31.317969 a 36.957336,36.957336 0 0 0 14.896432,29.79287 z"
     id="path1067"
     style="display:none;stroke-width:0.886692" />
  <path
     style="color:#000000;font-style:normal;font-variant:normal;font-weight:normal;font-stretch:normal;font-size:medium;line-height:normal;font-family:sans-serif;font-variant-ligatures:normal;font-variant-position:normal;font-variant-caps:normal;font-variant-numeric:normal;font-variant-alternates:normal;font-variant-east-asian:normal;font-feature-settings:normal;font-variation-settings:normal;text-indent:0;text-align:start;text-decoration:none;text-decoration-line:none;text-decoration-style:solid;text-decoration-color:#000000;letter-spacing:normal;word-spacing:normal;text-transform:none;writing-mode:lr-tb;direction:ltr;text-orientation:mixed;dominant-baseline:auto;baseline-shift:baseline;text-anchor:start;white-space:normal;shape-padding:0;shape-margin:0;inline-size:0;clip-rule:nonzero;display:none;overflow:visible;visibility:visible;opacity:0.633099;isolation:auto;mix-blend-mode:normal;color-interpolation:sRGB;color-interpolation-filters:linearRGB;solid-color:#000000;solid-opacity:1;vector-effect:none;fill:#000000;fill-opacity:1;fill-rule:nonzero;stroke:none;stroke-width:3.99012;stroke-linecap:butt;stroke-linejoin:miter;stroke-miterlimit:4;stroke-dasharray:none;stroke-dashoffset:0;stroke-opacity:1;color-rendering:auto;image-rendering:auto;shape-rendering:auto;text-rendering:auto;enable-background:accumulate;stop-color:#000000;stop-opacity:1"
     d="M 44.582265,0 C 19.984076,0 -9.9999996e-7,19.984077 0,44.582267 0,60.854656 8.748502,75.102305 21.78977,82.886682 v -2.37779 c 2.24e-4,-0.713744 0.151363,-1.406427 0.419101,-2.047012 C 11.228184,71.201912 3.990115,58.749979 3.990115,44.582267 3.990114,22.140496 22.140494,3.9901154 44.582265,3.9901154 c 22.441771,-9e-7 40.592157,18.1503796 40.592157,40.5921516 0,8.974294 -2.9091,17.258068 -7.82784,23.973596 1.17963,0.61942 2.22979,1.484892 3.03588,2.575218 5.51454,-7.419767 8.78207,-16.6066 8.78207,-26.548814 C 89.164532,19.984076 69.180452,-8.9999996e-7 44.582265,0 Z" />
  <path
     style="color:#000000;font-style:normal;font-variant:normal;font-weight:normal;font-stretch:normal;font-size:medium;line-height:normal;font-family:sans-serif;font-variant-ligatures:normal;font-variant-position:normal;font-variant-caps:normal;font-variant-numeric:normal;font-variant-alternates:normal;font-variant-east-asian:normal;font-feature-settings:normal;font-variation-settings:normal;text-indent:0;text-align:start;text-decoration:none;text-decoration-line:none;text-decoration-style:solid;text-decoration-color:#000000;letter-spacing:normal;word-spacing:normal;text-transform:none;writing-mode:lr-tb;direction:ltr;text-orientation:mixed;dominant-baseline:auto;baseline-shift:baseline;text-anchor:start;white-space:normal;shape-padding:0;shape-margin:0;inline-size:0;clip-rule:nonzero;display:none;overflow:visible;visibility:visible;opacity:0.441383;isolation:auto;mix-blend-mode:normal;color-interpolation:sRGB;color-interpolation-filters:linearRGB;solid-color:#000000;solid-opacity:1;vector-effect:none;fill:#000000;fill-opacity:1;fill-rule:nonzero;stroke:none;stroke-width:3.99012;stroke-linecap:butt;stroke-linejoin:miter;stroke-miterlimit:4;stroke-dasharray:none;stroke-dashoffset:0;stroke-opacity:1;color-rendering:auto;image-rendering:auto;shape-rendering:auto;text-rendering:auto;enable-background:accumulate;stop-color:#000000;stop-opacity:1"
     d="m 44.582265,13.603453 c -17.085404,0 -30.978812,13.89341 -30.978813,30.978814 0,14.099101 9.464886,26.016335 22.373396,29.754415 V 70.166458 C 25.28216,66.580937 17.593568,56.499621 17.593568,44.582267 c 0,-14.928986 12.059712,-26.988698 26.988697,-26.988698 14.928986,0 26.988707,12.059712 26.988707,26.988698 0,8.005382 -3.469848,15.183798 -8.988159,20.122026 1.228116,0.536805 2.338474,1.351285 3.228114,2.412428 5.996585,-5.652395 9.750145,-13.660415 9.750145,-22.534454 0,-17.085405 -13.893402,-30.978815 -30.978807,-30.978814 z" />
  <g
     transform="translate(-12.417187,12.704293)">
    <path
       d="m 26.41,10.59 a 2,2 0 0 0 -2.83,0 l -9.41,9.41 9.41,9.41 a 2.0011122,2.0011122 0 0 0 2.83,-2.83 L 19.83,20 26.42,13.41 a 2,2 0 0 0 -0.01,-2.82 z"
       id="path1145" />
    <path
       d="m 87.59,29.41 a 2,2 0 0 0 2.83,0 L 99.83,20 90.42,10.59 a 2.0011122,2.0011122 0 0 0 -2.83,2.83 l 6.58,6.58 -6.59,6.59 a 2,2 0 0 0 0.01,2.82 z"
       id="path1147" />
    <path
       d="m 97,60 c -2.164407,-0.0044 -4.271088,0.697871 -6,2 v 0 C 91,53.759547 81.592362,49.055728 75,54 L 74.719793,34.756377 c 13.668656,-15.498799 2.663326,-39.8736166 -18,-39.8736166 -20.663327,0 -31.668657,24.3748176 -18,39.8736166 L 39,66.7 C 36.886149,64.079927 34.079901,62.10516 30.9,61 29.093495,60.365641 27.090782,60.657081 25.54,61.78 23.947773,62.903877 23.00061,64.731081 23,66.68 V 102 c -0.02621,9.09178 2.923959,17.9423 8.4,25.2 1.599999,2.13333 4.799999,-0.26667 3.2,-2.4 C 29.644545,118.23401 26.975232,110.22607 27,102 V 66.68 c -0.0122,-0.668553 0.310519,-1.298973 0.86,-1.68 0.499433,-0.364402 1.145518,-0.461501 1.73,-0.26 5.644964,1.959003 9.424427,7.284792 9.41,13.26 v 16 c 0,2.666666 4.011479,2.666641 4,0 L 42.719793,28.906377 c -0.01427,-3.31368 2.686291,-5.999997 6,-5.999997 3.313708,0 5.981827,2.686336 6,5.999997 L 55,80 c 0.01462,2.666625 4.012645,2.666636 4,0 L 58.719793,20.906377 c -0.01571,-3.313673 2.686291,-5.999997 6,-5.999997 3.313708,0 5.984287,2.686324 6,5.999997 L 71,80 c 0.01265,2.666636 4,2.666666 4,0 V 62 c 0,-3.313711 2.686292,-5.999997 6,-5.999997 3.313708,0 6,2.686286 6,5.999997 v 22 c 0,2.666666 4,2.666666 4,0 V 70 c 0,-3.313711 2.686292,-5.999997 6,-5.999997 3.31371,0 6,2.686286 6,5.999997 v 32 c 0,8.26 -0.26,16.82 -2.12,23.46 -0.80865,2.61571 3.18021,3.73466 3.85,1.08 2,-7.11 2.27,-16 2.27,-24.54 V 70 C 107,64.477153 102.52285,60 97,60 Z M 64.545354,11.441741 c -8.505981,0 -9.825561,9.464636 -9.825561,9.464636 v 0 c 0,0 -11.676163,-6.896076 -15.93,6.84 C 32.237234,14.484425 41.850566,-1.0550117 56.642617,-1.1126484 71.434669,-1.1702851 81.168804,14.293765 74.719793,27.606377 v -6.7 c 0,-5.522847 -4.651592,-9.464636 -10.174439,-9.464636 z"
       id="path1149" />
  </g>
</svg>
