<svg width='200' height='200' fill="#FFF200" xmlns="http://www.w3.org/2000/svg" xmlns:xlink="http://www.w3.org/1999/xlink" version="1.1" x="0px" y="0px" viewBox="0 0 100 100" enable-background="new 0 0 100 100" xml:space="preserve"><path d="M79.355,67.383L55.45,25.979c-1.122-1.943-3.213-3.15-5.456-3.15c-2.244,0-4.334,1.207-5.457,3.15L20.437,67.722  c-1.122,1.942-1.122,4.356,0,6.3s3.212,3.15,5.456,3.15h48.174c0.011,0,0.026,0,0.036,0c0.009,0,0.016,0,0.022,0  c3.466-0.01,6.282-2.832,6.282-6.301C80.408,69.623,80.044,68.418,79.355,67.383z M74.108,74.371c-0.005,0-0.009,0-0.012,0H25.894  c-1.247,0-2.408-0.67-3.031-1.75c-0.624-1.078-0.624-2.42,0-3.5l24.101-41.743c0.624-1.08,1.785-1.75,3.032-1.75  c1.246,0,2.407,0.67,3.031,1.75l23.929,41.446c0.017,0.029,0.036,0.059,0.054,0.086c0.395,0.578,0.601,1.258,0.601,1.961  C77.608,72.803,76.037,74.371,74.108,74.371z M50,62.789c-0.924,0-1.821,0.371-2.478,1.022c-0.651,0.651-1.022,1.554-1.022,2.478  c0,0.917,0.371,1.82,1.022,2.471c0.657,0.652,1.561,1.029,2.478,1.029s1.82-0.377,2.47-1.029c0.659-0.65,1.029-1.554,1.029-2.471  c0-0.924-0.37-1.826-1.029-2.478C51.82,63.16,50.918,62.789,50,62.789z M50,61.182c1.512,0,2.739-1.225,2.739-2.738V42.112  c0-1.513-1.227-2.738-2.739-2.738s-2.738,1.226-2.738,2.738v16.331C47.262,59.957,48.488,61.182,50,61.182z"/></svg>