<?xml version="1.0" encoding="utf-8"?>
<!-- Generator: Adobe Illustrator 16.0.0, SVG Export Plug-In . SVG Version: 6.00 Build 0)  -->
<!DOCTYPE svg PUBLIC "-//W3C//DTD SVG 1.1//EN" "http://www.w3.org/Graphics/SVG/1.1/DTD/svg11.dtd">
<svg version="1.1" id="Layer_1" xmlns="http://www.w3.org/2000/svg" xmlns:xlink="http://www.w3.org/1999/xlink" x="0px" y="0px"
	 width="64px" height="64px" viewBox="0 0 64 64" enable-background="new 0 0 64 64" xml:space="preserve">
<g transform="matrix(.676853 0 0 .676853 -11.318754 -1.378687)">
	
		<linearGradient id="SVGID_1_" gradientUnits="userSpaceOnUse" x1="-1650.6626" y1="1846.6432" x2="-1650.6626" y2="1881.3342" gradientTransform="matrix(0.4582 0 0 0.4582 820.3846 -813.9135)">
		<stop  offset="0" style="stop-color:#81B4E0"/>
		<stop  offset="1" style="stop-color:#0C5A94"/>
	</linearGradient>
	<circle fill="url(#SVGID_1_)" cx="64.114" cy="49.494" r="17.346"/>
	
		<linearGradient id="SVGID_2_" gradientUnits="userSpaceOnUse" x1="-1647.4307" y1="1780.9224" x2="-1647.4307" y2="1819.4224" gradientTransform="matrix(0.4582 0 0 0.4582 820.3846 -813.9135)">
		<stop  offset="0" style="stop-color:#F06B59"/>
		<stop  offset="1" style="stop-color:#DF2227"/>
	</linearGradient>
	<path fill="url(#SVGID_2_)" d="M106.42,28.34C94.772,4.908,66.335-4.648,42.9,7c-7.307,3.631-13.552,9.088-18.13,15.843l19.038,33
		C40.3,44.7,46.494,32.823,57.638,29.316c1.96-0.617,4-0.943,6.052-0.972"/>
	
		<linearGradient id="SVGID_3_" gradientUnits="userSpaceOnUse" x1="-1728.8969" y1="1958.01" x2="-1709.437" y2="1925.8572" gradientTransform="matrix(0.4582 0 0 0.4582 820.3846 -813.9135)">
		<stop  offset="0" style="stop-color:#388B41"/>
		<stop  offset="1" style="stop-color:#4CB749"/>
	</linearGradient>
	<path fill="url(#SVGID_3_)" d="M24.77,22.84c-14.572,21.737-8.764,51.161,12.974,65.743c6.725,4.509,14.493,7.217,22.562,7.87
		L80.2,62.6c-7.435,9.012-20.767,10.3-29.778,2.854c-3.061-2.525-5.349-5.858-6.604-9.623"/>
	
		<linearGradient id="SVGID_4_" gradientUnits="userSpaceOnUse" x1="-1586.6405" y1="1965.4014" x2="-1607.3707" y2="1915.4799" gradientTransform="matrix(0.4582 0 0 0.4582 820.3846 -813.9135)">
		<stop  offset="0" style="stop-color:#E4B022"/>
		<stop  offset="0.3" style="stop-color:#FCD209"/>
	</linearGradient>
	<path fill="url(#SVGID_4_)" d="M60.307,96.455c26.094,1.972,48.847-17.582,50.821-43.676c0.636-8.42-0.987-16.856-4.706-24.438
		H63.7c11.684,0.054,21.099,9.567,21.056,21.25c-0.023,4.727-1.626,9.31-4.556,13.018"/>
</g>
</svg>
