<?xml version="1.0" encoding="utf-8"?>
<!-- Generator: Adobe Illustrator 16.0.0, SVG Export Plug-In . SVG Version: 6.00 Build 0)  -->
<!DOCTYPE svg PUBLIC "-//W3C//DTD SVG 1.1//EN" "http://www.w3.org/Graphics/SVG/1.1/DTD/svg11.dtd">
<svg version="1.1" id="Layer_1" xmlns:sketch="http://www.bohemiancoding.com/sketch/ns"
	 xmlns="http://www.w3.org/2000/svg" xmlns:xlink="http://www.w3.org/1999/xlink" x="0px" y="0px" width="175px" height="387px"
	 viewBox="0 0 175 387" enable-background="new 0 0 175 387" xml:space="preserve">
<path id="Cup" sketch:type="MSShapeGroup" fill="#DA4648" d="M86.72,304.739c-20.313,0-43.226-1.704-62.246-9.693
	c11.229,19.185,11.983,29.981,13.627,52.411C40.622,381.864,49.072,386,87.54,386c38.736,0,47.047-4.172,49.036-38.831
	c1.273-22.186,1.643-33.154,12.517-52.179C130.068,303.048,107.055,304.739,86.72,304.739z M95.667,115.833
	c-30.314-1.508-76.667-0.5-94.087-11.406L11.845,198.9c4.249-14.444,22.892-53.307,44.167-40.857
	c3.253,1.903,10.943,9.313,6.702,14.434c-4.246,5.132-7.967-6.287-10.59-7.64C35,156,16.413,205.171,19.262,215.307
	c4.002,14.233,23.321-9.211,25.739-14.26c0.253-0.368,7.125-23.106,11.115-13.264c2.902,7.138-5.157,20.585-7.27,27.674
	C44.54,229.857,41,237.5,37.854,236.732c-1.583-0.387-0.764-7.396,3.576-20.804c-5.514,6.155-17.523,18.772-26.813,12.037
	c1.783,18.691,3.565,37.382,5.348,56.073c1.876,19.67,66.071,17.057,78.708,16.381c20.406-1.091,52.949,0.373,55.723-23.696
	c2.307-20.026,4.614-40.052,6.922-60.077c-15.006,13.666-38.748,16.514-20.338-5.299c17.223-20.377-8.142-3.647-13.826,8.512
	c-4.424,9.521-7.21,19.905-11.825,29.267c-2.425,4.88-10.028,5.387-8.343-1.593c2.34-9.711,8.219-18.746,12.152-27.834
	c-3.749,3.666-20.39,16.549-22.136,4.129c-8.275,6.437-17.966,7.277-15.02-6.059c-11.78,20.952-27.648,10.241-19.877-10.455
	c5.711-15.165,18.271-21.265,8.889-2.636c-8.48,16.779-1.681,17.724,5.505,10.571c4.701-4.678,8.957-14.43,11.325-19.881
	c3.892-8.949,7.821,0.037,5.231,6.098c-1.299,3.029-11.083,23.529-0.652,18.689c11.492-5.319,18.356-37.944,23.014-49.686
	c1.025-2.587,10.057-15.023,10.057-4.966c0,10.026-9.953,24.646-13.678,33.796c-9.209,22.688-5.518,25.707,11.622,8.312
	c1.313-1.355,17.317-23.274,10.296-6.619c4.257-4.643,13.404-13.856,18.785-4.492c4.403,7.672-13.415,23.584-8.999,24.667
	c4.418,1.084,18.787-12.817,19.133-16.02c1.179-10.916,2.357-21.832,3.536-32.748c2.447-22.661,4.894-45.321,7.341-67.982
	C163,114.833,129.167,117.5,95.667,115.833z M87.474,85.99c-25.663,0-54.035-0.43-78.914,6.941
	c-19.8,5.866,6.141,11.804,13.253,12.932c14.659,2.324,152.661,12.568,152.661-7.873C174.475,91.362,135.521,85.99,87.474,85.99z
	 M122.212,101.497c0,4.156-20.679,4.156-20.679,0C101.533,97.339,122.212,97.339,122.212,101.497z"/>
<path id="Straw" sketch:type="MSShapeGroup" fill="#DA4648" d="M103.627,100.252c-0.051,0.082-0.078,0.165-0.078,0.25
	c0,1.007,3.727,1.822,8.323,1.822c4.596,0,8.323-0.815,8.323-1.822l10.871-44.078l43.231-45.645
	c0.015-0.014,0.027-0.028,0.041-0.043c0.915-1.035-0.94-4.238-4.022-6.985c-3.08-2.747-6.407-3.677-7.441-2.631
	c-0.008,0.008-0.016,0.016-0.021,0.023l-46.129,48.539L103.627,100.252z"/>
</svg>
