<?xml version="1.0" encoding="utf-8"?>
<!-- Generator: Adobe Illustrator 16.0.0, SVG Export Plug-In . SVG Version: 6.00 Build 0)  -->
<!DOCTYPE svg PUBLIC "-//W3C//DTD SVG 1.1//EN" "http://www.w3.org/Graphics/SVG/1.1/DTD/svg11.dtd">
<svg version="1.1" id="Layer_1" xmlns="http://www.w3.org/2000/svg" xmlns:xlink="http://www.w3.org/1999/xlink" x="0px" y="0px"
	 width="49px" height="60px" viewBox="0 0 49 60" enable-background="new 0 0 49 60" xml:space="preserve">
<path fill="#6762A6" d="M42.36,58.867H6.509c-3.063,0-5.552-2.49-5.552-5.554V6.209c0-3.063,2.489-5.552,5.552-5.552H42.36
	c3.063,0,5.552,2.489,5.552,5.552v47.094c0,3.063-2.489,5.554-5.552,5.554V58.867z"/>
<path fill="#FFFFFF" d="M30.383,50.859V27.743c0,0,1.491-5.53-18.516,2.259C11.832,30.117,11.832,8.63,11.832,8.63l6.539-0.046
	v13.767c0,0,18.321-7.228,18.321,5.472v23.037H30.383z M34.111,16.902h-6.94c2.5-3.052,4.761-8.284,4.761-8.284h7.17
	C39.102,8.618,37.874,12.026,34.111,16.902z M11.935,50.813V37.654l6.585,6.586l-6.585,6.585V50.813z"/>
</svg>
