<?xml version="1.0" encoding="utf-8"?>
<!-- Generator: Adobe Illustrator 16.0.0, SVG Export Plug-In . SVG Version: 6.00 Build 0)  -->
<!DOCTYPE svg PUBLIC "-//W3C//DTD SVG 1.1//EN" "http://www.w3.org/Graphics/SVG/1.1/DTD/svg11.dtd">
<svg version="1.1"
	 id="svg3430" inkscape:version="0.91 r13725" sodipodi:docname="php-ar21.svg" xmlns:inkscape="http://www.inkscape.org/namespaces/inkscape" xmlns:dc="http://purl.org/dc/elements/1.1/" xmlns:cc="http://creativecommons.org/ns#" xmlns:sodipodi="http://sodipodi.sourceforge.net/DTD/sodipodi-0.dtd" xmlns:svg="http://www.w3.org/2000/svg" xmlns:rdf="http://www.w3.org/1999/02/22-rdf-syntax-ns#"
	 xmlns="http://www.w3.org/2000/svg" xmlns:xlink="http://www.w3.org/1999/xlink" x="0px" y="0px" width="120px" height="60px"
	 viewBox="0 0 120 60" enable-background="new 0 0 120 60" xml:space="preserve">
<g id="g3438" transform="matrix(0.16488308,0,0,-0.16263208,11.737077,58.329876)">
	<path id="path3474" inkscape:connector-curvature="0" fill="#777BB3" d="M288.001,16.56c152.79,0,276.658,65.121,276.658,145.44
		c0,80.32-123.869,145.435-276.658,145.435C135.206,307.435,11.337,242.32,11.337,162C11.337,81.681,135.206,16.56,288.001,16.56"/>
	<path id="path3486" inkscape:connector-curvature="0" d="M161.734,145.307c12.064,0,21.073,2.228,26.771,6.611
		c5.639,4.341,9.533,11.859,11.573,22.353c1.904,9.806,1.179,16.654-2.153,20.347c-3.409,3.774-10.773,5.689-21.894,5.689H156.75
		l-10.688-55H161.734z M98.671,77.556c-0.894,0-1.744,0.402-2.312,1.093c-0.572,0.69-0.803,1.597-0.631,2.48l28.326,145.75
		c0.275,1.408,1.51,2.429,2.946,2.429h61.055c19.187,0,33.47-5.212,42.446-15.486c9.026-10.334,11.813-24.776,8.283-42.922
		c-1.436-7.392-3.906-14.261-7.341-20.41c-3.438-6.155-7.984-11.854-13.51-16.934c-6.616-6.185-14.105-10.676-22.237-13.318
		c-8.001-2.606-18.281-3.927-30.547-3.927h-24.721l-7.06-36.329c-0.275-1.405-1.507-2.426-2.947-2.426H98.671z"/>
	<path id="path3494" inkscape:connector-curvature="0" d="M311.58,116.31c-0.895,0-1.741,0.396-2.31,1.087
		c-0.568,0.69-0.805,1.604-0.634,2.48l12.533,64.491c1.19,6.131,0.895,10.536-0.823,12.394c-1.06,1.138-4.229,3.044-13.61,3.044
		h-22.702l-15.754-81.07c-0.275-1.411-1.51-2.426-2.947-2.426h-31.5c-0.895,0-1.744,0.396-2.313,1.087
		c-0.571,0.69-0.803,1.604-0.631,2.48l28.329,145.753c0.272,1.408,1.507,2.426,2.944,2.426h31.5c0.897,0,1.744-0.399,2.319-1.09
		c0.568-0.693,0.793-1.6,0.628-2.483l-6.838-35.176h24.422c18.604,0,31.219-3.281,38.569-10.028
		c7.493-6.884,9.826-17.891,6.948-32.72l-13.184-67.824c-0.272-1.411-1.504-2.426-2.938-2.426H311.58z"/>
	<path id="path3502" inkscape:connector-curvature="0" d="M409.548,145.307c12.065,0,21.073,2.228,26.771,6.611
		c5.638,4.335,9.53,11.859,11.579,22.353c1.901,9.806,1.172,16.654-2.156,20.347c-3.411,3.774-10.779,5.689-21.896,5.689h-19.278
		l-10.69-55H409.548z M346.489,77.556c-0.895,0-1.747,0.402-2.316,1.093c-0.568,0.69-0.799,1.597-0.634,2.48l28.334,145.75
		c0.272,1.408,1.504,2.429,2.944,2.429h61.052c19.19,0,33.47-5.212,42.448-15.486c9.026-10.332,11.81-24.773,8.28-42.922
		c-1.434-7.392-3.903-14.261-7.338-20.41c-3.441-6.155-7.984-11.854-13.51-16.934c-6.622-6.185-14.108-10.676-22.234-13.318
		c-8.008-2.606-18.284-3.927-30.55-3.927h-24.722l-7.06-36.329c-0.272-1.405-1.51-2.426-2.949-2.426H346.489z"/>
	<path id="path3490" inkscape:connector-curvature="0" fill="#FFFFFF" d="M159.223,197.308h16.809
		c13.421,0,18.082-2.945,19.667-4.702c2.63-2.913,3.124-9.058,1.436-17.765c-1.898-9.749-5.416-16.666-10.459-20.545
		c-5.162-3.975-13.554-5.993-24.94-5.993h-12.035L159.223,197.308z M188.055,232.307H127c-2.873,0-5.342-2.036-5.89-4.855
		L92.781,81.699c-0.34-1.753,0.122-3.579,1.262-4.96c1.137-1.381,2.837-2.186,4.628-2.186h31.749c2.873,0,5.342,2.042,5.89,4.858
		l6.589,33.896h22.249c12.583,0,23.173,1.369,31.479,4.078c8.541,2.774,16.397,7.476,23.354,13.985
		c5.751,5.29,10.489,11.229,14.082,17.654c3.589,6.425,6.168,13.595,7.667,21.305c3.713,19.101,0.696,34.401-8.97,45.465
		C223.188,226.752,208.148,232.307,188.055,232.307 M142.42,142.311h19.314c12.802,0,22.337,2.408,28.601,7.23
		c6.267,4.828,10.492,12.874,12.69,24.157c2.1,10.833,1.143,18.477-2.873,22.929c-4.019,4.453-12.059,6.68-24.121,6.68h-21.754
		L142.42,142.311 M188.055,226.308c18.367,0,31.767-4.819,40.189-14.462c8.419-9.641,10.957-23.097,7.596-40.376
		c-1.383-7.116-3.723-13.619-7.016-19.516c-3.296-5.902-7.602-11.295-12.92-16.188c-6.34-5.933-13.386-10.16-21.132-12.676
		c-7.753-2.528-17.624-3.783-29.623-3.783h-27.194l-7.534-38.749H98.671L127,226.308H188.055"/>
	<path id="path3498" inkscape:connector-curvature="0" fill="#FFFFFF" d="M293.661,271.058h-31.5c-2.873,0-5.342-2.039-5.89-4.858
		l-28.329-145.747c-0.341-1.766,0.121-3.579,1.261-4.96c1.14-1.387,2.837-2.186,4.629-2.186h31.5c2.873,0,5.342,2.036,5.89,4.852
		l15.284,78.647h20.229c9.364,0,11.324-2,11.407-2.086c0.568-0.61,1.314-3.441,0.083-9.782l-12.532-64.485
		c-0.344-1.766,0.118-3.579,1.261-4.96c1.137-1.387,2.837-2.186,4.626-2.186h32.006c2.867,0,5.342,2.036,5.887,4.852l13.178,67.827
		c3.092,15.921,0.444,27.865-7.859,35.5c-7.931,7.281-21.209,10.82-40.601,10.82h-20.783l6.142,31.606
		c0.338,1.759-0.118,3.579-1.261,4.96C297.152,270.257,295.452,271.058,293.661,271.058 M293.661,265.057l-7.531-38.751h28.062
		c17.656,0,29.833-3.081,36.538-9.235c6.705-6.161,8.712-16.141,6.035-29.94l-13.178-67.823H311.58l12.533,64.488
		c1.427,7.335,0.9,12.34-1.576,15.009c-2.476,2.666-7.747,4.005-15.802,4.005h-25.178l-16.226-83.502h-31.5l28.329,145.75H293.661"
		/>
	<path id="path3506" inkscape:connector-curvature="0" fill="#FFFFFF" d="M407.043,197.308h16.803
		c13.421,0,18.083-2.945,19.67-4.702c2.629-2.913,3.127-9.058,1.433-17.765c-1.896-9.749-5.414-16.666-10.459-20.545
		c-5.159-3.975-13.551-5.993-24.935-5.993h-12.035L407.043,197.308z M435.869,232.307h-61.052c-2.873,0-5.342-2.036-5.893-4.855
		L340.602,81.699c-0.344-1.753,0.119-3.579,1.255-4.96c1.137-1.381,2.843-2.186,4.632-2.186h31.746c2.878,0,5.342,2.042,5.893,4.858
		l6.586,33.896h22.252c12.58,0,23.17,1.369,31.474,4.078c8.546,2.774,16.406,7.481,23.359,13.985
		c5.751,5.29,10.489,11.229,14.078,17.654c3.595,6.425,6.172,13.595,7.67,21.305c3.714,19.104,0.699,34.401-8.967,45.465
		C471.003,226.752,455.965,232.307,435.869,232.307 M390.234,142.311h19.32c12.793,0,22.329,2.408,28.595,7.23
		c6.266,4.828,10.495,12.874,12.687,24.157c2.108,10.833,1.149,18.477-2.867,22.929c-4.021,4.453-12.059,6.68-24.124,6.68h-21.754
		L390.234,142.311 M435.869,226.308c18.367,0,31.764-4.819,40.186-14.462c8.422-9.641,10.957-23.097,7.599-40.376
		c-1.38-7.116-3.719-13.619-7.012-19.516c-3.299-5.902-7.599-11.295-12.924-16.188c-6.343-5.933-13.379-10.16-21.132-12.676
		c-7.753-2.528-17.62-3.783-29.62-3.783h-27.197l-7.534-38.749h-31.746l28.329,145.75H435.869"/>
</g>
</svg>
