<?xml version="1.0" encoding="utf-8"?>
<!-- Generator: Adobe Illustrator 16.0.0, SVG Export Plug-In . SVG Version: 6.00 Build 0)  -->
<!DOCTYPE svg PUBLIC "-//W3C//DTD SVG 1.1//EN" "http://www.w3.org/Graphics/SVG/1.1/DTD/svg11.dtd">
<svg version="1.1"
	 id="svg2169" sodipodi:docbase="/home/bene/Desktop" inkscape:output_extension="org.inkscape.output.svg.inkscape" sodipodi:version="0.32" inkscape:version="0.45.1" sodipodi:docname="dessin-1.svg" xmlns:rdf="http://www.w3.org/1999/02/22-rdf-syntax-ns#" xmlns:inkscape="http://www.inkscape.org/namespaces/inkscape" xmlns:sodipodi="http://sodipodi.sourceforge.net/DTD/sodipodi-0.dtd" xmlns:svg="http://www.w3.org/2000/svg" xmlns:cc="http://web.resource.org/cc/" xmlns:dc="http://purl.org/dc/elements/1.1/"
	 xmlns="http://www.w3.org/2000/svg" xmlns:xlink="http://www.w3.org/1999/xlink" x="0px" y="0px" width="110.421px"
	 height="109.846px" viewBox="0 0 110.421 109.846" enable-background="new 0 0 110.421 109.846" xml:space="preserve">
<g id="layer1" transform="translate(-473.36088,-251.72485)" inkscape:groupmode="layer" inkscape:label="Calque 1">
	
		<linearGradient id="path8615_1_" gradientUnits="userSpaceOnUse" x1="-173.8491" y1="864.2417" x2="-119.2492" y2="809.4592" gradientTransform="matrix(1 0 0 -1 657.5625 1125.8271)">
		<stop  offset="0" style="stop-color:#387EB8"/>
		<stop  offset="1" style="stop-color:#366994"/>
	</linearGradient>
	<path id="path8615" fill="url(#path8615_1_)" d="M528.173,251.725c-28.032,0-26.281,12.156-26.281,12.156l0.031,12.594h26.75v3.781
		h-37.375c0,0-17.938-2.034-17.938,26.25s15.656,27.281,15.656,27.281h9.344v-13.125c0,0-0.504-15.656,15.406-15.656
		c15.91,0,26.531,0,26.531,0s14.906,0.241,14.906-14.406s0-24.219,0-24.219S557.468,251.725,528.173,251.725z M513.423,260.194
		c2.662,0,4.812,2.151,4.812,4.812s-2.151,4.812-4.812,4.812c-2.662,0-4.812-2.151-4.812-4.812S510.762,260.194,513.423,260.194z"/>
	
		<linearGradient id="path8620_1_" gradientUnits="userSpaceOnUse" x1="-140.2734" y1="829.3687" x2="-81.6321" y2="773.1873" gradientTransform="matrix(1 0 0 -1 657.5625 1125.8271)">
		<stop  offset="0" style="stop-color:#FFE052"/>
		<stop  offset="1" style="stop-color:#FFC331"/>
	</linearGradient>
	<path id="path8620" fill="url(#path8620_1_)" d="M528.969,361.571c28.032,0,26.282-12.156,26.282-12.156l-0.031-12.594h-26.75
		v-3.781h37.375c0,0,17.938,2.034,17.938-26.25s-15.656-27.281-15.656-27.281h-9.344v13.125c0,0,0.504,15.656-15.406,15.656
		s-26.532,0-26.532,0s-14.906-0.241-14.906,14.406s0,24.219,0,24.219S499.675,361.571,528.969,361.571z M543.72,353.102
		c-2.662,0-4.812-2.15-4.812-4.812c0-2.661,2.15-4.812,4.812-4.812c2.661,0,4.812,2.151,4.812,4.812
		C548.532,350.952,546.381,353.102,543.72,353.102z"/>
</g>
</svg>
