<?xml version="1.0" encoding="utf-8"?>
<!-- Generator: Adobe Illustrator 16.0.0, SVG Export Plug-In . SVG Version: 6.00 Build 0)  -->
<!DOCTYPE svg PUBLIC "-//W3C//DTD SVG 1.1//EN" "http://www.w3.org/Graphics/SVG/1.1/DTD/svg11.dtd">
<svg version="1.1"
	 id="svg12" inkscape:version="0.92.2 (5c3e80d, 2017-08-06)" sodipodi:docname="js_webpack-ar21.svg" xmlns:inkscape="http://www.inkscape.org/namespaces/inkscape" xmlns:dc="http://purl.org/dc/elements/1.1/" xmlns:cc="http://creativecommons.org/ns#" xmlns:sodipodi="http://sodipodi.sourceforge.net/DTD/sodipodi-0.dtd" xmlns:svg="http://www.w3.org/2000/svg" xmlns:rdf="http://www.w3.org/1999/02/22-rdf-syntax-ns#"
	 xmlns="http://www.w3.org/2000/svg" xmlns:xlink="http://www.w3.org/1999/xlink" x="0px" y="0px" width="52.5px" height="60px"
	 viewBox="0 0 52.5 60" enable-background="new 0 0 52.5 60" xml:space="preserve">
<sodipodi:namedview  inkscape:window-maximized="1" inkscape:window-x="-9" inkscape:current-layer="svg12" inkscape:window-height="1001" inkscape:pageshadow="2" inkscape:window-y="-9" inkscape:window-width="1920" inkscape:pageopacity="0" inkscape:cy="25.11724" id="namedview14" bordercolor="#666666" inkscape:cx="159.94447" showgrid="false" inkscape:zoom="2.7701736" pagecolor="#ffffff" gridtolerance="10" guidetolerance="10" borderopacity="1" objecttolerance="10">
	</sodipodi:namedview>
<title  id="title2">logo-on-white-bg</title>
<g id="g905" transform="matrix(0.96789115,0,0,0.96789115,1.4635726,0.9632655)">
	<path id="path6-0" inkscape:connector-curvature="0" fill="#8ED6FB" d="M50.098,45.587l-23.335,13.2V48.509l14.54-8.001
		L50.098,45.587z M51.696,44.141V16.539l-8.536,4.933v17.744L51.696,44.141z M1.378,45.587l23.335,13.2V48.509l-14.547-8.001
		L1.378,45.587z M-0.221,44.141V16.539l8.535,4.933v17.744L-0.221,44.141z M0.781,14.749L24.713,1.212v9.935L9.378,19.583
		l-0.123,0.069L0.781,14.749z M50.694,14.749L26.762,1.212v9.935l15.335,8.429l0.123,0.069L50.694,14.749z"/>
	<path id="path8-8" inkscape:connector-curvature="0" fill="#1C78C0" d="M24.713,46.62l-14.349-7.894V23.101l14.349,8.284V46.62z
		 M26.762,46.62l14.348-7.886V23.101l-14.348,8.284V46.62z M11.336,21.296l14.402-7.916l14.401,7.916L25.738,29.61L11.336,21.296z"
		/>
</g>
</svg>
