<?xml version="1.0" encoding="utf-8"?>
<!-- Generator: Adobe Illustrator 16.0.0, SVG Export Plug-In . SVG Version: 6.00 Build 0)  -->
<!DOCTYPE svg PUBLIC "-//W3C//DTD SVG 1.1//EN" "http://www.w3.org/Graphics/SVG/1.1/DTD/svg11.dtd">
<svg version="1.1" id="Layer_1" xmlns="http://www.w3.org/2000/svg" xmlns:xlink="http://www.w3.org/1999/xlink" x="0px" y="0px"
	 width="512px" height="171.167px" viewBox="0 0 512 171.167" style="enable-background:new 0 0 512 171.167;" xml:space="preserve"
	>
<path d="M128.168,59.602h-16v-15.84l-0.16-0.16h-47.68l-0.16,0.16v79.68l0.16,0.16h47.68l0.16-0.16v-15.84h16v16h-16v16h-48v-16h-16
	v-80h16v-16h48v16h16V59.602z M176.167,139.602v-16h-16v-48h16v-16h48v16h16v48h-16v16H176.167z M224.007,75.602h-47.68l-0.16,0.16
	v47.68l0.16,0.16h47.68l0.16-0.16v-47.68L224.007,75.602z M272.167,123.602v-48h16v-16h48v-32h16v112h-64v-16H272.167z
	 M288.327,123.602h47.84v-48h-47.84l-0.16,0.16v47.68L288.327,123.602z M448.166,59.602v16h16v32h-64v15.84l0.16,0.16h63.84v16h-64
	v-16h-16v-48h16v-16H448.166z M448.166,91.602v-15.84l-0.16-0.16h-47.68l-0.16,0.16v15.84H448.166z"/>
</svg>
