<?xml version="1.0" encoding="utf-8"?>
<!-- Generator: Adobe Illustrator 16.0.0, SVG Export Plug-In . SVG Version: 6.00 Build 0)  -->
<!DOCTYPE svg PUBLIC "-//W3C//DTD SVG 1.1//EN" "http://www.w3.org/Graphics/SVG/1.1/DTD/svg11.dtd">
<svg version="1.1" id="Layer_1" xmlns="http://www.w3.org/2000/svg" xmlns:xlink="http://www.w3.org/1999/xlink" x="0px" y="0px"
	 width="512px" height="250.5px" viewBox="0 0 512 250.5" enable-background="new 0 0 512 250.5" xml:space="preserve">
<path d="M76.77,67.752c1.225-3.625,1.413-5.865,0.56-6.72c-0.535-0.425-0.428-0.933,0.32-1.52
	c0.745-0.585,1.812-1.065,3.2-1.44c1.385-0.373,2.96-0.612,4.72-0.72c1.76-0.105,3.44,0.055,5.04,0.48
	c1.6,0.427,2.985,1.227,4.16,2.4c1.172,1.175,1.865,2.827,2.08,4.96c0.425,4.055-0.08,8.427-1.52,13.12
	c-1.44,4.695-3.36,9.52-5.76,14.48s-5.015,9.947-7.84,14.96c-2.828,5.015-5.468,9.867-7.92,14.56c-2.455,4.695-4.48,9.12-6.08,13.28
	s-2.295,7.84-2.08,11.04c0,0.96-0.667,1.895-2,2.8c-1.335,0.908-2.935,1.36-4.8,1.36c-1.868,0-3.735-0.585-5.6-1.76
	c-1.868-1.172-3.28-3.36-4.24-6.56c-0.855-2.56-0.615-6.24,0.72-11.04c1.333-4.8,3.2-10.08,5.6-15.84c2.4-5.76,5.065-11.68,8-17.76
	c2.932-6.08,5.6-11.705,8-16.88C73.73,75.779,75.542,71.379,76.77,67.752z M324.446,63.032c1.973,0.8,3.812,1.2,5.52,1.2
	c1.705,0,2.561-0.425,2.561-1.28c0-0.745,0.292-1.76,0.88-3.04c0.585-1.28,1.225-2.56,1.92-3.84c0.692-1.28,1.332-2.505,1.92-3.68
	c0.585-1.172,0.88-2.08,0.88-2.72c0-2.665-0.8-4.853-2.4-6.56c-1.6-1.705-3.387-2.985-5.359-3.84c-1.976-0.853-3.76-1.28-5.36-1.28
	c-1.6,0-2.399,0.375-2.399,1.12c0,0.64-0.32,1.547-0.961,2.72c-0.64,1.175-1.359,2.455-2.159,3.84
	c-0.801,1.387-1.521,2.695-2.16,3.92c-0.641,1.228-0.96,2.215-0.96,2.96c0,2.667,0.853,4.88,2.56,6.64
	C320.631,60.952,322.471,62.232,324.446,63.032z M505.804,102.312c-0.854,1.815-2.08,4.295-3.68,7.44
	c-1.601,3.147-3.495,6.507-5.681,10.08c-2.188,3.575-4.56,7.175-7.119,10.8c-2.561,3.627-5.2,6.935-7.92,9.92
	c-2.721,2.988-5.468,5.44-8.24,7.36c-2.775,1.92-5.44,2.88-8,2.88c-2.135,0.107-3.947-0.4-5.44-1.52
	c-1.495-1.12-2.72-2.64-3.68-4.56s-1.628-4.08-2-6.48c-0.375-2.4-0.4-4.825-0.08-7.28c0.532-4.373,1.545-8.692,3.04-12.96
	c1.492-4.265,3.12-8.345,4.88-12.24c1.76-3.893,3.492-7.465,5.2-10.72c1.705-3.252,2.984-6.08,3.84-8.48
	c0.853-2.4,1.145-4.24,0.88-5.52c-0.268-1.28-1.52-1.865-3.76-1.76c-1.175,0.107-2.827,1.04-4.96,2.8c-2.135,1.76-4.455,4-6.96,6.72
	c-2.508,2.72-5.04,5.708-7.601,8.96c-2.56,3.255-4.854,6.375-6.88,9.36c-2.027,4.16-4.135,8.295-6.319,12.4
	c-2.188,4.107-4.136,7.975-5.841,11.6c-1.707,3.627-2.96,6.828-3.76,9.6c-0.8,2.775-0.827,4.907-0.08,6.4
	c0.425,0.855,0.08,1.735-1.04,2.64c-1.12,0.907-2.56,1.385-4.319,1.44c-1.761,0.052-3.573-0.505-5.44-1.68
	c-1.865-1.172-3.28-3.36-4.24-6.56c-0.853-2.56-0.8-5.92,0.16-10.08c0.125-0.542,0.277-1.102,0.417-1.653
	c-1.385,1.908-2.794,3.799-4.256,5.653c-4.375,5.548-8.96,10.535-13.76,14.96c-4.8,4.425-9.495,7.812-14.08,10.16
	c-0.641,1.6-1.495,3.653-2.561,6.16c-1.067,2.505-2.159,5.04-3.279,7.6s-2.136,4.96-3.04,7.2c-0.908,2.24-1.575,3.893-2,4.96
	c-1.067,2.985-2.748,5.52-5.04,7.6c-2.295,2.08-4.88,3.68-7.76,4.801c-2.881,1.119-5.868,1.76-8.961,1.92
	c-3.095,0.16-5.975-0.16-8.64-0.961c-2.665-0.799-4.985-2.135-6.96-4c-1.973-1.867-3.225-4.24-3.76-7.12
	c-0.105-0.96,0.027-2.107,0.399-3.44c0.375-1.335,1.308-2.748,2.801-4.24c1.707-1.708,3.76-3.255,6.159-4.64
	c2.4-1.388,4.905-2.72,7.521-4c2.612-1.28,5.173-2.588,7.68-3.92c2.505-1.335,4.665-2.8,6.48-4.4c1.064-2.987,2.319-6.295,3.76-9.92
	c1.44-3.627,3.013-7.413,4.72-11.36c-3.095,2.987-6.479,4.987-10.16,6c-3.68,1.012-7.814,0.615-12.399-1.2
	c-4.268-1.705-7.333-4.212-9.2-7.52c-1.865-3.305-2.96-6.905-3.28-10.8c-0.16-1.947-0.16-3.934,0-5.961
	c-1.279,1.953-2.608,3.914-3.998,5.881c-2.561,3.627-5.2,6.935-7.921,9.92c-2.72,2.988-5.467,5.44-8.239,7.36
	c-2.775,1.92-5.44,2.88-8,2.88c-2.133,0.107-3.973-0.32-5.521-1.28c-1.545-0.96-2.8-2.32-3.76-4.08c-0.96-1.76-1.6-3.892-1.92-6.4
	c-0.32-2.505-0.32-5.2,0-8.08c0.23-1.896,0.586-3.859,1.048-5.878c-1.96,2.44-4.01,4.879-6.166,7.318
	c-2.88,3.2-5.895,6.08-9.04,8.64c-3.147,2.56-6.695,4.695-10.64,6.4h-0.16l-0.16,0.16c-2.348,1.175-4.588,2.08-6.72,2.72
	c-2.136,0.64-3.948,0.96-5.44,0.96c-4.268,0-7.545-1.093-9.84-3.28c-2.292-2.185-3.812-4.772-4.56-7.76
	c-0.745-2.985-0.853-5.973-0.32-8.96c0.535-2.985,1.547-5.28,3.04-6.88c2.135-2.24,4.055-3.732,5.76-4.48
	c1.705-0.745,3.145-1.012,4.32-0.8c1.172,0.107,2.265,0.587,3.279,1.44c1.014,0.855,1.521,1.92,1.521,3.2
	c0,1.387-0.507,2.56-1.521,3.52c-1.015,0.96-2.159,1.44-3.439,1.44c-0.96,0-1.868-0.292-2.72-0.88c-0.855-0.585-1.44-1.36-1.76-2.32
	c-1.385,1.6-2.345,3.52-2.88,5.76c-0.533,2.24-0.64,4.375-0.32,6.4c0.32,2.027,1.148,3.76,2.48,5.2
	c1.333,1.44,3.173,2.215,5.52,2.32c0.853,0,2.08-0.4,3.68-1.2c1.6-0.8,3.225-2.132,4.88-4c1.653-1.865,3.12-4.265,4.4-7.2
	c1.279-2.933,2.053-6.48,2.319-10.64c0.266-4.16-0.188-9.013-1.359-14.56c-1.175-5.545-3.415-11.785-6.721-18.72
	c-1.066,2.028-2.268,4.24-3.6,6.64c-1.335,2.4-2.535,4.667-3.6,6.8c-0.025,0.035-0.053,0.059-0.078,0.092
	c-0.028,0.076-0.048,0.149-0.082,0.228c-1.815,3.84-3.975,7.868-6.48,12.08c-2.507,4.215-5.335,8.32-8.48,12.32
	c-3.147,4-6.48,7.68-10,11.04s-7.175,6.107-10.96,8.24c-3.788,2.135-7.655,3.52-11.6,4.16c-3.947,0.64-7.84,0.16-11.68-1.44
	c-4.268-1.705-7.333-4.185-9.2-7.44c-1.5-2.617-2.494-5.463-2.995-8.53l-22.204,5.25c-2.24,7.68-4.988,14.853-8.24,21.52
	c-3.255,6.665-6.96,12.72-11.12,18.16c-5.76,7.252-12.268,13.813-19.52,19.68c-7.255,5.865-15.095,10.824-23.52,14.881
	c-7.36,3.625-14.8,6.451-22.32,8.479c-7.52,2.025-14.748,3.146-21.68,3.361c-3.52,0-6.988-0.16-10.4-0.48
	c-3.415-0.32-6.455-0.961-9.12-1.92c-5.868-2.135-9.708-5.229-11.52-9.281c-3.627-7.359-3.255-14.773,1.12-22.239
	c4.373-7.467,13.013-14.775,25.92-21.92c10.985-5.868,25.172-11.735,42.56-17.6c6.4-2.132,12.985-4.185,19.76-6.16
	c6.772-1.973,13.625-3.865,20.56-5.68c1.065-3.413,1.973-6.853,2.72-10.32c0.745-3.465,1.385-7.065,1.92-10.8
	c1.92-12.373,2.345-23.76,1.28-34.16c-1.067-10.4-3.84-19.173-8.32-26.32c-3.948-6.292-8.72-11.04-14.32-14.24
	c-5.6-3.2-11.52-4.96-17.76-5.28c-6.24-0.32-12.455,0.667-18.64,2.96c-6.188,2.295-11.84,5.84-16.96,10.64
	c-4.16,3.84-7.895,8.188-11.2,13.04c-3.307,4.855-6.188,9.868-8.64,15.04c-2.455,5.175-4.455,10.268-6,15.28
	c-1.548,5.015-2.587,9.627-3.12,13.84c-0.535,4.215-0.56,7.84-0.08,10.88s1.52,5.147,3.12,6.32c1.705,1.28,2.212,2.64,1.52,4.08
	c-0.695,1.44-2.027,2.587-4,3.44c-1.975,0.855-4.32,1.175-7.04,0.96c-2.72-0.212-5.255-1.385-7.6-3.52
	c-3.627-3.305-5.812-7.785-6.56-13.44c-0.745-5.652-0.212-11.84,1.6-18.56c1.812-6.72,4.853-13.68,9.12-20.88
	c4.265-7.2,9.625-13.92,16.08-20.16c6.452-6.24,13.92-11.652,22.4-16.24c8.48-4.585,17.893-7.732,28.24-9.44
	c12.48-2.025,23.865-2.053,34.16-0.08c10.292,1.975,18.825,6.348,25.6,13.12c6.772,6.775,11.52,16.107,14.24,28
	c2.72,11.895,2.8,26.695,0.24,44.4c-0.32,2.455-0.72,4.828-1.2,7.12c-0.48,2.295-0.987,4.56-1.52,6.8l20.058-4.726
	c0.067-2.711,0.417-5.481,1.062-8.314c0.96-4.212,2.135-8.08,3.52-11.6c2.56-6.505,5.413-12.025,8.56-16.56
	c3.145-4.532,6.48-8.24,10-11.12c3.52-2.88,7.145-5.013,10.88-6.4c3.732-1.385,7.52-2.08,11.36-2.08c3.945,0,6.853,0.96,8.72,2.88
	c1.865,1.92,2.8,4.427,2.8,7.52c0,3.095-0.855,6.507-2.56,10.24c-1.708,3.735-4.135,7.388-7.28,10.96
	c-3.147,3.575-6.96,6.828-11.44,9.76c-4.48,2.935-9.495,5.147-15.04,6.64c-0.748,2.775-1.28,5.52-1.6,8.24
	c-0.32,2.72-0.375,5.2-0.16,7.44c0.212,2.24,0.72,4.107,1.52,5.6c0.8,1.495,2,2.4,3.6,2.72c2.345,0.427,4.88,0.08,7.6-1.04
	c2.72-1.12,5.492-2.8,8.32-5.04c2.825-2.24,5.6-4.853,8.32-7.84c2.72-2.985,5.28-6.132,7.68-9.44c2.4-3.305,4.533-6.585,6.4-9.84
	c1.763-3.074,3.158-5.927,4.208-8.574c0.053-0.3,0.162-0.614,0.351-0.946c0.853-1.812,1.652-3.44,2.4-4.88
	c0.745-1.44,1.493-2.8,2.24-4.08c0.745-1.28,1.44-2.585,2.08-3.92c0.64-1.333,1.333-2.745,2.08-4.24
	c-1.175-1.705-2.08-3.572-2.72-5.6c-0.64-2.025-0.96-4.16-0.96-6.4c0-0.96,0.185-2.16,0.56-3.6c0.373-1.44,1.013-2.88,1.92-4.32
	c0.905-1.44,2.16-2.665,3.761-3.68c1.6-1.013,3.68-1.52,6.239-1.52c2.665,0,4.612,0.587,5.84,1.76c1.226,1.175,1.893,2.667,2,4.48
	c0.105,1.815-0.268,3.815-1.119,6c-0.855,2.188-1.976,4.348-3.36,6.48l-0.48,0.96c4.16,4.8,7.493,9.388,10,13.76
	c2.505,4.375,4.4,8.535,5.681,12.48c1.279,3.947,2,7.627,2.16,11.04c0.159,3.415-0.136,6.615-0.881,9.6
	c3.521-4.052,6.665-8.052,9.44-12c1.977-2.812,3.697-5.512,5.187-8.108c1.112-2.659,2.232-5.279,3.371-7.812
	c1.652-3.68,3.093-7.012,4.32-10c1.225-2.985,2.08-5.492,2.56-7.52c0.48-2.025,0.346-3.412-0.399-4.16
	c-0.748-0.64-0.4-1.385,1.04-2.24c1.439-0.853,3.225-1.333,5.359-1.44c2.133-0.105,4.346,0.375,6.641,1.44
	c2.292,1.067,3.92,3.2,4.88,6.4c0.96,3.095,0.8,6.855-0.48,11.28c-1.279,4.427-3.067,9.04-5.359,13.84
	c-2.295,4.8-4.748,9.547-7.36,14.24c-2.615,4.695-4.8,8.88-6.56,12.56c-1.761,3.68-2.775,6.615-3.04,8.8
	c-0.268,2.188,0.825,3.175,3.279,2.96c1.065-0.105,2.426-0.96,4.08-2.56c1.653-1.6,3.493-3.652,5.521-6.16
	c2.024-2.505,4.104-5.305,6.24-8.4c2.132-3.092,4.159-6.185,6.08-9.28c1.92-3.093,3.625-6.025,5.119-8.8
	c0.2-0.372,0.373-0.713,0.558-1.067c2.499-6.25,5.271-11.635,8.321-16.132c3.146-4.64,6.48-8.425,10-11.36
	c3.521-2.932,7.146-5.04,10.88-6.32c3.733-1.28,7.521-1.865,11.36-1.76c1.28,0.107,2.64,0.347,4.08,0.72
	c1.44,0.375,2.772,0.988,4,1.84c1.225,0.855,2.265,2,3.12,3.44c0.853,1.44,1.28,3.228,1.28,5.36c0,2.135-0.48,3.68-1.44,4.64
	c-0.854,1.067-2.027,1.6-3.52,1.6c-1.28,0-2.428-0.425-3.44-1.28c-1.015-0.853-1.52-1.973-1.52-3.36c0-0.853,0.239-1.653,0.72-2.4
	c0.479-0.745,1.093-1.385,1.84-1.92c-0.535-1.28-1.388-1.92-2.56-1.92c-1.495-0.105-3.148,0.56-4.961,2
	c-1.814,1.44-3.76,3.52-5.84,6.24c-2.08,2.72-4.239,6.08-6.479,10.08s-4.48,8.455-6.72,13.36c-1.388,3.095-2.535,6.427-3.44,10
	c-0.907,3.575-1.415,6.987-1.521,10.24c-0.107,3.255,0.213,6.108,0.961,8.56c0.744,2.455,2.079,4.055,4,4.8
	c2.345,0.96,4.852,0.08,7.52-2.64c2.665-2.72,5.332-6.32,8-10.8c2.665-4.48,5.253-9.305,7.76-14.48
	c2.505-5.172,4.825-9.732,6.96-13.68c0-0.32,0.053-0.533,0.16-0.64c2.88-6.825,5.093-12.64,6.64-17.44
	c1.546-4.8,1.893-7.785,1.04-8.96c-0.534-0.64-0.055-1.385,1.44-2.24c1.492-0.853,3.36-1.333,5.6-1.44
	c2.24-0.105,4.453,0.428,6.641,1.6c2.185,1.175,3.76,3.415,4.72,6.72c0.532,1.815,0.265,4.72-0.8,8.72
	c-1.067,4-2.561,8.508-4.48,13.52c-1.92,5.015-4.107,10.268-6.56,15.76c-2.455,5.495-4.8,10.667-7.04,15.52
	c-2.24,4.855-4.215,9.095-5.92,12.72c-1.708,3.627-2.775,6.133-3.2,7.52c3.84-2.56,7.84-6.16,12-10.8
	c4.16-4.64,8.053-9.493,11.68-14.56c3.625-5.065,6.825-10,9.601-14.8c1.029-1.783,1.94-3.432,2.735-4.949
	c0.364-0.829,0.727-1.656,1.104-2.491c2.24-4.96,4.265-9.52,6.08-13.68c1.812-4.16,3.145-7.732,4-10.72
	c0.853-2.985,0.853-4.905,0-5.76c-0.748-0.64-0.4-1.385,1.04-2.24c1.439-0.853,3.252-1.333,5.439-1.44
	c2.186-0.105,4.4,0.375,6.641,1.44c2.239,1.067,3.84,3.2,4.8,6.4c0.425,1.388,0.585,2.908,0.479,4.56
	c-0.107,1.655-0.375,3.388-0.8,5.2c2.025-2.345,4.08-4.585,6.16-6.72c2.08-2.132,4.186-4,6.32-5.6c2.132-1.6,4.212-2.88,6.24-3.84
	c2.024-0.96,4-1.44,5.92-1.44c4.159-0.105,7.252,1.708,9.279,5.44c2.025,3.735,2.665,8.535,1.92,14.4
	c-0.215,3.627-1.015,7.44-2.399,11.44c-1.388,4-2.96,7.92-4.72,11.76c-1.761,3.84-3.521,7.495-5.28,10.96
	c-1.76,3.467-3.12,6.48-4.08,9.04s-1.36,4.615-1.2,6.16c0.16,1.547,1.305,2.32,3.44,2.32c0.96,0,2.292-0.772,4-2.32
	c1.705-1.545,3.572-3.573,5.6-6.08c2.025-2.505,4.133-5.333,6.32-8.48c2.185-3.145,4.239-6.265,6.16-9.36
	c1.92-3.092,3.625-6.052,5.119-8.88c1.493-2.825,2.561-5.145,3.2-6.96c0.32-0.853,0.853-1.385,1.601-1.6
	c0.745-0.212,1.439-0.212,2.08,0c0.64,0.215,1.145,0.64,1.52,1.28C506.256,100.872,506.229,101.567,505.804,102.312z
	 M204.209,112.392c6.4-2.24,11.652-5.305,15.76-9.2c4.105-3.893,7.172-7.732,9.2-11.52c2.025-3.785,3.065-7.065,3.12-9.84
	c0.053-2.773-0.88-4.213-2.8-4.32c-2.88-0.105-6.507,2.667-10.88,8.32c-4.375,5.655-8.748,13.44-13.12,23.36
	C204.954,110.367,204.529,111.432,204.209,112.392z M130.13,145.992c-6.507,1.708-12.88,3.495-19.12,5.36
	c-6.24,1.865-12.295,3.76-18.16,5.68c-35.735,11.84-57.068,23.785-64,35.839c-3.095,5.227-3.308,10.613-0.64,16.16
	c1.493,3.094,3.545,5.281,6.16,6.561c2.612,1.279,5.52,1.92,8.72,1.92c3.2,0,6.585-0.48,10.16-1.439
	c3.572-0.961,7.065-2.135,10.48-3.52c3.413-1.389,6.612-2.855,9.6-4.4c2.985-1.549,5.545-2.961,7.68-4.24
	c11.625-6.828,21.573-14.96,29.84-24.4C119.115,170.072,125.542,158.897,130.13,145.992z M355.885,172.712
	c-1.6,1.28-3.415,2.4-5.44,3.36c-2.027,0.96-4.055,1.92-6.079,2.88c-2.028,0.96-3.976,2.025-5.841,3.2
	c-1.864,1.172-3.385,2.56-4.56,4.16c-0.745,1.065-1.04,2.24-0.88,3.52c0.16,1.279,0.64,2.424,1.439,3.439
	c0.801,1.014,1.815,1.785,3.04,2.32c1.228,0.533,2.585,0.586,4.08,0.16c1.493-0.428,3.04-1.467,4.641-3.121
	c1.6-1.654,3.092-4.187,4.479-7.599c0.641-1.495,1.413-3.255,2.32-5.28C353.99,177.724,354.925,175.377,355.885,172.712z"
	style="fill:#444444;fill-opacity:1;stroke:none;stroke-width:0.44999999;stroke-linecap:butt;stroke-linejoin:miter;stroke-miterlimit:4;stroke-dasharray:none;stroke-opacity:1"
	/>
</svg>
