<?xml version="1.0" encoding="utf-8"?>
<!-- Generator: Adobe Illustrator 16.0.0, SVG Export Plug-In . SVG Version: 6.00 Build 0)  -->
<!DOCTYPE svg PUBLIC "-//W3C//DTD SVG 1.1//EN" "http://www.w3.org/Graphics/SVG/1.1/DTD/svg11.dtd">
<svg version="1.1" id="Layer_1" xmlns="http://www.w3.org/2000/svg" xmlns:xlink="http://www.w3.org/1999/xlink" x="0px" y="0px"
	 width="512px" height="512px" viewBox="0 0 512 512" enable-background="new 0 0 512 512" xml:space="preserve">
<polygon points="59.281,267.55 59.281,320.817 43.084,320.817 43.084,267.55 24.127,267.55 24.127,253.72 78.239,253.72
	78.239,267.55 "/>
<path d="M139.942,320.817l-14.563-26.633h-5.521v26.633h-15.845v-67.11h25.591c3.225,0,6.366,0.338,9.437,0.999
	c3.056,0.662,5.817,1.789,8.239,3.367c2.437,1.577,4.38,3.662,5.831,6.254s2.183,5.815,2.183,9.659c0,4.549-1.24,8.381-3.689,11.468
	c-2.465,3.097-5.874,5.309-10.24,6.631l17.535,28.719L139.942,320.817L139.942,320.817z M139.28,274.283
	c0-1.577-0.338-2.859-1-3.844c-0.662-0.984-1.521-1.731-2.578-2.281c-1.042-0.535-2.226-0.901-3.521-1.086
	c-1.295-0.183-2.549-0.28-3.76-0.28h-8.662v15.634h7.718c1.338,0,2.704-0.113,4.099-0.338s2.662-0.618,3.816-1.184
	c1.141-0.562,2.084-1.393,2.817-2.464C138.914,277.382,139.28,275.988,139.28,274.283"/>
<polygon points="184.492,320.817 184.492,253.72 229.603,253.72 229.603,267.369 200.125,267.369 200.125,280.058 227.997,280.058
	227.997,293.044 200.125,293.044 200.125,306.986 231.306,306.986 231.306,320.817 "/>
<polygon points="295.659,320.817 279.461,320.817 254.052,253.72 272.25,253.72 287.799,301.297 288.179,301.297 303.63,253.72
	321.545,253.72 "/>
<path d="M469.585,320.817l-14.562-26.633h-5.521v26.633h-15.832v-67.11h25.592c3.224,0,6.366,0.338,9.436,0.999
	c3.07,0.662,5.818,1.789,8.238,3.367c2.424,1.577,4.382,3.662,5.832,6.254c1.449,2.589,2.184,5.815,2.184,9.659
	c0,4.549-1.226,8.381-3.69,11.468c-2.466,3.097-5.873,5.309-10.239,6.631l17.533,28.719L469.585,320.817L469.585,320.817z
	 M468.921,274.283c0-1.577-0.338-2.859-0.998-3.844c-0.662-0.984-1.521-1.731-2.577-2.281c-1.043-0.535-2.226-0.901-3.521-1.086
	c-1.295-0.183-2.563-0.28-3.761-0.28h-8.662v15.634h7.72c1.333,0,2.703-0.113,4.093-0.338c1.395-0.225,2.665-0.618,3.805-1.184
	c1.142-0.564,2.084-1.393,2.816-2.464C468.556,277.382,468.921,275.988,468.921,274.283"/>
<path d="M82.887,393.563c0,3.661-0.732,6.746-2.183,9.239s-3.381,4.507-5.79,6.014c-2.408,1.521-5.14,2.607-8.196,3.269
	c-3.071,0.66-6.211,0.998-9.437,0.998H30.564v-67.097h26.732c2.591,0,5.239,0.269,7.958,0.803c2.719,0.535,5.183,1.452,7.394,2.747
	c2.211,1.297,4.014,3.057,5.408,5.269c1.395,2.209,2.084,5.025,2.084,8.435c0,3.729-1.014,6.802-3.028,9.239
	c-2.027,2.436-4.675,4.185-7.957,5.269v0.184c1.901,0.308,3.676,0.899,5.352,1.744c1.675,0.859,3.127,1.944,4.352,3.268
	c1.239,1.324,2.211,2.873,2.944,4.648C82.521,389.366,82.887,391.351,82.887,393.563 M64.493,365.409
	c0-2.267-0.873-3.931-2.606-4.972c-1.732-1.042-4.31-1.564-7.718-1.564h-7.958v13.845h8.718c3.028,0,5.381-0.617,7.057-1.844
	C63.662,369.633,64.493,367.817,64.493,365.409 M66.676,392.042c0-2.775-1.042-4.704-3.126-5.787
	c-2.085-1.072-4.873-1.606-8.338-1.606h-9V400h9.098c1.268,0,2.578-0.112,3.93-0.324c1.352-0.226,2.591-0.619,3.69-1.183
	c1.099-0.564,2-1.381,2.705-2.424C66.338,395.024,66.676,393.69,66.676,392.042"/>
<polygon points="106.478,413.083 106.478,345.986 151.59,345.986 151.59,359.634 122.112,359.634 122.112,372.325 149.97,372.325
	149.97,385.309 122.112,385.309 122.112,399.239 153.293,399.239 153.293,413.083 "/>
<path d="M225.405,413.083l-5.21-13.167h-25.973l-4.929,13.167H171.66l28.155-67.097h15.731l27.859,67.097H225.405z M207.407,363.901
	l-8.536,23.027h16.873L207.407,363.901z"/>
<polygon points="286.165,359.816 286.165,413.083 269.968,413.083 269.968,359.816 253.87,359.816 253.87,345.986 302.277,345.986
	302.277,359.816 "/>
<polygon points="353.855,359.816 353.855,413.083 337.659,413.083 337.659,359.816 321.545,359.816 321.545,345.986
	369.953,345.986 369.953,359.816 "/>
<rect x="395.881" y="345.986" width="16.294" height="67.097"
	style="fill:#000000;fill-opacity:1;stroke:none;stroke-width:0.44999999;stroke-linecap:butt;stroke-linejoin:miter;stroke-miterlimit:4;stroke-dasharray:none;stroke-opacity:1"
	/>
<polygon points="439.374,413.083 439.374,345.986 484.487,345.986 484.487,359.634 455.009,359.634 455.009,372.325 482.88,372.325
	482.88,385.309 455.009,385.309 455.009,399.239 486.189,399.239 486.189,413.083 "/>
<polygon points="46.591,452.083 46.591,465.928 72.549,465.928 72.549,479.279 46.591,479.279 46.591,505.349 30.564,505.349
	30.564,438.253 74.732,438.253 74.732,452.083 "/>
<rect x="101.788" y="438.253" width="16.295" height="67.096"
	style="fill:#000000;fill-opacity:1;stroke:none;stroke-width:0.44999999;stroke-linecap:butt;stroke-linejoin:miter;stroke-miterlimit:4;stroke-dasharray:none;stroke-opacity:1"
	/>
<polygon points="149.773,505.349 149.773,438.253 166.083,438.253 166.083,491.224 192.053,491.224 192.053,505.349 "/>
<polygon points="277.109,505.349 277.489,457.872 277.194,457.872 259.757,505.349 248.376,505.349 231.419,457.872
	231.138,457.872 231.517,505.349 216.25,505.349 216.25,438.253 239.307,438.253 254.588,481.279 254.968,481.279 269.589,438.253
	293.024,438.253 293.024,505.349 "/>
<path d="M359.093,455.688c-1.395-1.774-3.211-3.169-5.45-4.211c-2.239-1.04-4.409-1.562-6.494-1.562
	c-1.069,0-2.169,0.098-3.267,0.281c-1.113,0.197-2.099,0.55-2.986,1.087c-0.886,0.534-1.635,1.238-2.226,2.083
	c-0.605,0.847-0.899,1.942-0.899,3.266c0,1.143,0.239,2.084,0.704,2.847c0.479,0.761,1.168,1.425,2.084,1.985
	c0.914,0.562,1.999,1.087,3.267,1.562c1.267,0.479,2.689,0.959,4.267,1.464c2.269,0.762,4.648,1.593,7.113,2.507
	c2.464,0.915,4.704,2.128,6.731,3.649c2.016,1.52,3.69,3.394,5.028,5.634c1.323,2.238,1.983,5.041,1.983,8.394
	c0,3.858-0.705,7.182-2.127,9.998c-1.422,2.817-3.337,5.142-5.732,6.974c-2.406,1.83-5.152,3.185-8.238,4.071
	c-3.098,0.887-6.296,1.323-9.577,1.323c-4.802,0-9.45-0.831-13.93-2.506c-4.492-1.678-8.21-4.058-11.183-7.154l10.619-10.804
	c1.647,2.028,3.803,3.718,6.492,5.07c2.69,1.353,5.353,2.043,8.016,2.043c1.197,0,2.366-0.127,3.505-0.382
	c1.142-0.255,2.13-0.662,2.986-1.227c0.856-0.561,1.535-1.321,2.043-2.279c0.505-0.944,0.758-2.084,0.758-3.409
	c0-1.268-0.311-2.337-0.943-3.227c-0.632-0.887-1.535-1.688-2.704-2.422c-1.168-0.719-2.618-1.395-4.366-1.985
	c-1.732-0.592-3.718-1.241-5.93-1.945c-2.153-0.69-4.252-1.521-6.311-2.464c-2.055-0.943-3.887-2.168-5.49-3.648
	c-1.606-1.492-2.902-3.281-3.887-5.407c-0.986-2.113-1.467-4.69-1.467-7.733c0-3.73,0.763-6.915,2.281-9.577
	c1.521-2.647,3.507-4.83,5.971-6.534c2.466-1.704,5.241-2.957,8.338-3.746c3.101-0.79,6.226-1.184,9.382-1.184
	c3.788,0,7.661,0.69,11.605,2.085c3.944,1.392,7.407,3.449,10.38,6.152L359.093,455.688z"/>
<path d="M26.254,193.256l31.098,30.774h42.521l-41.9-41.464H30.958C30.958,186.482,29.212,190.129,26.254,193.256"/>
<polygon points="142.351,224.031 184.857,224.031 142.956,182.567 100.436,182.567 "/>
<polygon points="227.321,224.031 269.841,224.031 227.94,182.567 185.42,182.567 "/>
<polygon points="312.306,224.031 354.826,224.031 312.912,182.567 270.405,182.567 "/>
<polygon points="397.291,224.031 439.811,224.031 397.896,182.567 355.376,182.567 "/>
<polygon points="440.361,182.567 481.951,223.72 481.951,182.567 "/>
<path d="M22.648,170.412l20.14-38.844l40.464-13.07l-27.126,52.337l-25.719,8.31C29.197,175.412,26.423,172.469,22.648,170.412"/>
<polygon points="123.661,105.441 164.111,92.371 136.985,144.708 96.521,157.778 "/>
<polygon points="204.519,79.315 244.982,66.259 217.842,118.596 177.392,131.666 "/>
<polygon points="285.389,53.203 325.854,40.132 298.714,92.47 258.25,105.54 "/>
<polygon points="366.263,27.076 406.712,14.006 379.586,66.357 339.121,79.414 "/>
<polygon points="419.994,53.301 446.924,1.358 459.569,40.513 "/>
<path d="M410.5,286.691c0,5.281-0.914,10.113-2.73,14.493c-1.831,4.38-4.352,8.113-7.606,11.237
	c-3.253,3.129-7.098,5.521-11.562,7.227c-4.464,1.706-9.309,2.55-14.535,2.55c-5.226,0-10.057-0.844-14.491-2.55
	c-4.438-1.705-8.282-4.113-11.523-7.227c-3.237-3.112-5.773-6.857-7.591-11.237c-1.83-4.38-2.733-9.212-2.733-14.493
	c0-5.351,0.917-10.183,2.733-14.492c1.817-4.31,4.354-7.972,7.591-11c3.241-3.028,7.085-5.354,11.523-6.987
	c4.435-1.633,9.266-2.45,14.491-2.45c5.227,0,10.071,0.817,14.535,2.45c4.465,1.634,8.324,3.959,11.562,6.987
	c3.24,3.015,5.777,6.69,7.606,11C409.585,276.523,410.5,281.354,410.5,286.691 M393.219,286.691c0-2.886-0.465-5.604-1.408-8.113
	c-0.943-2.52-2.253-4.676-3.915-6.464c-1.662-1.791-3.675-3.21-6.043-4.255c-2.366-1.041-4.957-1.563-7.788-1.563
	c-2.828,0-5.408,0.522-7.746,1.563c-2.323,1.042-4.336,2.45-6.041,4.255c-1.705,1.788-3,3.944-3.916,6.464
	c-0.914,2.522-1.365,5.228-1.365,8.113c0,3.028,0.463,5.804,1.408,8.353c0.943,2.549,2.253,4.732,3.914,6.563
	c1.664,1.831,3.663,3.253,6,4.295c2.324,1.043,4.916,1.563,7.746,1.563c2.833,0,5.409-0.521,7.747-1.563
	c2.324-1.042,4.338-2.464,6.04-4.295c1.706-1.831,3.017-4.015,3.973-6.563C392.754,292.508,393.219,289.719,393.219,286.691"/>
</svg>
